<?xml version="1.0" encoding="utf-8" standalone="no"?>
<!DOCTYPE svg PUBLIC "-//W3C//DTD SVG 1.1//EN"
  "http://www.w3.org/Graphics/SVG/1.1/DTD/svg11.dtd">
<svg xmlns:xlink="http://www.w3.org/1999/xlink" width="1378.08pt" height="691.2pt" viewBox="0 0 1378.08 691.2" xmlns="http://www.w3.org/2000/svg" version="1.1">
 <metadata>
  <rdf:RDF xmlns:dc="http://purl.org/dc/elements/1.1/" xmlns:cc="http://creativecommons.org/ns#" xmlns:rdf="http://www.w3.org/1999/02/22-rdf-syntax-ns#">
   <cc:Work>
    <dc:type rdf:resource="http://purl.org/dc/dcmitype/StillImage"/>
    <dc:date>2025-07-29T17:16:42.907227</dc:date>
    <dc:format>image/svg+xml</dc:format>
    <dc:creator>
     <cc:Agent>
      <dc:title>Matplotlib v3.10.3, https://matplotlib.org/</dc:title>
     </cc:Agent>
    </dc:creator>
   </cc:Work>
  </rdf:RDF>
 </metadata>
 <defs>
  <style type="text/css">*{stroke-linejoin: round; stroke-linecap: butt}</style>
 </defs>
 <g id="figure_1">
  <g id="patch_1">
   <path d="M 0 691.2 
L 1378.08 691.2 
L 1378.08 0 
L 0 0 
z
" style="fill: #ffffff"/>
  </g>
  <g id="axes_1">
   <g id="patch_2">
    <path d="M 172.26 615.168 
L 1240.272 615.168 
L 1240.272 82.944 
L 172.26 82.944 
z
" style="fill: #ffffff"/>
   </g>
   <g id="matplotlib.axis_1">
    <g id="xtick_1">
     <g id="line2d_1">
      <defs>
       <path id="ma347124188" d="M 0 0 
L 0 3.5 
" style="stroke: #000000; stroke-width: 0.8"/>
      </defs>
      <g>
       <use xlink:href="#ma347124188" x="220.806" y="615.168" style="stroke: #000000; stroke-width: 0.8"/>
      </g>
     </g>
     <g id="text_1">
      <!-- 0 -->
      <g transform="translate(217.62475 629.766437) scale(0.1 -0.1)">
       <defs>
        <path id="DejaVuSans-30" d="M 2034 4250 
Q 1547 4250 1301 3770 
Q 1056 3291 1056 2328 
Q 1056 1369 1301 889 
Q 1547 409 2034 409 
Q 2525 409 2770 889 
Q 3016 1369 3016 2328 
Q 3016 3291 2770 3770 
Q 2525 4250 2034 4250 
z
M 2034 4750 
Q 2819 4750 3233 4129 
Q 3647 3509 3647 2328 
Q 3647 1150 3233 529 
Q 2819 -91 2034 -91 
Q 1250 -91 836 529 
Q 422 1150 422 2328 
Q 422 3509 836 4129 
Q 1250 4750 2034 4750 
z
" transform="scale(0.015625)"/>
       </defs>
       <use xlink:href="#DejaVuSans-30"/>
      </g>
     </g>
    </g>
    <g id="xtick_2">
     <g id="line2d_2">
      <g>
       <use xlink:href="#ma347124188" x="414.99" y="615.168" style="stroke: #000000; stroke-width: 0.8"/>
      </g>
     </g>
     <g id="text_2">
      <!-- 2 -->
      <g transform="translate(411.80875 629.766437) scale(0.1 -0.1)">
       <defs>
        <path id="DejaVuSans-32" d="M 1228 531 
L 3431 531 
L 3431 0 
L 469 0 
L 469 531 
Q 828 903 1448 1529 
Q 2069 2156 2228 2338 
Q 2531 2678 2651 2914 
Q 2772 3150 2772 3378 
Q 2772 3750 2511 3984 
Q 2250 4219 1831 4219 
Q 1534 4219 1204 4116 
Q 875 4013 500 3803 
L 500 4441 
Q 881 4594 1212 4672 
Q 1544 4750 1819 4750 
Q 2544 4750 2975 4387 
Q 3406 4025 3406 3419 
Q 3406 3131 3298 2873 
Q 3191 2616 2906 2266 
Q 2828 2175 2409 1742 
Q 1991 1309 1228 531 
z
" transform="scale(0.015625)"/>
       </defs>
       <use xlink:href="#DejaVuSans-32"/>
      </g>
     </g>
    </g>
    <g id="xtick_3">
     <g id="line2d_3">
      <g>
       <use xlink:href="#ma347124188" x="609.174" y="615.168" style="stroke: #000000; stroke-width: 0.8"/>
      </g>
     </g>
     <g id="text_3">
      <!-- 4 -->
      <g transform="translate(605.99275 629.766437) scale(0.1 -0.1)">
       <defs>
        <path id="DejaVuSans-34" d="M 2419 4116 
L 825 1625 
L 2419 1625 
L 2419 4116 
z
M 2253 4666 
L 3047 4666 
L 3047 1625 
L 3713 1625 
L 3713 1100 
L 3047 1100 
L 3047 0 
L 2419 0 
L 2419 1100 
L 313 1100 
L 313 1709 
L 2253 4666 
z
" transform="scale(0.015625)"/>
       </defs>
       <use xlink:href="#DejaVuSans-34"/>
      </g>
     </g>
    </g>
    <g id="xtick_4">
     <g id="line2d_4">
      <g>
       <use xlink:href="#ma347124188" x="803.358" y="615.168" style="stroke: #000000; stroke-width: 0.8"/>
      </g>
     </g>
     <g id="text_4">
      <!-- 6 -->
      <g transform="translate(800.17675 629.766437) scale(0.1 -0.1)">
       <defs>
        <path id="DejaVuSans-36" d="M 2113 2584 
Q 1688 2584 1439 2293 
Q 1191 2003 1191 1497 
Q 1191 994 1439 701 
Q 1688 409 2113 409 
Q 2538 409 2786 701 
Q 3034 994 3034 1497 
Q 3034 2003 2786 2293 
Q 2538 2584 2113 2584 
z
M 3366 4563 
L 3366 3988 
Q 3128 4100 2886 4159 
Q 2644 4219 2406 4219 
Q 1781 4219 1451 3797 
Q 1122 3375 1075 2522 
Q 1259 2794 1537 2939 
Q 1816 3084 2150 3084 
Q 2853 3084 3261 2657 
Q 3669 2231 3669 1497 
Q 3669 778 3244 343 
Q 2819 -91 2113 -91 
Q 1303 -91 875 529 
Q 447 1150 447 2328 
Q 447 3434 972 4092 
Q 1497 4750 2381 4750 
Q 2619 4750 2861 4703 
Q 3103 4656 3366 4563 
z
" transform="scale(0.015625)"/>
       </defs>
       <use xlink:href="#DejaVuSans-36"/>
      </g>
     </g>
    </g>
    <g id="xtick_5">
     <g id="line2d_5">
      <g>
       <use xlink:href="#ma347124188" x="997.542" y="615.168" style="stroke: #000000; stroke-width: 0.8"/>
      </g>
     </g>
     <g id="text_5">
      <!-- 8 -->
      <g transform="translate(994.36075 629.766437) scale(0.1 -0.1)">
       <defs>
        <path id="DejaVuSans-38" d="M 2034 2216 
Q 1584 2216 1326 1975 
Q 1069 1734 1069 1313 
Q 1069 891 1326 650 
Q 1584 409 2034 409 
Q 2484 409 2743 651 
Q 3003 894 3003 1313 
Q 3003 1734 2745 1975 
Q 2488 2216 2034 2216 
z
M 1403 2484 
Q 997 2584 770 2862 
Q 544 3141 544 3541 
Q 544 4100 942 4425 
Q 1341 4750 2034 4750 
Q 2731 4750 3128 4425 
Q 3525 4100 3525 3541 
Q 3525 3141 3298 2862 
Q 3072 2584 2669 2484 
Q 3125 2378 3379 2068 
Q 3634 1759 3634 1313 
Q 3634 634 3220 271 
Q 2806 -91 2034 -91 
Q 1263 -91 848 271 
Q 434 634 434 1313 
Q 434 1759 690 2068 
Q 947 2378 1403 2484 
z
M 1172 3481 
Q 1172 3119 1398 2916 
Q 1625 2713 2034 2713 
Q 2441 2713 2670 2916 
Q 2900 3119 2900 3481 
Q 2900 3844 2670 4047 
Q 2441 4250 2034 4250 
Q 1625 4250 1398 4047 
Q 1172 3844 1172 3481 
z
" transform="scale(0.015625)"/>
       </defs>
       <use xlink:href="#DejaVuSans-38"/>
      </g>
     </g>
    </g>
    <g id="xtick_6">
     <g id="line2d_6">
      <g>
       <use xlink:href="#ma347124188" x="1191.726" y="615.168" style="stroke: #000000; stroke-width: 0.8"/>
      </g>
     </g>
     <g id="text_6">
      <!-- 10 -->
      <g transform="translate(1185.3635 629.766437) scale(0.1 -0.1)">
       <defs>
        <path id="DejaVuSans-31" d="M 794 531 
L 1825 531 
L 1825 4091 
L 703 3866 
L 703 4441 
L 1819 4666 
L 2450 4666 
L 2450 531 
L 3481 531 
L 3481 0 
L 794 0 
L 794 531 
z
" transform="scale(0.015625)"/>
       </defs>
       <use xlink:href="#DejaVuSans-31"/>
       <use xlink:href="#DejaVuSans-30" transform="translate(63.623047 0)"/>
      </g>
     </g>
    </g>
   </g>
   <g id="matplotlib.axis_2">
    <g id="ytick_1">
     <g id="line2d_7">
      <defs>
       <path id="m05b26b1827" d="M 0 0 
L -3.5 0 
" style="stroke: #000000; stroke-width: 0.8"/>
      </defs>
      <g>
       <use xlink:href="#m05b26b1827" x="172.26" y="590.976" style="stroke: #000000; stroke-width: 0.8"/>
      </g>
     </g>
     <g id="text_7">
      <!-- −1.00 -->
      <g transform="translate(134.614688 594.775219) scale(0.1 -0.1)">
       <defs>
        <path id="DejaVuSans-2212" d="M 678 2272 
L 4684 2272 
L 4684 1741 
L 678 1741 
L 678 2272 
z
" transform="scale(0.015625)"/>
        <path id="DejaVuSans-2e" d="M 684 794 
L 1344 794 
L 1344 0 
L 684 0 
L 684 794 
z
" transform="scale(0.015625)"/>
       </defs>
       <use xlink:href="#DejaVuSans-2212"/>
       <use xlink:href="#DejaVuSans-31" transform="translate(83.789062 0)"/>
       <use xlink:href="#DejaVuSans-2e" transform="translate(147.412109 0)"/>
       <use xlink:href="#DejaVuSans-30" transform="translate(179.199219 0)"/>
       <use xlink:href="#DejaVuSans-30" transform="translate(242.822266 0)"/>
      </g>
     </g>
    </g>
    <g id="ytick_2">
     <g id="line2d_8">
      <g>
       <use xlink:href="#m05b26b1827" x="172.26" y="530.496" style="stroke: #000000; stroke-width: 0.8"/>
      </g>
     </g>
     <g id="text_8">
      <!-- −0.75 -->
      <g transform="translate(134.614688 534.295219) scale(0.1 -0.1)">
       <defs>
        <path id="DejaVuSans-37" d="M 525 4666 
L 3525 4666 
L 3525 4397 
L 1831 0 
L 1172 0 
L 2766 4134 
L 525 4134 
L 525 4666 
z
" transform="scale(0.015625)"/>
        <path id="DejaVuSans-35" d="M 691 4666 
L 3169 4666 
L 3169 4134 
L 1269 4134 
L 1269 2991 
Q 1406 3038 1543 3061 
Q 1681 3084 1819 3084 
Q 2600 3084 3056 2656 
Q 3513 2228 3513 1497 
Q 3513 744 3044 326 
Q 2575 -91 1722 -91 
Q 1428 -91 1123 -41 
Q 819 9 494 109 
L 494 744 
Q 775 591 1075 516 
Q 1375 441 1709 441 
Q 2250 441 2565 725 
Q 2881 1009 2881 1497 
Q 2881 1984 2565 2268 
Q 2250 2553 1709 2553 
Q 1456 2553 1204 2497 
Q 953 2441 691 2322 
L 691 4666 
z
" transform="scale(0.015625)"/>
       </defs>
       <use xlink:href="#DejaVuSans-2212"/>
       <use xlink:href="#DejaVuSans-30" transform="translate(83.789062 0)"/>
       <use xlink:href="#DejaVuSans-2e" transform="translate(147.412109 0)"/>
       <use xlink:href="#DejaVuSans-37" transform="translate(179.199219 0)"/>
       <use xlink:href="#DejaVuSans-35" transform="translate(242.822266 0)"/>
      </g>
     </g>
    </g>
    <g id="ytick_3">
     <g id="line2d_9">
      <g>
       <use xlink:href="#m05b26b1827" x="172.26" y="470.016" style="stroke: #000000; stroke-width: 0.8"/>
      </g>
     </g>
     <g id="text_9">
      <!-- −0.50 -->
      <g transform="translate(134.614688 473.815219) scale(0.1 -0.1)">
       <use xlink:href="#DejaVuSans-2212"/>
       <use xlink:href="#DejaVuSans-30" transform="translate(83.789062 0)"/>
       <use xlink:href="#DejaVuSans-2e" transform="translate(147.412109 0)"/>
       <use xlink:href="#DejaVuSans-35" transform="translate(179.199219 0)"/>
       <use xlink:href="#DejaVuSans-30" transform="translate(242.822266 0)"/>
      </g>
     </g>
    </g>
    <g id="ytick_4">
     <g id="line2d_10">
      <g>
       <use xlink:href="#m05b26b1827" x="172.26" y="409.536" style="stroke: #000000; stroke-width: 0.8"/>
      </g>
     </g>
     <g id="text_10">
      <!-- −0.25 -->
      <g transform="translate(134.614688 413.335219) scale(0.1 -0.1)">
       <use xlink:href="#DejaVuSans-2212"/>
       <use xlink:href="#DejaVuSans-30" transform="translate(83.789062 0)"/>
       <use xlink:href="#DejaVuSans-2e" transform="translate(147.412109 0)"/>
       <use xlink:href="#DejaVuSans-32" transform="translate(179.199219 0)"/>
       <use xlink:href="#DejaVuSans-35" transform="translate(242.822266 0)"/>
      </g>
     </g>
    </g>
    <g id="ytick_5">
     <g id="line2d_11">
      <g>
       <use xlink:href="#m05b26b1827" x="172.26" y="349.056" style="stroke: #000000; stroke-width: 0.8"/>
      </g>
     </g>
     <g id="text_11">
      <!-- 0.00 -->
      <g transform="translate(142.994375 352.855219) scale(0.1 -0.1)">
       <use xlink:href="#DejaVuSans-30"/>
       <use xlink:href="#DejaVuSans-2e" transform="translate(63.623047 0)"/>
       <use xlink:href="#DejaVuSans-30" transform="translate(95.410156 0)"/>
       <use xlink:href="#DejaVuSans-30" transform="translate(159.033203 0)"/>
      </g>
     </g>
    </g>
    <g id="ytick_6">
     <g id="line2d_12">
      <g>
       <use xlink:href="#m05b26b1827" x="172.26" y="288.576" style="stroke: #000000; stroke-width: 0.8"/>
      </g>
     </g>
     <g id="text_12">
      <!-- 0.25 -->
      <g transform="translate(142.994375 292.375219) scale(0.1 -0.1)">
       <use xlink:href="#DejaVuSans-30"/>
       <use xlink:href="#DejaVuSans-2e" transform="translate(63.623047 0)"/>
       <use xlink:href="#DejaVuSans-32" transform="translate(95.410156 0)"/>
       <use xlink:href="#DejaVuSans-35" transform="translate(159.033203 0)"/>
      </g>
     </g>
    </g>
    <g id="ytick_7">
     <g id="line2d_13">
      <g>
       <use xlink:href="#m05b26b1827" x="172.26" y="228.096" style="stroke: #000000; stroke-width: 0.8"/>
      </g>
     </g>
     <g id="text_13">
      <!-- 0.50 -->
      <g transform="translate(142.994375 231.895219) scale(0.1 -0.1)">
       <use xlink:href="#DejaVuSans-30"/>
       <use xlink:href="#DejaVuSans-2e" transform="translate(63.623047 0)"/>
       <use xlink:href="#DejaVuSans-35" transform="translate(95.410156 0)"/>
       <use xlink:href="#DejaVuSans-30" transform="translate(159.033203 0)"/>
      </g>
     </g>
    </g>
    <g id="ytick_8">
     <g id="line2d_14">
      <g>
       <use xlink:href="#m05b26b1827" x="172.26" y="167.616" style="stroke: #000000; stroke-width: 0.8"/>
      </g>
     </g>
     <g id="text_14">
      <!-- 0.75 -->
      <g transform="translate(142.994375 171.415219) scale(0.1 -0.1)">
       <use xlink:href="#DejaVuSans-30"/>
       <use xlink:href="#DejaVuSans-2e" transform="translate(63.623047 0)"/>
       <use xlink:href="#DejaVuSans-37" transform="translate(95.410156 0)"/>
       <use xlink:href="#DejaVuSans-35" transform="translate(159.033203 0)"/>
      </g>
     </g>
    </g>
    <g id="ytick_9">
     <g id="line2d_15">
      <g>
       <use xlink:href="#m05b26b1827" x="172.26" y="107.136" style="stroke: #000000; stroke-width: 0.8"/>
      </g>
     </g>
     <g id="text_15">
      <!-- 1.00 -->
      <g transform="translate(142.994375 110.935219) scale(0.1 -0.1)">
       <use xlink:href="#DejaVuSans-31"/>
       <use xlink:href="#DejaVuSans-2e" transform="translate(63.623047 0)"/>
       <use xlink:href="#DejaVuSans-30" transform="translate(95.410156 0)"/>
       <use xlink:href="#DejaVuSans-30" transform="translate(159.033203 0)"/>
      </g>
     </g>
    </g>
   </g>
   <g id="line2d_16">
    <path d="M 220.806 107.136 
L 221.388552 107.247479 
L 221.611864 107.46051 
L 222.126451 108.135569 
L 222.165288 108.108359 
L 222.204125 108.024429 
L 222.26238 108.141147 
L 222.738131 109.25847 
L 223.223591 111.032435 
L 223.2333 111.024804 
L 223.398356 112.289625 
L 223.514867 112.958449 
L 223.543994 112.924791 
L 223.563413 112.707068 
L 223.60225 113.000434 
L 223.650796 112.89965 
L 223.903235 115.66596 
L 223.922653 115.531675 
L 223.932362 115.780684 
L 224.097419 117.102931 
L 223.971199 115.533785 
L 224.136256 116.697381 
L 224.145965 116.489706 
L 224.20422 117.08405 
L 224.243057 116.784532 
L 224.252766 116.753444 
L 224.262475 117.024078 
L 224.33044 118.157748 
L 224.388695 117.582715 
L 224.437241 117.379526 
L 224.738226 119.300319 
L 224.757644 119.00931 
L 224.8159 120.057526 
L 224.835318 119.917542 
L 224.845027 120.2107 
L 224.854736 120.171862 
L 224.980956 121.88551 
L 225.000374 121.496589 
L 225.17514 124.031916 
L 225.194558 123.595787 
L 225.281941 123.414125 
L 225.243104 124.206905 
L 225.29165 123.47362 
L 225.340196 125.737296 
L 225.408161 124.327748 
L 225.602345 126.98583 
L 225.612054 127.031634 
L 225.718855 129.17741 
L 225.738274 129.070161 
L 225.893621 127.117223 
L 226.078096 130.121122 
L 226.087805 129.928109 
L 226.107223 130.224246 
L 226.175188 131.259694 
L 226.223734 131.187543 
L 226.243152 130.274302 
L 226.291698 131.573338 
L 226.330535 131.40505 
L 226.51501 137.772261 
L 226.524719 137.705044 
L 226.689775 141.358339 
L 226.709194 140.877434 
L 226.728612 139.894154 
L 226.796576 142.523691 
L 226.922796 147.430839 
L 227.029597 146.414628 
L 226.99076 147.649511 
L 227.039306 146.697679 
L 227.23349 155.730023 
L 227.35971 151.237068 
L 227.369419 151.38889 
L 227.447093 154.696473 
L 227.495639 152.924302 
L 227.621858 149.028248 
L 227.631568 149.724298 
L 227.699532 153.900493 
L 227.786915 156.263863 
L 227.825752 155.749435 
L 227.835461 155.318458 
L 227.854879 158.37622 
L 227.893716 157.166409 
L 227.951971 161.67557 
L 228.019936 160.478277 
L 228.0879 159.025587 
L 228.078191 160.98608 
L 228.117028 160.654333 
L 228.146155 161.173616 
L 228.165574 160.189295 
L 228.20441 160.39517 
L 228.252956 158.77604 
L 228.301502 161.458345 
L 228.612197 170.342346 
L 228.340339 160.337825 
L 228.641324 170.206485 
L 228.786962 178.411215 
L 228.874345 174.229577 
L 228.893764 175.550241 
L 228.981146 180.200459 
L 229.019983 179.516406 
L 229.214167 188.692202 
L 229.223876 188.246534 
L 229.243295 189.464252 
L 229.291841 186.381236 
L 229.30155 186.429336 
L 229.311259 186.102997 
L 229.437479 190.225102 
L 229.379224 184.908246 
L 229.447188 190.137638 
L 229.456897 189.236798 
L 229.524862 192.525331 
L 229.767592 200.926204 
L 229.78701 200.16174 
L 229.796719 200.161202 
L 229.806428 199.622029 
L 229.816138 202.181103 
L 229.893811 200.022994 
L 229.961776 202.799612 
L 229.91323 199.857739 
L 229.990903 199.933229 
L 230.000612 199.227781 
L 230.039449 201.851192 
L 230.087995 199.841158 
L 230.175378 204.975584 
L 230.243342 203.197424 
L 230.282179 200.638779 
L 230.330725 204.761121 
L 230.350144 202.774646 
L 230.359853 203.283829 
L 230.418108 200.676713 
L 230.427817 200.741286 
L 230.437526 201.592514 
L 230.486072 198.427508 
L 230.495782 198.843168 
L 230.524909 197.446531 
L 230.583164 201.196811 
L 230.592874 200.054765 
L 230.922986 217.151168 
L 230.932696 214.994325 
L 230.990951 212.408025 
L 231.010369 217.126871 
L 231.020078 218.05681 
L 231.058915 213.601883 
L 231.088043 213.948526 
L 231.175426 210.913328 
L 231.12688 215.423195 
L 231.194844 212.234287 
L 231.204553 213.713622 
L 231.272518 209.480876 
L 231.282227 208.431095 
L 231.340482 213.339113 
L 231.476411 221.980573 
L 231.495829 219.647069 
L 231.554084 223.718148 
L 231.573503 222.297202 
L 231.641467 226.225259 
L 231.680304 223.028363 
L 231.738559 224.896724 
L 231.709432 222.445065 
L 231.757978 224.874675 
L 231.884197 233.661473 
L 231.903616 232.845052 
L 231.97158 236.498335 
L 231.923034 232.359387 
L 232.039544 235.168441 
L 232.078381 230.791029 
L 232.156055 233.640824 
L 232.224019 236.703541 
L 232.185182 233.307376 
L 232.262856 233.485444 
L 232.466749 243.9457 
L 232.311402 232.509767 
L 232.476458 243.177158 
L 232.495877 241.431454 
L 232.544423 244.82976 
L 232.592969 241.909593 
L 232.670642 248.269934 
L 232.796862 251.599662 
L 232.738607 246.503521 
L 232.806571 250.297981 
L 232.864826 249.068929 
L 232.874536 251.827537 
L 232.903663 251.306931 
L 232.952209 251.550801 
L 232.923082 250.327779 
L 232.961918 250.589073 
L 233.049301 248.465455 
L 232.991046 252.55553 
L 233.088138 249.963788 
L 233.097847 251.859418 
L 233.165812 248.378606 
L 233.18523 250.33018 
L 233.194939 248.677449 
L 233.253194 254.174546 
L 233.262904 253.878626 
L 233.408542 263.641605 
L 233.418251 262.334035 
L 233.495924 261.751522 
L 233.476506 264.034757 
L 233.505634 262.282186 
L 233.622144 266.769625 
L 233.631853 266.229915 
L 233.952257 285.269402 
L 233.961966 285.18197 
L 233.971675 284.088649 
L 234.02993 289.168693 
L 234.03964 289.120274 
L 234.049349 289.615678 
L 234.059058 289.460578 
L 234.068767 290.236108 
L 234.088186 287.936191 
L 234.146441 289.114395 
L 234.262951 286.027797 
L 234.28237 286.517422 
L 234.292079 287.926489 
L 234.360043 283.508943 
L 234.369752 284.897593 
L 234.428008 283.743307 
L 234.39888 286.016458 
L 234.447426 285.085937 
L 234.622192 303.410181 
L 234.680447 300.641904 
L 234.699865 303.92269 
L 234.738702 301.05671 
L 234.816376 304.902886 
L 234.864922 303.484865 
L 234.88434 302.138534 
L 234.932886 305.799344 
L 234.942595 305.330992 
L 234.981432 307.93456 
L 235.049396 305.411546 
L 235.059106 305.564469 
L 235.068815 307.633252 
L 235.156198 303.800766 
L 235.350382 295.661829 
L 235.214453 304.883868 
L 235.360091 296.54801 
L 235.428055 298.796687 
L 235.457183 296.018784 
L 235.466892 297.030154 
L 235.554275 293.514256 
L 235.505729 297.482666 
L 235.593112 293.664898 
L 235.680494 293.146392 
L 235.72904 298.369901 
L 235.85526 294.784366 
L 235.787296 299.356971 
L 235.903806 295.630836 
L 235.923224 296.382481 
L 235.942643 294.480547 
L 235.97177 293.311148 
L 236.010607 297.023569 
L 236.030026 295.302312 
L 236.146536 298.387563 
L 236.156245 297.774208 
L 236.165954 297.567945 
L 236.292174 303.203597 
L 236.398975 307.687193 
L 236.321302 302.645387 
L 236.428103 306.096279 
L 236.437812 305.704378 
L 236.45723 308.765111 
L 236.573741 311.883056 
L 236.593159 311.875439 
L 236.612578 310.456349 
L 236.680542 312.764229 
L 236.729088 311.601745 
L 236.845598 320.283448 
L 236.884435 320.554648 
L 236.971818 316.840367 
L 237.049492 316.349781 
L 237.098038 320.925413 
L 237.136874 318.844989 
L 237.166002 322.440034 
L 237.18542 322.390891 
L 237.233966 323.950659 
L 237.282512 320.628963 
L 237.301931 321.708621 
L 237.340768 316.551827 
L 237.350477 316.626903 
L 237.360186 316.526647 
L 237.369895 318.445853 
L 237.43786 311.228063 
L 237.447569 312.837253 
L 237.476696 311.007826 
L 237.525242 314.195972 
L 237.544661 314.868219 
L 237.564079 313.816496 
L 237.641753 307.329576 
L 237.690299 310.653275 
L 237.767972 315.235804 
L 237.816518 315.202597 
L 237.874774 311.068681 
L 237.855355 317.360577 
L 237.92332 313.373102 
L 238.03983 321.116871 
L 238.059248 319.011304 
L 238.068958 316.768758 
L 238.136922 325.858905 
L 238.16605 324.910976 
L 238.185468 328.640991 
L 238.224305 326.050164 
L 238.447616 338.414564 
L 238.457326 337.323806 
L 238.52529 341.881166 
L 238.554418 343.808071 
L 238.583545 340.436228 
L 238.612673 341.336384 
L 238.622382 340.305768 
L 238.680637 343.626771 
L 238.709765 347.84213 
L 238.738892 343.553489 
L 238.806857 346.339229 
L 238.816566 345.647299 
L 238.835984 348.322837 
L 238.89424 352.539721 
L 238.913658 348.176305 
L 238.952495 350.832675 
L 239.117551 338.345752 
L 239.13697 340.590356 
L 239.166097 340.261605 
L 239.156388 341.289408 
L 239.204934 341.093475 
L 239.311735 347.757258 
L 239.350572 343.523999 
L 239.399118 340.162907 
L 239.467082 341.227757 
L 239.573884 343.77739 
L 239.535047 340.774429 
L 239.583593 342.940708 
L 239.661266 344.807554 
L 239.61272 342.480083 
L 239.709812 344.057158 
L 239.73894 341.690995 
L 239.787486 345.125494 
L 239.797195 344.938642 
L 239.971961 352.198292 
L 239.98167 351.966415 
L 240.156436 345.782422 
L 240.166145 346.465446 
L 240.2244 349.467481 
L 240.243818 345.957907 
L 240.263237 347.638942 
L 240.399166 341.195858 
L 240.408875 341.568762 
L 240.447712 339.372597 
L 240.486548 337.619439 
L 240.46713 340.605212 
L 240.525385 340.428828 
L 240.544804 339.553047 
L 240.564222 342.447671 
L 240.573931 343.787911 
L 240.651605 341.690543 
L 240.729278 339.2778 
L 240.690442 341.719408 
L 240.758406 340.764493 
L 240.797243 345.134563 
L 240.894335 344.894014 
L 241.030264 338.354487 
L 241.039973 339.230157 
L 241.117646 347.253693 
L 241.166192 344.092498 
L 241.205029 343.006546 
L 241.214738 343.65121 
L 241.272994 348.32444 
L 241.302121 342.829259 
L 241.32154 344.146086 
L 241.331249 342.948926 
L 241.389504 348.831927 
L 241.428341 349.673828 
L 241.467178 346.727586 
L 241.486596 346.32254 
L 241.506014 348.49383 
L 241.515724 347.867073 
L 241.544851 347.740501 
L 241.641943 355.830126 
L 241.661362 357.915199 
L 241.68078 355.192995 
L 241.729326 355.889109 
L 241.739035 354.418063 
L 241.79729 360.87159 
L 241.962347 371.656526 
L 241.991474 371.302489 
L 242.098276 373.308763 
L 242.107985 371.018515 
L 242.195368 376.395868 
L 242.263332 378.415706 
L 242.321587 373.599884 
L 242.360424 372.223871 
L 242.379842 374.895947 
L 242.389552 375.678604 
L 242.428388 370.868161 
L 242.438098 371.421819 
L 242.467225 366.391578 
L 242.53519 372.138991 
L 242.544899 371.086119 
L 242.632282 368.177184 
L 242.603154 373.256947 
L 242.661409 369.110848 
L 242.748792 373.518415 
L 242.787629 371.118356 
L 242.981813 378.557317 
L 243.001231 377.228552 
L 243.040068 378.217363 
L 243.117742 375.3375 
L 243.195415 380.633064 
L 243.224543 376.409384 
L 243.282798 377.940201 
L 243.360472 372.282544 
L 243.389599 374.198302 
L 243.438145 371.305498 
L 243.554656 365.466168 
L 243.457564 372.481216 
L 243.583783 367.733541 
L 243.612911 368.253435 
L 243.642038 365.967958 
L 243.680875 367.376035 
L 243.690584 367.426153 
L 243.700294 366.621367 
L 243.758549 369.425874 
L 243.787676 368.546827 
L 244.059534 374.715779 
L 244.078952 373.279571 
L 244.156626 370.287951 
L 244.127498 373.473795 
L 244.205172 371.612369 
L 244.22459 373.540639 
L 244.273136 370.376144 
L 244.321682 373.262403 
L 244.331392 372.942898 
L 244.35081 375.62878 
L 244.496448 391.775962 
L 244.535285 390.348976 
L 244.622668 385.318917 
L 244.671214 386.953892 
L 244.71976 394.440382 
L 244.787724 391.289414 
L 244.943071 383.572611 
L 245.030454 385.992409 
L 244.981908 382.961659 
L 245.040163 385.493597 
L 245.098418 390.501817 
L 245.146964 386.692319 
L 245.166383 386.500347 
L 245.214929 385.745959 
L 245.282893 387.842653 
L 245.389694 384.040489 
L 245.312021 389.758321 
L 245.409113 385.622177 
L 245.496496 387.97106 
L 245.467368 383.044571 
L 245.506205 386.440768 
L 245.535332 384.130177 
L 245.56446 388.023236 
L 245.613006 386.265687 
L 245.729516 391.882496 
L 245.632424 385.925374 
L 245.778062 389.079882 
L 245.787772 388.054498 
L 245.846027 390.957561 
L 245.952828 398.68162 
L 245.981956 397.615043 
L 246.011083 395.595288 
L 246.059629 399.860076 
L 246.244104 413.762542 
L 246.263522 411.032018 
L 246.341196 415.047659 
L 246.370324 414.416559 
L 246.399451 415.689957 
L 246.40916 415.393742 
L 246.477125 417.867722 
L 246.506252 416.427509 
L 246.515962 414.428898 
L 246.593635 418.8252 
L 246.603344 418.284173 
L 246.613054 417.435946 
L 246.65189 421.620403 
L 246.6616 421.416878 
L 246.700436 424.354696 
L 246.748982 419.788913 
L 246.758692 420.322108 
L 246.972294 416.241789 
L 246.982003 417.304711 
L 247.049968 415.9343 
L 247.098514 418.152248 
L 247.127641 416.674342 
L 247.166478 420.334105 
L 247.176187 419.844977 
L 247.185896 420.797256 
L 247.205315 418.018154 
L 247.26357 419.608621 
L 247.292698 417.13962 
L 247.350953 422.037348 
L 247.360662 421.088759 
L 247.370371 422.017215 
L 247.448045 419.509482 
L 247.457754 419.809034 
L 247.477172 422.217346 
L 247.486882 421.957315 
L 247.613101 429.585787 
L 247.63252 427.189767 
L 247.710193 423.540578 
L 247.758739 425.425648 
L 247.768448 426.267923 
L 247.807285 421.189957 
L 247.816994 421.915222 
L 247.826704 421.013243 
L 247.87525 426.320909 
L 248.069434 434.948509 
L 248.079143 433.595568 
L 248.10827 437.612364 
L 248.176235 434.287849 
L 248.283036 437.335124 
L 248.224781 434.225929 
L 248.302454 435.096844 
L 248.341291 431.868479 
L 248.399546 436.509405 
L 248.467511 439.47467 
L 248.496638 436.033748 
L 248.506348 437.688288 
L 248.535475 435.825479 
L 248.574312 438.878013 
L 248.622858 437.046381 
L 248.700532 434.493091 
L 248.739368 438.956288 
L 248.749078 439.012663 
L 248.855879 433.117545 
L 248.894716 436.111166 
L 248.904425 436.107876 
L 248.923843 436.518702 
L 249.050063 429.555276 
L 249.07919 426.434513 
L 249.118027 430.053189 
L 249.147155 429.976993 
L 249.234538 436.173628 
L 249.302502 435.353787 
L 249.32192 434.785042 
L 249.33163 433.453628 
L 249.399594 435.166686 
L 249.419012 434.797938 
L 249.56465 444.071253 
L 249.593778 443.917555 
L 249.661742 448.118233 
L 249.719998 445.787018 
L 249.768544 443.47502 
L 249.826799 445.768925 
L 249.855926 446.734195 
L 249.865636 445.374778 
L 249.904472 439.265848 
L 249.962728 446.182633 
L 250.098656 451.655881 
L 250.215167 455.920448 
L 250.166621 451.253447 
L 250.254004 454.597419 
L 250.263713 454.507127 
L 250.29284 457.765029 
L 250.370514 454.899711 
L 250.380223 454.214984 
L 250.438478 456.596052 
L 250.477315 460.548495 
L 250.564698 459.559793 
L 250.584116 461.39921 
L 250.632662 458.271547 
L 250.66179 456.458564 
L 250.720045 459.334063 
L 250.7783 464.675761 
L 250.826846 459.902046 
L 250.846265 459.050516 
L 250.885102 461.697988 
L 250.923938 459.87924 
L 251.059867 464.471045 
L 251.069576 463.474389 
L 251.127832 468.207072 
L 251.215214 473.074418 
L 251.244342 471.148319 
L 251.380271 464.915901 
L 251.399689 465.291664 
L 251.487072 468.417658 
L 251.50649 467.433419 
L 251.63271 461.22021 
L 251.642419 463.158161 
L 251.710384 456.665184 
L 251.720093 457.692149 
L 251.729802 457.222893 
L 251.768639 460.288083 
L 251.778348 460.520367 
L 251.788057 459.325004 
L 251.914277 456.159318 
L 251.953114 460.802343 
L 252.00166 455.935354 
L 252.021078 456.894409 
L 252.069624 455.275864 
L 252.059915 457.03153 
L 252.079333 455.491336 
L 252.23468 450.441044 
L 252.292936 454.181355 
L 252.351191 451.829496 
L 252.380318 454.268578 
L 252.370609 451.364668 
L 252.438574 451.630588 
L 252.535666 446.523895 
L 252.564793 447.599639 
L 252.642467 445.418525 
L 252.613339 448.84236 
L 252.671594 447.54737 
L 252.681304 447.80645 
L 252.700722 446.446659 
L 252.710431 447.290602 
L 252.72014 444.907378 
L 252.788105 450.023541 
L 252.807523 448.864065 
L 252.836651 445.836282 
L 252.924034 447.430806 
L 253.001707 453.87973 
L 253.050253 452.355188 
L 253.059962 451.240598 
L 253.108508 457.896761 
L 253.127927 456.090458 
L 253.147345 455.259134 
L 253.176473 457.061605 
L 253.195891 456.999314 
L 253.302692 462.558461 
L 253.33182 460.980269 
L 253.341529 461.663169 
L 253.390075 458.005925 
L 253.45804 453.298819 
L 253.409494 458.847162 
L 253.506586 456.200253 
L 253.593968 461.284078 
L 253.642514 460.10455 
L 253.661933 459.209237 
L 253.671642 458.45665 
L 253.729897 462.431391 
L 253.739606 461.797203 
L 253.797862 464.218347 
L 253.759025 461.660909 
L 253.856117 464.032735 
L 253.972627 456.312933 
L 253.982336 456.85426 
L 254.021173 457.237132 
L 254.011464 455.378552 
L 254.030882 455.962542 
L 254.040592 455.064915 
L 254.089138 460.302803 
L 254.098847 459.216931 
L 254.205648 461.017663 
L 254.137684 457.795504 
L 254.215357 460.84364 
L 254.225066 460.130987 
L 254.263903 464.620946 
L 254.331868 472.629472 
L 254.380414 470.076602 
L 254.390123 468.628789 
L 254.438669 473.794103 
L 254.458087 473.321609 
L 254.467796 473.686374 
L 254.496924 470.887821 
L 254.526052 472.455987 
L 254.613434 466.493637 
L 254.691108 467.499721 
L 254.729945 470.931221 
L 254.710526 466.635126 
L 254.778491 467.927029 
L 254.846455 465.381964 
L 254.875583 468.461448 
L 255.001802 472.216044 
L 255.060058 472.065596 
L 255.166859 469.061275 
L 255.137731 472.304502 
L 255.176568 470.303901 
L 255.186277 470.540628 
L 255.195986 469.608408 
L 255.254242 468.269945 
L 255.283369 471.148388 
L 255.361043 476.479989 
L 255.302788 471.015767 
L 255.419298 475.952258 
L 255.429007 475.60917 
L 255.458135 478.243423 
L 255.467844 478.152601 
L 255.603773 484.444226 
L 255.691156 479.237481 
L 255.652319 484.66871 
L 255.729992 481.889621 
L 255.739702 481.911648 
L 255.797957 479.114208 
L 255.846503 481.485484 
L 255.87563 483.948694 
L 255.963013 482.313215 
L 256.00185 479.281472 
L 256.030978 483.488244 
L 256.069814 482.215101 
L 256.273708 493.557326 
L 256.293126 490.921537 
L 256.36109 490.976531 
L 256.448473 486.800816 
L 256.506728 492.464554 
L 256.574693 489.977377 
L 256.865969 507.704304 
L 256.885387 504.87594 
L 257.011607 501.524636 
L 257.021316 502.78577 
L 257.079571 498.578004 
L 257.08928 496.769862 
L 257.157245 500.723664 
L 257.176663 499.348837 
L 257.254337 506.393051 
L 257.302883 504.835988 
L 257.312592 503.840825 
L 257.351429 508.689219 
L 257.361138 507.809381 
L 257.380556 510.972357 
L 257.438812 506.004793 
L 257.467939 508.054648 
L 257.516485 506.467207 
L 257.652414 498.855102 
L 257.662123 498.935455 
L 257.671832 498.419995 
L 257.681542 498.161788 
L 257.691251 500.62546 
L 257.749506 502.600452 
L 257.768924 499.694712 
L 257.778634 499.599621 
L 257.875726 495.96593 
L 257.798052 500.448029 
L 257.904853 496.947166 
L 257.914562 496.397818 
L 257.953399 500.15111 
L 258.040782 507.845697 
L 258.157292 506.362333 
L 258.167002 505.318179 
L 258.225257 508.564838 
L 258.254384 506.512212 
L 258.273803 509.604635 
L 258.370895 509.563656 
L 258.409732 507.440003 
L 258.448568 512.746638 
L 258.458278 512.60179 
L 258.477696 511.957718 
L 258.497114 514.013821 
L 258.506824 513.677406 
L 258.516533 514.31513 
L 258.565079 511.253039 
L 258.584497 511.865998 
L 258.594206 511.989268 
L 258.603916 511.93337 
L 258.710717 515.862915 
L 258.730135 515.741809 
L 258.827227 513.266303 
L 258.836936 514.190248 
L 258.91461 517.55345 
L 258.943738 514.624377 
L 258.953447 514.31172 
L 258.982574 516.700157 
L 259.069957 515.859284 
L 259.167049 524.323121 
L 259.186468 525.553385 
L 259.27385 519.508123 
L 259.28356 517.927435 
L 259.351524 520.227974 
L 259.380652 520.135959 
L 259.52629 524.918829 
L 259.419488 519.605305 
L 259.535999 524.59775 
L 259.613672 517.658436 
L 259.701055 520.484884 
L 259.710764 520.663652 
L 259.720474 519.300985 
L 259.739892 519.390404 
L 259.749601 519.223328 
L 259.75931 520.2585 
L 259.76902 520.077016 
L 259.798147 523.227373 
L 259.875821 519.805826 
L 259.895239 520.462381 
L 259.924367 518.843489 
L 259.943785 519.421151 
L 259.953494 518.843142 
L 259.992331 522.674206 
L 260.099132 526.520639 
L 260.137969 524.190208 
L 260.186515 522.595759 
L 260.25448 523.075279 
L 260.73023 537.871674 
L 260.303026 522.645859 
L 260.749649 537.03075 
L 260.807904 537.158875 
L 260.875868 531.744704 
L 261.031216 537.632572 
L 261.060343 537.498596 
L 261.070052 537.347438 
L 261.079762 538.557071 
L 261.205981 541.530278 
L 261.2254 541.330271 
L 261.244818 541.793345 
L 261.254527 540.289236 
L 261.322492 543.276742 
L 261.34191 542.654764 
L 261.448711 549.451836 
L 261.506966 549.111683 
L 261.652604 544.497584 
L 261.555512 549.991528 
L 261.70115 545.373545 
L 261.778824 551.591334 
L 261.837079 549.99711 
L 261.866207 549.459633 
L 261.885625 551.301805 
L 261.94388 549.670506 
L 262.050682 551.67171 
L 262.0701 550.522514 
L 262.157483 548.946408 
L 262.206029 549.20526 
L 262.283702 547.257162 
L 262.293412 547.945311 
L 262.332248 546.590079 
L 262.390504 547.730198 
L 262.507014 545.413947 
L 262.526432 546.622297 
L 262.604106 549.349763 
L 262.642943 548.089299 
L 262.740035 547.22515 
L 262.68178 548.571729 
L 262.749744 547.865047 
L 262.778872 548.945217 
L 262.769162 547.824214 
L 262.79829 547.993237 
L 262.953637 541.307701 
L 263.050729 543.894554 
L 263.060438 543.006701 
L 263.070148 541.217069 
L 263.16724 543.321013 
L 263.244913 541.600039 
L 263.206076 545.185124 
L 263.28375 542.724605 
L 263.342005 545.508442 
L 263.303168 542.615815 
L 263.361424 542.751938 
L 263.429388 537.613742 
L 263.497352 539.528912 
L 263.516771 538.779101 
L 263.545898 540.382856 
L 263.555608 539.899649 
L 263.64299 542.728607 
L 263.575026 538.966912 
L 263.691536 541.634225 
L 263.730373 539.36427 
L 263.798338 541.543049 
L 263.89543 542.909832 
L 263.914848 542.451754 
L 263.924557 541.396035 
L 263.992522 544.131862 
L 264.01194 543.21208 
L 264.050777 545.995321 
L 264.099323 548.777747 
L 264.13816 545.443022 
L 264.176996 547.845604 
L 264.215833 545.510178 
L 264.264379 548.963196 
L 264.274088 548.473654 
L 264.410017 553.126572 
L 264.293507 547.40901 
L 264.468272 550.881881 
L 264.477982 550.448189 
L 264.536237 552.583618 
L 264.885768 561.791238 
L 264.895477 561.512798 
L 264.914896 561.891492 
L 264.934314 561.164506 
L 265.011988 557.826652 
L 265.050824 559.001057 
L 265.070243 559.434518 
L 265.118789 557.720504 
L 265.147916 558.894443 
L 265.157626 557.71709 
L 265.215881 559.438956 
L 265.245008 559.133843 
L 265.371228 562.944923 
L 265.390646 562.565597 
L 265.400356 562.586963 
L 265.487738 565.670445 
L 265.545994 564.438827 
L 265.555703 564.268547 
L 265.604249 565.194396 
L 265.613958 565.169149 
L 265.623667 565.255126 
L 265.652795 564.537427 
L 265.672213 564.700243 
L 265.749887 565.354643 
L 265.740178 564.20014 
L 265.769305 564.787504 
L 265.779014 564.335291 
L 265.846979 565.641437 
L 265.866397 565.4182 
L 266.050872 560.370372 
L 266.118836 562.56804 
L 266.128546 563.081816 
L 266.186801 561.602499 
L 266.215928 562.502964 
L 266.274184 563.875739 
L 266.342148 561.957616 
L 266.351857 561.920233 
L 266.478077 564.31597 
L 266.497495 564.112922 
L 266.623715 562.934018 
L 266.740225 561.516871 
L 266.876154 566.369347 
L 266.885863 566.29659 
L 266.895572 566.367365 
L 266.905282 566.09154 
L 266.934409 564.896886 
L 267.002374 566.999682 
L 267.070338 568.300746 
L 267.186848 571.10165 
L 267.196558 570.911852 
L 267.206267 570.990843 
L 267.245104 570.519728 
L 267.274231 569.055216 
L 267.342196 570.424084 
L 267.351905 570.820236 
L 267.41016 569.529448 
L 267.419869 569.716651 
L 267.429578 569.29841 
L 267.468415 571.251482 
L 267.507252 570.624783 
L 267.516961 570.70481 
L 267.546089 570.116135 
L 267.633472 569.382123 
L 267.594635 570.522241 
L 267.662599 569.772802 
L 267.749982 571.791816 
L 267.808237 570.941653 
L 267.817946 570.958041 
L 267.944166 569.731855 
L 267.847074 571.779906 
L 267.953875 569.816508 
L 268.099513 570.923493 
L 268.01213 569.761962 
L 268.109222 570.714125 
L 268.13835 569.564689 
L 268.186896 571.025708 
L 268.206314 570.834537 
L 268.216024 571.344853 
L 268.303406 570.346149 
L 268.342243 570.308745 
L 268.332534 570.578465 
L 268.351952 570.53376 
L 268.49759 572.338615 
L 268.575264 572.37067 
L 268.662647 570.126323 
L 268.672356 570.37445 
L 268.720902 568.842711 
L 268.847122 565.702212 
L 268.885958 565.804399 
L 268.895668 566.669962 
L 268.973341 563.802681 
L 269.002469 562.694387 
L 269.070433 564.262873 
L 269.089852 563.300312 
L 269.10927 563.857143 
L 269.167525 562.241125 
L 269.196653 563.314792 
L 269.245199 561.62746 
L 269.303454 562.85199 
L 269.332582 563.690442 
L 269.390837 561.456714 
L 269.410255 561.010011 
L 269.439383 562.247912 
L 269.565602 564.836626 
L 269.59473 565.235653 
L 269.691822 563.118197 
L 269.701531 563.430304 
L 269.730659 561.576021 
L 269.740368 561.685167 
L 269.750077 560.645889 
L 269.827751 563.525978 
L 269.83746 563.218467 
L 269.886006 564.300145 
L 269.895715 564.128016 
L 269.96368 565.99286 
L 270.012226 565.154865 
L 270.138445 563.51627 
L 270.20641 562.760676 
L 270.235537 564.034097 
L 270.245246 564.068425 
L 270.293792 564.325323 
L 270.371466 562.827361 
L 270.555941 565.701579 
L 270.604487 565.090957 
L 270.662742 565.363572 
L 270.750125 563.367434 
L 270.80838 565.223042 
L 270.866635 564.384159 
L 270.876344 564.199576 
L 270.915181 565.546371 
L 270.92489 565.549442 
L 271.021982 567.846588 
L 271.041401 567.213525 
L 271.05111 567.191778 
L 271.060819 567.325226 
L 271.070528 567.261394 
L 271.109365 565.380814 
L 271.196748 565.600111 
L 271.400641 562.862115 
L 271.255003 565.672129 
L 271.41035 562.999533 
L 271.42006 562.16854 
L 271.449187 563.632214 
L 271.507442 563.266025 
L 271.565698 563.036995 
L 271.711336 566.503375 
L 271.818137 568.596801 
L 271.837555 568.524103 
L 271.89581 567.826132 
L 271.924938 569.203627 
L 271.954066 568.315458 
L 272.051158 569.820668 
L 272.070576 569.574264 
L 272.109413 570.369893 
L 272.119122 570.221656 
L 272.206505 571.241276 
L 272.14825 569.156441 
L 272.225923 570.60392 
L 272.235632 570.077727 
L 272.293888 571.968668 
L 272.303597 571.777109 
L 272.352143 571.26705 
L 272.420107 572.857665 
L 272.594873 569.117831 
L 272.604582 569.124428 
L 272.624 568.443023 
L 272.779348 566.87281 
L 272.808475 567.352513 
L 272.827894 566.405584 
L 272.886149 566.922676 
L 272.895858 566.896787 
L 272.905567 566.468425 
L 272.954113 568.432166 
L 272.99295 567.3897 
L 273.041496 566.860274 
L 273.070624 567.720361 
L 273.099751 566.953496 
L 273.11917 567.99936 
L 273.177425 567.592015 
L 273.284226 568.710011 
L 273.23568 566.471247 
L 273.303644 568.604394 
L 273.410446 569.51251 
L 273.371609 568.227678 
L 273.420155 568.800382 
L 273.468701 569.638613 
L 273.497828 568.444537 
L 273.614339 566.780847 
L 273.517247 568.779501 
L 273.653176 567.108425 
L 273.692012 568.949265 
L 273.759977 567.919867 
L 273.84736 563.807207 
L 273.915324 564.282076 
L 274.002707 565.578317 
L 273.934742 563.70388 
L 274.051253 565.228926 
L 274.128926 563.588571 
L 274.187182 564.709127 
L 274.32311 566.376805 
L 274.371656 566.328679 
L 274.536713 561.237959 
L 274.56584 560.645366 
L 274.585259 561.189425 
L 274.594968 561.717203 
L 274.653223 558.914501 
L 274.662932 559.005611 
L 274.672642 558.570161 
L 274.69206 558.732001 
L 274.701769 558.054681 
L 274.760024 560.212924 
L 274.779443 559.449214 
L 274.837698 557.917985 
L 274.954208 563.523224 
L 274.963918 562.601271 
L 275.0513 564.25579 
L 275.06101 563.799962 
L 275.109556 562.68442 
L 275.148392 564.685253 
L 275.167811 563.423842 
L 275.226066 564.52317 
L 275.245484 563.16077 
L 275.342576 560.964342 
L 275.30374 564.718827 
L 275.361995 562.320385 
L 275.53676 565.126727 
L 275.54647 564.899086 
L 275.575597 566.091824 
L 275.653271 567.799686 
L 275.701817 567.256483 
L 275.818327 563.668763 
L 275.837746 563.943386 
L 275.983384 567.926531 
L 276.051348 566.525208 
L 276.002802 568.239921 
L 276.109603 566.71368 
L 276.119312 567.237121 
L 276.187277 565.130016 
L 276.196986 564.320259 
L 276.26495 567.141846 
L 276.27466 566.933377 
L 276.468844 563.524167 
L 276.488262 564.311544 
L 276.527099 564.106092 
L 276.6339 558.731286 
L 276.672737 560.202018 
L 276.779538 561.738984 
L 276.789247 561.087936 
L 276.818375 560.620852 
L 276.837793 561.721392 
L 276.857212 561.459551 
L 276.896048 562.465494 
L 276.954304 560.85199 
L 276.964013 560.911543 
L 276.973722 560.602141 
L 277.012559 562.637509 
L 277.070814 559.414332 
L 277.23587 552.931161 
L 277.332962 554.498927 
L 277.264998 552.684085 
L 277.381508 554.279082 
L 277.517437 550.278814 
L 277.536856 553.068413 
L 277.614529 549.791532 
L 277.624238 550.048931 
L 277.633948 550.231732 
L 277.653366 548.633707 
L 277.682494 549.474723 
L 277.750458 548.354182 
L 277.72133 549.703246 
L 277.789295 548.974082 
L 277.983479 554.813513 
L 277.993188 554.795667 
L 278.002897 554.110205 
L 278.061152 556.642432 
L 278.080571 556.371929 
L 278.323301 562.553815 
L 278.342719 562.13352 
L 278.478648 557.950902 
L 278.391265 562.23914 
L 278.517485 559.590137 
L 278.624286 561.189865 
L 278.546612 559.486806 
L 278.643704 560.372092 
L 278.808761 556.42555 
L 278.925271 562.666604 
L 278.964108 561.317926 
L 278.973817 561.010814 
L 279.041782 561.949342 
L 279.109746 563.77153 
L 279.158292 562.225494 
L 279.274802 559.367376 
L 279.197129 562.479683 
L 279.294221 560.167722 
L 279.30393 560.843312 
L 279.342767 558.062709 
L 279.391313 560.393557 
L 279.498114 559.393128 
L 279.459277 560.487445 
L 279.507823 560.047674 
L 279.517532 560.496514 
L 279.566078 557.873886 
L 279.575788 558.228394 
L 279.624334 557.24328 
L 279.595206 558.422663 
L 279.653461 558.274713 
L 279.769972 561.43365 
L 279.818518 559.873907 
L 279.876773 560.026405 
L 279.944737 557.457996 
L 279.964156 557.939862 
L 279.993283 557.113336 
L 280.012702 558.313482 
L 280.041829 557.029124 
L 280.100084 557.529311 
L 280.187467 558.141057 
L 280.216595 556.221822 
L 280.333105 557.478067 
L 280.265141 554.405175 
L 280.342814 556.872839 
L 280.420488 555.915217 
L 280.362233 557.340305 
L 280.430197 556.211602 
L 280.536998 560.885712 
L 280.556417 559.326795 
L 280.575835 560.506321 
L 280.653509 559.215883 
L 280.702055 560.069304 
L 280.721473 560.120615 
L 280.818565 558.824296 
L 280.857402 557.901111 
L 280.915657 559.524106 
L 280.954494 561.012158 
L 281.032168 560.354743 
L 281.109841 560.943244 
L 281.061295 559.508796 
L 281.148678 560.716538 
L 281.206933 557.798792 
L 281.294316 558.179658 
L 281.333153 560.034312 
L 281.410826 558.671744 
L 281.449663 556.983258 
L 281.546755 557.849626 
L 281.624429 558.914324 
L 281.653556 558.035482 
L 281.682684 558.753391 
L 281.702102 556.987414 
L 281.73123 557.049084 
L 281.740939 555.867032 
L 281.779776 559.003662 
L 281.818613 558.958218 
L 281.828322 559.935707 
L 281.915705 558.891439 
L 281.925414 559.1749 
L 282.236108 553.681768 
L 282.265236 555.075732 
L 282.274945 555.10039 
L 282.284654 554.896429 
L 282.304073 553.59558 
L 282.34291 555.374556 
L 282.488548 559.702611 
L 282.381746 554.536994 
L 282.498257 558.744767 
L 282.58564 555.25896 
L 282.624476 556.493358 
L 282.760405 558.036025 
L 282.779824 557.116053 
L 282.838079 559.560103 
L 282.954589 561.497065 
L 282.974008 561.488746 
L 283.022554 560.276709 
L 283.0711 561.722527 
L 283.080809 560.596379 
L 283.119646 560.986512 
L 283.139064 559.500144 
L 283.177901 556.706915 
L 283.236156 559.623138 
L 283.245865 560.281765 
L 283.30412 558.194859 
L 283.333248 555.932208 
L 283.391503 558.69503 
L 283.420631 557.417339 
L 283.440049 557.615464 
L 283.469177 555.963988 
L 283.478886 554.915948 
L 283.54685 556.190947 
L 283.585687 555.084258 
L 283.614815 555.71067 
L 283.643942 554.811977 
L 283.750744 553.462142 
L 283.731325 555.650727 
L 283.770162 553.834396 
L 283.779871 553.928417 
L 283.78958 552.99774 
L 283.79929 552.701314 
L 283.857545 554.203594 
L 283.896382 554.136163 
L 283.876963 554.521697 
L 283.925509 554.392654 
L 283.974055 556.516172 
L 284.03231 555.20994 
L 284.197367 546.766824 
L 284.207076 546.81124 
L 284.294459 545.304112 
L 284.27504 547.888403 
L 284.323586 546.426273 
L 284.605153 552.456642 
L 284.663408 551.343833 
L 284.682827 550.687437 
L 284.7605 551.542609 
L 284.77021 551.302853 
L 284.779919 551.140233 
L 284.789628 551.754256 
L 284.925557 556.407746 
L 284.964394 557.001301 
L 284.983812 555.791578 
L 284.993521 556.375201 
L 285.158578 548.320499 
L 285.168287 549.17985 
L 285.333343 553.995961 
L 285.343052 553.994508 
L 285.440144 558.872461 
L 285.4984 558.597661 
L 285.576073 556.987944 
L 285.537236 558.964526 
L 285.61491 557.925255 
L 285.634328 557.278473 
L 285.644038 557.414652 
L 285.789676 552.951733 
L 285.682874 557.833931 
L 285.799385 552.957447 
L 285.809094 553.311816 
L 285.828512 550.890148 
L 285.838222 551.202496 
L 285.847931 550.099112 
L 285.877058 552.703257 
L 285.935314 551.693111 
L 286.032406 555.495015 
L 285.97415 551.32463 
L 286.080952 554.9478 
L 286.187753 559.022842 
L 286.22659 556.793812 
L 286.304263 556.297227 
L 286.284845 557.241907 
L 286.323682 556.432942 
L 286.362518 557.479588 
L 286.420774 556.039897 
L 286.430483 556.465415 
L 286.45961 554.067772 
L 286.527575 556.756369 
L 286.537284 556.330673 
L 286.546993 556.328274 
L 286.556702 556.036238 
L 286.605248 557.36478 
L 286.634376 556.921898 
L 286.935361 564.711547 
L 286.94507 563.645571 
L 287.013035 562.202947 
L 287.051872 563.10164 
L 287.158673 565.810813 
L 287.19751 564.595581 
L 287.381984 567.115357 
L 287.401403 566.633268 
L 287.411112 566.333477 
L 287.449949 567.498709 
L 287.498495 566.91625 
L 287.527622 567.213363 
L 287.615005 568.612509 
L 287.634424 567.716886 
L 287.644133 567.315895 
L 287.721806 568.065588 
L 287.828608 569.723284 
L 287.857735 569.425029 
L 287.906281 568.125472 
L 287.945118 570.143691 
L 287.974246 569.304283 
L 288.081047 568.43797 
L 288.032501 569.863614 
L 288.090756 568.597615 
L 288.16843 567.621723 
L 288.187848 568.816711 
L 288.197557 568.69739 
L 288.216976 568.301469 
L 288.236394 569.262282 
L 288.265522 569.195041 
L 288.372323 570.066582 
L 288.382032 569.645163 
L 288.391741 569.619237 
L 288.459706 570.527665 
L 288.488833 569.184132 
L 288.498542 569.523933 
L 288.517961 569.401836 
L 288.52767 569.520881 
L 288.537379 568.536322 
L 288.615053 569.977414 
L 288.624762 569.48461 
L 288.702436 570.536352 
L 288.741272 569.921398 
L 288.838364 571.156173 
L 288.7704 569.557234 
L 288.867492 570.696242 
L 288.945166 569.472827 
L 288.974293 570.116648 
L 288.984002 571.039084 
L 289.061676 569.62288 
L 289.071385 569.648934 
L 289.110222 569.049969 
L 289.158768 570.755662 
L 289.275278 571.698921 
L 289.187896 570.167991 
L 289.284988 571.334364 
L 289.333534 572.502172 
L 289.411207 570.425957 
L 289.420916 570.41821 
L 289.469462 570.594789 
L 289.556845 568.84797 
L 289.566554 568.715851 
L 289.605391 569.650884 
L 289.6151 569.633647 
L 289.731611 570.690337 
L 289.751029 569.47713 
L 289.818994 570.906747 
L 289.838412 570.556646 
L 290.032596 573.3351 
L 289.935504 570.421689 
L 290.052014 572.840594 
L 290.061724 572.8472 
L 290.071433 572.822302 
L 290.139397 570.95261 
L 290.187943 572.453354 
L 290.255908 572.996324 
L 290.217071 572.28201 
L 290.294744 572.587281 
L 290.314163 573.181784 
L 290.353 572.201983 
L 290.430673 570.569577 
L 290.382127 572.309201 
L 290.479219 571.078846 
L 290.488928 571.734325 
L 290.566602 569.969954 
L 290.624857 570.646216 
L 290.692822 570.2746 
L 290.702531 569.580042 
L 290.789914 570.675 
L 290.799623 570.3197 
L 290.819041 571.739862 
L 290.916133 571.025981 
L 290.925842 571.03819 
L 290.964679 570.308232 
L 291.013225 572.211085 
L 291.022934 572.053492 
L 291.052062 572.911694 
L 291.061771 572.764514 
L 291.120026 574.070298 
L 291.168572 573.364917 
L 291.285083 568.656986 
L 291.333629 570.32369 
L 291.343338 570.283627 
L 291.382175 571.034869 
L 291.44043 570.055279 
L 291.634614 561.989674 
L 291.721997 562.594096 
L 291.770543 564.418568 
L 291.79967 562.026252 
L 291.819089 562.062587 
L 291.916181 560.81741 
L 291.867635 562.967184 
L 291.935599 561.135006 
L 292.071528 567.016105 
L 292.081237 566.586885 
L 292.090946 566.588382 
L 292.100656 567.21907 
L 292.129783 566.167454 
L 292.197748 566.470963 
L 292.207457 566.468351 
L 292.217166 566.978282 
L 292.29484 565.89175 
L 292.333676 564.200958 
L 292.314258 565.938325 
L 292.401641 565.48455 
L 292.459896 566.890256 
L 292.498733 565.393883 
L 292.508442 565.584803 
L 292.518151 565.549311 
L 292.624952 568.261547 
L 292.634662 567.845468 
L 292.712335 565.757556 
L 292.809427 566.458647 
L 292.838555 566.702619 
L 292.848264 566.273357 
L 292.857973 567.405252 
L 292.916228 565.311915 
L 292.955065 566.239095 
L 293.061866 564.526266 
L 293.081285 565.028122 
L 293.090994 564.744836 
L 293.129831 566.696556 
L 293.13954 565.843268 
L 293.207504 568.417873 
L 293.158958 565.393424 
L 293.26576 567.326318 
L 293.362852 565.98251 
L 293.38227 566.911166 
L 293.391979 566.918003 
L 293.401688 567.088818 
L 293.421107 565.958619 
L 293.489071 562.187792 
L 293.547326 563.960589 
L 293.566745 564.829218 
L 293.615291 563.107798 
L 293.644418 564.742809 
L 293.760929 558.253253 
L 293.790056 559.154184 
L 293.896858 560.238466 
L 293.858021 558.59493 
L 293.906567 559.661576 
L 293.945404 560.797967 
L 294.091042 554.572731 
L 294.129878 556.062351 
L 294.197843 555.570125 
L 294.314353 553.079058 
L 294.23668 555.577228 
L 294.333772 553.480673 
L 294.343481 553.08554 
L 294.382318 554.611369 
L 294.440573 556.34518 
L 294.401736 554.231049 
L 294.498828 556.327855 
L 294.518246 556.190142 
L 294.527956 556.441475 
L 294.644466 559.65472 
L 294.557083 556.159171 
L 294.673594 558.549716 
L 294.693012 558.452002 
L 294.702721 558.657632 
L 294.799813 560.779856 
L 294.819232 560.009709 
L 294.828941 559.999709 
L 294.95516 556.879776 
L 295.013416 557.959865 
L 295.032834 556.199492 
L 295.052252 557.121304 
L 295.08138 555.943108 
L 295.120217 558.36055 
L 295.139635 558.034874 
L 295.149344 558.447784 
L 295.19789 556.515507 
L 295.275564 552.641183 
L 295.333819 553.744118 
L 295.343528 554.664527 
L 295.430911 552.479946 
L 295.45033 552.000702 
L 295.469748 552.960063 
L 295.518294 550.087055 
L 295.586258 551.717482 
L 295.605677 553.619949 
L 295.673641 550.236898 
L 295.69306 549.237741 
L 295.741606 550.75746 
L 295.780442 549.839852 
L 295.858116 552.169153 
L 295.887244 550.99599 
L 295.945499 553.273208 
L 295.955208 553.739419 
L 296.013463 552.345828 
L 296.032882 552.971103 
L 296.100846 551.685175 
L 296.071718 553.804654 
L 296.120264 553.360177 
L 296.217356 555.562946 
L 296.159101 553.345911 
L 296.246484 555.060225 
L 296.256193 555.113872 
L 296.372704 549.34969 
L 296.392122 549.747525 
L 296.430959 547.717919 
L 296.508632 549.026427 
L 296.722235 556.906744 
L 296.731944 556.806523 
L 296.897 551.823524 
L 296.916419 552.413966 
L 296.955256 550.241953 
L 296.974674 549.177904 
L 297.032929 550.386556 
L 297.042638 549.756811 
L 297.188276 556.598764 
L 297.197986 556.394662 
L 297.372751 561.262291 
L 297.38246 560.59287 
L 297.39217 561.027423 
L 297.450425 560.082689 
L 297.460134 560.26017 
L 297.479552 558.978087 
L 297.547517 561.035771 
L 297.566935 560.444777 
L 297.615481 562.327172 
L 297.693155 561.425033 
L 297.829084 557.476774 
L 297.887339 561.885741 
L 297.974722 561.151175 
L 298.023268 560.704327 
L 297.99414 561.774729 
L 298.042686 561.523415 
L 298.052395 561.780651 
L 298.081523 559.844767 
L 298.159196 557.43132 
L 298.207742 558.883892 
L 298.217452 559.017194 
L 298.23687 557.93342 
L 298.246579 558.243 
L 298.275707 556.582861 
L 298.324253 559.687858 
L 298.343671 558.500459 
L 298.36309 559.002564 
L 298.401926 556.984568 
L 298.440763 558.436114 
L 298.547564 555.674161 
L 298.489309 558.96446 
L 298.576692 556.060213 
L 298.634947 559.362213 
L 298.702912 558.673025 
L 298.712621 559.59574 
L 298.780585 556.578815 
L 298.887386 554.459854 
L 298.916514 555.011225 
L 298.926223 555.023594 
L 298.935932 555.680061 
L 298.96506 552.633511 
L 299.023315 554.676822 
L 299.100989 552.365516 
L 299.139826 552.740099 
L 299.20779 554.986483 
L 299.266045 554.270074 
L 299.3243 552.518439 
L 299.343719 554.400431 
L 299.363137 554.218929 
L 299.392265 556.2629 
L 299.489357 555.378375 
L 299.499066 555.4008 
L 299.508775 555.275863 
L 299.57674 552.994362 
L 299.605867 555.058979 
L 299.722378 557.448445 
L 299.732087 557.332654 
L 299.897143 551.157377 
L 299.770924 557.402986 
L 299.916562 552.668986 
L 299.965108 552.933015 
L 299.974817 552.10822 
L 300.003944 551.584663 
L 300.033072 552.598802 
L 300.17871 558.2717 
L 300.188419 558.152468 
L 300.256384 556.68111 
L 300.324348 557.319141 
L 300.450568 562.505688 
L 300.469986 562.50138 
L 300.518532 560.225576 
L 300.586496 561.364116 
L 300.635042 560.762242 
L 300.625333 561.626242 
L 300.644752 561.588795 
L 300.693298 562.753467 
L 300.712716 561.68706 
L 300.751553 559.842908 
L 300.829226 560.547295 
L 300.965155 563.399505 
L 301.003992 562.678941 
L 301.139921 559.531501 
L 301.14963 559.665138 
L 301.256431 562.134769 
L 301.27585 561.016692 
L 301.314686 560.1392 
L 301.363232 560.471257 
L 301.372942 561.451112 
L 301.39236 558.773046 
L 301.460324 559.723979 
L 301.50887 560.413741 
L 301.499161 559.209511 
L 301.547707 559.619115 
L 301.576835 557.842461 
L 301.654508 559.190818 
L 301.673927 558.995804 
L 301.693345 559.773236 
L 301.76131 562.123824 
L 301.809856 560.481036 
L 301.819565 561.324069 
L 301.897238 558.428539 
L 301.926366 560.044379 
L 301.974912 558.290694 
L 302.033167 559.392472 
L 302.12055 558.935447 
L 302.091422 560.201169 
L 302.149678 559.076766 
L 302.159387 559.342737 
L 302.198224 558.230305 
L 302.24677 559.009248 
L 302.353571 552.77305 
L 302.36328 552.717628 
L 302.47979 549.748981 
L 302.4895 550.44406 
L 302.499209 550.769906 
L 302.528336 548.788125 
L 302.596301 550.419254 
L 302.654556 548.899681 
L 302.712811 550.128386 
L 302.897286 553.029682 
L 302.906995 552.941925 
L 302.96525 551.138844 
L 303.004087 553.347339 
L 303.013796 552.78477 
L 303.033215 553.222947 
L 303.072052 551.898324 
L 303.188562 549.819558 
L 303.198271 549.850944 
L 303.20798 549.843109 
L 303.256526 547.67784 
L 303.314782 549.616096 
L 303.324491 549.596522 
L 303.382746 548.188849 
L 303.363328 550.776029 
L 303.431292 549.212952 
L 303.46042 550.012152 
L 303.508966 548.227625 
L 303.518675 548.549269 
L 303.547802 547.258047 
L 303.596348 548.557079 
L 303.615767 548.306008 
L 303.674022 550.560636 
L 303.722568 548.995314 
L 303.771114 547.346454 
L 303.790532 549.385346 
L 303.829369 548.653595 
L 303.887624 550.331502 
L 303.868206 548.02589 
L 303.965298 549.517953 
L 304.091518 546.427895 
L 304.101227 546.773285 
L 304.363375 553.423745 
L 304.140064 545.716798 
L 304.392503 551.973597 
L 304.441049 551.241731 
L 304.42163 552.089897 
L 304.479886 551.963352 
L 304.625524 556.155269 
L 304.635233 556.033038 
L 304.654651 556.122725 
L 304.79058 562.262113 
L 304.809998 562.34136 
L 304.829417 561.65164 
L 304.858544 563.73375 
L 304.90709 564.797391 
L 304.945927 562.565399 
L 305.004182 561.785367 
L 305.023601 563.323529 
L 305.072147 564.443584 
L 305.091565 562.409162 
L 305.130402 561.651083 
L 305.266331 557.219004 
L 305.382841 559.1658 
L 305.39255 558.883669 
L 305.470224 557.532416 
L 305.499352 558.913452 
L 305.528479 558.251938 
L 305.567316 559.062294 
L 305.703245 563.052092 
L 305.712954 562.878901 
L 305.722663 562.189809 
L 305.800337 564.255597 
L 305.955684 561.817355 
L 305.965393 562.331938 
L 306.023648 564.626317 
L 306.072194 562.556185 
L 306.188705 559.718905 
L 306.12074 562.686386 
L 306.217832 560.503222 
L 306.227542 560.549985 
L 306.237251 560.174729 
L 306.24696 559.850394 
L 306.285797 561.296714 
L 306.324634 560.904992 
L 306.344052 561.672703 
L 306.353761 562.029531 
L 306.402307 559.890275 
L 306.412016 559.989115 
L 306.441144 559.207687 
L 306.450853 558.61649 
L 306.48969 560.938564 
L 306.518818 560.845385 
L 306.547945 561.971786 
L 306.567364 560.293337 
L 306.645037 561.634977 
L 306.761548 559.829673 
L 306.771257 560.095247 
L 306.819803 559.077055 
L 306.839221 560.7 
L 306.85864 560.433715 
L 306.965441 561.88481 
L 306.878058 559.87932 
L 306.984859 561.362685 
L 307.081951 562.525698 
L 307.052824 561.14388 
L 307.111079 562.221357 
L 307.266426 559.747228 
L 307.276135 559.753086 
L 307.412064 565.139288 
L 307.441192 565.127339 
L 307.538284 564.346449 
L 307.480028 565.628328 
L 307.547993 565.183001 
L 307.567411 566.152435 
L 307.58683 564.915022 
L 307.606248 565.083381 
L 307.713049 562.781228 
L 307.751886 566.06862 
L 307.839269 565.507136 
L 307.916942 567.902137 
L 307.965488 566.378118 
L 308.07229 563.195622 
L 308.081999 563.611363 
L 308.091708 565.102767 
L 308.179091 562.667614 
L 308.324729 560.074609 
L 308.344147 560.088702 
L 308.460658 561.576223 
L 308.382984 558.932318 
L 308.470367 561.051325 
L 308.54804 559.371225 
L 308.567459 560.481741 
L 308.683969 563.893595 
L 308.693678 562.890109 
L 308.703388 562.485662 
L 308.732515 564.494232 
L 308.751934 564.142861 
L 308.829607 566.920211 
L 308.868444 566.511014 
L 308.91699 565.409109 
L 308.965536 566.64427 
L 308.975245 566.121979 
L 308.994664 566.892221 
L 309.004373 566.097826 
L 309.082046 561.76278 
L 309.150011 563.732673 
L 309.15972 564.860485 
L 309.217975 561.661536 
L 309.256812 563.421376 
L 309.421868 559.592455 
L 309.324776 564.094476 
L 309.460705 560.498753 
L 309.489833 562.538448 
L 309.567506 561.169046 
L 309.596634 558.852405 
L 309.654889 561.258986 
L 309.674308 561.01719 
L 309.76169 561.822117 
L 309.829655 559.713441 
L 309.878201 560.708093 
L 309.936456 561.905596 
L 309.965584 559.713854 
L 310.00442 558.393608 
L 310.033548 560.073752 
L 310.052966 559.818381 
L 310.062676 560.095135 
L 310.111222 558.877853 
L 310.120931 558.955917 
L 310.159768 557.143479 
L 310.198604 559.406966 
L 310.218023 558.960815 
L 310.24715 559.476612 
L 310.295696 557.877162 
L 310.305406 557.837114 
L 310.441334 563.222737 
L 310.470462 562.739804 
L 310.480171 562.478689 
L 310.509299 564.307762 
L 310.635518 567.874745 
L 310.654937 567.481785 
L 310.664646 567.267135 
L 310.693774 568.707772 
L 310.800575 570.945725 
L 310.829702 570.919687 
L 310.849121 570.814401 
L 310.85883 570.855962 
L 310.917085 570.343767 
L 311.043305 574.597612 
L 311.188943 572.597775 
L 311.198652 572.612726 
L 311.208361 572.456254 
L 311.22778 571.357681 
L 311.286035 572.773912 
L 311.315162 572.763645 
L 311.324872 574.043219 
L 311.383127 572.642983 
L 311.421964 573.230224 
L 311.451091 571.906483 
L 311.519056 573.611225 
L 311.528765 573.056173 
L 311.654984 575.030209 
L 311.596729 572.563311 
L 311.664694 574.767846 
L 311.684112 575.092081 
L 311.858878 578.851264 
L 311.888005 578.428345 
L 312.053062 576.296545 
L 312.150154 579.583208 
L 312.237536 578.770948 
L 312.256955 578.061031 
L 312.295792 579.318342 
L 312.344338 578.980844 
L 312.363756 578.884249 
L 312.383174 579.465137 
L 312.402593 580.322347 
L 312.44143 578.749075 
L 312.470557 579.081802 
L 312.606486 576.344697 
L 312.616195 576.547265 
L 312.67445 577.612734 
L 312.703578 577.124404 
L 312.810379 574.060176 
L 312.839507 574.207691 
L 312.878344 575.886941 
L 312.946308 574.235067 
L 313.072528 572.368213 
L 312.975436 574.541764 
L 313.082237 572.613807 
L 313.101655 572.836597 
L 313.121074 572.135815 
L 313.15991 570.216092 
L 313.227875 572.014417 
L 313.28613 573.277853 
L 313.315258 571.823795 
L 313.354094 572.55535 
L 313.40264 571.33723 
L 313.441477 572.935841 
L 313.460896 572.856087 
L 313.538569 573.22683 
L 313.490023 572.21149 
L 313.577406 573.218435 
L 313.693916 569.368875 
L 313.723044 569.594781 
L 313.791008 570.262761 
L 313.810427 568.789604 
L 313.936646 566.539161 
L 313.946356 566.637634 
L 313.985192 566.918683 
L 314.004611 566.117208 
L 314.01432 566.207329 
L 314.024029 565.929946 
L 314.072575 567.532535 
L 314.266759 573.094019 
L 314.101703 567.365165 
L 314.325014 572.28597 
L 314.431816 571.830613 
L 314.402688 572.972201 
L 314.441525 572.132276 
L 314.451234 572.238741 
L 314.460943 571.647556 
L 314.480362 570.533642 
L 314.519198 572.6843 
L 314.558035 572.244381 
L 314.674546 573.792514 
L 314.693964 573.642198 
L 314.781347 570.64062 
L 314.810474 572.332973 
L 314.917276 573.950842 
L 314.849311 571.981502 
L 314.926985 573.260965 
L 314.994949 574.258255 
L 314.956112 572.625593 
L 315.024077 573.449791 
L 315.130878 570.800385 
L 315.169715 570.859255 
L 315.179424 570.834354 
L 315.198842 571.039293 
L 315.208552 571.070717 
L 315.218261 572.094145 
L 315.276516 570.52669 
L 315.315353 570.644696 
L 315.35419 571.649739 
L 315.393026 570.389775 
L 315.402736 570.663445 
L 315.460991 569.506025 
L 315.499828 570.939265 
L 315.528955 570.756432 
L 315.626047 572.70561 
L 315.761976 567.404632 
L 315.781394 567.489026 
L 315.985288 564.138246 
L 315.994997 564.376956 
L 316.111507 566.438993 
L 316.014415 564.077449 
L 316.121216 565.47972 
L 316.32511 563.393775 
L 316.208599 565.743332 
L 316.344528 563.685849 
L 316.402783 564.856056 
L 316.431911 562.805201 
L 316.44162 562.753112 
L 316.470748 563.040608 
L 316.655222 565.936291 
L 316.529003 562.928199 
L 316.694059 565.50427 
L 316.732896 564.180046 
L 316.781442 565.778546 
L 316.791151 565.551921 
L 316.80086 567.207482 
L 316.878534 564.772012 
L 316.897952 565.012467 
L 316.92708 565.741236 
L 317.063009 561.608647 
L 317.208647 568.79765 
L 317.29603 565.701687 
L 317.334866 567.145124 
L 317.373703 567.58402 
L 317.354285 566.848534 
L 317.383412 566.948943 
L 317.402831 564.935192 
L 317.461086 567.443011 
L 317.490214 566.289232 
L 317.499923 567.359231 
L 317.577596 565.839653 
L 317.597015 566.590044 
L 317.616433 566.895988 
L 317.626142 565.640659 
L 317.732944 563.660017 
L 317.645561 565.81901 
L 317.742653 564.414389 
L 318.033929 555.450779 
L 318.14073 556.865173 
L 318.101893 554.861085 
L 318.169858 556.232326 
L 318.179567 556.219667 
L 318.25724 553.914886 
L 318.296077 555.625542 
L 318.305786 555.7965 
L 318.334914 554.434838 
L 318.344623 554.440864 
L 318.451424 558.027021 
L 318.480552 557.911904 
L 318.587353 554.945429 
L 318.616481 555.486996 
L 318.645608 557.385643 
L 318.723282 555.118372 
L 318.781537 555.737707 
L 318.7427 553.562058 
L 318.810665 554.733717 
L 318.839792 553.929599 
L 318.86892 554.607416 
L 318.956303 552.526852 
L 318.98543 555.970824 
L 319.004849 555.934154 
L 319.11165 560.040277 
L 319.140778 558.944634 
L 319.150487 558.857522 
L 319.179614 560.924714 
L 319.266997 559.731263 
L 319.344671 557.08684 
L 319.393217 558.636703 
L 319.47089 561.476807 
L 319.490309 558.480037 
L 319.500018 557.187353 
L 319.59711 558.071753 
L 319.752457 562.239177 
L 319.694202 558.06102 
L 319.762166 561.904798 
L 319.771876 561.342738 
L 319.820422 564.281142 
L 319.830131 564.586134 
L 319.859258 562.467718 
L 319.927223 560.679695 
L 319.975769 561.021238 
L 319.985478 561.303371 
L 320.004896 559.996407 
L 320.101988 556.54247 
L 320.131116 557.318268 
L 320.160244 558.578405 
L 320.218499 556.78777 
L 320.228208 556.932783 
L 320.237917 556.450991 
L 320.305882 558.146689 
L 320.354428 559.471296 
L 320.3253 557.861236 
L 320.412683 557.948274 
L 320.45152 558.787112 
L 320.519484 557.587062 
L 320.538902 558.613192 
L 320.577739 556.121228 
L 320.597158 556.500905 
L 320.606867 556.190359 
L 320.626285 557.713523 
L 320.68454 556.996194 
L 320.723377 557.934301 
L 320.771923 556.035782 
L 320.781632 556.496489 
L 320.801051 557.191369 
L 320.830178 556.038902 
L 320.869015 554.965522 
L 320.907852 557.027237 
L 320.92727 556.99114 
L 321.140873 562.21816 
L 321.150582 561.722184 
L 321.17 560.436615 
L 321.247674 563.000399 
L 321.383603 567.247191 
L 321.509822 566.978633 
L 321.558368 565.40361 
L 321.597205 567.151007 
L 321.626333 566.183547 
L 321.65546 565.555957 
L 321.694297 567.328777 
L 321.713716 566.527621 
L 321.742843 566.892697 
L 321.762262 565.394312 
L 321.810808 566.183699 
L 321.878772 567.059533 
L 322.014701 561.232347 
L 322.053538 560.80323 
L 322.072956 561.506919 
L 322.082665 562.197772 
L 322.170048 560.732075 
L 322.189466 560.44252 
L 322.247722 562.040493 
L 322.257431 562.808357 
L 322.315686 560.592147 
L 322.325395 561.02275 
L 322.38365 559.4725 
L 322.412778 561.543259 
L 322.432196 561.237446 
L 322.577834 566.82996 
L 322.62638 566.310589 
L 322.665217 566.656605 
L 322.645799 566.147698 
L 322.694345 566.145876 
L 322.801146 562.717221 
L 322.839983 564.02858 
L 322.86911 565.66547 
L 322.917656 563.547478 
L 323.043876 556.361028 
L 323.102131 557.901465 
L 323.179805 560.785703 
L 323.247769 559.647197 
L 323.412826 554.367461 
L 323.441953 555.992236 
L 323.471081 557.146596 
L 323.539045 555.162665 
L 323.577882 554.202804 
L 323.5973 555.787504 
L 323.636137 557.736885 
L 323.694392 555.735613 
L 323.830321 553.586268 
L 323.975959 551.958434 
L 323.84974 553.834858 
L 323.985668 552.634884 
L 324.005087 554.715377 
L 324.034214 552.514796 
L 324.073051 552.611899 
L 324.218689 548.221246 
L 324.228398 548.550809 
L 324.247817 546.644044 
L 324.286654 547.356071 
L 324.306072 545.835017 
L 324.32549 547.569908 
L 324.393455 547.300472 
L 324.442001 547.103836 
L 324.56822 553.064829 
L 324.616766 551.581515 
L 324.655603 553.621459 
L 324.781823 555.700907 
L 324.791532 555.279076 
L 324.82066 556.080495 
L 324.869206 555.236528 
L 324.898333 554.233159 
L 324.946879 557.300608 
L 325.160482 563.356108 
L 325.189609 563.987749 
L 325.199318 562.582075 
L 325.374084 557.154884 
L 325.238155 563.512613 
L 325.393502 558.794794 
L 325.403212 559.550227 
L 325.461467 556.357264 
L 325.471176 555.380346 
L 325.54885 557.322014 
L 325.675069 561.797629 
L 325.704197 560.533684 
L 325.733324 561.042063 
L 325.743034 560.165603 
L 325.752743 560.840054 
L 325.810998 561.910114 
L 325.878962 559.021617 
L 325.898381 559.312731 
L 326.014891 562.662691 
L 325.927508 558.42906 
L 326.044019 561.892206 
L 326.073146 563.254719 
L 326.082856 564.119382 
L 326.131402 560.044014 
L 326.15082 560.873252 
L 326.160529 560.74009 
L 326.170238 561.800974 
L 326.189657 561.607933 
L 326.26733 563.263542 
L 326.286749 561.676842 
L 326.422678 559.376451 
L 326.442096 559.744766 
L 326.480933 558.155184 
L 326.578025 555.890721 
L 326.607152 557.058186 
L 326.704244 554.303222 
L 326.7625 556.333615 
L 326.801336 556.28418 
L 326.946974 563.385074 
L 326.985811 562.412291 
L 327.034357 564.571028 
L 327.044066 564.60024 
L 327.131449 568.223316 
L 327.179995 567.362262 
L 327.189704 567.355247 
L 327.335342 564.252372 
L 327.354761 564.909701 
L 327.383888 563.479058 
L 327.422725 561.159612 
L 327.510108 561.423297 
L 327.675164 558.434125 
L 327.694583 559.338457 
L 327.859639 565.829892 
L 327.888767 566.080883 
L 327.96644 564.543969 
L 328.063532 567.333284 
L 328.09266 567.226579 
L 328.102369 567.188442 
L 328.112078 567.713463 
L 328.180043 565.836491 
L 328.21888 566.809426 
L 328.296553 565.182876 
L 328.315972 565.674261 
L 328.33539 564.506068 
L 328.354808 564.807561 
L 328.383936 563.261799 
L 328.422773 565.991507 
L 328.4519 565.223279 
L 328.529574 566.227136 
L 328.481028 564.26653 
L 328.539283 565.573626 
L 328.636375 562.898304 
L 328.655794 564.383707 
L 328.675212 566.149836 
L 328.752886 562.531801 
L 328.869396 566.56219 
L 329.053871 569.770494 
L 328.888814 566.486968 
L 329.06358 569.033897 
L 329.073289 568.291014 
L 329.141254 570.526902 
L 329.150963 569.877698 
L 329.199509 572.164292 
L 329.238346 569.717799 
L 329.277182 571.093937 
L 329.374274 567.550897 
L 329.413111 569.164294 
L 329.558749 571.454245 
L 329.43253 568.743131 
L 329.617004 570.202246 
L 329.626714 570.219954 
L 329.636423 570.143812 
L 329.714096 571.115188 
L 329.723806 569.842002 
L 329.743224 569.999231 
L 329.762642 569.677759 
L 329.79177 568.487485 
L 329.820898 570.121119 
L 329.879153 569.25143 
L 330.0345 574.602492 
L 330.053918 572.913967 
L 330.102464 574.914188 
L 330.141301 574.799336 
L 330.209266 572.857405 
L 330.267521 573.763677 
L 330.27723 574.539765 
L 330.316067 573.421984 
L 330.374322 573.801452 
L 330.40345 573.079145 
L 330.422868 574.763704 
L 330.461705 574.32146 
L 330.481123 574.913572 
L 330.500542 573.37537 
L 330.510251 572.45547 
L 330.587924 575.406389 
L 330.607343 575.728808 
L 330.626761 575.196842 
L 330.714144 575.78307 
L 330.743272 574.50547 
L 330.830654 576.408697 
L 330.76269 574.0835 
L 330.898619 575.734548 
L 330.947165 573.857619 
L 330.976292 576.42912 
L 331.00542 575.681007 
L 331.015129 575.712135 
L 331.034548 574.648342 
L 331.073384 575.994512 
L 331.13164 575.087994 
L 331.141349 575.74408 
L 331.238441 575.626133 
L 331.277278 574.364567 
L 331.37437 574.494902 
L 331.413206 574.111671 
L 331.500589 576.29485 
L 331.510298 576.252297 
L 331.549135 574.549017 
L 331.60739 577.531565 
L 331.811284 580.877661 
L 331.85983 580.800092 
L 332.024886 577.330083 
L 332.034595 577.393868 
L 332.10256 578.637316 
L 332.160815 578.503964 
L 332.325871 575.312452 
L 332.34529 575.911463 
L 332.403545 578.34139 
L 332.471509 577.197375 
L 332.481218 576.788937 
L 332.539474 578.436839 
L 332.568601 577.423974 
L 332.617147 579.242245 
L 332.70453 578.5077 
L 332.714239 578.08544 
L 332.772494 579.428121 
L 332.811331 578.470051 
L 332.879296 580.43901 
L 332.956969 579.771225 
L 332.976388 579.568393 
L 333.034643 578.744979 
L 333.06377 580.180919 
L 333.092898 578.841696 
L 333.131735 579.070895 
L 333.151153 578.692191 
L 333.160862 578.719477 
L 333.209408 577.184578 
L 333.277373 578.424471 
L 333.364756 580.924156 
L 333.442429 579.688655 
L 333.578358 581.787213 
L 333.67545 581.310856 
L 333.685159 580.959943 
L 333.762833 581.986798 
L 333.811379 581.853026 
L 333.830797 582.52051 
L 333.840506 582.832777 
L 333.898762 581.867644 
L 333.91818 582.067988 
L 333.927889 582.064379 
L 333.986144 582.904086 
L 334.054109 582.865984 
L 334.170619 583.543652 
L 334.238584 582.063469 
L 334.316257 582.154018 
L 334.325966 582.321559 
L 334.374512 581.763246 
L 334.384222 581.151023 
L 334.442477 582.84135 
L 334.461895 582.5663 
L 334.471604 582.764842 
L 334.500732 582.120715 
L 334.558987 582.426151 
L 334.685207 580.703362 
L 334.724044 580.942116 
L 334.753171 580.793515 
L 334.77259 580.084432 
L 334.811426 581.076393 
L 334.850263 581.070733 
L 334.859972 581.055081 
L 334.879391 580.150791 
L 334.947355 581.063291 
L 334.957064 580.963995 
L 334.976483 581.941158 
L 335.054156 580.329986 
L 335.102702 580.12535 
L 335.13183 580.735469 
L 335.141539 580.651091 
L 335.170667 581.020473 
L 335.219213 580.27835 
L 335.326014 578.491718 
L 335.25805 580.634245 
L 335.355142 578.826267 
L 335.452234 581.087585 
L 335.481361 580.354841 
L 335.49107 580.601266 
L 335.529907 579.65317 
L 335.578453 580.190068 
L 335.704673 578.014639 
L 335.714382 578.100455 
L 335.782346 576.634771 
L 335.840602 577.056938 
L 336.044495 574.591054 
L 335.889148 577.091373 
L 336.073622 575.152372 
L 336.161005 577.298873 
L 336.209551 576.386035 
L 336.277516 573.885116 
L 336.335771 574.70626 
L 336.34548 574.550324 
L 336.374608 575.742893 
L 336.384317 575.588533 
L 336.394026 575.603829 
L 336.510536 576.742408 
L 336.442572 574.92047 
L 336.520246 576.5511 
L 336.539664 575.976634 
L 336.559082 576.90156 
L 336.627047 576.436095 
L 336.801812 579.949949 
L 336.821231 579.937296 
L 336.879486 579.119888 
L 336.928032 579.908927 
L 336.937741 579.992348 
L 336.95716 579.728977 
L 337.07367 577.914491 
L 337.083379 578.425446 
L 337.093088 578.607224 
L 337.122216 577.562871 
L 337.131925 577.089732 
L 337.19018 578.832895 
L 337.219308 577.888984 
L 337.258145 578.599376 
L 337.296982 577.659453 
L 337.306691 577.431623 
L 337.3164 578.092004 
L 337.384364 577.806675 
L 337.394074 578.065002 
L 337.43291 576.927131 
L 337.44262 576.958735 
L 337.520293 575.295604 
L 337.55913 576.243742 
L 337.67564 578.507415 
L 337.704768 577.867461 
L 337.792151 575.970638 
L 337.830988 577.038012 
L 337.898952 578.045996 
L 337.92808 577.062021 
L 337.966916 575.293895 
L 338.025172 577.389927 
L 338.17081 579.275474 
L 338.209646 578.753765 
L 338.297029 578.403781 
L 338.258192 578.984241 
L 338.316448 578.676219 
L 338.345575 579.715805 
L 338.40383 578.469296 
L 338.481504 577.148879 
L 338.53005 577.656071 
L 338.598014 577.051511 
L 338.568887 578.0932 
L 338.617433 577.835986 
L 338.763071 579.445417 
L 338.782489 579.158357 
L 338.850454 578.469688 
L 338.821326 579.319535 
L 338.879581 578.798162 
L 338.996092 581.680511 
L 339.034928 581.635357 
L 339.054347 581.1898 
L 339.112602 582.168861 
L 339.151439 582.135208 
L 339.248531 583.120085 
L 339.355332 581.780606 
L 339.394169 582.153867 
L 339.462133 582.648402 
L 339.491261 581.83343 
L 339.50097 582.131843 
L 339.549516 581.321437 
L 339.588353 582.142025 
L 339.61748 581.811768 
L 339.695154 582.469611 
L 339.733991 581.958131 
L 339.86992 580.49779 
L 339.879629 580.548112 
L 339.899047 580.103675 
L 339.908756 580.119252 
L 340.190323 573.045972 
L 340.238869 575.18161 
L 340.248578 575.177415 
L 340.267997 575.697245 
L 340.277706 575.112831 
L 340.287415 575.302236 
L 340.365089 573.634448 
L 340.394216 574.641399 
L 340.442762 573.961278 
L 340.656365 578.509207 
L 340.743748 580.04651 
L 340.821421 579.311242 
L 340.83113 578.957776 
L 340.908804 579.986301 
L 340.918513 580.141523 
L 340.95735 579.483458 
L 340.986478 579.530132 
L 341.005896 579.634345 
L 341.015605 579.367272 
L 341.035024 578.620445 
L 341.112697 579.842942 
L 341.122406 579.739446 
L 341.170952 580.036754 
L 341.219498 580.748926 
L 341.277754 579.938263 
L 341.297172 580.745899 
L 341.306881 580.734131 
L 341.423392 582.08786 
L 341.433101 581.786496 
L 341.55932 580.852049 
L 341.56903 581.197288 
L 341.636994 580.297882 
L 341.656412 580.355462 
L 341.81176 577.366819 
L 341.850596 577.648186 
L 341.870015 576.442506 
L 341.879724 577.128165 
L 341.986525 576.269535 
L 341.996234 576.558948 
L 342.073908 577.074138 
L 342.04478 576.278836 
L 342.103036 576.673389 
L 342.209837 575.619317 
L 342.122454 576.979579 
L 342.248674 575.834399 
L 342.258383 575.913754 
L 342.268092 575.723371 
L 342.355475 573.886059 
L 342.306929 575.968011 
L 342.384602 574.432451 
L 342.41373 574.05178 
L 342.442858 575.268418 
L 342.481694 575.265985 
L 342.578786 576.832445 
L 342.627332 577.878398 
L 342.675878 577.306848 
L 342.724424 577.320497 
L 342.821516 573.6563 
L 342.831226 574.635668 
L 342.889481 572.859738 
L 342.938027 574.423658 
L 342.947736 574.466105 
L 342.957445 574.13723 
L 342.976864 573.242345 
L 343.0157 574.827736 
L 343.073956 573.567748 
L 343.103083 573.280203 
L 343.112792 573.722826 
L 343.122502 574.93999 
L 343.209884 573.271834 
L 343.345813 571.47857 
L 343.287558 573.666334 
L 343.355522 572.048672 
L 343.404068 571.27983 
L 343.452614 572.364843 
L 343.578834 570.642678 
L 343.481742 572.756144 
L 343.588543 570.868058 
L 343.598252 570.58891 
L 343.637089 572.576141 
L 343.666217 573.634861 
L 343.705054 571.430283 
L 343.782727 568.016878 
L 343.879819 565.801424 
L 343.899238 566.517803 
L 343.908947 567.335395 
L 343.947784 563.669375 
L 343.976911 563.963349 
L 343.98662 563.965155 
L 343.99633 563.856894 
L 344.11284 561.781916 
L 344.074003 564.286254 
L 344.132258 562.596766 
L 344.141968 563.354216 
L 344.219641 561.576466 
L 344.287606 560.59693 
L 344.307024 561.745248 
L 344.384698 564.101835 
L 344.423534 562.322476 
L 344.540045 560.141864 
L 344.491499 562.519753 
L 344.578882 560.439523 
L 344.646846 563.786204 
L 344.71481 562.55023 
L 344.811902 559.760552 
L 344.753647 562.632705 
L 344.84103 561.677153 
L 344.860448 561.021015 
L 344.976959 562.460192 
L 345.015796 561.064774 
L 345.074051 562.996389 
L 345.103178 562.49596 
L 345.132306 564.088447 
L 345.287653 569.551809 
L 345.32649 568.64328 
L 345.413873 564.935064 
L 345.443 565.709109 
L 345.588638 569.064431 
L 345.627475 568.892463 
L 345.637184 568.272953 
L 345.69544 570.605434 
L 345.724567 569.232253 
L 345.734276 570.169929 
L 345.782822 567.209873 
L 345.81195 567.564726 
L 345.831368 567.402486 
L 345.860496 568.197769 
L 345.889624 567.687056 
L 345.967297 568.638178 
L 345.957588 567.558554 
L 345.986716 567.750784 
L 346.006134 566.0003 
L 346.083808 568.419862 
L 346.093517 568.148975 
L 346.132354 570.088448 
L 346.210027 569.070017 
L 346.287701 565.915908 
L 346.326538 568.32062 
L 346.336247 568.422819 
L 346.375084 566.354544 
L 346.42363 570.066284 
L 346.433339 569.805519 
L 346.472176 568.995274 
L 346.491594 570.609322 
L 346.54014 569.817146 
L 346.617814 572.50658 
L 346.66636 572.095443 
L 346.763452 573.656523 
L 346.802288 573.200193 
L 346.831416 571.764361 
L 346.89938 573.12597 
L 347.045018 575.85303 
L 347.103274 574.298664 
L 347.161529 574.300638 
L 347.307167 577.779898 
L 347.190656 573.98639 
L 347.316876 577.485324 
L 347.433386 575.727924 
L 347.443096 576.238819 
L 347.481932 575.95846 
L 347.520769 575.006763 
L 347.549897 576.571453 
L 347.588734 575.736537 
L 347.608152 576.330079 
L 347.62757 575.466382 
L 347.695535 573.432406 
L 347.734372 574.49306 
L 347.850882 577.187878 
L 347.860591 576.904332 
L 347.88001 576.552692 
L 347.889719 576.680894 
L 347.957683 576.684531 
L 348.006229 575.729357 
L 348.074194 576.773862 
L 348.045066 575.504329 
L 348.12274 576.178145 
L 348.180995 574.933104 
L 348.142158 576.411544 
L 348.219832 576.029922 
L 348.316924 577.75031 
L 348.346051 577.427708 
L 348.35576 576.951534 
L 348.423725 578.288475 
L 348.443143 578.097017 
L 348.472271 578.916091 
L 348.48198 578.613486 
L 348.520817 577.351936 
L 348.588781 577.983683 
L 348.676164 578.408896 
L 348.6082 577.976381 
L 348.685873 578.228044 
L 348.705292 577.318381 
L 348.773256 579.138814 
L 348.782965 579.350113 
L 348.802384 578.741252 
L 348.870348 578.97726 
L 348.909185 579.034171 
L 349.006277 577.251887 
L 349.015986 577.66496 
L 349.074241 576.151577 
L 349.103369 575.323008 
L 349.132496 576.34043 
L 349.181042 575.491506 
L 349.268425 578.104373 
L 349.307262 577.020087 
L 349.394645 576.240415 
L 349.355808 577.685755 
L 349.423772 576.342103 
L 349.482028 577.347662 
L 349.511155 576.241182 
L 349.530574 576.258834 
L 349.540283 575.133291 
L 349.617956 577.80197 
L 349.627666 577.748462 
L 349.69563 578.425213 
L 349.656793 576.990161 
L 349.734467 577.949327 
L 349.841268 576.682514 
L 349.773304 578.627238 
L 349.889814 576.737979 
L 349.899523 576.74738 
L 350.18109 582.449384 
L 350.200508 582.249534 
L 350.210218 581.744263 
L 350.249054 583.111804 
L 350.287891 583.050408 
L 350.452948 584.78318 
L 350.491784 584.324399 
L 350.559749 584.96684 
L 350.569458 584.811733 
L 350.618004 585.554031 
L 350.627713 585.524407 
L 350.656841 585.586448 
L 350.773351 586.264404 
L 350.78306 586.19184 
L 350.79277 586.319547 
L 350.880152 586.06241 
L 350.889862 585.812222 
L 350.977244 586.334473 
L 350.986954 586.160234 
L 351.132592 587.195398 
L 351.161719 586.911194 
L 351.171428 586.90873 
L 351.26852 587.419672 
L 351.287939 587.242396 
L 351.317066 587.085621 
L 351.365612 587.452777 
L 351.385031 587.405841 
L 351.433577 587.901714 
L 351.52096 587.742348 
L 351.627761 586.831681 
L 351.647179 587.07048 
L 351.76369 586.652985 
L 351.695725 587.16269 
L 351.792817 586.736863 
L 351.967583 587.388773 
L 352.016129 587.514538 
L 352.084093 587.113244 
L 352.093802 587.125738 
L 352.171476 586.435116 
L 352.200604 587.123861 
L 352.210313 587.160207 
L 352.220022 586.922948 
L 352.268568 587.005919 
L 352.385078 586.315211 
L 352.404497 586.655314 
L 352.521007 586.973236 
L 352.462752 586.432428 
L 352.530716 586.884662 
L 352.686064 586.02803 
L 352.715191 586.279651 
L 352.754028 586.891091 
L 352.792865 586.008161 
L 352.821992 586.202895 
L 352.831702 586.045081 
L 352.860829 587.004032 
L 352.899666 586.633716 
L 352.987049 586.983346 
L 353.006467 586.896128 
L 353.084141 586.432866 
L 353.113268 586.730336 
L 353.132687 587.070204 
L 353.200651 587.485653 
L 353.249197 587.417182 
L 353.258906 587.38729 
L 353.288034 587.626047 
L 353.317162 587.899878 
L 353.346289 587.524405 
L 353.375417 587.635606 
L 353.433672 587.12743 
L 353.511346 587.180878 
L 353.530764 587.501254 
L 353.569601 586.928214 
L 353.598728 587.018825 
L 353.627856 587.0523 
L 353.792912 586.220902 
L 353.841458 585.864115 
L 353.870586 586.372822 
L 353.880295 586.28749 
L 353.909423 586.780723 
L 353.967678 585.959773 
L 353.987096 585.897953 
L 354.006515 586.102544 
L 354.19099 587.23436 
L 354.210408 587.095774 
L 354.229826 586.585215 
L 354.288082 587.433499 
L 354.3075 587.403269 
L 354.42401 587.034336 
L 354.336628 587.666115 
L 354.43372 587.076268 
L 354.501684 586.957129 
L 354.55023 587.316113 
L 354.637613 586.505142 
L 354.67645 586.966712 
L 354.802669 587.740797 
L 354.695868 586.911382 
L 354.822088 587.614649 
L 354.948307 588.041801 
L 355.016272 587.813805 
L 354.967726 588.131483 
L 355.064818 587.935375 
L 355.210456 588.169728 
L 355.326966 587.903688 
L 355.288129 588.210227 
L 355.346384 587.936962 
L 355.414349 588.265964 
L 355.453186 587.978144 
L 355.64737 587.159151 
L 355.666788 587.417685 
L 355.76388 588.323208 
L 355.812426 588.108596 
L 355.928936 587.698603 
L 355.948355 587.843356 
L 356.064865 588.359256 
L 356.084284 588.270138 
L 356.259049 588.982553 
L 356.278468 588.890258 
L 356.297886 589.020202 
L 356.443524 589.450578 
L 356.356141 588.99633 
L 356.453233 589.419095 
L 356.482361 589.473754 
L 356.521198 589.293121 
L 356.540616 589.340962 
L 356.550325 589.334016 
L 356.560034 589.44468 
L 356.589162 589.417643 
L 356.686254 589.459007 
L 356.676545 589.369865 
L 356.695963 589.437768 
L 356.705672 589.337177 
L 356.783346 589.6593 
L 356.793055 589.706178 
L 356.822183 589.475951 
L 356.86102 589.506902 
L 356.890147 589.374729 
L 356.919275 589.597779 
L 356.928984 589.655085 
L 356.958112 589.541504 
L 357.016367 589.559561 
L 357.035785 589.606574 
L 357.200842 589.42766 
L 357.268806 589.56474 
L 357.317352 589.445679 
L 357.356189 589.376144 
L 357.375607 589.203641 
L 357.46299 589.414203 
L 357.5795 589.69334 
L 357.58921 589.620078 
L 357.696011 589.515565 
L 357.608628 589.651785 
L 357.715429 589.582754 
L 357.83194 589.728385 
L 357.841649 589.72701 
L 357.977578 589.979365 
L 358.035833 590.053822 
L 358.07467 589.981824 
L 358.239726 589.594927 
L 358.249435 589.674997 
L 358.297981 589.69778 
L 358.268854 589.648668 
L 358.336818 589.613417 
L 358.521293 589.231643 
L 358.540711 589.154206 
L 358.608676 589.306416 
L 358.831987 589.59579 
L 358.938788 589.980829 
L 358.967916 589.910736 
L 358.997044 589.815142 
L 359.074717 589.870052 
L 359.220355 590.083868 
L 359.239774 590.102224 
L 359.27861 589.995436 
L 359.317447 589.941724 
L 359.375702 590.049044 
L 359.492213 590.181768 
L 359.501922 590.147815 
L 359.783489 589.809691 
L 359.870872 589.852792 
L 359.948545 589.60243 
L 359.987382 589.647981 
L 360.01651 589.593555 
L 360.103892 589.674298 
L 360.482551 589.11836 
L 360.171857 589.735919 
L 360.50197 589.26213 
L 360.599062 589.529926 
L 360.628189 589.402404 
L 360.667026 589.365532 
L 360.773827 589.649381 
L 360.793246 589.595802 
L 360.832082 589.801269 
L 360.958302 589.880221 
L 361.10394 589.567023 
L 361.162195 589.644841 
L 361.171904 589.712068 
L 361.201032 589.514607 
L 361.268996 589.641638 
L 361.307833 589.617447 
L 361.327252 589.726084 
L 361.385507 589.903643 
L 361.443762 589.847177 
L 361.46318 589.784747 
L 361.531145 589.932366 
L 361.696201 590.10266 
L 361.70591 590.077804 
L 361.793293 589.983866 
L 361.83213 590.053688 
L 361.841839 590.063733 
L 361.870967 589.975756 
L 361.938931 589.851904 
L 361.987477 589.880857 
L 362.113697 590.048847 
L 362.152534 590.1327 
L 362.20108 589.996491 
L 362.210789 589.999709 
L 362.259335 589.987633 
L 362.230207 589.942483 
L 362.278753 589.942045 
L 362.346718 589.733283 
L 362.404973 589.828322 
L 362.492356 589.965637 
L 362.521483 589.856407 
L 362.540902 589.77929 
L 362.570029 589.905888 
L 362.618575 589.89023 
L 362.637994 590.004465 
L 362.715667 589.870987 
L 362.725376 589.887684 
L 362.744795 589.744911 
L 362.832178 589.896514 
L 362.987525 590.120335 
L 363.026362 590.089387 
L 363.055489 589.976384 
L 363.152581 590.060196 
L 363.220546 589.945443 
L 363.230255 589.886361 
L 363.249673 590.00403 
L 363.327347 589.9584 
L 363.511822 589.869741 
L 363.618623 589.771631 
L 363.589495 589.96165 
L 363.638041 589.796214 
L 363.725424 589.734723 
L 363.783679 589.924916 
L 363.851644 589.69947 
L 363.909899 589.758611 
L 363.919608 589.792708 
L 363.987572 589.671905 
L 363.997282 589.685211 
L 364.006991 589.670643 
L 364.036118 589.825513 
L 364.094374 589.781838 
L 364.055537 589.756238 
L 364.104083 589.765152 
L 364.113792 589.723337 
L 364.172047 589.92386 
L 364.298267 590.067944 
L 364.405068 590.121254 
L 364.434196 590.091181 
L 364.550706 589.897508 
L 364.599252 589.955399 
L 364.647798 590.006968 
L 364.61867 589.918494 
L 364.686635 589.955955 
L 364.706053 589.867693 
L 364.774018 590.067066 
L 365.084712 589.603627 
L 364.832273 590.1252 
L 365.142967 589.749552 
L 365.152676 589.763933 
L 365.191513 589.631197 
L 365.201222 589.643463 
L 365.278896 589.452774 
L 365.308024 589.640685 
L 365.317733 589.678337 
L 365.375988 589.531778 
L 365.395406 589.573038 
L 365.405116 589.557126 
L 365.443952 589.640929 
L 365.463371 589.855179 
L 365.560463 589.831185 
L 365.725519 589.839913 
L 365.861448 590.121802 
L 365.890576 590.075311 
L 365.939122 589.883848 
L 366.026504 589.916576 
L 366.07505 590.09698 
L 366.133306 589.926584 
L 366.152724 589.895135 
L 366.20127 590.001518 
L 366.249816 589.94135 
L 366.356617 590.090713 
L 366.366326 590.06451 
L 366.405163 590.23527 
L 366.424582 590.217761 
L 366.541092 590.293828 
L 366.550801 590.268619 
L 366.579929 590.152533 
L 366.677021 590.214197 
L 366.725567 590.24107 
L 366.764404 590.175152 
L 366.80324 590.123597 
L 366.851786 590.242003 
L 366.880914 590.139232 
L 367.065389 590.123849 
L 367.075098 590.170779 
L 367.123644 590.275394 
L 367.181899 590.192885 
L 367.29841 590.007516 
L 367.317828 590.07268 
L 367.395502 590.276553 
L 367.434338 590.119991 
L 367.589686 590.064219 
L 367.65765 590.159507 
L 367.696487 590.106896 
L 367.793579 589.996473 
L 367.822706 590.080646 
L 367.90038 590.141799 
L 367.851834 590.04917 
L 367.919798 590.06424 
L 367.929508 590.027625 
L 368.01689 590.113912 
L 368.181947 590.015669 
L 368.249911 589.858987 
L 368.298457 589.940671 
L 368.414968 590.058696 
L 368.444095 590.039074 
L 368.550896 589.727314 
L 368.609152 589.988391 
L 368.638279 590.10208 
L 368.706244 589.951802 
L 368.725662 589.844321 
L 368.803336 590.027115 
L 368.813045 589.978944 
L 368.842172 589.986202 
L 368.851882 590.061552 
L 368.958683 590.318204 
L 368.99752 590.262742 
L 369.065484 590.102693 
L 369.123739 590.164744 
L 369.143158 590.196707 
L 369.181994 590.028104 
L 369.201413 590.069873 
L 369.259668 590.097299 
L 369.337342 589.997299 
L 369.347051 590.041448 
L 369.415015 589.894895 
L 369.580072 589.468036 
L 369.618908 589.619261 
L 369.677164 589.680714 
L 369.72571 589.595899 
L 369.735419 589.529744 
L 369.803383 589.761786 
L 369.949021 590.104019 
L 369.978149 590.010503 
L 369.987858 589.973611 
L 370.046113 590.09705 
L 370.075241 590.067476 
L 370.08495 590.086452 
L 370.123787 589.964129 
L 370.133496 589.896711 
L 370.191751 590.049163 
L 370.230588 589.955613 
L 370.279134 589.879625 
L 370.405354 589.705986 
L 370.415063 589.782645 
L 370.463609 589.514106 
L 370.492736 589.523989 
L 370.502446 589.454497 
L 370.57041 589.699042 
L 370.589828 589.635493 
L 370.978196 589.982394 
L 371.114125 589.744552 
L 371.133544 589.80751 
L 371.211217 589.697299 
L 371.220926 589.773618 
L 371.230636 589.739608 
L 371.250054 589.816707 
L 371.318018 589.794255 
L 371.463656 590.009174 
L 371.483075 589.92062 
L 371.560748 590.079137 
L 371.842315 589.797556 
L 371.881152 589.910804 
L 371.919989 590.13572 
L 372.017081 590.11434 
L 372.162719 590.12068 
L 372.279229 590.229554 
L 372.288938 590.206628 
L 373.162766 590.408491 
L 373.250149 590.363677 
L 373.191894 590.456127 
L 373.269568 590.436508 
L 373.386078 590.386984 
L 373.308404 590.481792 
L 373.405496 590.436964 
L 373.764737 590.362057 
L 374.075431 590.242121 
L 374.08514 590.285976 
L 374.82304 590.535026 
L 374.871586 590.61216 
L 374.929841 590.549653 
L 375.075479 590.538031 
L 375.162862 590.51777 
L 375.172571 590.485658 
L 375.240535 590.340667 
L 375.29879 590.433136 
L 375.66774 590.6182 
L 375.79396 590.648209 
L 375.803669 590.667109 
L 375.968725 590.747022 
L 375.978434 590.734423 
L 376.172618 590.636667 
L 376.318256 590.660961 
L 376.784298 590.769563 
L 377.00761 590.741793 
L 378.512536 590.817298 
L 378.82323 590.803167 
L 379.493165 590.775157 
L 379.716476 590.706923 
L 379.930079 590.759091 
L 380.066008 590.729761 
L 380.075717 590.739702 
L 380.366993 590.764648 
L 380.561177 590.818821 
L 380.862162 590.857144 
L 381.075764 590.852349 
L 381.240821 590.82294 
L 381.396168 590.832751 
L 381.842791 590.859771 
L 381.988429 590.85913 
L 382.493308 590.89394 
L 382.83313 590.907525 
L 383.629284 590.921617 
L 392.814187 590.95568 
L 394.610389 590.936711 
L 395.260906 590.944052 
L 397.892099 590.947279 
L 398.620289 590.947492 
L 399.591209 590.953629 
L 400.581547 590.956652 
L 410.203364 590.966383 
L 411.989857 590.97033 
L 454.933649 590.975394 
L 980.589737 590.976 
L 1191.726 590.976 
L 1191.726 590.976 
" clip-path="url(#p32418d4420)" style="fill: none; stroke: #1f77b4; stroke-width: 1.5; stroke-linecap: square"/>
   </g>
   <g id="patch_3">
    <path d="M 172.26 615.168 
L 172.26 82.944 
" style="fill: none; stroke: #000000; stroke-width: 0.8; stroke-linejoin: miter; stroke-linecap: square"/>
   </g>
   <g id="patch_4">
    <path d="M 1240.272 615.168 
L 1240.272 82.944 
" style="fill: none; stroke: #000000; stroke-width: 0.8; stroke-linejoin: miter; stroke-linecap: square"/>
   </g>
   <g id="patch_5">
    <path d="M 172.26 615.168 
L 1240.272 615.168 
" style="fill: none; stroke: #000000; stroke-width: 0.8; stroke-linejoin: miter; stroke-linecap: square"/>
   </g>
   <g id="patch_6">
    <path d="M 172.26 82.944 
L 1240.272 82.944 
" style="fill: none; stroke: #000000; stroke-width: 0.8; stroke-linejoin: miter; stroke-linecap: square"/>
   </g>
  </g>
 </g>
 <defs>
  <clipPath id="p32418d4420">
   <rect x="172.26" y="82.944" width="1068.012" height="532.224"/>
  </clipPath>
 </defs>
</svg>
