<?xml version="1.0" encoding="utf-8" standalone="no"?>
<!DOCTYPE svg PUBLIC "-//W3C//DTD SVG 1.1//EN"
  "http://www.w3.org/Graphics/SVG/1.1/DTD/svg11.dtd">
<svg xmlns:xlink="http://www.w3.org/1999/xlink" width="469.19952pt" height="353.99952pt" viewBox="0 0 469.19952 353.99952" xmlns="http://www.w3.org/2000/svg" version="1.1">
 <metadata>
  <rdf:RDF xmlns:dc="http://purl.org/dc/elements/1.1/" xmlns:cc="http://creativecommons.org/ns#" xmlns:rdf="http://www.w3.org/1999/02/22-rdf-syntax-ns#">
   <cc:Work>
    <dc:type rdf:resource="http://purl.org/dc/dcmitype/StillImage"/>
    <dc:date>2025-09-25T16:35:53.071141</dc:date>
    <dc:format>image/svg+xml</dc:format>
    <dc:creator>
     <cc:Agent>
      <dc:title>Matplotlib v3.6.3, https://matplotlib.org/</dc:title>
     </cc:Agent>
    </dc:creator>
   </cc:Work>
  </rdf:RDF>
 </metadata>
 <defs>
  <style type="text/css">*{stroke-linejoin: round; stroke-linecap: butt}</style>
 </defs>
 <g id="figure_1">
  <g id="patch_1">
   <path d="M 0 353.99952 
L 469.19952 353.99952 
L 469.19952 0 
L 0 0 
z
" style="fill: #ffffff"/>
  </g>
  <g id="axes_1">
   <g id="patch_2">
    <path d="M 30.103125 330.121395 
L 461.99952 330.121395 
L 461.99952 7.2 
L 30.103125 7.2 
z
" style="fill: #ffffff"/>
   </g>
   <g id="matplotlib.axis_1">
    <g id="xtick_1">
     <g id="line2d_1">
      <defs>
       <path id="mbe02f26cb5" d="M 0 0 
L 0 3.5 
" style="stroke: #000000; stroke-width: 0.8"/>
      </defs>
      <g>
       <use xlink:href="#mbe02f26cb5" x="49.734779" y="330.121395" style="stroke: #000000; stroke-width: 0.8"/>
      </g>
     </g>
     <g id="text_1">
      <!-- 0.0 -->
      <g transform="translate(41.783217 344.719832) scale(0.1 -0.1)">
       <defs>
        <path id="DejaVuSans-30" d="M 2034 4250 
Q 1547 4250 1301 3770 
Q 1056 3291 1056 2328 
Q 1056 1369 1301 889 
Q 1547 409 2034 409 
Q 2525 409 2770 889 
Q 3016 1369 3016 2328 
Q 3016 3291 2770 3770 
Q 2525 4250 2034 4250 
z
M 2034 4750 
Q 2819 4750 3233 4129 
Q 3647 3509 3647 2328 
Q 3647 1150 3233 529 
Q 2819 -91 2034 -91 
Q 1250 -91 836 529 
Q 422 1150 422 2328 
Q 422 3509 836 4129 
Q 1250 4750 2034 4750 
z
" transform="scale(0.015625)"/>
        <path id="DejaVuSans-2e" d="M 684 794 
L 1344 794 
L 1344 0 
L 684 0 
L 684 794 
z
" transform="scale(0.015625)"/>
       </defs>
       <use xlink:href="#DejaVuSans-30"/>
       <use xlink:href="#DejaVuSans-2e" x="63.623047"/>
       <use xlink:href="#DejaVuSans-30" x="95.410156"/>
      </g>
     </g>
    </g>
    <g id="xtick_2">
     <g id="line2d_2">
      <g>
       <use xlink:href="#mbe02f26cb5" x="98.818824" y="330.121395" style="stroke: #000000; stroke-width: 0.8"/>
      </g>
     </g>
     <g id="text_2">
      <!-- 2.5 -->
      <g transform="translate(90.867261 344.719832) scale(0.1 -0.1)">
       <defs>
        <path id="DejaVuSans-32" d="M 1228 531 
L 3431 531 
L 3431 0 
L 469 0 
L 469 531 
Q 828 903 1448 1529 
Q 2069 2156 2228 2338 
Q 2531 2678 2651 2914 
Q 2772 3150 2772 3378 
Q 2772 3750 2511 3984 
Q 2250 4219 1831 4219 
Q 1534 4219 1204 4116 
Q 875 4013 500 3803 
L 500 4441 
Q 881 4594 1212 4672 
Q 1544 4750 1819 4750 
Q 2544 4750 2975 4387 
Q 3406 4025 3406 3419 
Q 3406 3131 3298 2873 
Q 3191 2616 2906 2266 
Q 2828 2175 2409 1742 
Q 1991 1309 1228 531 
z
" transform="scale(0.015625)"/>
        <path id="DejaVuSans-35" d="M 691 4666 
L 3169 4666 
L 3169 4134 
L 1269 4134 
L 1269 2991 
Q 1406 3038 1543 3061 
Q 1681 3084 1819 3084 
Q 2600 3084 3056 2656 
Q 3513 2228 3513 1497 
Q 3513 744 3044 326 
Q 2575 -91 1722 -91 
Q 1428 -91 1123 -41 
Q 819 9 494 109 
L 494 744 
Q 775 591 1075 516 
Q 1375 441 1709 441 
Q 2250 441 2565 725 
Q 2881 1009 2881 1497 
Q 2881 1984 2565 2268 
Q 2250 2553 1709 2553 
Q 1456 2553 1204 2497 
Q 953 2441 691 2322 
L 691 4666 
z
" transform="scale(0.015625)"/>
       </defs>
       <use xlink:href="#DejaVuSans-32"/>
       <use xlink:href="#DejaVuSans-2e" x="63.623047"/>
       <use xlink:href="#DejaVuSans-35" x="95.410156"/>
      </g>
     </g>
    </g>
    <g id="xtick_3">
     <g id="line2d_3">
      <g>
       <use xlink:href="#mbe02f26cb5" x="147.902868" y="330.121395" style="stroke: #000000; stroke-width: 0.8"/>
      </g>
     </g>
     <g id="text_3">
      <!-- 5.0 -->
      <g transform="translate(139.951305 344.719832) scale(0.1 -0.1)">
       <use xlink:href="#DejaVuSans-35"/>
       <use xlink:href="#DejaVuSans-2e" x="63.623047"/>
       <use xlink:href="#DejaVuSans-30" x="95.410156"/>
      </g>
     </g>
    </g>
    <g id="xtick_4">
     <g id="line2d_4">
      <g>
       <use xlink:href="#mbe02f26cb5" x="196.986912" y="330.121395" style="stroke: #000000; stroke-width: 0.8"/>
      </g>
     </g>
     <g id="text_4">
      <!-- 7.5 -->
      <g transform="translate(189.035349 344.719832) scale(0.1 -0.1)">
       <defs>
        <path id="DejaVuSans-37" d="M 525 4666 
L 3525 4666 
L 3525 4397 
L 1831 0 
L 1172 0 
L 2766 4134 
L 525 4134 
L 525 4666 
z
" transform="scale(0.015625)"/>
       </defs>
       <use xlink:href="#DejaVuSans-37"/>
       <use xlink:href="#DejaVuSans-2e" x="63.623047"/>
       <use xlink:href="#DejaVuSans-35" x="95.410156"/>
      </g>
     </g>
    </g>
    <g id="xtick_5">
     <g id="line2d_5">
      <g>
       <use xlink:href="#mbe02f26cb5" x="246.070956" y="330.121395" style="stroke: #000000; stroke-width: 0.8"/>
      </g>
     </g>
     <g id="text_5">
      <!-- 10.0 -->
      <g transform="translate(234.938144 344.719832) scale(0.1 -0.1)">
       <defs>
        <path id="DejaVuSans-31" d="M 794 531 
L 1825 531 
L 1825 4091 
L 703 3866 
L 703 4441 
L 1819 4666 
L 2450 4666 
L 2450 531 
L 3481 531 
L 3481 0 
L 794 0 
L 794 531 
z
" transform="scale(0.015625)"/>
       </defs>
       <use xlink:href="#DejaVuSans-31"/>
       <use xlink:href="#DejaVuSans-30" x="63.623047"/>
       <use xlink:href="#DejaVuSans-2e" x="127.246094"/>
       <use xlink:href="#DejaVuSans-30" x="159.033203"/>
      </g>
     </g>
    </g>
    <g id="xtick_6">
     <g id="line2d_6">
      <g>
       <use xlink:href="#mbe02f26cb5" x="295.155" y="330.121395" style="stroke: #000000; stroke-width: 0.8"/>
      </g>
     </g>
     <g id="text_6">
      <!-- 12.5 -->
      <g transform="translate(284.022188 344.719832) scale(0.1 -0.1)">
       <use xlink:href="#DejaVuSans-31"/>
       <use xlink:href="#DejaVuSans-32" x="63.623047"/>
       <use xlink:href="#DejaVuSans-2e" x="127.246094"/>
       <use xlink:href="#DejaVuSans-35" x="159.033203"/>
      </g>
     </g>
    </g>
    <g id="xtick_7">
     <g id="line2d_7">
      <g>
       <use xlink:href="#mbe02f26cb5" x="344.239045" y="330.121395" style="stroke: #000000; stroke-width: 0.8"/>
      </g>
     </g>
     <g id="text_7">
      <!-- 15.0 -->
      <g transform="translate(333.106232 344.719832) scale(0.1 -0.1)">
       <use xlink:href="#DejaVuSans-31"/>
       <use xlink:href="#DejaVuSans-35" x="63.623047"/>
       <use xlink:href="#DejaVuSans-2e" x="127.246094"/>
       <use xlink:href="#DejaVuSans-30" x="159.033203"/>
      </g>
     </g>
    </g>
    <g id="xtick_8">
     <g id="line2d_8">
      <g>
       <use xlink:href="#mbe02f26cb5" x="393.323089" y="330.121395" style="stroke: #000000; stroke-width: 0.8"/>
      </g>
     </g>
     <g id="text_8">
      <!-- 17.5 -->
      <g transform="translate(382.190276 344.719832) scale(0.1 -0.1)">
       <use xlink:href="#DejaVuSans-31"/>
       <use xlink:href="#DejaVuSans-37" x="63.623047"/>
       <use xlink:href="#DejaVuSans-2e" x="127.246094"/>
       <use xlink:href="#DejaVuSans-35" x="159.033203"/>
      </g>
     </g>
    </g>
    <g id="xtick_9">
     <g id="line2d_9">
      <g>
       <use xlink:href="#mbe02f26cb5" x="442.407133" y="330.121395" style="stroke: #000000; stroke-width: 0.8"/>
      </g>
     </g>
     <g id="text_9">
      <!-- 20.0 -->
      <g transform="translate(431.27432 344.719832) scale(0.1 -0.1)">
       <use xlink:href="#DejaVuSans-32"/>
       <use xlink:href="#DejaVuSans-30" x="63.623047"/>
       <use xlink:href="#DejaVuSans-2e" x="127.246094"/>
       <use xlink:href="#DejaVuSans-30" x="159.033203"/>
      </g>
     </g>
    </g>
   </g>
   <g id="matplotlib.axis_2">
    <g id="ytick_1">
     <g id="line2d_10">
      <defs>
       <path id="mf233f39547" d="M 0 0 
L -3.5 0 
" style="stroke: #000000; stroke-width: 0.8"/>
      </defs>
      <g>
       <use xlink:href="#mf233f39547" x="30.103125" y="315.44315" style="stroke: #000000; stroke-width: 0.8"/>
      </g>
     </g>
     <g id="text_10">
      <!-- 0.0 -->
      <g transform="translate(7.2 319.242369) scale(0.1 -0.1)">
       <use xlink:href="#DejaVuSans-30"/>
       <use xlink:href="#DejaVuSans-2e" x="63.623047"/>
       <use xlink:href="#DejaVuSans-30" x="95.410156"/>
      </g>
     </g>
    </g>
    <g id="ytick_2">
     <g id="line2d_11">
      <g>
       <use xlink:href="#mf233f39547" x="30.103125" y="256.730169" style="stroke: #000000; stroke-width: 0.8"/>
      </g>
     </g>
     <g id="text_11">
      <!-- 0.2 -->
      <g transform="translate(7.2 260.529388) scale(0.1 -0.1)">
       <use xlink:href="#DejaVuSans-30"/>
       <use xlink:href="#DejaVuSans-2e" x="63.623047"/>
       <use xlink:href="#DejaVuSans-32" x="95.410156"/>
      </g>
     </g>
    </g>
    <g id="ytick_3">
     <g id="line2d_12">
      <g>
       <use xlink:href="#mf233f39547" x="30.103125" y="198.017188" style="stroke: #000000; stroke-width: 0.8"/>
      </g>
     </g>
     <g id="text_12">
      <!-- 0.4 -->
      <g transform="translate(7.2 201.816407) scale(0.1 -0.1)">
       <defs>
        <path id="DejaVuSans-34" d="M 2419 4116 
L 825 1625 
L 2419 1625 
L 2419 4116 
z
M 2253 4666 
L 3047 4666 
L 3047 1625 
L 3713 1625 
L 3713 1100 
L 3047 1100 
L 3047 0 
L 2419 0 
L 2419 1100 
L 313 1100 
L 313 1709 
L 2253 4666 
z
" transform="scale(0.015625)"/>
       </defs>
       <use xlink:href="#DejaVuSans-30"/>
       <use xlink:href="#DejaVuSans-2e" x="63.623047"/>
       <use xlink:href="#DejaVuSans-34" x="95.410156"/>
      </g>
     </g>
    </g>
    <g id="ytick_4">
     <g id="line2d_13">
      <g>
       <use xlink:href="#mf233f39547" x="30.103125" y="139.304207" style="stroke: #000000; stroke-width: 0.8"/>
      </g>
     </g>
     <g id="text_13">
      <!-- 0.6 -->
      <g transform="translate(7.2 143.103426) scale(0.1 -0.1)">
       <defs>
        <path id="DejaVuSans-36" d="M 2113 2584 
Q 1688 2584 1439 2293 
Q 1191 2003 1191 1497 
Q 1191 994 1439 701 
Q 1688 409 2113 409 
Q 2538 409 2786 701 
Q 3034 994 3034 1497 
Q 3034 2003 2786 2293 
Q 2538 2584 2113 2584 
z
M 3366 4563 
L 3366 3988 
Q 3128 4100 2886 4159 
Q 2644 4219 2406 4219 
Q 1781 4219 1451 3797 
Q 1122 3375 1075 2522 
Q 1259 2794 1537 2939 
Q 1816 3084 2150 3084 
Q 2853 3084 3261 2657 
Q 3669 2231 3669 1497 
Q 3669 778 3244 343 
Q 2819 -91 2113 -91 
Q 1303 -91 875 529 
Q 447 1150 447 2328 
Q 447 3434 972 4092 
Q 1497 4750 2381 4750 
Q 2619 4750 2861 4703 
Q 3103 4656 3366 4563 
z
" transform="scale(0.015625)"/>
       </defs>
       <use xlink:href="#DejaVuSans-30"/>
       <use xlink:href="#DejaVuSans-2e" x="63.623047"/>
       <use xlink:href="#DejaVuSans-36" x="95.410156"/>
      </g>
     </g>
    </g>
    <g id="ytick_5">
     <g id="line2d_14">
      <g>
       <use xlink:href="#mf233f39547" x="30.103125" y="80.591226" style="stroke: #000000; stroke-width: 0.8"/>
      </g>
     </g>
     <g id="text_14">
      <!-- 0.8 -->
      <g transform="translate(7.2 84.390445) scale(0.1 -0.1)">
       <defs>
        <path id="DejaVuSans-38" d="M 2034 2216 
Q 1584 2216 1326 1975 
Q 1069 1734 1069 1313 
Q 1069 891 1326 650 
Q 1584 409 2034 409 
Q 2484 409 2743 651 
Q 3003 894 3003 1313 
Q 3003 1734 2745 1975 
Q 2488 2216 2034 2216 
z
M 1403 2484 
Q 997 2584 770 2862 
Q 544 3141 544 3541 
Q 544 4100 942 4425 
Q 1341 4750 2034 4750 
Q 2731 4750 3128 4425 
Q 3525 4100 3525 3541 
Q 3525 3141 3298 2862 
Q 3072 2584 2669 2484 
Q 3125 2378 3379 2068 
Q 3634 1759 3634 1313 
Q 3634 634 3220 271 
Q 2806 -91 2034 -91 
Q 1263 -91 848 271 
Q 434 634 434 1313 
Q 434 1759 690 2068 
Q 947 2378 1403 2484 
z
M 1172 3481 
Q 1172 3119 1398 2916 
Q 1625 2713 2034 2713 
Q 2441 2713 2670 2916 
Q 2900 3119 2900 3481 
Q 2900 3844 2670 4047 
Q 2441 4250 2034 4250 
Q 1625 4250 1398 4047 
Q 1172 3844 1172 3481 
z
" transform="scale(0.015625)"/>
       </defs>
       <use xlink:href="#DejaVuSans-30"/>
       <use xlink:href="#DejaVuSans-2e" x="63.623047"/>
       <use xlink:href="#DejaVuSans-38" x="95.410156"/>
      </g>
     </g>
    </g>
    <g id="ytick_6">
     <g id="line2d_15">
      <g>
       <use xlink:href="#mf233f39547" x="30.103125" y="21.878245" style="stroke: #000000; stroke-width: 0.8"/>
      </g>
     </g>
     <g id="text_15">
      <!-- 1.0 -->
      <g transform="translate(7.2 25.677464) scale(0.1 -0.1)">
       <use xlink:href="#DejaVuSans-31"/>
       <use xlink:href="#DejaVuSans-2e" x="63.623047"/>
       <use xlink:href="#DejaVuSans-30" x="95.410156"/>
      </g>
     </g>
    </g>
   </g>
   <g id="line2d_16">
    <path d="M 49.734779 168.660698 
L 49.774047 166.200961 
L 49.813314 143.851415 
L 49.852581 159.693532 
L 50.00965 188.21613 
L 50.048917 183.025423 
L 50.245253 214.288492 
L 50.284521 215.409523 
L 50.598658 267.159344 
L 50.677193 268.743478 
L 50.794995 245.902713 
L 50.834262 243.075632 
L 50.873529 247.203002 
L 50.912796 246.25803 
L 50.952064 258.175262 
L 51.069865 225.232606 
L 51.109133 232.219062 
L 51.187667 208.531252 
L 51.266201 210.939502 
L 51.344736 233.291946 
L 51.384003 225.314199 
L 51.42327 219.308175 
L 51.501805 245.706962 
L 51.541072 237.649326 
L 51.580339 236.624433 
L 51.658874 238.279928 
L 51.698141 226.31586 
L 51.737408 232.172225 
L 51.776676 226.517313 
L 51.815943 223.319237 
L 51.85521 231.68072 
L 51.933744 226.894064 
L 52.051546 247.026415 
L 52.090813 259.835911 
L 52.169348 254.879858 
L 52.208615 254.844105 
L 52.444219 183.34139 
L 52.56202 195.23484 
L 52.719089 151.725357 
L 52.876158 224.241147 
L 52.915425 201.805052 
L 52.954693 209.038237 
L 53.072494 152.043299 
L 53.111762 172.197837 
L 53.151029 186.617333 
L 53.229563 177.200897 
L 53.268831 165.508797 
L 53.308098 178.014973 
L 53.386632 203.247286 
L 53.465167 192.309415 
L 53.504434 176.557399 
L 53.543701 195.704494 
L 53.582968 184.746446 
L 53.622236 191.761627 
L 53.661503 188.629875 
L 53.818572 119.350342 
L 53.857839 119.521249 
L 54.014908 89.371015 
L 54.054175 93.327136 
L 54.13271 139.257076 
L 54.211244 125.513371 
L 54.250511 114.259523 
L 54.289779 115.709644 
L 54.40758 149.078817 
L 54.525382 130.07612 
L 54.564649 133.101038 
L 54.603917 133.029485 
L 54.643184 142.97802 
L 54.760985 182.84979 
L 54.878787 170.615932 
L 54.918054 181.662079 
L 54.957322 164.344603 
L 55.035856 149.804171 
L 55.192925 202.545158 
L 55.232192 199.630391 
L 55.27146 159.497267 
L 55.349994 182.747995 
L 55.389261 174.447348 
L 55.428528 180.763643 
L 55.507063 208.219886 
L 55.585597 196.407798 
L 55.624865 177.930657 
L 55.703399 184.325967 
L 56.056804 262.670074 
L 56.096071 261.195666 
L 56.25314 281.70532 
L 56.292408 273.239165 
L 56.331675 266.56311 
L 56.410209 268.533097 
L 56.567278 284.455673 
L 56.606546 289.661198 
L 56.68508 286.118843 
L 56.802882 275.460429 
L 56.881416 287.626489 
L 56.920683 280.780211 
L 57.156287 289.230371 
L 57.195554 275.29391 
L 57.274089 283.516812 
L 57.313356 282.26453 
L 57.431157 291.230665 
L 57.470425 288.620265 
L 57.627494 274.221927 
L 57.666761 277.669378 
L 57.941632 299.214149 
L 58.020166 284.41393 
L 58.0987 290.682743 
L 58.177235 286.294024 
L 58.295037 294.802278 
L 58.334304 292.879987 
L 58.373571 294.888965 
L 58.491373 284.563287 
L 58.648442 300.515827 
L 58.687709 298.794238 
L 58.726976 299.047205 
L 58.884045 303.470483 
L 59.001847 298.366834 
L 59.041114 299.048535 
L 59.158916 308.505853 
L 59.198183 307.916895 
L 59.315985 306.546882 
L 59.355252 306.541832 
L 59.394519 305.503909 
L 59.433786 306.660744 
L 59.590855 309.616718 
L 59.708657 305.576827 
L 59.747924 306.691461 
L 59.787192 309.755697 
L 59.826459 305.203567 
L 59.865726 306.995714 
L 59.904993 304.589798 
L 59.944261 302.896141 
L 59.983528 305.67282 
L 60.062062 307.720466 
L 60.101329 305.446137 
L 60.140597 305.962593 
L 60.297666 309.542258 
L 60.454735 305.159193 
L 60.494002 305.910949 
L 60.651071 310.620251 
L 60.690338 309.985427 
L 60.729605 311.038442 
L 60.847407 312.193765 
L 60.886674 311.431364 
L 60.925941 312.572907 
L 60.965209 312.49693 
L 61.043743 313.22315 
L 61.08301 312.562053 
L 61.161545 312.889807 
L 61.200812 312.883295 
L 61.397148 313.912874 
L 61.436415 313.863113 
L 61.632752 314.673053 
L 61.672019 314.576038 
L 61.711286 314.615942 
L 61.750553 314.730321 
L 61.829088 314.677338 
L 61.868355 314.707032 
L 61.907622 314.395313 
L 61.986157 314.535186 
L 62.064691 314.670617 
L 62.261027 312.842674 
L 62.300295 312.99788 
L 62.378829 314.064183 
L 62.457364 313.522912 
L 62.496631 313.466626 
L 62.575165 313.970064 
L 62.614433 313.741267 
L 62.692967 313.244106 
L 62.732234 313.603954 
L 62.810769 314.235819 
L 62.850036 313.852721 
L 62.92857 312.061423 
L 63.046372 312.6794 
L 63.085639 312.964904 
L 63.124907 312.607196 
L 63.164174 312.930758 
L 63.203441 312.451098 
L 63.242708 313.098735 
L 63.674648 314.892974 
L 63.831717 315.106215 
L 63.988786 314.827024 
L 64.028053 314.879096 
L 64.185122 314.853402 
L 64.224389 314.79688 
L 64.302924 314.872372 
L 64.342191 315.089469 
L 64.420725 314.934806 
L 64.459993 314.794224 
L 64.49926 314.984201 
L 64.734863 314.577273 
L 64.813398 314.424617 
L 64.891932 314.680759 
L 64.931199 314.461896 
L 64.970467 314.361538 
L 65.009734 314.527944 
L 65.323872 313.963595 
L 65.363139 314.031229 
L 65.402406 313.813753 
L 65.441673 314.039932 
L 65.598742 314.267939 
L 65.716544 313.286243 
L 65.795079 313.847632 
L 65.952148 314.723495 
L 65.991415 314.646805 
L 66.148484 314.429866 
L 66.187751 314.500432 
L 66.34482 314.852915 
L 66.384087 314.885695 
L 66.423354 314.80623 
L 66.619691 314.666896 
L 66.776759 314.656794 
L 66.855294 314.540965 
L 66.894561 314.856263 
L 66.973096 314.810672 
L 67.012363 314.803896 
L 67.090897 314.912 
L 67.130165 314.865503 
L 67.169432 314.700486 
L 67.208699 314.899353 
L 67.365768 315.023481 
L 67.48357 314.798465 
L 67.522837 314.903781 
L 67.562104 314.937891 
L 67.601371 314.757122 
L 67.640639 314.890205 
L 67.876242 315.199106 
L 67.915509 315.142012 
L 67.954777 315.179584 
L 67.994044 315.246879 
L 68.072578 315.170198 
L 68.62232 315.201349 
L 68.700854 315.086732 
L 68.740121 315.184223 
L 68.936457 314.997047 
L 69.289863 315.181087 
L 69.446931 315.227293 
L 69.564733 315.3042 
L 69.604 315.260082 
L 69.918138 315.128676 
L 69.996673 315.074508 
L 70.03594 315.12367 
L 70.075207 315.20149 
L 70.153742 315.150047 
L 70.193009 315.108194 
L 70.232276 315.175234 
L 70.389345 315.272282 
L 71.056888 315.259841 
L 71.292492 315.348776 
L 72.863181 315.417393 
L 74.394603 315.421161 
L 75.611887 315.439986 
L 81.855378 315.443048 
L 442.367866 315.44315 
L 442.367866 315.44315 
" clip-path="url(#p315d818f1b)" style="fill: none; stroke: #00ff00; stroke-width: 1.5; stroke-linecap: square"/>
   </g>
   <g id="line2d_17">
    <path d="M 49.734779 168.660698 
L 49.774047 168.2482 
L 49.813314 147.477018 
L 49.852581 156.636091 
L 49.891848 167.403276 
L 49.931115 148.182996 
L 50.048917 129.903686 
L 50.284521 192.983446 
L 50.323788 191.834307 
L 50.44159 169.520588 
L 50.520124 195.518612 
L 50.598658 189.708451 
L 50.637926 195.489586 
L 50.677193 189.41998 
L 50.71646 180.45201 
L 50.755727 190.141247 
L 50.794995 189.034764 
L 50.873529 156.828189 
L 50.991331 220.61064 
L 51.030598 204.468533 
L 51.109133 189.167407 
L 51.1484 190.772485 
L 51.384003 240.833509 
L 51.658874 175.77819 
L 51.698141 194.397368 
L 51.894477 248.281028 
L 51.973012 213.024456 
L 52.012279 216.786188 
L 52.051546 235.419254 
L 52.130081 230.433953 
L 52.169348 231.469925 
L 52.247882 258.362776 
L 52.326417 256.888865 
L 52.404951 263.699964 
L 52.483486 256.086379 
L 52.522753 267.089735 
L 52.56202 254.786547 
L 52.601287 243.703343 
L 52.679822 245.63214 
L 53.072494 281.819688 
L 53.111762 280.290157 
L 53.308098 259.664123 
L 53.347365 262.175484 
L 53.504434 284.448407 
L 53.740037 240.060263 
L 53.779305 241.72819 
L 53.818572 255.035281 
L 53.897106 247.613513 
L 54.054175 275.619873 
L 54.13271 270.641517 
L 54.171977 256.763059 
L 54.211244 261.857784 
L 54.250511 268.281611 
L 54.289779 259.602427 
L 54.525382 221.039389 
L 54.603917 234.644141 
L 54.721718 274.441144 
L 54.760985 272.208433 
L 54.800253 272.404093 
L 54.878787 272.644402 
L 54.918054 264.918645 
L 55.192925 301.552398 
L 55.232192 296.021314 
L 55.349994 292.346165 
L 55.428528 300.488814 
L 55.467796 294.6874 
L 55.507063 294.986702 
L 55.54633 294.630081 
L 55.585597 292.069239 
L 55.703399 302.619847 
L 55.742666 301.361655 
L 55.939003 286.28139 
L 55.97827 288.38789 
L 56.017537 292.746079 
L 56.096071 292.589233 
L 56.135339 289.340906 
L 56.292408 267.60503 
L 56.370942 275.194285 
L 56.410209 273.824567 
L 56.449477 264.23477 
L 56.488744 278.632541 
L 56.567278 284.880988 
L 56.606546 283.486957 
L 56.645813 279.104537 
L 56.724347 280.418048 
L 56.802882 291.67437 
L 56.842149 291.045959 
L 57.11702 239.221325 
L 57.234821 269.118781 
L 57.313356 259.272362 
L 57.470425 240.654469 
L 57.548959 249.813843 
L 57.588226 244.881794 
L 57.627494 247.153454 
L 57.980899 193.552959 
L 58.020166 204.771071 
L 58.059433 205.842993 
L 58.216502 137.416498 
L 58.255769 156.70529 
L 58.295037 158.561574 
L 58.452106 210.809531 
L 58.491373 202.685122 
L 58.609175 230.021753 
L 58.648442 226.216339 
L 58.687709 229.739337 
L 58.884045 257.211192 
L 58.96258 221.885225 
L 59.080381 225.991397 
L 59.276718 258.445978 
L 59.394519 255.463092 
L 59.630123 229.361582 
L 59.66939 240.858801 
L 59.944261 287.195885 
L 59.983528 282.536833 
L 60.022795 283.798326 
L 60.297666 296.916599 
L 60.336933 288.726204 
L 60.3762 292.560861 
L 60.415467 295.760406 
L 60.454735 294.381058 
L 60.651071 282.873705 
L 60.80814 294.642456 
L 60.965209 289.151617 
L 61.004476 290.181803 
L 61.200812 296.933454 
L 61.279347 295.533495 
L 61.357881 285.052619 
L 61.397148 289.886789 
L 61.554217 285.841001 
L 61.672019 295.992373 
L 61.711286 288.995783 
L 61.750553 288.523847 
L 61.789821 288.645217 
L 61.829088 288.92568 
L 61.986157 271.076266 
L 62.025424 277.803863 
L 62.064691 278.885498 
L 62.103958 276.995694 
L 62.261027 241.148304 
L 62.378829 256.922436 
L 62.418096 249.684307 
L 62.496631 254.749951 
L 62.575165 264.342228 
L 62.6537 259.342954 
L 62.692967 256.308675 
L 62.732234 267.865064 
L 62.771501 254.915748 
L 62.810769 256.355885 
L 63.046372 224.417883 
L 63.399777 296.891074 
L 63.439044 297.512179 
L 63.635381 280.218592 
L 63.674648 284.249205 
L 63.753182 262.967159 
L 63.79245 278.048083 
L 63.831717 274.100307 
L 63.870984 281.150895 
L 63.910251 278.415578 
L 63.949519 281.469224 
L 63.988786 278.540665 
L 64.106587 286.252796 
L 64.145855 284.763833 
L 64.420725 250.740049 
L 64.459993 251.432247 
L 64.49926 249.717082 
L 64.813398 298.313661 
L 64.852665 296.608776 
L 64.891932 296.77168 
L 64.970467 299.832551 
L 65.009734 294.914442 
L 65.049001 299.682475 
L 65.127536 304.084781 
L 65.284605 307.852667 
L 65.402406 305.205429 
L 65.441673 305.667164 
L 65.480941 305.515994 
L 65.716544 311.333756 
L 65.834346 311.862997 
L 65.91288 310.652126 
L 66.069949 312.976891 
L 66.227018 314.009776 
L 66.423354 313.370557 
L 66.501889 313.154411 
L 66.658958 314.219134 
L 66.816027 314.812329 
L 66.933828 314.89454 
L 67.169432 315.143541 
L 67.326501 314.992763 
L 67.601371 314.215728 
L 67.75844 314.669781 
L 67.915509 314.904498 
L 68.19038 314.38333 
L 68.229647 314.537624 
L 68.268914 314.624582 
L 68.347449 314.205461 
L 68.386716 314.466796 
L 68.504518 314.09849 
L 68.661587 314.591699 
L 68.740121 314.451145 
L 68.857923 314.978959 
L 68.89719 314.870138 
L 69.093526 315.113305 
L 69.132794 315.063352 
L 69.172061 315.180233 
L 69.289863 315.106092 
L 69.32913 315.197423 
L 69.564733 315.313806 
L 69.918138 314.956939 
L 69.957406 315.039874 
L 70.03594 315.167801 
L 70.075207 315.119266 
L 70.153742 315.099321 
L 70.193009 314.959257 
L 70.271543 315.084296 
L 70.428612 315.222505 
L 70.507147 315.16319 
L 70.546414 315.212845 
L 70.74275 315.332007 
L 70.899819 315.353487 
L 74.708741 315.394714 
L 75.376284 315.383571 
L 75.729689 315.368316 
L 76.043827 315.353867 
L 76.27943 315.379956 
L 76.475767 315.36532 
L 76.71137 315.302808 
L 76.868439 315.345536 
L 77.182577 315.388469 
L 78.596197 315.397815 
L 79.303008 315.42827 
L 81.619774 315.362777 
L 81.816111 315.393919 
L 82.287317 315.40293 
L 82.915593 315.369185 
L 83.111929 315.369415 
L 83.426067 315.365695 
L 83.936541 315.410511 
L 85.428696 315.432276 
L 87.234989 315.400473 
L 87.78473 315.3135 
L 88.255937 315.411713 
L 89.198351 315.39353 
L 89.512489 315.377872 
L 89.787359 315.353214 
L 90.180032 315.322241 
L 94.617229 315.3866 
L 94.774298 315.327098 
L 95.716712 315.393769 
L 99.604168 315.42927 
L 102.313607 315.441002 
L 114.054511 315.443122 
L 442.367866 315.44315 
L 442.367866 315.44315 
" clip-path="url(#p315d818f1b)" style="fill: none; stroke: #358763; stroke-width: 1.5; stroke-linecap: square"/>
   </g>
   <g id="line2d_18">
    <path d="M 49.734779 168.660698 
L 49.813314 183.091292 
L 49.852581 180.261537 
L 49.891848 172.927462 
L 49.931115 179.267636 
L 49.970383 182.119614 
L 50.048917 161.473634 
L 50.088184 177.346547 
L 50.127452 166.789776 
L 50.166719 183.085734 
L 50.205986 183.429855 
L 50.245253 181.250923 
L 50.323788 165.431148 
L 50.363055 176.1996 
L 50.559391 215.519659 
L 50.637926 195.185223 
L 50.71646 201.459202 
L 50.755727 201.6367 
L 50.912796 174.64149 
L 50.952064 181.672385 
L 50.991331 177.740092 
L 51.109133 134.958611 
L 51.1484 135.141958 
L 51.266201 150.546276 
L 51.305469 143.789087 
L 51.344736 144.342158 
L 51.501805 171.572513 
L 51.42327 143.927679 
L 51.541072 160.701032 
L 51.580339 155.130526 
L 51.619607 163.256301 
L 51.658874 173.569142 
L 51.698141 163.479223 
L 51.737408 163.46817 
L 51.933744 198.472434 
L 51.973012 188.195547 
L 52.012279 189.755741 
L 52.090813 138.05096 
L 52.130081 142.87675 
L 52.169348 166.252774 
L 52.247882 161.087655 
L 52.28715 152.136364 
L 52.365684 152.839565 
L 52.56202 223.396298 
L 52.601287 213.200996 
L 52.640555 225.827042 
L 52.719089 221.606738 
L 52.797624 243.656082 
L 52.836891 227.910642 
L 52.915425 190.683312 
L 52.99396 214.215502 
L 53.033227 213.377048 
L 53.072494 216.667144 
L 53.111762 215.662374 
L 53.268831 187.565653 
L 53.308098 190.447842 
L 53.347365 186.710263 
L 53.386632 185.50789 
L 53.465167 191.608888 
L 53.622236 161.907246 
L 53.661503 163.289959 
L 53.740037 184.797588 
L 53.779305 178.278083 
L 53.897106 147.860315 
L 53.936374 164.480226 
L 54.093442 201.736451 
L 54.014908 160.674476 
L 54.13271 201.233805 
L 54.211244 195.071879 
L 54.289779 216.008342 
L 54.446848 168.80911 
L 54.603917 213.742046 
L 54.682451 187.97389 
L 54.721718 192.407324 
L 54.878787 206.05326 
L 54.918054 183.767254 
L 54.996589 202.242852 
L 55.035856 203.997414 
L 55.075123 188.850989 
L 55.153658 191.639775 
L 55.232192 201.322056 
L 55.507063 112.314486 
L 55.54633 116.684735 
L 55.624865 114.639887 
L 55.703399 109.616084 
L 55.742666 96.364645 
L 55.781934 99.950886 
L 55.860468 122.124029 
L 55.899735 113.799025 
L 55.939003 102.647104 
L 56.017537 108.295598 
L 56.056804 113.28028 
L 56.331675 203.36452 
L 56.488744 167.126938 
L 56.528011 180.254119 
L 56.68508 211.164379 
L 56.724347 204.510611 
L 56.763614 207.343569 
L 56.842149 178.690951 
L 56.881416 201.687153 
L 57.038485 243.610748 
L 57.077752 239.50733 
L 57.156287 264.463253 
L 57.195554 256.036258 
L 57.234821 235.48342 
L 57.274089 251.063169 
L 57.352623 260.759016 
L 57.39189 259.230186 
L 57.431157 257.310926 
L 57.470425 257.860712 
L 57.509692 260.124431 
L 57.548959 252.492275 
L 57.588226 265.647166 
L 57.666761 263.709298 
L 57.745295 278.836222 
L 57.863097 291.225284 
L 57.902364 284.032526 
L 57.941632 285.148607 
L 58.059433 299.93974 
L 58.0987 297.396313 
L 58.137968 295.795832 
L 58.177235 287.841478 
L 58.255769 293.447582 
L 58.334304 286.728097 
L 58.373571 290.19523 
L 58.412838 298.619106 
L 58.491373 293.588758 
L 58.726976 270.811109 
L 58.844778 277.74566 
L 58.884045 268.015974 
L 58.923312 272.928184 
L 59.001847 279.562288 
L 59.041114 278.772625 
L 59.080381 278.178055 
L 59.23745 290.406685 
L 59.355252 282.818231 
L 59.394519 284.5012 
L 59.473054 288.231036 
L 59.512321 285.186986 
L 59.590855 280.064225 
L 59.630123 280.99663 
L 59.66939 287.481616 
L 59.708657 283.374326 
L 59.787192 259.401126 
L 59.826459 271.549931 
L 59.865726 275.498567 
L 59.904993 273.371383 
L 60.022795 258.939158 
L 60.219131 276.323571 
L 60.258398 266.170989 
L 60.297666 274.361666 
L 60.454735 294.563711 
L 60.494002 289.842957 
L 60.533269 291.618351 
L 60.690338 302.770007 
L 60.729605 300.830744 
L 60.768872 298.828018 
L 60.80814 301.03197 
L 60.847407 300.665656 
L 60.965209 293.321537 
L 61.004476 298.650075 
L 61.08301 294.698964 
L 61.161545 298.643761 
L 61.240079 287.0869 
L 61.318614 287.16378 
L 61.475683 299.958728 
L 61.632752 295.649963 
L 61.711286 300.070007 
L 61.750553 296.84981 
L 61.868355 282.936191 
L 61.907622 289.898917 
L 61.986157 287.731339 
L 62.064691 291.801838 
L 62.339562 248.422702 
L 62.418096 261.250348 
L 62.457364 253.398327 
L 62.535898 244.554679 
L 62.575165 247.430315 
L 62.771501 184.390713 
L 63.164174 114.560533 
L 63.203441 118.410897 
L 63.281976 112.607857 
L 63.36051 136.753079 
L 63.399777 127.981228 
L 63.439044 132.634637 
L 63.596113 100.083171 
L 63.635381 100.403134 
L 63.753182 129.354394 
L 63.831717 117.844413 
L 63.870984 118.310904 
L 63.988786 89.350703 
L 63.949519 119.564704 
L 64.06732 100.635568 
L 64.106587 98.087095 
L 64.224389 76.828538 
L 64.302924 92.667582 
L 64.342191 82.787573 
L 64.381458 78.575632 
L 64.656329 137.986713 
L 64.695596 129.288226 
L 64.852665 115.910031 
L 64.891932 119.801951 
L 64.931199 109.313014 
L 64.970467 117.20458 
L 65.009734 127.323555 
L 65.049001 125.104123 
L 65.245337 93.324118 
L 65.323872 107.995031 
L 65.363139 101.609549 
L 65.480941 86.970139 
L 65.63801 102.034517 
L 65.834346 75.846984 
L 65.952148 64.39405 
L 65.991415 70.458179 
L 66.030682 62.482959 
L 66.109216 64.68408 
L 66.187751 46.153392 
L 66.227018 48.869173 
L 66.266285 58.263466 
L 66.305553 54.859642 
L 66.34482 49.049225 
L 66.423354 53.860898 
L 66.501889 61.01915 
L 66.541156 58.504903 
L 66.698225 39.365408 
L 66.776759 43.265729 
L 66.855294 42.43863 
L 66.973096 39.497048 
L 67.05163 46.914857 
L 67.090897 44.449868 
L 67.169432 39.405667 
L 67.247966 41.787274 
L 67.287234 43.662821 
L 67.326501 42.329831 
L 67.365768 38.98495 
L 67.405035 40.627885 
L 67.48357 43.752953 
L 67.522837 43.2441 
L 67.562104 40.913692 
L 67.601371 43.306166 
L 67.640639 41.908384 
L 67.876242 37.125492 
L 67.994044 31.423864 
L 68.033311 32.15418 
L 68.583052 77.503109 
L 68.62232 71.546599 
L 68.779388 56.239171 
L 68.818656 55.542489 
L 68.857923 56.353438 
L 69.014992 46.312742 
L 69.054259 43.165851 
L 69.093526 44.899709 
L 69.132794 52.48006 
L 69.172061 43.240358 
L 69.289863 46.058398 
L 69.446931 37.22823 
L 69.564733 38.860317 
L 69.721802 57.931563 
L 69.761069 49.000148 
L 69.800337 45.1651 
L 69.839604 46.166561 
L 69.918138 51.541715 
L 69.957406 51.323355 
L 69.996673 51.155814 
L 70.03594 47.982671 
L 70.153742 59.627306 
L 70.232276 39.204624 
L 70.310811 42.135357 
L 70.350078 40.37948 
L 70.389345 43.213144 
L 70.428612 42.641586 
L 70.46788 38.858696 
L 70.507147 46.182446 
L 70.585681 45.764215 
L 70.624949 45.707723 
L 70.782017 54.371687 
L 70.899819 43.087638 
L 70.939086 45.961653 
L 70.978354 40.529525 
L 71.017621 43.865228 
L 71.213957 50.275599 
L 71.488828 33.880179 
L 71.528095 35.597509 
L 71.567362 35.843792 
L 71.606629 33.292923 
L 71.645897 33.955265 
L 71.724431 38.608511 
L 71.763698 37.072094 
L 71.960035 31.81856 
L 71.999302 32.469279 
L 72.038569 32.800572 
L 72.31344 27.048493 
L 72.352707 28.816137 
L 72.431241 28.056326 
L 72.666845 23.928342 
L 72.706112 24.368982 
L 72.745379 23.800737 
L 72.784646 23.984317 
L 72.823914 23.807558 
L 72.902448 23.553752 
L 72.941715 23.68413 
L 73.059517 24.494411 
L 73.098784 24.012471 
L 73.138052 24.041446 
L 73.216586 25.325083 
L 73.295121 25.073011 
L 73.412922 23.987997 
L 73.452189 24.561285 
L 73.569991 25.812529 
L 73.609258 25.658284 
L 73.687793 25.046355 
L 73.72706 25.08239 
L 73.962664 30.564053 
L 74.001931 29.582238 
L 74.080465 28.987123 
L 74.316069 32.70553 
L 74.394603 39.363206 
L 74.43387 36.459174 
L 74.551672 32.399182 
L 74.590939 34.920599 
L 74.748008 39.605442 
L 74.787275 37.607804 
L 74.826543 40.195272 
L 74.86581 43.78439 
L 74.983612 33.452425 
L 75.022879 35.553416 
L 75.29775 46.308932 
L 75.415551 38.720486 
L 75.651155 55.869202 
L 75.690422 56.047586 
L 75.808224 42.302405 
L 75.847491 44.50902 
L 75.965293 41.14552 
L 76.161629 60.72472 
L 76.200896 57.072897 
L 76.27943 57.348862 
L 76.318698 61.974792 
L 76.357965 54.0326 
L 76.436499 45.796103 
L 76.554301 60.68835 
L 76.593568 48.955974 
L 76.672103 49.861725 
L 76.71137 50.178898 
L 76.750637 51.443896 
L 76.789904 50.993008 
L 76.868439 42.629868 
L 76.946973 43.280619 
L 77.064775 40.424037 
L 77.182577 50.199919 
L 77.221844 50.083559 
L 77.261111 44.959519 
L 77.300379 49.759255 
L 77.41818 70.544353 
L 77.496715 59.736456 
L 77.614516 62.722857 
L 77.653784 58.796736 
L 77.693051 65.536872 
L 77.928654 91.708758 
L 77.967922 77.626653 
L 78.046456 86.977424 
L 78.203525 67.856068 
L 78.282059 75.219174 
L 78.321327 72.479897 
L 78.399861 82.043083 
L 78.439128 78.96429 
L 78.478396 77.54305 
L 78.55693 67.879568 
L 78.596197 75.617728 
L 78.635465 86.024914 
L 78.674732 76.359636 
L 78.98887 42.643397 
L 79.067404 44.000625 
L 79.342275 32.394824 
L 79.381542 33.815026 
L 79.420809 30.772472 
L 79.499344 32.748674 
L 79.538611 33.14398 
L 79.69568 36.416633 
L 79.734947 34.3409 
L 79.774214 34.687563 
L 79.813482 38.22081 
L 79.852749 36.282064 
L 79.931283 31.984163 
L 80.009818 27.401974 
L 80.049085 28.53235 
L 80.088352 28.391627 
L 80.127619 28.733519 
L 80.166887 27.524685 
L 80.245421 28.452851 
L 80.40249 26.998492 
L 80.638094 24.601929 
L 80.677361 24.833921 
L 80.716628 25.846618 
L 80.755895 25.311762 
L 80.873697 24.041979 
L 80.912964 24.286786 
L 80.991499 24.924948 
L 81.070033 24.685714 
L 81.1093 24.332041 
L 81.187835 24.34372 
L 81.227102 24.988257 
L 81.266369 24.440762 
L 81.305637 23.932957 
L 81.344904 24.137283 
L 81.384171 24.544671 
L 81.462705 24.416533 
L 81.501973 24.027979 
L 81.619774 24.956088 
L 81.698309 24.559217 
L 81.776843 24.69319 
L 81.855378 25.503957 
L 81.933912 23.697311 
L 82.012447 23.706303 
L 82.051714 24.193595 
L 82.130248 23.856505 
L 82.169516 24.037698 
L 82.326585 23.204625 
L 82.483654 23.746966 
L 82.522921 23.746273 
L 82.562188 24.044078 
L 82.601455 23.696752 
L 82.758524 22.953076 
L 82.837059 23.083173 
L 82.994128 23.878032 
L 83.033395 23.750657 
L 83.072662 23.943678 
L 83.111929 23.81462 
L 83.151197 23.615827 
L 83.190464 24.016846 
L 83.229731 23.343989 
L 83.268998 23.337288 
L 83.426067 24.350646 
L 83.504602 25.297964 
L 83.543869 24.560634 
L 83.583136 24.810648 
L 83.622403 24.700666 
L 83.740205 24.378594 
L 83.779472 24.497012 
L 83.81874 24.305791 
L 83.858007 23.869127 
L 83.936541 24.134771 
L 84.09361 25.839385 
L 84.211412 25.515149 
L 84.250679 25.54683 
L 84.289946 26.006463 
L 84.329214 25.384297 
L 84.368481 24.559575 
L 84.447015 24.866801 
L 84.486283 25.346272 
L 84.52555 24.649141 
L 84.604084 24.157235 
L 84.643352 24.340666 
L 84.721886 25.418492 
L 84.761153 24.871518 
L 84.80042 24.555617 
L 84.878955 24.701866 
L 84.918222 24.642681 
L 85.075291 26.040273 
L 85.114558 25.760499 
L 85.153826 26.006577 
L 85.193093 26.056433 
L 85.23236 26.736146 
L 85.350162 24.793502 
L 85.585765 26.910772 
L 85.625032 25.751336 
L 85.6643 26.791073 
L 85.703567 27.439566 
L 85.742834 26.421384 
L 85.821369 25.4647 
L 85.860636 26.525288 
L 85.899903 26.415992 
L 85.93917 25.640554 
L 85.978438 26.178157 
L 86.017705 26.571305 
L 86.096239 26.528161 
L 86.135506 25.826552 
L 86.174774 26.389121 
L 86.214041 26.885395 
L 86.292575 26.471114 
L 86.331843 26.950129 
L 86.37111 26.684319 
L 86.449644 25.288872 
L 86.488912 25.705249 
L 86.528179 27.142421 
L 86.606713 26.642745 
L 86.685248 25.522356 
L 86.724515 26.185175 
L 86.763782 28.637319 
L 86.842317 27.902333 
L 86.920851 28.273357 
L 86.999386 27.35226 
L 87.038653 27.84264 
L 87.117187 26.688069 
L 87.195722 27.446458 
L 87.234989 27.371243 
L 87.352791 26.478252 
L 87.392058 26.586333 
L 87.470592 25.906022 
L 87.666929 30.5351 
L 87.745463 33.372092 
L 87.78473 33.328341 
L 87.823998 30.492281 
L 87.902532 32.278746 
L 87.941799 32.094174 
L 88.020334 30.271235 
L 88.059601 31.190064 
L 88.334472 45.213535 
L 88.491541 40.277859 
L 88.530808 40.133001 
L 88.570075 36.022317 
L 88.64861 38.002786 
L 88.687877 37.531419 
L 88.844946 52.954893 
L 88.884213 50.129547 
L 88.92348 47.146319 
L 88.962747 51.709584 
L 89.002015 49.623299 
L 89.041282 49.653394 
L 89.080549 57.281722 
L 89.159084 54.642413 
L 89.35542 46.060564 
L 89.433954 53.488927 
L 89.473222 49.602752 
L 89.512489 50.786866 
L 89.551756 49.432511 
L 89.708825 30.579874 
L 89.748092 32.180235 
L 89.787359 29.962127 
L 89.826627 29.687858 
L 89.944428 27.776249 
L 90.022963 31.374552 
L 90.06223 30.063653 
L 90.101497 30.441709 
L 90.180032 35.853402 
L 90.219299 35.780943 
L 90.415635 29.783576 
L 90.454902 31.608027 
L 90.49417 30.533348 
L 90.651239 27.272767 
L 90.729773 28.396393 
L 90.76904 27.660475 
L 90.926109 25.912054 
L 90.965376 26.504395 
L 91.004644 26.732623 
L 91.043911 28.569332 
L 91.083178 27.717922 
L 91.161713 25.940113 
L 91.20098 27.526953 
L 91.279514 26.219549 
L 91.358049 28.026897 
L 91.397316 26.485821 
L 91.475851 26.347701 
L 91.554385 24.74556 
L 91.593652 24.855557 
L 91.632919 24.958977 
L 91.672187 24.590188 
L 91.789988 25.926532 
L 91.90779 24.492866 
L 91.947057 24.650463 
L 92.025592 24.979703 
L 92.182661 26.761583 
L 92.221928 27.119357 
L 92.261195 28.70988 
L 92.300462 26.997685 
L 92.693135 23.28253 
L 92.850204 23.414899 
L 92.889471 23.51878 
L 92.928738 23.291921 
L 92.968005 23.344879 
L 93.085807 24.179119 
L 93.125074 23.966854 
L 93.203609 24.173344 
L 93.360678 23.246552 
L 93.439212 23.707129 
L 93.47848 23.608784 
L 93.517747 23.687076 
L 93.557014 23.661866 
L 93.596281 23.559707 
L 93.635548 23.666003 
L 93.714083 24.02045 
L 93.75335 23.861195 
L 93.871152 22.753446 
L 93.988954 23.22886 
L 94.106755 22.804492 
L 94.146023 23.173379 
L 94.224557 22.872065 
L 94.263824 22.793435 
L 94.303091 23.057853 
L 94.381626 22.891152 
L 94.46016 22.740433 
L 94.499428 22.864253 
L 94.538695 22.866748 
L 94.577962 22.747106 
L 94.656497 22.855457 
L 94.695764 22.859822 
L 94.8921 22.536335 
L 95.049169 22.426127 
L 95.088436 22.54455 
L 95.127703 22.388968 
L 95.166971 22.383848 
L 95.206238 22.524934 
L 95.245505 22.382855 
L 95.32404 22.213793 
L 95.402574 22.335735 
L 95.59891 23.070869 
L 95.638177 22.988209 
L 95.755979 23.407096 
L 95.873781 22.477451 
L 95.913048 22.582687 
L 95.991583 22.493093 
L 96.30572 22.147355 
L 96.502057 22.166116 
L 96.541324 22.277044 
L 96.619858 22.180043 
L 96.73766 22.345183 
L 96.855462 22.078364 
L 96.894729 22.10789 
L 97.130332 22.12334 
L 97.248134 22.320236 
L 97.405203 22.195627 
L 97.562272 22.067413 
L 97.837143 22.286825 
L 97.994212 22.140773 
L 98.112013 22.082874 
L 98.269082 22.08801 
L 98.504686 22.222551 
L 98.897358 21.965246 
L 100.271711 21.906627 
L 108.6749 21.879627 
L 440.875711 21.878245 
L 442.367866 21.878245 
L 442.367866 21.878245 
" clip-path="url(#p315d818f1b)" style="fill: none; stroke: #e78a18; stroke-width: 1.5; stroke-linecap: square"/>
   </g>
   <g id="line2d_19">
    <path d="M 49.734779 168.660698 
L 49.813314 151.520665 
L 49.891848 127.112612 
L 49.931115 148.291013 
L 50.048917 175.054831 
L 50.088184 171.740221 
L 50.127452 157.80785 
L 50.166719 165.115734 
L 50.323788 182.550767 
L 50.363055 176.127984 
L 50.44159 144.463649 
L 50.480857 155.975382 
L 50.520124 174.856721 
L 50.559391 163.358307 
L 50.637926 144.109842 
L 50.677193 157.310984 
L 50.873529 194.58167 
L 50.952064 244.076113 
L 50.991331 241.431563 
L 51.069865 225.993564 
L 51.109133 232.447742 
L 51.226934 244.691543 
L 51.266201 244.246199 
L 51.305469 242.208562 
L 51.384003 266.756708 
L 51.42327 262.653217 
L 51.501805 243.486231 
L 51.541072 254.231883 
L 51.619607 248.470968 
L 51.698141 258.646802 
L 51.737408 255.137156 
L 51.776676 251.619575 
L 51.894477 274.486519 
L 51.933744 274.473793 
L 51.973012 274.714714 
L 52.130081 288.515956 
L 52.169348 288.431655 
L 52.208615 285.83296 
L 52.247882 292.342384 
L 52.28715 291.585705 
L 52.326417 283.095374 
L 52.404951 288.768616 
L 52.640555 298.842194 
L 52.679822 299.233719 
L 52.719089 301.14895 
L 52.758356 295.503839 
L 52.797624 298.119541 
L 52.954693 304.599362 
L 52.99396 305.326223 
L 53.072494 305.219291 
L 53.229563 301.241361 
L 53.386632 306.286713 
L 53.425899 306.843077 
L 53.661503 291.152638 
L 53.779305 294.325769 
L 53.818572 291.92809 
L 53.897106 292.7673 
L 53.936374 295.353476 
L 53.975641 291.582066 
L 54.054175 292.751556 
L 54.093442 291.91968 
L 54.211244 281.342613 
L 54.250511 289.224815 
L 54.289779 280.38421 
L 54.40758 261.989105 
L 54.486115 280.325924 
L 54.525382 273.56222 
L 54.682451 264.081563 
L 54.760985 268.324017 
L 54.83952 260.598584 
L 54.957322 270.103933 
L 55.035856 250.911599 
L 55.114391 251.347388 
L 55.27146 263.766928 
L 55.507063 232.147017 
L 55.54633 235.197999 
L 55.624865 267.239439 
L 55.703399 263.281774 
L 55.781934 260.143067 
L 55.821201 271.384394 
L 55.860468 265.156789 
L 55.97827 251.781449 
L 56.096071 263.648191 
L 56.174606 250.180686 
L 56.213873 255.676813 
L 56.25314 254.67164 
L 56.292408 246.692395 
L 56.331675 250.788365 
L 56.449477 272.354567 
L 56.567278 291.828641 
L 56.645813 289.342435 
L 56.920683 303.534846 
L 56.959951 301.960411 
L 56.999218 304.350716 
L 57.11702 308.659936 
L 57.195554 306.460305 
L 57.234821 308.033068 
L 57.352623 309.106247 
L 57.39189 308.778394 
L 57.509692 312.262365 
L 57.548959 312.150463 
L 57.627494 312.581497 
L 57.745295 310.960107 
L 57.82383 312.227977 
L 57.863097 312.190448 
L 57.902364 311.767348 
L 57.980899 312.738777 
L 58.020166 312.519224 
L 58.137968 311.94825 
L 58.295037 313.448445 
L 58.334304 313.442784 
L 58.412838 313.582662 
L 58.491373 313.069339 
L 58.648442 314.331532 
L 58.726976 314.452234 
L 58.844778 313.843303 
L 58.923312 314.484605 
L 58.96258 314.265988 
L 59.041114 314.455207 
L 59.080381 314.357276 
L 59.158916 314.285034 
L 59.198183 314.303437 
L 59.23745 314.304335 
L 59.355252 313.959053 
L 59.512321 314.474386 
L 59.551588 314.452008 
L 59.865726 314.945446 
L 59.904993 315.098487 
L 59.983528 315.076071 
L 60.062062 315.039507 
L 60.179864 315.158359 
L 60.336933 315.166157 
L 60.611804 315.241032 
L 60.768872 315.188086 
L 60.965209 315.339271 
L 61.279347 315.366141 
L 61.554217 315.41274 
L 62.22176 315.412581 
L 62.614433 315.421759 
L 71.371026 315.443089 
L 442.367866 315.44315 
L 442.367866 315.44315 
" clip-path="url(#p315d818f1b)" style="fill: none; stroke: #00fbff; stroke-width: 1.5; stroke-linecap: square"/>
   </g>
   <g id="line2d_20">
    <path d="M 49.734779 168.660698 
L 49.774047 163.848309 
L 49.852581 180.237898 
L 49.931115 176.964466 
L 49.970383 170.259709 
L 50.00965 172.019337 
L 50.088184 193.660028 
L 50.127452 185.023786 
L 50.205986 169.908173 
L 50.245253 170.848066 
L 50.363055 187.750046 
L 50.44159 174.831336 
L 50.598658 205.927692 
L 50.637926 205.405406 
L 50.677193 210.062599 
L 50.755727 188.033496 
L 50.834262 193.793136 
L 50.912796 213.720819 
L 50.952064 201.026328 
L 51.030598 182.207832 
L 51.069865 201.791738 
L 51.1484 188.070269 
L 51.187667 200.951643 
L 51.226934 181.865928 
L 51.42327 131.42795 
L 51.462538 134.117586 
L 51.619607 105.205748 
L 51.658874 101.036288 
L 51.698141 106.753127 
L 51.737408 107.904576 
L 51.85521 133.624472 
L 52.012279 112.971826 
L 52.169348 155.566967 
L 52.247882 146.473677 
L 52.28715 135.052539 
L 52.326417 144.551298 
L 52.483486 184.488056 
L 52.56202 167.357271 
L 52.601287 169.149047 
L 52.836891 241.650002 
L 52.876158 250.749395 
L 52.915425 248.066384 
L 53.033227 200.898747 
L 53.151029 206.060344 
L 53.229563 224.595385 
L 53.268831 216.705824 
L 53.308098 217.871754 
L 53.347365 212.287374 
L 53.425899 211.817513 
L 53.504434 235.105176 
L 53.543701 241.918715 
L 53.582968 222.142607 
L 53.622236 242.862269 
L 53.661503 237.542178 
L 53.70077 237.501306 
L 53.779305 222.810306 
L 53.936374 282.610111 
L 53.975641 282.235053 
L 54.054175 288.751285 
L 54.093442 286.92408 
L 54.13271 286.329082 
L 54.171977 282.335232 
L 54.211244 286.85894 
L 54.368313 295.305008 
L 54.40758 293.299162 
L 54.446848 295.868547 
L 54.486115 293.448037 
L 54.525382 296.531771 
L 54.603917 295.359343 
L 54.643184 295.838354 
L 54.721718 283.189883 
L 54.878787 285.038439 
L 54.996589 293.937718 
L 55.035856 292.312319 
L 55.114391 297.963733 
L 55.232192 279.52462 
L 55.27146 286.185153 
L 55.310727 284.300169 
L 55.467796 268.723071 
L 55.507063 265.727052 
L 55.54633 270.783941 
L 55.742666 291.744734 
L 55.97827 266.833287 
L 56.096071 279.575154 
L 56.135339 275.642679 
L 56.174606 278.131969 
L 56.25314 290.421652 
L 56.410209 288.734416 
L 56.449477 289.028635 
L 56.488744 292.506699 
L 56.567278 291.302639 
L 56.606546 288.395771 
L 56.645813 290.516166 
L 56.68508 290.844133 
L 56.724347 296.532599 
L 56.802882 296.261737 
L 56.881416 298.626359 
L 56.920683 293.263639 
L 56.999218 297.235186 
L 57.038485 296.721792 
L 57.077752 287.642588 
L 57.156287 293.029889 
L 57.195554 295.845315 
L 57.234821 293.253368 
L 57.470425 278.375362 
L 57.588226 295.11634 
L 57.627494 291.367751 
L 57.666761 297.034101 
L 57.706028 290.607512 
L 57.82383 278.744648 
L 57.941632 257.560725 
L 58.020166 264.984198 
L 58.0987 265.759538 
L 58.137968 258.417318 
L 58.177235 260.536158 
L 58.255769 258.552487 
L 58.334304 267.51558 
L 58.491373 233.235368 
L 58.53064 234.149883 
L 58.766243 271.451122 
L 58.805511 266.873955 
L 58.844778 262.528321 
L 58.884045 269.582941 
L 59.001847 264.219566 
L 59.198183 239.262841 
L 59.23745 252.32064 
L 59.315985 247.595373 
L 59.433786 256.99729 
L 59.66939 234.563318 
L 59.787192 260.46659 
L 59.826459 257.683279 
L 59.865726 254.196207 
L 59.904993 259.022879 
L 59.944261 255.02309 
L 59.983528 255.499728 
L 60.179864 228.63795 
L 60.219131 230.071439 
L 60.258398 230.526121 
L 60.297666 222.345527 
L 60.494002 263.383518 
L 60.651071 278.806867 
L 60.768872 262.718355 
L 60.80814 266.502091 
L 60.925941 278.558892 
L 60.965209 277.735521 
L 61.08301 266.526437 
L 61.240079 292.193919 
L 61.279347 288.570906 
L 61.318614 291.068099 
L 61.475683 300.61181 
L 61.51495 299.841177 
L 61.632752 303.365863 
L 61.868355 292.492326 
L 61.907622 292.893028 
L 61.94689 292.361306 
L 62.064691 298.778525 
L 62.103958 296.498762 
L 62.143226 289.362739 
L 62.22176 289.57844 
L 62.261027 289.962019 
L 62.457364 301.36448 
L 62.496631 302.668061 
L 62.535898 301.721964 
L 62.575165 299.772843 
L 62.614433 301.802675 
L 62.692967 304.502427 
L 62.771501 302.856611 
L 62.810769 302.215206 
L 63.007105 306.732959 
L 63.085639 303.991299 
L 63.124907 304.195624 
L 63.164174 304.347356 
L 63.203441 304.088895 
L 63.242708 305.144355 
L 63.281976 303.163376 
L 63.321243 303.220167 
L 63.478312 308.84255 
L 63.517579 308.405758 
L 63.753182 313.243199 
L 63.910251 312.099263 
L 63.949519 312.365655 
L 64.185122 313.353122 
L 64.224389 313.438613 
L 64.381458 314.708895 
L 64.577794 314.502245 
L 64.695596 314.252471 
L 64.734863 314.261091 
L 64.77413 314.112267 
L 64.813398 314.371097 
L 64.891932 314.703735 
L 64.970467 314.585672 
L 65.009734 314.429453 
L 65.088268 314.477308 
L 65.127536 314.657921 
L 65.166803 314.415226 
L 65.20607 314.411419 
L 65.441673 315.077354 
L 65.559475 315.103965 
L 65.755811 315.248923 
L 65.873613 315.258203 
L 66.069949 315.286429 
L 66.34482 315.14336 
L 66.698225 315.254935 
L 67.090897 315.318453 
L 67.208699 315.328207 
L 67.365768 315.34884 
L 67.522837 315.350156 
L 68.268914 315.211329 
L 68.504518 315.37164 
L 68.740121 315.350646 
L 68.779388 315.300448 
L 68.857923 315.373893 
L 69.132794 315.382448 
L 70.821285 315.408789 
L 71.8815 315.428524 
L 73.373655 315.436382 
L 273.243883 315.44315 
L 442.367866 315.44315 
L 442.367866 315.44315 
" clip-path="url(#p315d818f1b)" style="fill: none; stroke: #3e00ff; stroke-width: 1.5; stroke-linecap: square"/>
   </g>
   <g id="line2d_21">
    <path d="M 49.734779 168.660698 
L 49.774047 152.063564 
L 49.813314 165.655095 
L 49.891848 176.191658 
L 49.970383 143.037584 
L 50.048917 145.269137 
L 50.088184 144.340632 
L 50.127452 138.409026 
L 50.166719 114.601287 
L 50.245253 127.633705 
L 50.284521 115.106617 
L 50.323788 123.866532 
L 50.44159 145.885866 
L 50.598658 92.668578 
L 50.755727 130.417268 
L 50.873529 160.413101 
L 50.952064 167.853559 
L 50.991331 177.307049 
L 51.187667 107.153283 
L 51.266201 130.717721 
L 51.305469 129.261638 
L 51.462538 89.557763 
L 51.501805 92.835224 
L 51.541072 107.767182 
L 51.580339 100.603985 
L 51.658874 77.283016 
L 51.698141 84.058442 
L 51.894477 105.207119 
L 52.051546 80.124109 
L 52.090813 83.271704 
L 52.130081 96.885437 
L 52.169348 96.069786 
L 52.365684 65.020834 
L 52.404951 63.356756 
L 52.444219 67.689891 
L 52.56202 41.715396 
L 52.601287 41.828515 
L 52.758356 37.856494 
L 52.836891 38.037091 
L 52.954693 33.586253 
L 53.190296 47.966748 
L 53.268831 37.623413 
L 53.308098 37.816314 
L 53.425899 45.252609 
L 53.504434 42.489404 
L 53.70077 37.955842 
L 53.740037 38.021093 
L 53.818572 41.429728 
L 53.857839 41.021696 
L 53.897106 38.82869 
L 53.936374 45.112188 
L 54.014908 42.433151 
L 54.054175 40.405569 
L 54.093442 45.55928 
L 54.171977 43.552775 
L 54.211244 44.427405 
L 54.250511 43.21872 
L 54.289779 42.754238 
L 54.603917 63.291539 
L 54.643184 61.826718 
L 54.800253 72.928089 
L 54.83952 66.878631 
L 54.918054 70.669362 
L 54.957322 68.708945 
L 54.996589 61.163514 
L 55.035856 65.971098 
L 55.153658 80.738646 
L 55.310727 55.695777 
L 55.389261 52.339944 
L 55.428528 54.453649 
L 55.54633 68.048372 
L 55.585597 56.779726 
L 55.664132 60.793845 
L 55.860468 73.430008 
L 55.899735 73.088452 
L 56.096071 54.167346 
L 56.135339 57.202554 
L 56.174606 53.77406 
L 56.25314 47.007549 
L 56.292408 52.190517 
L 56.331675 52.884699 
L 56.370942 51.266602 
L 56.410209 54.543671 
L 56.449477 50.531812 
L 56.488744 52.658179 
L 56.606546 55.548437 
L 56.802882 35.665834 
L 56.881416 30.125186 
L 56.959951 32.24542 
L 56.999218 32.035417 
L 57.11702 27.880803 
L 57.274089 32.133339 
L 57.39189 31.323563 
L 57.588226 26.257712 
L 57.627494 26.200776 
L 57.666761 25.190048 
L 57.706028 26.101007 
L 57.745295 26.468662 
L 57.784563 25.981434 
L 57.82383 25.649646 
L 58.0987 31.327413 
L 58.137968 31.123901 
L 58.177235 32.142113 
L 58.216502 31.119613 
L 58.255769 31.198346 
L 58.295037 31.111487 
L 58.452106 41.48246 
L 58.491373 40.921147 
L 58.53064 37.457581 
L 58.609175 39.095449 
L 58.648442 39.661821 
L 58.687709 36.428948 
L 58.766243 37.675604 
L 58.805511 38.51539 
L 58.844778 35.757303 
L 58.884045 36.653364 
L 58.923312 40.013466 
L 58.96258 38.976997 
L 59.158916 28.298933 
L 59.315985 25.739841 
L 59.355252 25.906854 
L 59.590855 29.246378 
L 59.630123 27.562617 
L 59.708657 28.85268 
L 59.747924 30.58985 
L 59.787192 28.769708 
L 59.826459 26.721905 
L 59.904993 26.950778 
L 59.944261 26.886261 
L 60.022795 26.947044 
L 60.101329 26.13981 
L 60.140597 26.215763 
L 60.179864 27.912734 
L 60.258398 27.281155 
L 60.297666 27.62972 
L 60.336933 25.999445 
L 60.415467 26.474554 
L 60.611804 23.977384 
L 60.651071 24.292267 
L 60.729605 25.093727 
L 60.768872 24.794843 
L 61.08301 23.386356 
L 61.161545 24.248511 
L 61.240079 24.108049 
L 61.357881 22.801508 
L 61.436415 23.005511 
L 61.475683 23.060613 
L 61.51495 22.987255 
L 61.593484 22.91532 
L 61.711286 23.184396 
L 61.750553 23.129942 
L 61.868355 23.499116 
L 61.907622 23.126842 
L 61.986157 23.263362 
L 62.025424 23.239582 
L 62.143226 23.689245 
L 62.182493 23.528455 
L 62.300295 23.195188 
L 62.339562 23.589326 
L 62.378829 23.092929 
L 62.418096 23.345588 
L 62.457364 23.320846 
L 62.614433 22.798026 
L 62.6537 22.782336 
L 62.692967 23.291083 
L 62.771501 22.89192 
L 62.850036 23.082701 
L 62.92857 22.672129 
L 62.967838 22.831174 
L 63.007105 23.038438 
L 63.085639 22.89877 
L 63.124907 22.956056 
L 63.281976 23.636189 
L 63.478312 23.108372 
L 63.596113 23.736559 
L 63.713915 22.753916 
L 63.753182 23.130435 
L 63.988786 22.543773 
L 64.224389 22.316038 
L 64.342191 22.819419 
L 64.381458 22.750392 
L 64.420725 22.599009 
L 64.459993 22.646053 
L 64.931199 24.374841 
L 64.970467 24.722633 
L 65.009734 24.385785 
L 65.20607 23.49117 
L 65.402406 22.542742 
L 65.441673 22.557673 
L 65.559475 23.031138 
L 65.598742 22.831781 
L 66.030682 22.171583 
L 66.069949 22.202513 
L 66.187751 22.181478 
L 66.305553 22.061327 
L 66.423354 22.039924 
L 66.698225 22.009718 
L 67.75844 22.002675 
L 67.994044 21.943258 
L 68.700854 22.091985 
L 68.936457 22.064845 
L 69.093526 22.122622 
L 69.407664 22.154422 
L 69.525466 22.107035 
L 70.03594 22.021747 
L 70.821285 22.056409 
L 70.939086 22.065953 
L 71.135423 21.992731 
L 71.331759 21.969837 
L 71.685164 21.928843 
L 71.8815 21.951839 
L 72.274172 21.969161 
L 72.666845 21.918861 
L 76.986241 21.895327 
L 77.535982 21.892302 
L 78.399861 21.897184 
L 79.734947 21.926652 
L 80.245421 21.965274 
L 80.598826 21.930316 
L 80.991499 21.899621 
L 82.797791 21.92682 
L 83.622403 21.922923 
L 84.289946 21.930493 
L 85.703567 22.191551 
L 85.782101 22.293087 
L 85.821369 22.273675 
L 85.899903 22.144222 
L 85.93917 22.163682 
L 85.978438 22.236813 
L 86.017705 22.207091 
L 86.096239 22.058386 
L 86.174774 22.095051 
L 86.331843 22.054085 
L 86.528179 22.323704 
L 86.606713 22.207172 
L 86.685248 22.224071 
L 86.920851 22.918993 
L 86.999386 22.808216 
L 87.07792 22.523453 
L 87.117187 22.675437 
L 87.234989 22.768202 
L 87.352791 22.887176 
L 87.392058 22.9354 
L 87.431325 23.389158 
L 87.50986 23.352093 
L 87.706196 22.612616 
L 87.745463 22.694217 
L 87.78473 22.568939 
L 87.823998 22.503009 
L 87.863265 22.662551 
L 87.902532 22.59141 
L 87.941799 22.402457 
L 88.020334 22.425452 
L 88.138136 22.250452 
L 88.334472 21.970148 
L 89.159084 21.944853 
L 89.512489 21.917058 
L 89.826627 21.915919 
L 90.337101 21.904747 
L 93.831885 21.881435 
L 104.276969 21.878253 
L 442.367866 21.878245 
L 442.367866 21.878245 
" clip-path="url(#p315d818f1b)" style="fill: none; stroke: #e64500; stroke-width: 1.5; stroke-linecap: square"/>
   </g>
   <g id="line2d_22">
    <path d="M 49.734779 168.660698 
L 49.813314 133.427413 
L 49.852581 144.802355 
L 49.970383 167.376015 
L 50.00965 161.145195 
L 50.284521 122.787312 
L 50.323788 124.974962 
L 50.480857 162.169857 
L 50.520124 160.148894 
L 50.559391 160.726306 
L 50.598658 165.10859 
L 50.71646 206.597561 
L 50.755727 198.706243 
L 50.952064 133.939191 
L 50.991331 140.62584 
L 51.109133 170.831382 
L 51.1484 163.767387 
L 51.187667 162.921687 
L 51.226934 164.038469 
L 51.42327 87.242267 
L 51.85521 156.478174 
L 52.012279 193.096428 
L 52.090813 209.163996 
L 52.130081 208.604452 
L 52.169348 210.078101 
L 52.208615 237.490085 
L 52.28715 225.999401 
L 52.326417 217.333618 
L 52.404951 252.32083 
L 52.444219 241.542034 
L 52.56202 191.112004 
L 52.601287 203.880116 
L 52.640555 212.226796 
L 52.679822 204.778561 
L 52.836891 188.142501 
L 52.954693 168.432888 
L 53.111762 247.918267 
L 53.151029 243.304675 
L 53.190296 259.906482 
L 53.229563 250.627407 
L 53.386632 220.865153 
L 53.425899 222.242094 
L 53.504434 231.05531 
L 53.70077 203.826777 
L 53.740037 206.970376 
L 53.897106 173.424009 
L 54.014908 206.746517 
L 54.13271 202.709301 
L 54.171977 183.576667 
L 54.211244 216.950189 
L 54.250511 212.321666 
L 54.289779 219.972375 
L 54.446848 274.548865 
L 54.486115 265.649214 
L 54.525382 262.966453 
L 54.564649 270.535654 
L 54.603917 261.262497 
L 54.643184 259.129425 
L 54.682451 260.942742 
L 54.83952 276.787163 
L 54.918054 274.997347 
L 54.957322 265.734907 
L 55.035856 267.380184 
L 55.428528 286.879091 
L 55.467796 285.883391 
L 55.507063 291.796015 
L 55.585597 288.154042 
L 55.742666 279.25963 
L 55.821201 279.477335 
L 55.939003 287.315963 
L 56.213873 263.104914 
L 56.331675 288.619686 
L 56.370942 284.367183 
L 56.410209 282.782483 
L 56.488744 281.107817 
L 56.528011 288.41419 
L 56.567278 286.254188 
L 56.606546 289.756358 
L 56.645813 292.006346 
L 56.68508 282.932053 
L 56.763614 289.170441 
L 56.881416 301.026833 
L 56.959951 298.230724 
L 56.999218 293.572696 
L 57.077752 295.26764 
L 57.274089 304.941803 
L 57.431157 309.779754 
L 57.509692 309.111142 
L 57.548959 308.19121 
L 57.588226 308.970235 
L 57.980899 312.793182 
L 58.020166 312.536565 
L 58.295037 306.478669 
L 58.412838 307.685603 
L 58.452106 306.157607 
L 58.53064 306.937315 
L 58.609175 309.044159 
L 58.648442 307.97582 
L 58.766243 304.767342 
L 58.805511 305.384605 
L 58.844778 303.279858 
L 58.884045 306.213118 
L 58.923312 304.905024 
L 58.96258 305.041894 
L 59.080381 308.666933 
L 59.158916 305.883122 
L 59.276718 305.928534 
L 59.315985 306.149414 
L 59.355252 306.070698 
L 59.433786 306.157432 
L 59.473054 304.578522 
L 59.787192 309.893079 
L 59.826459 308.223469 
L 59.865726 310.115177 
L 59.944261 307.98479 
L 60.022795 311.31455 
L 60.062062 310.745476 
L 60.179864 312.102784 
L 60.297666 313.032725 
L 60.336933 312.11157 
L 60.3762 312.288702 
L 60.415467 313.37837 
L 60.494002 312.980042 
L 60.533269 313.130241 
L 60.729605 311.075779 
L 60.80814 312.477939 
L 60.847407 312.085619 
L 60.965209 310.470483 
L 61.004476 310.773236 
L 61.122278 309.819739 
L 61.279347 307.746994 
L 61.318614 307.853301 
L 61.357881 307.328765 
L 61.554217 311.065581 
L 61.672019 309.805158 
L 61.750553 310.496749 
L 61.907622 313.2395 
L 61.94689 313.130531 
L 61.986157 312.45742 
L 62.064691 312.764967 
L 62.496631 314.533147 
L 62.535898 314.464372 
L 62.6537 314.631241 
L 62.692967 314.569762 
L 62.732234 314.29817 
L 62.771501 314.542839 
L 62.850036 314.692076 
L 62.889303 314.570326 
L 62.92857 314.613433 
L 62.967838 314.516022 
L 63.007105 314.513744 
L 63.124907 314.808518 
L 63.164174 314.769143 
L 63.203441 314.877439 
L 63.321243 314.960379 
L 63.517579 314.738679 
L 63.753182 315.159768 
L 63.79245 315.133953 
L 63.910251 315.115838 
L 64.028053 314.785699 
L 64.06732 314.919079 
L 64.145855 314.884077 
L 64.224389 314.635885 
L 64.302924 314.828355 
L 64.459993 315.20685 
L 64.577794 315.19569 
L 64.813398 314.968546 
L 64.891932 314.631729 
L 64.931199 314.812298 
L 65.049001 314.918472 
L 65.088268 314.789881 
L 65.166803 314.905766 
L 65.20607 314.846531 
L 65.245337 314.95999 
L 65.480941 315.193384 
L 65.520208 315.087454 
L 65.559475 315.148739 
L 65.677277 315.15021 
L 66.069949 315.209971 
L 66.266285 315.276271 
L 67.012363 315.101562 
L 67.130165 315.243349 
L 67.169432 315.214479 
L 67.326501 315.185118 
L 67.365768 315.24999 
L 67.444302 315.18387 
L 67.522837 315.131722 
L 67.562104 315.194464 
L 69.486199 315.434755 
L 76.122361 315.442905 
L 393.715761 315.44315 
L 442.367866 315.44315 
L 442.367866 315.44315 
" clip-path="url(#p315d818f1b)" style="fill: none; stroke: #ffee00; stroke-width: 1.5; stroke-linecap: square"/>
   </g>
   <g id="line2d_23">
    <path d="M 49.734779 168.660698 
L 49.774047 156.226289 
L 49.813314 169.41989 
L 49.852581 168.929395 
L 50.00965 137.398733 
L 50.048917 154.561451 
L 50.088184 155.829777 
L 50.245253 101.119862 
L 50.323788 85.339562 
L 50.402322 91.021651 
L 50.44159 102.710688 
L 50.480857 100.130963 
L 50.520124 92.773163 
L 50.559391 109.671708 
L 50.598658 95.821992 
L 50.637926 90.59957 
L 50.677193 101.743473 
L 50.755727 97.713687 
L 50.912796 72.830512 
L 51.069865 85.736901 
L 51.109133 88.09581 
L 51.1484 97.943157 
L 51.187667 76.325735 
L 51.266201 87.673618 
L 51.344736 85.90536 
L 51.501805 63.544786 
L 51.619607 49.976052 
L 51.658874 56.447071 
L 51.776676 71.861472 
L 51.815943 69.814163 
L 51.894477 52.295535 
L 51.933744 56.945112 
L 52.208615 78.971267 
L 52.365684 111.582088 
L 52.404951 107.752351 
L 52.483486 98.296752 
L 52.640555 114.488308 
L 52.679822 121.938923 
L 52.719089 111.376476 
L 52.797624 99.451753 
L 52.99396 158.343689 
L 53.033227 161.476617 
L 53.268831 218.145441 
L 53.425899 177.25866 
L 53.465167 173.570378 
L 53.543701 224.650426 
L 53.622236 213.35231 
L 53.661503 204.364417 
L 53.70077 219.478066 
L 53.740037 234.731717 
L 53.779305 215.785411 
L 53.818572 222.430527 
L 53.897106 197.587138 
L 53.936374 215.605475 
L 54.054175 244.372381 
L 54.093442 241.990848 
L 54.13271 219.288231 
L 54.211244 220.521761 
L 54.250511 220.539307 
L 54.329046 212.378908 
L 54.446848 236.690909 
L 54.564649 215.491531 
L 54.603917 240.591855 
L 54.643184 230.889283 
L 54.760985 213.333184 
L 54.800253 218.761556 
L 54.83952 209.080847 
L 54.878787 193.488271 
L 54.918054 195.90682 
L 54.957322 215.603427 
L 54.996589 183.858241 
L 55.153658 222.640338 
L 55.232192 249.80528 
L 55.310727 244.483402 
L 55.349994 252.989093 
L 55.428528 249.102833 
L 55.507063 227.741866 
L 55.585597 231.633461 
L 55.742666 262.309951 
L 55.781934 249.540874 
L 55.821201 250.770506 
L 55.860468 256.577082 
L 55.899735 255.132912 
L 55.97827 247.805238 
L 56.135339 273.831343 
L 56.174606 270.770205 
L 56.213873 284.590758 
L 56.292408 278.720954 
L 56.645813 310.26365 
L 56.724347 309.04358 
L 56.881416 306.990504 
L 56.920683 308.352814 
L 56.959951 304.745204 
L 57.038485 305.859684 
L 57.077752 308.15992 
L 57.156287 307.334598 
L 57.352623 298.658299 
L 57.431157 300.904647 
L 57.509692 300.093791 
L 57.548959 300.853885 
L 57.745295 294.671953 
L 57.784563 294.865202 
L 57.863097 289.311259 
L 57.902364 286.697384 
L 57.941632 287.20833 
L 58.137968 296.439709 
L 58.177235 295.864278 
L 58.255769 298.206201 
L 58.295037 297.83447 
L 58.334304 292.993029 
L 58.373571 296.178525 
L 58.412838 298.795002 
L 58.452106 295.691528 
L 58.491373 292.258998 
L 58.53064 295.556516 
L 58.609175 298.206255 
L 58.766243 306.587013 
L 58.805511 305.978039 
L 58.844778 308.477759 
L 58.923312 308.010636 
L 59.001847 304.687895 
L 59.158916 297.503819 
L 59.198183 297.866598 
L 59.23745 302.093071 
L 59.276718 301.686437 
L 59.355252 292.92571 
L 59.394519 293.839751 
L 59.473054 298.815676 
L 59.512321 298.056721 
L 59.551588 297.466643 
L 59.630123 302.80737 
L 59.708657 302.197249 
L 59.747924 300.404095 
L 59.787192 301.734844 
L 59.826459 302.045614 
L 59.865726 307.591851 
L 59.944261 306.094814 
L 59.983528 306.384589 
L 60.101329 308.035231 
L 60.140597 308.114754 
L 60.219131 309.297698 
L 60.297666 308.762019 
L 60.336933 308.646526 
L 60.3762 306.704652 
L 60.415467 308.092131 
L 60.454735 308.617233 
L 60.611804 302.841857 
L 60.651071 307.102234 
L 60.729605 303.955908 
L 60.886674 306.770265 
L 61.043743 310.797451 
L 61.122278 310.142759 
L 61.240079 308.140811 
L 61.397148 301.668106 
L 61.750553 312.089248 
L 61.868355 313.452898 
L 61.907622 313.341636 
L 61.94689 313.468493 
L 61.986157 313.257042 
L 62.025424 313.112392 
L 62.064691 313.29134 
L 62.143226 313.923629 
L 62.22176 313.899116 
L 62.261027 313.94986 
L 62.339562 313.401223 
L 62.378829 313.546443 
L 62.418096 313.521471 
L 62.496631 312.825986 
L 62.535898 313.35941 
L 62.575165 313.530541 
L 62.810769 312.228559 
L 62.850036 312.635975 
L 62.889303 312.630042 
L 63.007105 311.844394 
L 63.164174 313.413951 
L 63.321243 314.645257 
L 63.439044 314.208049 
L 63.478312 314.226123 
L 63.596113 314.803508 
L 63.635381 314.701621 
L 63.79245 314.68782 
L 63.831717 314.747081 
L 63.910251 314.502267 
L 63.949519 314.567771 
L 64.06732 314.524826 
L 64.224389 315.160652 
L 64.263656 315.124457 
L 64.538527 314.987915 
L 64.656329 314.862738 
L 64.852665 315.154227 
L 65.009734 315.156642 
L 65.166803 315.290312 
L 66.541156 315.37322 
L 66.737492 315.352519 
L 67.130165 315.350007 
L 67.287234 315.358948 
L 67.562104 315.366289 
L 67.836975 315.411702 
L 70.310811 315.393121 
L 70.624949 315.421294 
L 73.766327 315.432919 
L 84.721886 315.442799 
L 164.395107 315.44315 
L 442.367866 315.44315 
L 442.367866 315.44315 
" clip-path="url(#p315d818f1b)" style="fill: none; stroke: #0078ff; stroke-width: 1.5; stroke-linecap: square"/>
   </g>
   <g id="line2d_24">
    <path d="M 49.734779 168.660698 
L 49.813314 146.370356 
L 49.852581 162.184298 
L 49.931115 168.902962 
L 49.970383 158.884951 
L 50.088184 204.907603 
L 50.127452 201.852566 
L 50.205986 179.439901 
L 50.363055 132.008558 
L 50.520124 170.165336 
L 50.559391 165.34192 
L 50.637926 138.485994 
L 50.71646 139.218663 
L 50.755727 136.354226 
L 50.873529 161.376692 
L 50.912796 160.506571 
L 50.991331 129.05168 
L 51.1484 188.060643 
L 51.226934 179.041221 
L 51.42327 137.809224 
L 51.462538 135.863416 
L 51.501805 138.222247 
L 51.541072 143.477846 
L 51.658874 100.566023 
L 51.698141 116.496608 
L 51.737408 117.545031 
L 51.815943 96.079707 
L 51.85521 103.368223 
L 51.894477 101.597949 
L 51.973012 87.754028 
L 52.012279 94.240932 
L 52.051546 94.2814 
L 52.208615 109.218189 
L 52.640555 66.188539 
L 52.719089 78.873597 
L 52.797624 77.384842 
L 52.836891 75.976577 
L 52.915425 88.465573 
L 52.954693 72.780175 
L 52.99396 77.300964 
L 53.111762 99.95093 
L 53.347365 50.035097 
L 53.386632 50.086183 
L 53.425899 54.614245 
L 53.504434 51.205625 
L 53.543701 47.188033 
L 53.582968 52.718786 
L 53.661503 60.46701 
L 53.740037 59.594007 
L 53.897106 45.792063 
L 53.936374 49.891144 
L 54.054175 56.648465 
L 54.13271 43.701298 
L 54.171977 48.179534 
L 54.682451 99.044125 
L 54.721718 95.135134 
L 54.83952 77.882538 
L 54.996589 85.417382 
L 55.035856 85.29096 
L 55.075123 105.192739 
L 55.153658 104.688384 
L 55.192925 102.510615 
L 55.232192 104.785134 
L 55.349994 82.389153 
L 55.389261 93.310826 
L 55.467796 85.91415 
L 55.507063 89.606129 
L 55.54633 103.820345 
L 55.624865 98.735843 
L 55.664132 99.304827 
L 55.703399 93.707638 
L 55.742666 98.511891 
L 55.860468 140.068132 
L 55.899735 138.569573 
L 56.017537 127.581215 
L 56.056804 141.517178 
L 56.096071 135.295204 
L 56.370942 83.689717 
L 56.174606 140.241752 
L 56.488744 87.159238 
L 56.528011 97.026981 
L 56.567278 89.007259 
L 56.68508 63.694194 
L 56.724347 70.04967 
L 56.802882 71.959946 
L 56.959951 53.573768 
L 57.11702 71.35868 
L 57.156287 65.593832 
L 57.195554 70.243025 
L 57.234821 73.017646 
L 57.548959 40.291284 
L 57.588226 40.456337 
L 57.666761 49.01205 
L 57.784563 47.947736 
L 57.902364 44.994088 
L 57.941632 45.47525 
L 57.980899 45.28014 
L 58.059433 60.850123 
L 58.0987 57.527264 
L 58.295037 34.654279 
L 58.412838 37.228134 
L 58.53064 34.439421 
L 58.569907 36.641195 
L 58.609175 34.494956 
L 58.648442 34.411607 
L 58.766243 29.473913 
L 58.844778 31.123647 
L 58.923312 37.199436 
L 59.001847 34.340034 
L 59.119649 26.950389 
L 59.158916 28.382235 
L 59.315985 25.409831 
L 59.355252 25.85038 
L 59.473054 25.579554 
L 59.512321 25.755572 
L 59.590855 27.318374 
L 59.630123 28.806344 
L 59.708657 28.366945 
L 59.747924 27.819598 
L 60.219131 40.450597 
L 60.258398 39.060757 
L 60.297666 43.983158 
L 60.3762 41.983179 
L 60.494002 37.949952 
L 60.572536 50.255863 
L 60.611804 48.271477 
L 60.651071 40.336331 
L 60.729605 41.629455 
L 60.80814 39.067261 
L 60.886674 46.744977 
L 60.925941 40.890781 
L 61.004476 42.205993 
L 61.200812 32.256288 
L 61.279347 30.053483 
L 61.357881 30.780828 
L 61.436415 30.196734 
L 61.475683 32.220402 
L 61.51495 30.787514 
L 61.632752 26.377058 
L 61.672019 26.46014 
L 61.789821 27.560298 
L 61.829088 29.58895 
L 61.868355 27.557733 
L 61.907622 28.644872 
L 61.986157 28.794515 
L 62.22176 37.11605 
L 62.261027 33.792717 
L 62.300295 33.764918 
L 62.378829 31.717401 
L 62.418096 32.032289 
L 62.457364 32.201777 
L 62.92857 41.974157 
L 63.007105 37.698976 
L 63.124907 38.922355 
L 63.164174 42.707877 
L 63.203441 40.513255 
L 63.321243 33.893671 
L 63.399777 27.949643 
L 63.478312 29.130439 
L 63.517579 29.18835 
L 63.596113 31.029734 
L 63.635381 30.552886 
L 63.713915 27.753261 
L 63.753182 30.260841 
L 64.028053 26.388267 
L 64.224389 24.325572 
L 64.302924 26.026587 
L 64.49926 31.169313 
L 64.617062 27.331699 
L 64.656329 27.812386 
L 64.695596 29.071542 
L 64.77413 28.96898 
L 64.931199 27.549782 
L 64.970467 27.344782 
L 65.009734 27.656893 
L 65.049001 28.271145 
L 65.088268 26.609058 
L 65.127536 27.294812 
L 65.245337 31.209364 
L 65.363139 27.557959 
L 65.480941 28.95386 
L 65.520208 27.376998 
L 65.559475 28.164514 
L 65.677277 33.950012 
L 65.716544 32.241851 
L 65.755811 33.686841 
L 65.795079 32.75595 
L 65.834346 32.261361 
L 65.873613 29.623291 
L 65.952148 31.05256 
L 65.991415 33.273359 
L 66.030682 32.913547 
L 66.227018 27.359975 
L 66.305553 28.318419 
L 66.34482 28.288632 
L 66.384087 28.134008 
L 66.423354 28.695214 
L 66.462622 27.840575 
L 66.501889 28.429667 
L 66.580423 28.900562 
L 66.698225 33.804626 
L 66.737492 33.53854 
L 66.776759 32.539438 
L 66.816027 32.753168 
L 66.855294 34.775467 
L 66.894561 34.284899 
L 67.012363 28.998796 
L 67.05163 29.741687 
L 67.130165 27.718038 
L 67.169432 28.416594 
L 67.208699 29.417697 
L 67.287234 28.869422 
L 67.405035 27.700444 
L 67.444302 26.090092 
L 67.48357 27.483871 
L 67.522837 28.005234 
L 67.562104 27.931327 
L 67.679906 26.489525 
L 67.836975 28.390548 
L 67.954777 25.92558 
L 67.994044 26.142973 
L 68.033311 26.442785 
L 68.072578 26.053256 
L 68.111845 26.264466 
L 68.151113 25.318291 
L 68.19038 26.425309 
L 68.347449 25.081839 
L 68.465251 24.706639 
L 68.62232 25.792139 
L 68.779388 24.271342 
L 68.936457 23.532661 
L 68.975725 23.743079 
L 69.014992 23.256493 
L 69.093526 23.615661 
L 69.211328 22.878603 
L 69.250595 23.171816 
L 69.32913 23.002143 
L 69.486199 23.975729 
L 69.604 23.59403 
L 69.643268 23.658573 
L 69.682535 23.977457 
L 69.721802 23.555933 
L 69.761069 23.502408 
L 69.878871 24.080667 
L 69.918138 23.864323 
L 69.957406 24.544609 
L 69.996673 24.038689 
L 70.428612 22.354439 
L 70.46788 22.416468 
L 70.507147 22.340489 
L 70.664216 22.154959 
L 70.703483 22.239962 
L 70.821285 22.299554 
L 70.899819 22.305476 
L 71.056888 22.648143 
L 71.096155 22.562327 
L 71.135423 22.432294 
L 71.17469 22.648095 
L 71.213957 22.53638 
L 71.253224 22.436352 
L 71.331759 22.526908 
L 71.371026 22.758563 
L 71.410293 22.551561 
L 71.488828 22.584244 
L 71.645897 23.148249 
L 71.685164 22.722699 
L 71.724431 23.079069 
L 71.763698 23.231967 
L 71.802966 22.830709 
L 71.8815 23.045451 
L 72.038569 23.750087 
L 72.274172 22.956417 
L 72.666845 22.527738 
L 72.745379 22.974535 
L 72.823914 22.908753 
L 72.980983 23.205099 
L 73.059517 22.52957 
L 73.138052 22.623503 
L 73.295121 22.324608 
L 73.334388 22.432247 
L 73.609258 22.581167 
L 73.72706 22.912784 
L 73.766327 22.823443 
L 73.805595 22.608284 
L 73.844862 22.63563 
L 74.001931 22.889183 
L 74.119732 22.779577 
L 74.316069 23.845587 
L 74.394603 24.317624 
L 74.512405 23.671819 
L 74.669474 24.146562 
L 74.826543 23.216978 
L 74.86581 23.314767 
L 74.944344 22.80178 
L 74.983612 23.152197 
L 75.022879 23.044323 
L 75.062146 23.257387 
L 75.140681 23.070483 
L 75.179948 23.264867 
L 75.258482 22.683793 
L 75.29775 23.056989 
L 75.533353 22.632654 
L 75.57262 22.775455 
L 75.611887 22.644512 
L 75.690422 22.615518 
L 75.847491 22.860369 
L 75.886758 22.825019 
L 76.00456 22.435124 
L 76.043827 22.515585 
L 76.083094 22.390235 
L 76.122361 22.343756 
L 76.27943 22.705653 
L 76.318698 22.688547 
L 76.515034 22.285166 
L 76.672103 22.595529 
L 76.868439 22.140637 
L 77.064775 22.100725 
L 77.339646 22.017241 
L 77.771585 22.096435 
L 78.399861 22.165795 
L 78.439128 22.221269 
L 78.478396 22.10483 
L 78.596197 22.159575 
L 78.635465 22.281364 
L 78.713999 22.171049 
L 78.871068 22.330901 
L 78.98887 22.177668 
L 79.028137 22.246781 
L 79.224473 22.69777 
L 79.26374 22.530136 
L 79.303008 22.412025 
L 79.381542 22.509283 
L 79.577878 22.526594 
L 79.617145 22.526297 
L 79.734947 22.851104 
L 79.931283 22.448637 
L 80.088352 22.406963 
L 80.206154 22.400034 
L 80.245421 22.467841 
L 80.284688 22.335723 
L 80.520292 22.132146 
L 80.716628 22.167422 
L 80.912964 22.00713 
L 81.344904 21.950771 
L 81.659042 22.011995 
L 82.051714 21.995996 
L 82.365852 22.073899 
L 82.562188 21.942676 
L 84.761153 21.993204 
L 86.056972 21.899896 
L 89.591023 21.893947 
L 91.240247 21.886831 
L 92.104126 21.884998 
L 104.276969 21.878359 
L 442.367866 21.878245 
L 442.367866 21.878245 
" clip-path="url(#p315d818f1b)" style="fill: none; stroke: #ff0037; stroke-width: 1.5; stroke-linecap: square"/>
   </g>
   <g id="line2d_25">
    <path d="M 49.734779 168.660698 
L 49.813314 177.964296 
L 49.852581 172.724219 
L 50.00965 146.58072 
L 50.048917 161.748342 
L 50.088184 160.38842 
L 50.323788 108.856482 
L 50.363055 108.244446 
L 50.598658 76.841331 
L 50.44159 109.767738 
L 50.637926 84.07629 
L 50.834262 131.682144 
L 50.873529 119.15332 
L 50.912796 105.628712 
L 50.952064 116.162158 
L 51.305469 173.751931 
L 51.344736 174.217213 
L 51.42327 182.000097 
L 51.501805 151.029415 
L 51.580339 160.252759 
L 51.658874 170.588631 
L 51.815943 141.594764 
L 51.85521 137.901588 
L 51.894477 137.902401 
L 51.933744 141.173683 
L 51.973012 131.59382 
L 52.012279 156.999351 
L 52.090813 152.042225 
L 52.247882 178.851762 
L 52.28715 176.030675 
L 52.326417 177.523355 
L 52.365684 167.157899 
L 52.444219 174.778401 
L 52.483486 183.256278 
L 52.522753 172.397308 
L 52.56202 167.979419 
L 52.601287 172.465325 
L 52.758356 199.536334 
L 52.836891 188.973263 
L 52.876158 191.939686 
L 52.915425 197.927817 
L 52.954693 197.655768 
L 53.072494 157.943051 
L 53.111762 180.553278 
L 53.268831 207.414548 
L 53.308098 193.453859 
L 53.347365 200.2811 
L 53.504434 223.891321 
L 53.740037 275.683107 
L 53.818572 279.124953 
L 53.857839 269.396395 
L 53.897106 285.957612 
L 53.975641 277.375284 
L 54.054175 289.145998 
L 54.093442 282.148054 
L 54.13271 282.862967 
L 54.171977 281.285657 
L 54.211244 273.478035 
L 54.289779 277.338999 
L 54.525382 300.976519 
L 54.643184 292.224742 
L 54.682451 293.126506 
L 54.721718 299.979816 
L 54.800253 297.382355 
L 54.83952 299.466791 
L 54.878787 297.221614 
L 54.957322 294.743804 
L 54.996589 290.181894 
L 55.035856 294.125239 
L 55.075123 294.754094 
L 55.114391 294.394166 
L 55.310727 281.581397 
L 55.349994 284.589176 
L 55.389261 276.420074 
L 55.428528 278.592613 
L 55.467796 284.145864 
L 55.54633 283.443123 
L 55.585597 279.874778 
L 55.781934 298.806348 
L 55.821201 297.977092 
L 56.017537 304.619194 
L 56.174606 301.313318 
L 56.25314 301.88328 
L 56.292408 304.818211 
L 56.331675 302.404995 
L 56.488744 294.486531 
L 56.528011 295.496954 
L 56.567278 294.235743 
L 56.606546 293.972553 
L 56.645813 286.697672 
L 56.724347 286.934513 
L 56.763614 287.343205 
L 57.038485 301.66151 
L 57.11702 297.601242 
L 57.156287 301.54607 
L 57.234821 299.003783 
L 57.274089 298.629394 
L 57.313356 302.446021 
L 57.39189 300.795449 
L 57.431157 294.008807 
L 57.509692 298.681461 
L 57.82383 304.119971 
L 57.863097 302.803135 
L 57.902364 303.584455 
L 58.0987 307.674261 
L 58.137968 307.41871 
L 58.295037 308.748297 
L 58.334304 307.867677 
L 58.412838 307.965921 
L 58.491373 310.648264 
L 58.53064 310.28793 
L 58.609175 306.989309 
L 58.726976 298.750232 
L 58.805511 299.492371 
L 58.884045 304.354768 
L 58.96258 304.165525 
L 59.001847 303.2347 
L 59.198183 310.759528 
L 59.23745 310.597202 
L 59.315985 309.663111 
L 59.355252 309.144806 
L 59.473054 311.109935 
L 59.512321 310.370952 
L 59.590855 310.529835 
L 59.630123 310.714811 
L 59.708657 312.175086 
L 59.787192 311.921466 
L 59.826459 311.746723 
L 59.944261 308.43073 
L 59.983528 310.498497 
L 60.062062 311.877194 
L 60.258398 307.548702 
L 60.336933 310.451605 
L 60.415467 310.281381 
L 60.572536 312.181616 
L 60.611804 311.489403 
L 60.768872 313.520656 
L 61.004476 312.232688 
L 61.200812 313.266475 
L 61.240079 313.230758 
L 61.279347 313.343932 
L 61.357881 313.520077 
L 61.750553 308.251052 
L 61.789821 308.16496 
L 61.868355 311.305043 
L 61.907622 310.846116 
L 61.94689 310.07152 
L 61.986157 311.302104 
L 62.025424 311.150823 
L 62.064691 311.363509 
L 62.261027 313.455771 
L 62.300295 313.579544 
L 62.339562 314.103852 
L 62.378829 314.030937 
L 62.496631 312.600403 
L 62.575165 313.617744 
L 62.614433 312.932286 
L 62.6537 312.78391 
L 62.889303 313.877858 
L 62.92857 313.980939 
L 62.967838 313.850284 
L 63.124907 313.347359 
L 63.399777 314.812625 
L 63.831717 315.152596 
L 63.949519 315.097258 
L 63.988786 314.991305 
L 64.028053 315.122235 
L 64.302924 315.045032 
L 64.459993 315.206956 
L 64.970467 315.378267 
L 65.873613 315.399571 
L 66.187751 315.428873 
L 67.719173 315.439488 
L 74.394603 315.442792 
L 376.202574 315.44315 
L 442.367866 315.44315 
L 442.367866 315.44315 
" clip-path="url(#p315d818f1b)" style="fill: none; stroke: #e1ff00; stroke-width: 1.5; stroke-linecap: square"/>
   </g>
   <g id="patch_3">
    <path d="M 30.103125 330.121395 
L 30.103125 7.2 
" style="fill: none; stroke: #000000; stroke-width: 0.8; stroke-linejoin: miter; stroke-linecap: square"/>
   </g>
   <g id="patch_4">
    <path d="M 461.99952 330.121395 
L 461.99952 7.2 
" style="fill: none; stroke: #000000; stroke-width: 0.8; stroke-linejoin: miter; stroke-linecap: square"/>
   </g>
   <g id="patch_5">
    <path d="M 30.103125 330.121395 
L 461.99952 330.121395 
" style="fill: none; stroke: #000000; stroke-width: 0.8; stroke-linejoin: miter; stroke-linecap: square"/>
   </g>
   <g id="patch_6">
    <path d="M 30.103125 7.2 
L 461.99952 7.2 
" style="fill: none; stroke: #000000; stroke-width: 0.8; stroke-linejoin: miter; stroke-linecap: square"/>
   </g>
  </g>
 </g>
 <defs>
  <clipPath id="p315d818f1b">
   <rect x="30.103125" y="7.2" width="431.896395" height="322.921395"/>
  </clipPath>
 </defs>
</svg>
