<?xml version="1.0" encoding="utf-8" standalone="no"?>
<!DOCTYPE svg PUBLIC "-//W3C//DTD SVG 1.1//EN"
  "http://www.w3.org/Graphics/SVG/1.1/DTD/svg11.dtd">
<svg xmlns:xlink="http://www.w3.org/1999/xlink" width="469.19952pt" height="353.99952pt" viewBox="0 0 469.19952 353.99952" xmlns="http://www.w3.org/2000/svg" version="1.1">
 <metadata>
  <rdf:RDF xmlns:dc="http://purl.org/dc/elements/1.1/" xmlns:cc="http://creativecommons.org/ns#" xmlns:rdf="http://www.w3.org/1999/02/22-rdf-syntax-ns#">
   <cc:Work>
    <dc:type rdf:resource="http://purl.org/dc/dcmitype/StillImage"/>
    <dc:date>2025-12-23T13:08:24.162071</dc:date>
    <dc:format>image/svg+xml</dc:format>
    <dc:creator>
     <cc:Agent>
      <dc:title>Matplotlib v3.10.3, https://matplotlib.org/</dc:title>
     </cc:Agent>
    </dc:creator>
   </cc:Work>
  </rdf:RDF>
 </metadata>
 <defs>
  <style type="text/css">*{stroke-linejoin: round; stroke-linecap: butt}</style>
 </defs>
 <g id="figure_1">
  <g id="patch_1">
   <path d="M 0 353.99952 
L 469.19952 353.99952 
L 469.19952 0 
L 0 0 
z
" style="fill: #ffffff"/>
  </g>
  <g id="axes_1">
   <g id="patch_2">
    <path d="M 38.482813 157.321395 
L 461.99952 157.321395 
L 461.99952 7.2 
L 38.482813 7.2 
z
" style="fill: #ffffff"/>
   </g>
   <g id="matplotlib.axis_1">
    <g id="xtick_1">
     <g id="line2d_1">
      <defs>
       <path id="m5c850b35de" d="M 0 0 
L 0 3.5 
" style="stroke: #000000; stroke-width: 0.8"/>
      </defs>
      <g>
       <use xlink:href="#m5c850b35de" x="57.733572" y="157.321395" style="stroke: #000000; stroke-width: 0.8"/>
      </g>
     </g>
     <g id="text_1">
      <!-- 0 -->
      <g transform="translate(54.552322 171.919832) scale(0.1 -0.1)">
       <defs>
        <path id="DejaVuSans-30" d="M 2034 4250 
Q 1547 4250 1301 3770 
Q 1056 3291 1056 2328 
Q 1056 1369 1301 889 
Q 1547 409 2034 409 
Q 2525 409 2770 889 
Q 3016 1369 3016 2328 
Q 3016 3291 2770 3770 
Q 2525 4250 2034 4250 
z
M 2034 4750 
Q 2819 4750 3233 4129 
Q 3647 3509 3647 2328 
Q 3647 1150 3233 529 
Q 2819 -91 2034 -91 
Q 1250 -91 836 529 
Q 422 1150 422 2328 
Q 422 3509 836 4129 
Q 1250 4750 2034 4750 
z
" transform="scale(0.015625)"/>
       </defs>
       <use xlink:href="#DejaVuSans-30"/>
      </g>
     </g>
    </g>
    <g id="xtick_2">
     <g id="line2d_2">
      <g>
       <use xlink:href="#m5c850b35de" x="134.744311" y="157.321395" style="stroke: #000000; stroke-width: 0.8"/>
      </g>
     </g>
     <g id="text_2">
      <!-- 2 -->
      <g transform="translate(131.563061 171.919832) scale(0.1 -0.1)">
       <defs>
        <path id="DejaVuSans-32" d="M 1228 531 
L 3431 531 
L 3431 0 
L 469 0 
L 469 531 
Q 828 903 1448 1529 
Q 2069 2156 2228 2338 
Q 2531 2678 2651 2914 
Q 2772 3150 2772 3378 
Q 2772 3750 2511 3984 
Q 2250 4219 1831 4219 
Q 1534 4219 1204 4116 
Q 875 4013 500 3803 
L 500 4441 
Q 881 4594 1212 4672 
Q 1544 4750 1819 4750 
Q 2544 4750 2975 4387 
Q 3406 4025 3406 3419 
Q 3406 3131 3298 2873 
Q 3191 2616 2906 2266 
Q 2828 2175 2409 1742 
Q 1991 1309 1228 531 
z
" transform="scale(0.015625)"/>
       </defs>
       <use xlink:href="#DejaVuSans-32"/>
      </g>
     </g>
    </g>
    <g id="xtick_3">
     <g id="line2d_3">
      <g>
       <use xlink:href="#m5c850b35de" x="211.75505" y="157.321395" style="stroke: #000000; stroke-width: 0.8"/>
      </g>
     </g>
     <g id="text_3">
      <!-- 4 -->
      <g transform="translate(208.5738 171.919832) scale(0.1 -0.1)">
       <defs>
        <path id="DejaVuSans-34" d="M 2419 4116 
L 825 1625 
L 2419 1625 
L 2419 4116 
z
M 2253 4666 
L 3047 4666 
L 3047 1625 
L 3713 1625 
L 3713 1100 
L 3047 1100 
L 3047 0 
L 2419 0 
L 2419 1100 
L 313 1100 
L 313 1709 
L 2253 4666 
z
" transform="scale(0.015625)"/>
       </defs>
       <use xlink:href="#DejaVuSans-34"/>
      </g>
     </g>
    </g>
    <g id="xtick_4">
     <g id="line2d_4">
      <g>
       <use xlink:href="#m5c850b35de" x="288.765788" y="157.321395" style="stroke: #000000; stroke-width: 0.8"/>
      </g>
     </g>
     <g id="text_4">
      <!-- 6 -->
      <g transform="translate(285.584538 171.919832) scale(0.1 -0.1)">
       <defs>
        <path id="DejaVuSans-36" d="M 2113 2584 
Q 1688 2584 1439 2293 
Q 1191 2003 1191 1497 
Q 1191 994 1439 701 
Q 1688 409 2113 409 
Q 2538 409 2786 701 
Q 3034 994 3034 1497 
Q 3034 2003 2786 2293 
Q 2538 2584 2113 2584 
z
M 3366 4563 
L 3366 3988 
Q 3128 4100 2886 4159 
Q 2644 4219 2406 4219 
Q 1781 4219 1451 3797 
Q 1122 3375 1075 2522 
Q 1259 2794 1537 2939 
Q 1816 3084 2150 3084 
Q 2853 3084 3261 2657 
Q 3669 2231 3669 1497 
Q 3669 778 3244 343 
Q 2819 -91 2113 -91 
Q 1303 -91 875 529 
Q 447 1150 447 2328 
Q 447 3434 972 4092 
Q 1497 4750 2381 4750 
Q 2619 4750 2861 4703 
Q 3103 4656 3366 4563 
z
" transform="scale(0.015625)"/>
       </defs>
       <use xlink:href="#DejaVuSans-36"/>
      </g>
     </g>
    </g>
    <g id="xtick_5">
     <g id="line2d_5">
      <g>
       <use xlink:href="#m5c850b35de" x="365.776527" y="157.321395" style="stroke: #000000; stroke-width: 0.8"/>
      </g>
     </g>
     <g id="text_5">
      <!-- 8 -->
      <g transform="translate(362.595277 171.919832) scale(0.1 -0.1)">
       <defs>
        <path id="DejaVuSans-38" d="M 2034 2216 
Q 1584 2216 1326 1975 
Q 1069 1734 1069 1313 
Q 1069 891 1326 650 
Q 1584 409 2034 409 
Q 2484 409 2743 651 
Q 3003 894 3003 1313 
Q 3003 1734 2745 1975 
Q 2488 2216 2034 2216 
z
M 1403 2484 
Q 997 2584 770 2862 
Q 544 3141 544 3541 
Q 544 4100 942 4425 
Q 1341 4750 2034 4750 
Q 2731 4750 3128 4425 
Q 3525 4100 3525 3541 
Q 3525 3141 3298 2862 
Q 3072 2584 2669 2484 
Q 3125 2378 3379 2068 
Q 3634 1759 3634 1313 
Q 3634 634 3220 271 
Q 2806 -91 2034 -91 
Q 1263 -91 848 271 
Q 434 634 434 1313 
Q 434 1759 690 2068 
Q 947 2378 1403 2484 
z
M 1172 3481 
Q 1172 3119 1398 2916 
Q 1625 2713 2034 2713 
Q 2441 2713 2670 2916 
Q 2900 3119 2900 3481 
Q 2900 3844 2670 4047 
Q 2441 4250 2034 4250 
Q 1625 4250 1398 4047 
Q 1172 3844 1172 3481 
z
" transform="scale(0.015625)"/>
       </defs>
       <use xlink:href="#DejaVuSans-38"/>
      </g>
     </g>
    </g>
    <g id="xtick_6">
     <g id="line2d_6">
      <g>
       <use xlink:href="#m5c850b35de" x="442.787266" y="157.321395" style="stroke: #000000; stroke-width: 0.8"/>
      </g>
     </g>
     <g id="text_6">
      <!-- 10 -->
      <g transform="translate(436.424766 171.919832) scale(0.1 -0.1)">
       <defs>
        <path id="DejaVuSans-31" d="M 794 531 
L 1825 531 
L 1825 4091 
L 703 3866 
L 703 4441 
L 1819 4666 
L 2450 4666 
L 2450 531 
L 3481 531 
L 3481 0 
L 794 0 
L 794 531 
z
" transform="scale(0.015625)"/>
       </defs>
       <use xlink:href="#DejaVuSans-31"/>
       <use xlink:href="#DejaVuSans-30" transform="translate(63.623047 0)"/>
      </g>
     </g>
    </g>
   </g>
   <g id="matplotlib.axis_2">
    <g id="ytick_1">
     <g id="line2d_7">
      <defs>
       <path id="mee377d659c" d="M 0 0 
L -3.5 0 
" style="stroke: #000000; stroke-width: 0.8"/>
      </defs>
      <g>
       <use xlink:href="#mee377d659c" x="38.482813" y="150.497695" style="stroke: #000000; stroke-width: 0.8"/>
      </g>
     </g>
     <g id="text_7">
      <!-- 0.0 -->
      <g transform="translate(15.579688 154.296914) scale(0.1 -0.1)">
       <defs>
        <path id="DejaVuSans-2e" d="M 684 794 
L 1344 794 
L 1344 0 
L 684 0 
L 684 794 
z
" transform="scale(0.015625)"/>
       </defs>
       <use xlink:href="#DejaVuSans-30"/>
       <use xlink:href="#DejaVuSans-2e" transform="translate(63.623047 0)"/>
       <use xlink:href="#DejaVuSans-30" transform="translate(95.410156 0)"/>
      </g>
     </g>
    </g>
    <g id="ytick_2">
     <g id="line2d_8">
      <g>
       <use xlink:href="#mee377d659c" x="38.482813" y="123.202896" style="stroke: #000000; stroke-width: 0.8"/>
      </g>
     </g>
     <g id="text_8">
      <!-- 0.2 -->
      <g transform="translate(15.579688 127.002115) scale(0.1 -0.1)">
       <use xlink:href="#DejaVuSans-30"/>
       <use xlink:href="#DejaVuSans-2e" transform="translate(63.623047 0)"/>
       <use xlink:href="#DejaVuSans-32" transform="translate(95.410156 0)"/>
      </g>
     </g>
    </g>
    <g id="ytick_3">
     <g id="line2d_9">
      <g>
       <use xlink:href="#mee377d659c" x="38.482813" y="95.908097" style="stroke: #000000; stroke-width: 0.8"/>
      </g>
     </g>
     <g id="text_9">
      <!-- 0.4 -->
      <g transform="translate(15.579688 99.707316) scale(0.1 -0.1)">
       <use xlink:href="#DejaVuSans-30"/>
       <use xlink:href="#DejaVuSans-2e" transform="translate(63.623047 0)"/>
       <use xlink:href="#DejaVuSans-34" transform="translate(95.410156 0)"/>
      </g>
     </g>
    </g>
    <g id="ytick_4">
     <g id="line2d_10">
      <g>
       <use xlink:href="#mee377d659c" x="38.482813" y="68.613298" style="stroke: #000000; stroke-width: 0.8"/>
      </g>
     </g>
     <g id="text_10">
      <!-- 0.6 -->
      <g transform="translate(15.579688 72.412517) scale(0.1 -0.1)">
       <use xlink:href="#DejaVuSans-30"/>
       <use xlink:href="#DejaVuSans-2e" transform="translate(63.623047 0)"/>
       <use xlink:href="#DejaVuSans-36" transform="translate(95.410156 0)"/>
      </g>
     </g>
    </g>
    <g id="ytick_5">
     <g id="line2d_11">
      <g>
       <use xlink:href="#mee377d659c" x="38.482813" y="41.318499" style="stroke: #000000; stroke-width: 0.8"/>
      </g>
     </g>
     <g id="text_11">
      <!-- 0.8 -->
      <g transform="translate(15.579688 45.117718) scale(0.1 -0.1)">
       <use xlink:href="#DejaVuSans-30"/>
       <use xlink:href="#DejaVuSans-2e" transform="translate(63.623047 0)"/>
       <use xlink:href="#DejaVuSans-38" transform="translate(95.410156 0)"/>
      </g>
     </g>
    </g>
    <g id="ytick_6">
     <g id="line2d_12">
      <g>
       <use xlink:href="#mee377d659c" x="38.482813" y="14.0237" style="stroke: #000000; stroke-width: 0.8"/>
      </g>
     </g>
     <g id="text_12">
      <!-- 1.0 -->
      <g transform="translate(15.579688 17.822919) scale(0.1 -0.1)">
       <use xlink:href="#DejaVuSans-31"/>
       <use xlink:href="#DejaVuSans-2e" transform="translate(63.623047 0)"/>
       <use xlink:href="#DejaVuSans-30" transform="translate(95.410156 0)"/>
      </g>
     </g>
    </g>
   </g>
   <g id="line2d_13">
    <path d="M 57.733572 76.583304 
L 57.772077 81.206161 
L 57.810583 80.623885 
L 57.887593 132.448505 
L 57.926099 124.809849 
L 58.041615 65.691086 
L 58.118626 66.903889 
L 58.157131 86.826459 
L 58.195636 64.911261 
L 58.234142 64.316473 
L 58.311152 27.63643 
L 58.349658 39.684204 
L 58.388163 38.660687 
L 58.503679 19.426288 
L 58.542185 21.786689 
L 58.58069 19.880217 
L 58.734712 14.565574 
L 58.888733 14.134908 
L 59.004249 14.055057 
L 59.312292 14.024007 
L 140.520116 14.0237 
L 442.748761 14.0237 
L 442.748761 14.0237 
" clip-path="url(#p352f8b26fc)" style="fill: none; stroke: #1f77b4; stroke-width: 1.5; stroke-linecap: square"/>
   </g>
   <g id="line2d_14">
    <path d="M 57.733572 76.583304 
L 57.772077 99.579845 
L 57.810583 74.44541 
L 57.849088 72.545692 
L 58.00311 27.795141 
L 58.041615 29.103229 
L 58.311152 86.286057 
L 58.349658 74.75932 
L 58.388163 75.100769 
L 58.542185 20.243468 
L 58.696206 14.381757 
L 59.004249 14.025382 
L 120.535829 14.0237 
L 442.748761 14.0237 
L 442.748761 14.0237 
" clip-path="url(#p352f8b26fc)" style="fill: none; stroke: #ff7f0e; stroke-width: 1.5; stroke-linecap: square"/>
   </g>
   <g id="line2d_15">
    <path d="M 57.733572 76.583304 
L 57.849088 38.775474 
L 57.964604 71.357695 
L 58.157131 138.752216 
L 58.311152 150.170583 
L 58.426669 150.21686 
L 58.58069 146.885941 
L 58.657701 149.959812 
L 58.734712 149.575613 
L 58.927238 150.300029 
L 59.08126 148.763653 
L 59.119765 149.072914 
L 59.196776 148.363855 
L 59.235281 143.929512 
L 59.312292 147.052992 
L 59.427808 148.766965 
L 59.466314 148.159272 
L 59.504819 145.544677 
L 59.543324 148.410643 
L 59.774357 150.27044 
L 59.812862 150.229013 
L 59.851367 150.366597 
L 59.889873 150.130068 
L 60.005389 149.683953 
L 60.082399 149.26389 
L 60.197916 147.081895 
L 60.236421 148.756064 
L 60.274926 147.245473 
L 60.313432 145.903588 
L 60.351937 146.641707 
L 60.505959 149.710448 
L 60.544464 149.749037 
L 60.582969 150.029602 
L 60.621475 149.899672 
L 60.698485 148.466476 
L 60.775496 149.375972 
L 60.852507 149.929485 
L 60.891012 149.791516 
L 60.929518 148.770207 
L 60.968023 149.754179 
L 61.122044 150.375297 
L 61.199055 150.404417 
L 61.353077 150.476864 
L 65.704183 150.497695 
L 442.748761 150.497695 
L 442.748761 150.497695 
" clip-path="url(#p352f8b26fc)" style="fill: none; stroke: #2ca02c; stroke-width: 1.5; stroke-linecap: square"/>
   </g>
   <g id="line2d_16">
    <path d="M 57.733572 76.583304 
L 57.772077 60.796 
L 57.810583 87.076174 
L 58.041615 150.387342 
L 58.465174 150.495376 
L 62.123184 150.497695 
L 442.748761 150.497695 
L 442.748761 150.497695 
" clip-path="url(#p352f8b26fc)" style="fill: none; stroke: #d62728; stroke-width: 1.5; stroke-linecap: square"/>
   </g>
   <g id="line2d_17">
    <path d="M 57.733572 76.583304 
L 58.00311 146.195018 
L 58.157131 150.124714 
L 58.234142 149.643148 
L 58.272647 149.822401 
L 58.388163 147.70152 
L 58.465174 149.511329 
L 58.657701 137.171053 
L 58.734712 149.692415 
L 58.811722 148.973526 
L 58.850228 149.764047 
L 58.888733 148.945565 
L 58.927238 149.536434 
L 58.965744 149.457599 
L 59.004249 149.086173 
L 59.042754 149.288788 
L 59.196776 150.302175 
L 59.350797 150.424188 
L 59.389303 150.258846 
L 59.427808 150.328127 
L 59.58183 150.495019 
L 61.853646 150.497695 
L 442.748761 150.497695 
L 442.748761 150.497695 
" clip-path="url(#p352f8b26fc)" style="fill: none; stroke: #9467bd; stroke-width: 1.5; stroke-linecap: square"/>
   </g>
   <g id="line2d_18">
    <path d="M 57.733572 76.583304 
L 57.849088 118.803639 
L 57.926099 55.058369 
L 58.00311 76.099192 
L 58.041615 86.520973 
L 58.08012 77.555541 
L 58.234142 56.595606 
L 58.426669 117.209738 
L 58.503679 81.586298 
L 58.619195 59.080113 
L 58.773217 119.058215 
L 58.811722 115.906791 
L 59.042754 21.491868 
L 59.196776 15.053597 
L 59.273787 14.164252 
L 59.350797 14.257399 
L 60.467453 14.028231 
L 63.509377 14.0237 
L 442.748761 14.0237 
L 442.748761 14.0237 
" clip-path="url(#p352f8b26fc)" style="fill: none; stroke: #8c564b; stroke-width: 1.5; stroke-linecap: square"/>
   </g>
   <g id="line2d_19">
    <path d="M 57.733572 76.583304 
L 57.887593 143.668085 
L 58.00311 108.003709 
L 58.041615 116.547707 
L 58.195636 140.651003 
L 58.234142 146.241749 
L 58.311152 142.656527 
L 58.349658 143.512391 
L 58.465174 148.134464 
L 58.503679 146.709195 
L 58.542185 148.78983 
L 58.773217 150.153884 
L 58.811722 150.16562 
L 58.850228 150.338943 
L 58.888733 150.121213 
L 58.965744 150.045955 
L 59.119765 150.405654 
L 59.158271 150.347363 
L 59.196776 150.457099 
L 59.889873 150.49766 
L 277.599231 150.497695 
L 442.748761 150.497695 
L 442.748761 150.497695 
" clip-path="url(#p352f8b26fc)" style="fill: none; stroke: #e377c2; stroke-width: 1.5; stroke-linecap: square"/>
   </g>
   <g id="line2d_20">
    <path d="M 57.733572 76.583304 
L 57.810583 39.902319 
L 57.887593 41.925184 
L 58.041615 16.018795 
L 58.157131 14.256318 
L 58.195636 14.693104 
L 58.234142 14.876883 
L 58.272647 15.724518 
L 58.311152 15.053294 
L 58.503679 14.365827 
L 58.542185 14.412666 
L 58.58069 14.755524 
L 58.619195 14.52046 
L 58.773217 14.083371 
L 59.273787 14.035348 
L 62.354216 14.0237 
L 442.748761 14.0237 
L 442.748761 14.0237 
" clip-path="url(#p352f8b26fc)" style="fill: none; stroke: #7f7f7f; stroke-width: 1.5; stroke-linecap: square"/>
   </g>
   <g id="line2d_21">
    <path d="M 57.733572 76.583304 
L 57.772077 72.38624 
L 57.926099 24.809601 
L 58.00311 29.577549 
L 58.041615 23.069881 
L 58.118626 23.14841 
L 58.157131 23.180889 
L 58.195636 22.567525 
L 58.311152 30.631168 
L 58.426669 17.272566 
L 58.465174 17.727125 
L 58.503679 17.381963 
L 58.542185 17.664399 
L 58.58069 18.165984 
L 58.619195 20.817888 
L 58.696206 15.265534 
L 58.734712 15.437515 
L 58.811722 17.01127 
L 58.850228 19.270798 
L 58.888733 15.698751 
L 58.927238 15.047368 
L 59.004249 15.447629 
L 59.042754 16.227972 
L 59.08126 15.748435 
L 59.158271 14.287441 
L 59.235281 14.413561 
L 59.389303 14.092181 
L 59.427808 14.107039 
L 59.65884 14.205065 
L 59.812862 14.087623 
L 59.889873 14.166795 
L 59.928378 14.114748 
L 60.082399 14.032756 
L 64.240979 14.0237 
L 442.748761 14.0237 
L 442.748761 14.0237 
" clip-path="url(#p352f8b26fc)" style="fill: none; stroke: #bcbd22; stroke-width: 1.5; stroke-linecap: square"/>
   </g>
   <g id="line2d_22">
    <path d="M 57.733572 76.583304 
L 57.926099 147.772415 
L 58.00311 147.255808 
L 58.118626 149.654715 
L 58.195636 149.331377 
L 58.272647 143.890881 
L 58.311152 143.952117 
L 58.465174 149.6918 
L 58.542185 150.186812 
L 58.58069 149.929762 
L 59.312292 150.494171 
L 83.840212 150.497695 
L 442.748761 150.497695 
L 442.748761 150.497695 
" clip-path="url(#p352f8b26fc)" style="fill: none; stroke: #17becf; stroke-width: 1.5; stroke-linecap: square"/>
   </g>
   <g id="line2d_23">
    <path d="M 57.733572 76.583304 
L 57.849088 25.965551 
L 57.887593 30.9024 
L 58.041615 14.84823 
L 58.195636 14.085684 
L 58.272647 14.101079 
L 58.311152 14.186396 
L 58.388163 14.106259 
L 58.426669 14.165024 
L 58.465174 14.139316 
L 58.58069 14.044793 
L 58.619195 14.065699 
L 58.888733 14.026353 
L 59.158271 14.026443 
L 68.207032 14.0237 
L 442.748761 14.0237 
L 442.748761 14.0237 
" clip-path="url(#p352f8b26fc)" style="fill: none; stroke: #1f77b4; stroke-width: 1.5; stroke-linecap: square"/>
   </g>
   <g id="line2d_24">
    <path d="M 57.733572 76.583304 
L 57.887593 147.793897 
L 58.195636 150.355526 
L 58.234142 150.4327 
L 58.311152 150.366959 
L 58.349658 150.322869 
L 58.388163 150.417099 
L 58.657701 150.444058 
L 58.696206 150.37221 
L 58.734712 150.457064 
L 58.927238 150.483744 
L 59.158271 150.46004 
L 86.651104 150.497695 
L 442.748761 150.497695 
L 442.748761 150.497695 
" clip-path="url(#p352f8b26fc)" style="fill: none; stroke: #ff7f0e; stroke-width: 1.5; stroke-linecap: square"/>
   </g>
   <g id="line2d_25">
    <path d="M 57.733572 76.583304 
L 57.772077 99.473744 
L 57.810583 92.73754 
L 58.00311 24.34902 
L 58.08012 19.119357 
L 58.272647 14.846125 
L 58.311152 15.330838 
L 58.349658 14.458978 
L 58.503679 14.210876 
L 58.619195 14.251901 
L 58.773217 14.051382 
L 58.965744 14.031498 
L 71.210451 14.0237 
L 442.748761 14.0237 
L 442.748761 14.0237 
" clip-path="url(#p352f8b26fc)" style="fill: none; stroke: #2ca02c; stroke-width: 1.5; stroke-linecap: square"/>
   </g>
   <g id="line2d_26">
    <path d="M 57.733572 76.583304 
L 57.772077 82.937212 
L 57.926099 36.16725 
L 57.964604 39.334244 
L 58.08012 147.296697 
L 58.118626 146.232874 
L 58.349658 150.280056 
L 58.388163 150.399754 
L 58.426669 150.317771 
L 58.542185 148.590074 
L 58.58069 148.940158 
L 58.734712 150.451818 
L 58.811722 150.398639 
L 58.850228 150.470569 
L 59.620335 150.497683 
L 442.748761 150.497695 
L 442.748761 150.497695 
" clip-path="url(#p352f8b26fc)" style="fill: none; stroke: #d62728; stroke-width: 1.5; stroke-linecap: square"/>
   </g>
   <g id="line2d_27">
    <path d="M 57.733572 76.583304 
L 57.772077 72.062707 
L 57.849088 125.692929 
L 57.926099 119.729963 
L 57.964604 103.989006 
L 58.00311 137.788068 
L 58.08012 132.315637 
L 58.195636 145.50597 
L 58.234142 133.281126 
L 58.311152 140.460357 
L 58.465174 149.493529 
L 58.503679 149.691994 
L 58.542185 149.549798 
L 58.58069 148.613907 
L 58.619195 149.42041 
L 58.734712 149.987438 
L 58.811722 149.455705 
L 58.850228 149.766408 
L 58.888733 149.640859 
L 59.042754 150.427674 
L 60.15941 150.497693 
L 442.748761 150.497695 
L 442.748761 150.497695 
" clip-path="url(#p352f8b26fc)" style="fill: none; stroke: #9467bd; stroke-width: 1.5; stroke-linecap: square"/>
   </g>
   <g id="line2d_28">
    <path d="M 57.733572 76.583304 
L 57.772077 65.670752 
L 57.926099 146.79035 
L 57.964604 145.124503 
L 58.00311 143.031139 
L 58.041615 147.137093 
L 58.08012 140.216729 
L 58.118626 144.455161 
L 58.195636 137.268365 
L 58.234142 139.373421 
L 58.388163 147.876256 
L 58.58069 150.219009 
L 58.619195 149.940445 
L 58.657701 150.285428 
L 58.927238 150.45102 
L 59.042754 150.45078 
L 59.350797 150.497446 
L 80.528751 150.497695 
L 442.748761 150.497695 
L 442.748761 150.497695 
" clip-path="url(#p352f8b26fc)" style="fill: none; stroke: #8c564b; stroke-width: 1.5; stroke-linecap: square"/>
   </g>
   <g id="line2d_29">
    <path d="M 57.733572 76.583304 
L 57.964604 21.868017 
L 58.041615 17.749442 
L 58.08012 18.787335 
L 58.118626 20.544144 
L 58.234142 30.924504 
L 58.349658 17.677519 
L 58.426669 19.562511 
L 58.503679 18.358859 
L 58.542185 17.993716 
L 58.58069 15.593931 
L 58.657701 17.045328 
L 59.004249 14.086876 
L 59.158271 14.03031 
L 60.197916 14.027728 
L 63.470872 14.0237 
L 442.748761 14.0237 
L 442.748761 14.0237 
" clip-path="url(#p352f8b26fc)" style="fill: none; stroke: #e377c2; stroke-width: 1.5; stroke-linecap: square"/>
   </g>
   <g id="line2d_30">
    <path d="M 57.733572 76.583304 
L 57.772077 75.432475 
L 57.849088 63.078688 
L 58.00311 127.316852 
L 58.041615 125.842405 
L 58.272647 148.227257 
L 58.542185 106.278069 
L 58.657701 145.506477 
L 58.696206 145.147482 
L 58.773217 141.747971 
L 58.927238 149.716235 
L 59.08126 150.44435 
L 59.312292 150.496082 
L 63.201334 150.497695 
L 442.748761 150.497695 
L 442.748761 150.497695 
" clip-path="url(#p352f8b26fc)" style="fill: none; stroke: #7f7f7f; stroke-width: 1.5; stroke-linecap: square"/>
   </g>
   <g id="line2d_31">
    <path d="M 57.733572 76.583304 
L 57.772077 62.597347 
L 57.810583 74.91724 
L 58.041615 136.5307 
L 58.08012 135.668126 
L 58.118626 107.15759 
L 58.195636 131.276959 
L 58.388163 146.864499 
L 58.426669 145.981728 
L 58.465174 147.363291 
L 58.503679 147.294931 
L 58.542185 147.568151 
L 58.58069 144.490451 
L 58.619195 148.799159 
L 58.734712 143.838299 
L 58.773217 147.263761 
L 58.850228 146.663184 
L 58.888733 146.665217 
L 59.004249 148.530971 
L 59.042754 147.494517 
L 59.08126 149.223735 
L 59.119765 149.597692 
L 59.158271 148.961244 
L 59.196776 149.385813 
L 59.312292 145.745629 
L 59.427808 150.200778 
L 59.466314 150.141059 
L 59.543324 150.437352 
L 59.620335 150.399297 
L 59.735851 150.375246 
L 59.889873 150.472777 
L 60.005389 150.263203 
L 60.082399 150.375956 
L 60.15941 150.427204 
L 60.197916 150.389411 
L 60.274926 149.936009 
L 60.313432 150.35856 
L 60.505959 150.443052 
L 60.621475 150.432345 
L 60.736991 150.362556 
L 60.891012 150.449472 
L 61.66112 150.497401 
L 74.290881 150.497695 
L 442.748761 150.497695 
L 442.748761 150.497695 
" clip-path="url(#p352f8b26fc)" style="fill: none; stroke: #bcbd22; stroke-width: 1.5; stroke-linecap: square"/>
   </g>
   <g id="line2d_32">
    <path d="M 57.733572 76.583304 
L 57.772077 66.014643 
L 58.00311 147.8928 
L 58.08012 148.773086 
L 58.272647 131.882637 
L 58.426669 149.405607 
L 58.58069 141.016375 
L 58.619195 136.255646 
L 58.657701 144.391035 
L 58.811722 148.661236 
L 58.850228 149.030723 
L 58.965744 144.358878 
L 59.042754 148.577688 
L 59.08126 147.104994 
L 59.196776 141.931666 
L 59.235281 145.080554 
L 59.427808 150.241629 
L 59.504819 150.084215 
L 59.543324 149.562323 
L 59.58183 150.220508 
L 59.620335 150.005854 
L 59.774357 150.327181 
L 60.120905 150.48387 
L 60.582969 150.455904 
L 60.698485 150.472797 
L 62.046173 150.497563 
L 188.767344 150.497695 
L 442.748761 150.497695 
L 442.748761 150.497695 
" clip-path="url(#p352f8b26fc)" style="fill: none; stroke: #17becf; stroke-width: 1.5; stroke-linecap: square"/>
   </g>
   <g id="patch_3">
    <path d="M 38.482813 157.321395 
L 38.482813 7.2 
" style="fill: none; stroke: #000000; stroke-width: 0.8; stroke-linejoin: miter; stroke-linecap: square"/>
   </g>
   <g id="patch_4">
    <path d="M 461.99952 157.321395 
L 461.99952 7.2 
" style="fill: none; stroke: #000000; stroke-width: 0.8; stroke-linejoin: miter; stroke-linecap: square"/>
   </g>
   <g id="patch_5">
    <path d="M 38.482813 157.321395 
L 461.99952 157.321395 
" style="fill: none; stroke: #000000; stroke-width: 0.8; stroke-linejoin: miter; stroke-linecap: square"/>
   </g>
   <g id="patch_6">
    <path d="M 38.482813 7.2 
L 461.99952 7.2 
" style="fill: none; stroke: #000000; stroke-width: 0.8; stroke-linejoin: miter; stroke-linecap: square"/>
   </g>
  </g>
  <g id="axes_2">
   <g id="patch_7">
    <path d="M 38.482813 330.121395 
L 461.99952 330.121395 
L 461.99952 180 
L 38.482813 180 
z
" style="fill: #ffffff"/>
   </g>
   <g id="matplotlib.axis_3">
    <g id="xtick_7">
     <g id="line2d_33">
      <g>
       <use xlink:href="#m5c850b35de" x="57.733572" y="330.121395" style="stroke: #000000; stroke-width: 0.8"/>
      </g>
     </g>
     <g id="text_13">
      <!-- 0 -->
      <g transform="translate(54.552322 344.719832) scale(0.1 -0.1)">
       <use xlink:href="#DejaVuSans-30"/>
      </g>
     </g>
    </g>
    <g id="xtick_8">
     <g id="line2d_34">
      <g>
       <use xlink:href="#m5c850b35de" x="134.744311" y="330.121395" style="stroke: #000000; stroke-width: 0.8"/>
      </g>
     </g>
     <g id="text_14">
      <!-- 2 -->
      <g transform="translate(131.563061 344.719832) scale(0.1 -0.1)">
       <use xlink:href="#DejaVuSans-32"/>
      </g>
     </g>
    </g>
    <g id="xtick_9">
     <g id="line2d_35">
      <g>
       <use xlink:href="#m5c850b35de" x="211.75505" y="330.121395" style="stroke: #000000; stroke-width: 0.8"/>
      </g>
     </g>
     <g id="text_15">
      <!-- 4 -->
      <g transform="translate(208.5738 344.719832) scale(0.1 -0.1)">
       <use xlink:href="#DejaVuSans-34"/>
      </g>
     </g>
    </g>
    <g id="xtick_10">
     <g id="line2d_36">
      <g>
       <use xlink:href="#m5c850b35de" x="288.765788" y="330.121395" style="stroke: #000000; stroke-width: 0.8"/>
      </g>
     </g>
     <g id="text_16">
      <!-- 6 -->
      <g transform="translate(285.584538 344.719832) scale(0.1 -0.1)">
       <use xlink:href="#DejaVuSans-36"/>
      </g>
     </g>
    </g>
    <g id="xtick_11">
     <g id="line2d_37">
      <g>
       <use xlink:href="#m5c850b35de" x="365.776527" y="330.121395" style="stroke: #000000; stroke-width: 0.8"/>
      </g>
     </g>
     <g id="text_17">
      <!-- 8 -->
      <g transform="translate(362.595277 344.719832) scale(0.1 -0.1)">
       <use xlink:href="#DejaVuSans-38"/>
      </g>
     </g>
    </g>
    <g id="xtick_12">
     <g id="line2d_38">
      <g>
       <use xlink:href="#m5c850b35de" x="442.787266" y="330.121395" style="stroke: #000000; stroke-width: 0.8"/>
      </g>
     </g>
     <g id="text_18">
      <!-- 10 -->
      <g transform="translate(436.424766 344.719832) scale(0.1 -0.1)">
       <use xlink:href="#DejaVuSans-31"/>
       <use xlink:href="#DejaVuSans-30" transform="translate(63.623047 0)"/>
      </g>
     </g>
    </g>
   </g>
   <g id="matplotlib.axis_4">
    <g id="ytick_7">
     <g id="line2d_39">
      <g>
       <use xlink:href="#mee377d659c" x="38.482813" y="307.550696" style="stroke: #000000; stroke-width: 0.8"/>
      </g>
     </g>
     <g id="text_19">
      <!-- −7.5 -->
      <g transform="translate(7.2 311.349915) scale(0.1 -0.1)">
       <defs>
        <path id="DejaVuSans-2212" d="M 678 2272 
L 4684 2272 
L 4684 1741 
L 678 1741 
L 678 2272 
z
" transform="scale(0.015625)"/>
        <path id="DejaVuSans-37" d="M 525 4666 
L 3525 4666 
L 3525 4397 
L 1831 0 
L 1172 0 
L 2766 4134 
L 525 4134 
L 525 4666 
z
" transform="scale(0.015625)"/>
        <path id="DejaVuSans-35" d="M 691 4666 
L 3169 4666 
L 3169 4134 
L 1269 4134 
L 1269 2991 
Q 1406 3038 1543 3061 
Q 1681 3084 1819 3084 
Q 2600 3084 3056 2656 
Q 3513 2228 3513 1497 
Q 3513 744 3044 326 
Q 2575 -91 1722 -91 
Q 1428 -91 1123 -41 
Q 819 9 494 109 
L 494 744 
Q 775 591 1075 516 
Q 1375 441 1709 441 
Q 2250 441 2565 725 
Q 2881 1009 2881 1497 
Q 2881 1984 2565 2268 
Q 2250 2553 1709 2553 
Q 1456 2553 1204 2497 
Q 953 2441 691 2322 
L 691 4666 
z
" transform="scale(0.015625)"/>
       </defs>
       <use xlink:href="#DejaVuSans-2212"/>
       <use xlink:href="#DejaVuSans-37" transform="translate(83.789062 0)"/>
       <use xlink:href="#DejaVuSans-2e" transform="translate(147.412109 0)"/>
       <use xlink:href="#DejaVuSans-35" transform="translate(179.199219 0)"/>
      </g>
     </g>
    </g>
    <g id="ytick_8">
     <g id="line2d_40">
      <g>
       <use xlink:href="#mee377d659c" x="38.482813" y="281.305697" style="stroke: #000000; stroke-width: 0.8"/>
      </g>
     </g>
     <g id="text_20">
      <!-- −5.0 -->
      <g transform="translate(7.2 285.104915) scale(0.1 -0.1)">
       <use xlink:href="#DejaVuSans-2212"/>
       <use xlink:href="#DejaVuSans-35" transform="translate(83.789062 0)"/>
       <use xlink:href="#DejaVuSans-2e" transform="translate(147.412109 0)"/>
       <use xlink:href="#DejaVuSans-30" transform="translate(179.199219 0)"/>
      </g>
     </g>
    </g>
    <g id="ytick_9">
     <g id="line2d_41">
      <g>
       <use xlink:href="#mee377d659c" x="38.482813" y="255.060698" style="stroke: #000000; stroke-width: 0.8"/>
      </g>
     </g>
     <g id="text_21">
      <!-- −2.5 -->
      <g transform="translate(7.2 258.859916) scale(0.1 -0.1)">
       <use xlink:href="#DejaVuSans-2212"/>
       <use xlink:href="#DejaVuSans-32" transform="translate(83.789062 0)"/>
       <use xlink:href="#DejaVuSans-2e" transform="translate(147.412109 0)"/>
       <use xlink:href="#DejaVuSans-35" transform="translate(179.199219 0)"/>
      </g>
     </g>
    </g>
    <g id="ytick_10">
     <g id="line2d_42">
      <g>
       <use xlink:href="#mee377d659c" x="38.482813" y="228.815698" style="stroke: #000000; stroke-width: 0.8"/>
      </g>
     </g>
     <g id="text_22">
      <!-- 0.0 -->
      <g transform="translate(15.579688 232.614917) scale(0.1 -0.1)">
       <use xlink:href="#DejaVuSans-30"/>
       <use xlink:href="#DejaVuSans-2e" transform="translate(63.623047 0)"/>
       <use xlink:href="#DejaVuSans-30" transform="translate(95.410156 0)"/>
      </g>
     </g>
    </g>
    <g id="ytick_11">
     <g id="line2d_43">
      <g>
       <use xlink:href="#mee377d659c" x="38.482813" y="202.570699" style="stroke: #000000; stroke-width: 0.8"/>
      </g>
     </g>
     <g id="text_23">
      <!-- 2.5 -->
      <g transform="translate(15.579688 206.369918) scale(0.1 -0.1)">
       <use xlink:href="#DejaVuSans-32"/>
       <use xlink:href="#DejaVuSans-2e" transform="translate(63.623047 0)"/>
       <use xlink:href="#DejaVuSans-35" transform="translate(95.410156 0)"/>
      </g>
     </g>
    </g>
   </g>
   <g id="line2d_44">
    <path d="M 57.733572 268.270205 
L 57.772077 264.328656 
L 57.810583 265.116405 
L 57.887593 217.322634 
L 57.926099 225.277506 
L 58.041615 279.673759 
L 58.118626 278.994239 
L 58.157131 261.972504 
L 58.195636 281.044597 
L 58.234142 281.710784 
L 58.311152 312.350186 
L 58.349658 302.548092 
L 58.388163 303.445093 
L 58.503679 319.037102 
L 58.542185 317.170246 
L 58.58069 318.691556 
L 58.734712 322.877379 
L 58.888733 323.211821 
L 59.196776 323.295848 
L 62.084679 323.297695 
L 442.748761 323.297695 
L 442.748761 323.297695 
" clip-path="url(#p147707213f)" style="fill: none; stroke: #1f77b4; stroke-width: 1.5; stroke-linecap: square"/>
   </g>
   <g id="line2d_45">
    <path d="M 57.733572 268.270205 
L 57.772077 247.488038 
L 57.810583 270.680987 
L 57.849088 272.608147 
L 58.00311 311.928487 
L 58.041615 310.875615 
L 58.157131 285.949052 
L 58.195636 296.080265 
L 58.234142 296.87626 
L 58.311152 263.404883 
L 58.388163 273.280527 
L 58.542185 318.395816 
L 58.696206 323.020064 
L 59.042754 323.296348 
L 83.60918 323.297695 
L 442.748761 323.297695 
L 442.748761 323.297695 
" clip-path="url(#p147707213f)" style="fill: none; stroke: #ff7f0e; stroke-width: 1.5; stroke-linecap: square"/>
   </g>
   <g id="line2d_46">
    <path d="M 57.733572 268.270205 
L 57.849088 302.305173 
L 57.964604 274.324693 
L 58.195636 206.929218 
L 58.349658 198.968626 
L 58.503679 205.255233 
L 58.58069 210.264682 
L 58.619195 206.814997 
L 58.657701 204.848709 
L 58.696206 207.243452 
L 58.773217 207.429814 
L 58.850228 206.181647 
L 58.927238 206.246371 
L 59.08126 213.188357 
L 59.119765 213.025871 
L 59.196776 214.835102 
L 59.235281 219.87696 
L 59.312292 217.248317 
L 59.350797 215.816511 
L 59.427808 215.961892 
L 59.504819 219.759733 
L 59.543324 217.065982 
L 59.774357 215.056776 
L 60.313432 221.339494 
L 59.851367 214.955972 
L 60.351937 220.780856 
L 60.505959 218.316581 
L 60.544464 218.322888 
L 60.582969 218.069842 
L 60.621475 218.254111 
L 60.698485 219.570639 
L 60.775496 218.861787 
L 60.852507 218.418965 
L 60.891012 218.569739 
L 60.929518 219.441657 
L 60.968023 218.644058 
L 61.122044 218.102479 
L 61.16055 218.151951 
L 61.199055 218.101995 
L 61.237561 217.902001 
L 61.314571 217.976704 
L 61.391582 218.03332 
L 61.430087 217.954899 
L 61.584109 217.808465 
L 61.853646 217.120078 
L 62.007668 217.594157 
L 62.046173 217.558286 
L 62.084679 217.647142 
L 62.2387 217.912393 
L 62.585248 218.143992 
L 62.777775 218.178987 
L 63.008808 218.21351 
L 64.31799 218.277805 
L 64.780055 218.287672 
L 69.208172 218.316978 
L 95.237802 218.317699 
L 442.748761 218.317699 
L 442.748761 218.317699 
" clip-path="url(#p147707213f)" style="fill: none; stroke: #2ca02c; stroke-width: 1.5; stroke-linecap: square"/>
   </g>
   <g id="line2d_47">
    <path d="M 57.733572 268.270205 
L 57.772077 282.684012 
L 57.810583 259.271368 
L 58.041615 194.133776 
L 58.08012 194.206765 
L 58.195636 193.052996 
L 58.234142 193.960469 
L 58.272647 193.039741 
L 58.388163 191.59748 
L 58.503679 193.621073 
L 58.542185 193.072152 
L 58.734712 189.638914 
L 58.888733 192.084502 
L 58.927238 191.468493 
L 59.004249 191.660923 
L 59.08126 191.713431 
L 59.119765 191.636033 
L 59.273787 193.616487 
L 59.350797 192.866672 
L 59.735851 207.037097 
L 59.774357 206.077932 
L 60.043894 199.541274 
L 60.120905 202.640436 
L 60.15941 200.5987 
L 60.236421 202.695583 
L 60.313432 201.521119 
L 60.351937 202.035409 
L 60.428948 200.475969 
L 60.467453 202.713156 
L 60.544464 201.360192 
L 60.775496 194.938792 
L 60.814001 195.309246 
L 60.852507 197.180568 
L 60.929518 196.979402 
L 61.083539 194.384183 
L 61.122044 194.504069 
L 61.276066 191.060396 
L 61.353077 191.485085 
L 61.391582 191.359207 
L 61.468593 193.795279 
L 61.507098 195.981092 
L 61.584109 195.301021 
L 61.815141 199.919397 
L 61.853646 199.301957 
L 61.892152 198.903613 
L 62.007668 194.805268 
L 62.200195 198.237968 
L 62.2387 198.233295 
L 62.354216 195.714778 
L 62.431227 195.83207 
L 62.508238 199.119061 
L 62.546743 199.096927 
L 62.585248 198.320574 
L 62.623754 199.309842 
L 62.700765 199.497883 
L 62.777775 197.422928 
L 62.816281 198.111488 
L 62.854786 200.632153 
L 62.893291 199.815856 
L 63.047313 196.794644 
L 63.085818 196.21975 
L 63.201334 200.804642 
L 63.23984 198.722679 
L 63.393861 192.144521 
L 63.432367 192.476203 
L 63.470872 192.101565 
L 63.547883 194.53668 
L 63.586388 198.419995 
L 63.663399 196.425434 
L 63.701904 197.249748 
L 63.74041 196.288495 
L 63.778915 196.953561 
L 63.855926 198.161885 
L 63.894431 197.198142 
L 63.971442 197.286148 
L 64.009947 196.447228 
L 64.163969 199.839553 
L 64.240979 197.044387 
L 64.279485 197.420036 
L 64.356495 197.396329 
L 64.395001 198.191683 
L 64.433506 197.852338 
L 64.587528 196.328531 
L 64.664538 199.832701 
L 64.703044 197.990725 
L 64.741549 197.560265 
L 64.780055 198.138784 
L 64.895571 201.34303 
L 64.934076 201.133856 
L 65.011087 200.601422 
L 65.088097 196.947832 
L 65.165108 198.534248 
L 65.357635 201.351304 
L 65.39614 201.206263 
L 65.511657 201.932166 
L 65.588667 197.269611 
L 65.665678 198.650076 
L 65.742689 196.942207 
L 65.8197 196.988311 
L 65.89671 197.96643 
L 65.935216 195.397766 
L 66.012226 197.393588 
L 66.050732 196.857682 
L 66.089237 197.94279 
L 66.127742 196.143558 
L 66.166248 196.465803 
L 66.39728 202.641611 
L 66.474291 202.958993 
L 66.512796 200.346496 
L 66.589807 201.3742 
L 66.666818 200.863921 
L 66.820839 197.30284 
L 66.859344 197.266765 
L 67.013366 203.378279 
L 67.051871 202.109768 
L 67.128882 198.673153 
L 67.167387 200.192303 
L 67.436925 208.157222 
L 67.706463 199.470594 
L 67.744968 200.227688 
L 67.821979 199.50225 
L 67.860484 197.667388 
L 67.898989 199.174859 
L 67.937495 199.97413 
L 68.091516 196.400332 
L 68.130022 196.213151 
L 68.207032 198.811001 
L 68.245538 197.988376 
L 68.322549 195.221472 
L 68.361054 197.473686 
L 68.399559 197.279533 
L 68.438065 196.478166 
L 68.592086 199.341205 
L 68.900129 193.681877 
L 68.97714 196.546478 
L 69.054151 196.023179 
L 69.323688 192.804692 
L 69.400699 192.790695 
L 69.516215 196.391462 
L 69.55472 196.09508 
L 69.593226 194.641185 
L 69.670236 195.421076 
L 69.708742 195.74869 
L 69.862763 193.547418 
L 70.05529 198.568774 
L 70.093796 198.020757 
L 70.132301 197.523076 
L 70.401838 203.963563 
L 70.55586 200.55541 
L 70.594365 200.873665 
L 70.825398 206.223388 
L 70.863903 200.913958 
L 70.940914 201.384691 
L 70.979419 201.720335 
L 71.017924 199.284033 
L 71.094935 200.314101 
L 71.13344 200.897789 
L 71.210451 200.595267 
L 71.248957 199.763143 
L 71.402978 204.737873 
L 71.441483 203.582445 
L 71.479989 205.093867 
L 71.711021 212.133522 
L 71.788032 208.816313 
L 71.865043 210.44905 
L 71.980559 208.629768 
L 72.096075 209.820912 
L 72.13458 209.143456 
L 72.173085 210.192801 
L 72.288602 213.596431 
L 72.442623 211.179609 
L 72.596645 213.188355 
L 72.673655 213.120051 
L 72.712161 214.023403 
L 72.750666 213.155566 
L 72.827677 213.818312 
L 72.904687 215.603083 
L 72.981698 215.182911 
L 73.13572 211.964436 
L 73.174225 212.578408 
L 73.21273 212.456775 
L 73.405257 208.687954 
L 73.443763 209.56255 
L 73.482268 208.863282 
L 73.597784 206.993058 
L 73.7133 210.235278 
L 73.790311 209.669916 
L 73.982838 211.616563 
L 74.136859 213.805153 
L 74.406397 210.124827 
L 74.444902 210.192295 
L 74.521913 212.457757 
L 74.560418 212.310183 
L 74.675934 209.207942 
L 74.71444 211.658542 
L 74.791451 211.132015 
L 74.906967 213.248045 
L 74.945472 213.206723 
L 74.983977 212.52701 
L 75.137999 215.239091 
L 75.253515 215.050926 
L 75.369031 216.138659 
L 75.446042 215.921313 
L 75.946612 210.355046 
L 76.023622 208.220159 
L 76.062128 210.147801 
L 76.100633 208.660507 
L 76.139139 207.772221 
L 76.216149 210.839746 
L 76.254655 210.758896 
L 76.331665 209.256705 
L 76.408676 205.327251 
L 76.447181 206.986302 
L 76.485687 207.035245 
L 76.524192 207.636879 
L 76.601203 205.878879 
L 76.639708 207.702501 
L 76.716719 206.670453 
L 76.832235 204.74482 
L 76.870741 205.24929 
L 77.024762 206.13087 
L 77.178783 209.703264 
L 77.255794 207.54883 
L 77.2943 209.415887 
L 77.332805 209.465183 
L 77.525332 207.268699 
L 77.563837 208.138522 
L 77.602343 207.274133 
L 77.640848 205.802805 
L 77.717859 210.409225 
L 77.756364 208.428063 
L 77.794869 207.12558 
L 77.833375 207.615366 
L 77.87188 208.473458 
L 78.025902 205.607356 
L 78.064407 207.929409 
L 78.141418 205.973816 
L 78.295439 202.101676 
L 78.37245 202.406526 
L 78.564977 198.337731 
L 78.641988 198.52706 
L 78.87302 191.866433 
L 78.95003 193.361141 
L 78.988536 193.29039 
L 79.027041 194.724317 
L 79.065547 192.279866 
L 79.104052 192.134079 
L 79.142557 192.276551 
L 79.219568 191.419367 
L 79.296579 193.870301 
L 79.335084 194.082363 
L 79.4506 192.814068 
L 79.643127 197.031578 
L 79.720138 194.801554 
L 79.758643 195.5068 
L 79.797149 195.237982 
L 79.95117 197.365915 
L 80.028181 197.063615 
L 80.143697 195.402115 
L 80.220708 196.514846 
L 80.297718 196.103184 
L 80.374729 195.618204 
L 80.413235 195.659666 
L 80.490245 198.090366 
L 80.644267 194.717447 
L 80.798288 197.601557 
L 80.875299 195.544211 
L 80.913804 195.867209 
L 81.221847 206.216577 
L 81.337363 206.087891 
L 81.568396 198.078181 
L 81.606901 200.303055 
L 81.683912 199.705135 
L 81.876439 197.428095 
L 81.914944 200.090559 
L 81.991955 198.68369 
L 82.03046 200.075325 
L 82.068965 196.512915 
L 82.145976 198.276098 
L 82.299998 200.63351 
L 82.646546 191.662556 
L 82.685051 192.042997 
L 82.800567 193.840513 
L 82.954589 196.480121 
L 83.070105 192.733881 
L 83.10861 193.412155 
L 83.262632 196.337663 
L 83.301137 196.30648 
L 83.339643 196.365244 
L 83.378148 197.512111 
L 83.416653 195.966118 
L 83.532169 193.256829 
L 83.570675 194.43323 
L 83.60918 194.229364 
L 83.801707 190.054234 
L 83.878718 190.706396 
L 83.917223 190.289427 
L 83.994234 188.800387 
L 84.071245 189.006412 
L 84.148255 188.628546 
L 84.186761 188.998292 
L 84.263771 188.647533 
L 84.417793 189.748244 
L 84.456298 189.736982 
L 84.61032 189.322317 
L 84.648825 189.574493 
L 84.687331 189.230648 
L 84.841352 188.691212 
L 84.918363 188.033343 
L 84.956868 188.406229 
L 85.033879 188.624072 
L 85.072384 188.460214 
L 85.149395 188.253267 
L 85.1879 188.291744 
L 85.380427 189.127564 
L 85.418933 188.725826 
L 85.457438 189.469936 
L 85.495943 188.96532 
L 85.611459 189.398114 
L 85.649965 189.329087 
L 85.68847 189.136981 
L 85.842492 187.944151 
L 86.304556 187.290142 
L 86.420072 187.393535 
L 86.458578 187.389165 
L 86.574094 187.603419 
L 86.612599 187.528777 
L 86.959147 187.045998 
L 87.228685 187.456591 
L 87.382706 187.28637 
L 87.421212 187.323112 
L 87.459717 187.348382 
L 87.536728 187.203152 
L 87.575233 187.279148 
L 87.76776 187.208585 
L 87.921782 186.977742 
L 88.614878 186.850151 
L 91.772318 186.850731 
L 92.272888 186.915992 
L 92.657942 186.880314 
L 94.5062 186.832065 
L 96.392963 186.824231 
L 117.532411 186.8237 
L 442.748761 186.8237 
L 442.748761 186.8237 
" clip-path="url(#p147707213f)" style="fill: none; stroke: #d62728; stroke-width: 1.5; stroke-linecap: square"/>
   </g>
   <g id="line2d_48">
    <path d="M 57.733572 268.270205 
L 58.00311 203.57353 
L 58.157131 197.418483 
L 58.58069 212.536209 
L 58.657701 221.613173 
L 58.696206 215.2689 
L 58.734712 206.944939 
L 58.811722 209.77579 
L 58.850228 208.220965 
L 58.888733 210.759089 
L 58.927238 209.877494 
L 58.965744 210.537741 
L 59.119765 212.104786 
L 59.235281 209.152588 
L 59.273787 210.190245 
L 59.312292 209.673408 
L 59.350797 209.677728 
L 59.389303 212.101562 
L 59.427808 211.926128 
L 59.620335 204.354884 
L 59.65884 204.494365 
L 59.697346 203.729251 
L 59.851367 211.56846 
L 59.889873 210.808004 
L 59.966883 208.542519 
L 60.005389 209.62168 
L 60.043894 211.832879 
L 60.082399 210.418313 
L 60.236421 207.128598 
L 60.274926 205.954138 
L 60.313432 207.795499 
L 60.351937 206.627811 
L 60.505959 211.328276 
L 60.544464 210.812062 
L 60.582969 210.424139 
L 60.621475 207.037632 
L 60.698485 209.646977 
L 60.736991 211.754163 
L 60.775496 211.538734 
L 60.891012 208.312237 
L 60.929518 208.488946 
L 60.968023 207.780308 
L 61.083539 211.07614 
L 61.122044 210.309555 
L 61.16055 209.30389 
L 61.199055 210.060857 
L 61.314571 212.216934 
L 61.353077 211.259332 
L 61.468593 210.098157 
L 61.507098 210.408338 
L 62.084679 195.816896 
L 62.123184 196.736372 
L 62.161689 195.858817 
L 62.315711 192.762858 
L 62.469732 189.1025 
L 62.546743 189.634037 
L 62.73927 193.602897 
L 62.816281 192.046331 
L 62.854786 192.394969 
L 62.893291 193.262742 
L 62.931797 192.464332 
L 63.085818 190.46095 
L 63.278345 194.7951 
L 63.31685 193.677516 
L 63.393861 191.920116 
L 63.432367 192.544009 
L 63.586388 193.726764 
L 63.701904 191.843219 
L 63.74041 191.85124 
L 63.894431 195.017869 
L 63.932936 192.504121 
L 64.009947 193.323204 
L 64.048453 193.330345 
L 64.202474 195.373118 
L 64.279485 194.183555 
L 64.31799 194.822006 
L 64.587528 198.129778 
L 64.934076 190.678839 
L 64.664538 198.458042 
L 65.049592 191.894514 
L 65.203614 194.486103 
L 65.242119 193.232817 
L 65.473151 189.544174 
L 65.511657 190.240407 
L 65.627173 189.739152 
L 65.89671 192.288423 
L 65.935216 191.634522 
L 66.012226 190.648943 
L 66.050732 191.808243 
L 66.127742 191.652639 
L 66.204753 191.12972 
L 66.243259 191.274186 
L 66.281764 192.545843 
L 66.358775 191.514441 
L 66.512796 193.2951 
L 66.589807 190.912183 
L 66.628312 190.968312 
L 66.666818 190.98329 
L 66.743828 190.914758 
L 66.820839 192.352031 
L 66.859344 192.243206 
L 66.89785 191.206654 
L 66.974861 191.776306 
L 67.051871 190.817357 
L 67.090377 189.720615 
L 67.167387 190.458583 
L 67.205893 190.438607 
L 67.321409 189.270509 
L 67.359914 189.334791 
L 67.47543 191.147078 
L 67.513936 190.642007 
L 67.552441 190.445939 
L 67.706463 192.509091 
L 67.744968 192.588644 
L 67.860484 195.001336 
L 67.898989 194.648752 
L 67.937495 194.986981 
L 68.091516 197.961257 
L 68.245538 195.657827 
L 68.284043 195.816924 
L 68.322549 194.492019 
L 68.361054 195.936689 
L 68.438065 195.549919 
L 68.592086 200.794488 
L 68.630591 202.136599 
L 68.669097 200.53539 
L 68.746108 198.676533 
L 68.784613 196.45118 
L 68.823118 197.268843 
L 68.861624 200.284801 
L 68.938634 199.049059 
L 69.169667 202.882232 
L 69.208172 202.744828 
L 69.246677 202.277011 
L 69.516215 210.226765 
L 69.55472 210.022095 
L 69.631731 211.24194 
L 69.708742 211.124837 
L 69.747247 211.095335 
L 69.785753 211.801284 
L 69.824258 210.474949 
L 69.862763 211.549334 
L 69.901269 210.692601 
L 69.939774 211.688075 
L 69.978279 211.177381 
L 70.016785 211.256903 
L 70.05529 212.122458 
L 70.132301 211.803923 
L 70.170806 211.080628 
L 70.209312 212.217375 
L 70.286322 211.561414 
L 70.363333 213.783916 
L 70.478849 213.531638 
L 70.55586 211.190946 
L 70.632871 211.22443 
L 70.748387 210.519411 
L 70.786892 210.815438 
L 70.825398 210.730095 
L 70.863903 209.964305 
L 70.902408 210.741702 
L 70.940914 210.987347 
L 70.979419 210.633128 
L 71.094935 209.229283 
L 71.171946 209.436781 
L 71.248957 207.790034 
L 71.287462 208.175815 
L 71.402978 213.008475 
L 71.479989 212.579896 
L 71.518494 212.420189 
L 71.557 212.695644 
L 71.595505 212.7631 
L 71.826537 216.079235 
L 71.865043 215.960442 
L 71.903548 215.937054 
L 72.019064 215.487745 
L 72.057569 215.699105 
L 72.13458 216.227628 
L 72.211591 215.26918 
L 72.250096 216.089986 
L 72.365612 216.877162 
L 72.404118 216.855953 
L 72.481128 216.924547 
L 72.558139 216.225335 
L 72.63515 216.721344 
L 72.673655 217.063254 
L 72.712161 216.717881 
L 72.943193 214.5535 
L 72.981698 215.255068 
L 73.058709 214.851716 
L 73.21273 212.231908 
L 73.251236 213.852081 
L 73.520773 215.857558 
L 73.559279 215.646435 
L 73.674795 215.146052 
L 73.828816 216.158194 
L 73.867322 216.493542 
L 73.905827 215.693386 
L 73.944332 216.44823 
L 73.982838 216.414913 
L 74.136859 217.444311 
L 74.21387 217.339817 
L 74.329386 217.711716 
L 74.444902 217.700599 
L 74.483408 217.768966 
L 74.521913 217.656765 
L 74.598924 217.654603 
L 74.637429 217.810038 
L 74.675934 217.626001 
L 74.791451 217.256354 
L 74.829956 217.500325 
L 74.868461 217.325918 
L 74.906967 217.072992 
L 74.983977 217.108166 
L 75.022483 217.062139 
L 75.137999 217.369858 
L 75.21501 216.778152 
L 75.253515 216.996716 
L 75.29202 217.423229 
L 75.330526 217.354395 
L 75.523053 215.615892 
L 75.561558 215.886302 
L 75.600063 215.392632 
L 75.754085 214.791403 
L 75.79259 215.554094 
L 75.869601 215.348 
L 75.908106 215.397358 
L 75.985117 215.62383 
L 76.062128 214.903355 
L 76.100633 215.714294 
L 76.177644 215.612951 
L 76.216149 215.685127 
L 76.254655 215.638886 
L 76.447181 217.256149 
L 76.678214 217.532971 
L 76.716719 217.44846 
L 76.755224 217.633422 
L 76.79373 217.579665 
L 76.947751 216.737751 
L 76.986257 217.174527 
L 77.024762 217.263002 
L 77.063267 217.077277 
L 77.101773 216.941832 
L 77.140278 217.039285 
L 77.217289 217.400775 
L 77.255794 217.341873 
L 77.2943 217.255798 
L 77.332805 217.378497 
L 77.37131 217.327513 
L 77.409816 217.304302 
L 77.448321 217.444472 
L 77.486826 217.13675 
L 77.525332 217.298887 
L 77.640848 217.508257 
L 77.833375 217.205349 
L 77.87188 217.218678 
L 77.910385 217.592884 
L 77.987396 217.438373 
L 78.025902 217.571276 
L 78.064407 217.441247 
L 78.256934 216.61121 
L 78.295439 216.821734 
L 78.333945 216.51945 
L 78.603482 214.407328 
L 78.641988 214.657266 
L 79.027041 217.303948 
L 79.142557 217.24269 
L 79.335084 216.356216 
L 79.489106 216.734971 
L 79.527611 215.870355 
L 79.566116 216.118964 
L 79.720138 216.937514 
L 79.835654 216.540019 
L 79.874159 216.952407 
L 79.912665 216.406181 
L 80.066686 216.839284 
L 80.143697 216.285918 
L 80.182202 216.372063 
L 80.220708 216.378317 
L 80.259213 215.666645 
L 80.336224 215.818532 
L 80.374729 215.71265 
L 80.413235 215.254727 
L 80.490245 215.405252 
L 80.567256 215.187378 
L 80.682772 216.509039 
L 80.721277 216.412333 
L 80.759783 216.82777 
L 80.798288 216.674959 
L 80.913804 214.528451 
L 81.183342 210.21621 
L 81.221847 210.636098 
L 81.260353 209.500269 
L 81.298858 210.360002 
L 81.337363 211.318647 
L 81.452879 207.3134 
L 81.491385 208.253657 
L 81.52989 209.686913 
L 81.568396 208.717597 
L 81.606901 208.193252 
L 81.760922 210.232725 
L 81.837933 209.491977 
L 81.876439 211.005561 
L 81.914944 210.294101 
L 81.953449 209.577169 
L 82.03046 210.098953 
L 82.068965 210.496497 
L 82.107471 210.442474 
L 82.145976 208.902466 
L 82.184482 209.96647 
L 82.377008 212.527699 
L 82.454019 211.560838 
L 82.569535 213.788571 
L 82.608041 212.989617 
L 82.646546 213.038151 
L 82.762062 210.100562 
L 82.800567 211.091579 
L 82.839073 210.636052 
L 82.993094 209.556368 
L 83.147116 211.880654 
L 83.339643 206.936969 
L 83.378148 208.390734 
L 83.416653 206.89123 
L 83.455159 206.805972 
L 83.493664 207.170698 
L 83.686191 203.515466 
L 83.724696 204.933429 
L 83.763202 204.265935 
L 83.878718 201.547464 
L 83.955728 204.115457 
L 84.032739 203.588872 
L 84.148255 207.167535 
L 84.225266 205.98114 
L 84.263771 205.641621 
L 84.302277 206.280712 
L 84.417793 209.250567 
L 84.456298 209.133115 
L 84.494804 210.495957 
L 84.571814 209.576375 
L 84.61032 209.257789 
L 84.802847 213.197874 
L 85.149395 204.638952 
L 85.1879 205.079334 
L 85.341922 202.075267 
L 85.495943 209.133378 
L 85.534449 208.807725 
L 85.572954 207.896384 
L 85.611459 209.148244 
L 85.649965 209.375896 
L 85.68847 209.112437 
L 85.958008 202.308305 
L 86.035018 202.916609 
L 86.18904 205.326432 
L 86.227545 205.513607 
L 86.343061 209.896617 
L 86.381567 207.990315 
L 86.458578 209.328117 
L 86.497083 210.068707 
L 86.651104 208.119425 
L 86.68961 209.423366 
L 86.728115 208.39825 
L 86.76662 207.339662 
L 86.843631 208.252948 
L 86.997653 211.162305 
L 87.074663 209.224867 
L 87.113169 211.166825 
L 87.19018 210.421678 
L 87.613739 216.3316 
L 87.729255 215.615642 
L 87.76776 215.763031 
L 87.998792 217.372127 
L 88.114308 217.469214 
L 88.191319 217.231944 
L 88.345341 217.566607 
L 88.422351 217.634819 
L 88.460857 217.56997 
L 88.576373 217.204505 
L 88.653384 217.437444 
L 88.730394 217.403253 
L 88.922921 216.895018 
L 88.961427 216.848633 
L 88.999932 216.949298 
L 89.038437 217.053254 
L 89.076943 216.946781 
L 89.115448 216.806793 
L 89.192459 217.325619 
L 89.230964 217.058365 
L 89.307975 216.365119 
L 89.34648 216.637343 
L 89.616018 217.526774 
L 89.654523 217.493323 
L 89.693029 217.394948 
L 89.808545 217.748624 
L 89.84705 217.660726 
L 90.078082 218.039942 
L 90.270609 218.021369 
L 90.540147 217.727058 
L 90.809684 217.886004 
L 90.84819 217.832726 
L 90.886695 217.924535 
L 91.271749 218.209316 
L 91.464276 218.204016 
L 91.618297 218.215205 
L 92.041856 218.178819 
L 92.349899 218.268701 
L 93.274028 218.13356 
L 93.466555 218.02471 
L 93.659082 218.089736 
L 93.851608 218.027011 
L 94.00563 218.160456 
L 94.121146 218.019336 
L 94.159651 218.072058 
L 94.313673 218.20512 
L 94.660221 218.178115 
L 94.814243 218.101845 
L 95.08378 218.241796 
L 95.545845 218.242122 
L 95.738372 218.245135 
L 96.778017 217.7837 
L 96.855027 217.445715 
L 96.893533 217.483306 
L 97.047554 217.77771 
L 97.201576 217.567097 
L 97.240081 217.660764 
L 97.278586 217.643857 
L 97.394102 217.040681 
L 97.432608 217.110107 
L 97.66364 217.866363 
L 97.779156 217.811859 
L 97.971683 218.07615 
L 98.048694 217.943155 
L 98.087199 217.970611 
L 98.241221 218.074078 
L 98.356737 217.945057 
L 98.395242 217.714415 
L 98.472253 217.81024 
L 98.587769 218.064269 
L 98.626274 217.985012 
L 98.780296 217.869583 
L 98.818801 217.698174 
L 98.857306 217.816765 
L 98.972823 217.801597 
L 99.088339 217.869567 
L 99.203855 218.122103 
L 99.24236 218.100498 
L 99.550403 218.046331 
L 99.704425 218.136279 
L 100.127984 217.890148 
L 100.359016 218.111623 
L 100.590048 218.163305 
L 100.859586 218.10011 
L 101.052113 218.039657 
L 101.206134 217.917818 
L 101.437166 218.132393 
L 101.591188 218.129349 
L 101.745209 218.01187 
L 101.860725 217.960085 
L 101.937736 217.911903 
L 102.014747 217.708342 
L 102.053252 217.768524 
L 102.168768 217.813303 
L 102.32279 217.863642 
L 102.977381 218.146992 
L 103.169908 218.071709 
L 103.439445 218.196972 
L 103.554962 218.118259 
L 103.785994 218.193509 
L 104.40208 218.297414 
L 105.018166 218.295772 
L 105.865284 218.300504 
L 107.405498 218.309247 
L 128.198398 218.317698 
L 442.748761 218.317699 
L 442.748761 218.317699 
" clip-path="url(#p147707213f)" style="fill: none; stroke: #9467bd; stroke-width: 1.5; stroke-linecap: square"/>
   </g>
   <g id="line2d_49">
    <path d="M 57.733572 268.270205 
L 57.849088 230.207936 
L 57.926099 288.410227 
L 58.00311 270.387479 
L 58.041615 261.4545 
L 58.08012 269.575637 
L 58.234142 288.226216 
L 58.426669 237.49268 
L 58.542185 276.569481 
L 58.619195 287.267922 
L 58.773217 238.5329 
L 58.811722 241.418158 
L 59.042754 317.49516 
L 59.196776 322.502238 
L 59.273787 323.189372 
L 59.350797 323.117582 
L 60.582969 323.296592 
L 192.733397 323.297695 
L 442.748761 323.297695 
L 442.748761 323.297695 
" clip-path="url(#p147707213f)" style="fill: none; stroke: #8c564b; stroke-width: 1.5; stroke-linecap: square"/>
   </g>
   <g id="line2d_50">
    <path d="M 57.733572 268.270205 
L 57.887593 205.331712 
L 58.00311 241.839879 
L 58.041615 234.355149 
L 58.195636 212.671845 
L 58.234142 206.55437 
L 58.311152 211.954898 
L 58.349658 211.4821 
L 58.465174 206.827864 
L 58.503679 209.522232 
L 58.542185 206.647899 
L 58.619195 204.912764 
L 58.773217 205.386657 
L 58.811722 205.832915 
L 58.850228 204.704047 
L 58.965744 208.558114 
L 59.004249 206.750623 
L 59.08126 207.568072 
L 59.119765 207.213041 
L 59.158271 208.687126 
L 59.196776 206.589096 
L 59.235281 206.65144 
L 59.312292 204.355069 
L 59.350797 206.858072 
L 59.389303 204.829452 
L 59.543324 201.832602 
L 59.812862 196.968115 
L 59.851367 197.47452 
L 59.889873 201.871714 
L 59.966883 199.298779 
L 60.005389 199.651871 
L 60.043894 199.612095 
L 60.082399 202.173039 
L 60.15941 200.938003 
L 60.197916 201.188632 
L 60.274926 204.361491 
L 60.313432 203.304713 
L 60.390442 200.07771 
L 60.428948 201.589751 
L 60.467453 205.183676 
L 60.505959 202.438191 
L 60.621475 199.047223 
L 60.65998 200.695787 
L 60.698485 197.843558 
L 60.736991 197.812333 
L 60.929518 195.194157 
L 60.968023 195.564445 
L 61.045034 193.106454 
L 61.122044 193.170785 
L 61.16055 192.585491 
L 61.199055 193.103274 
L 61.237561 193.658048 
L 61.276066 192.863195 
L 61.314571 193.320332 
L 61.353077 192.049908 
L 61.391582 193.908535 
L 61.430087 193.134917 
L 61.468593 193.110748 
L 61.73813 199.449185 
L 61.776636 195.571215 
L 61.853646 196.745236 
L 62.007668 198.012186 
L 62.046173 195.778157 
L 62.123184 197.542634 
L 62.161689 197.48643 
L 62.200195 197.944318 
L 62.2387 197.46201 
L 62.277206 197.638137 
L 62.354216 194.929117 
L 62.392722 195.587713 
L 62.469732 196.517669 
L 62.508238 196.009838 
L 62.73927 192.671833 
L 62.777775 192.733748 
L 62.816281 194.00878 
L 62.854786 193.069617 
L 62.893291 192.876343 
L 63.047313 194.414933 
L 63.162829 192.497294 
L 63.624893 203.857115 
L 63.701904 203.240074 
L 63.778915 204.526197 
L 63.81742 203.655305 
L 63.932936 201.547725 
L 64.009947 204.772394 
L 64.048453 203.534935 
L 64.202474 200.437763 
L 64.240979 201.662212 
L 64.279485 203.090165 
L 64.356495 202.35684 
L 64.395001 202.188723 
L 64.587528 211.311801 
L 64.626033 211.02258 
L 64.780055 213.189924 
L 64.895571 212.257773 
L 65.088097 214.467429 
L 65.165108 214.354207 
L 65.242119 215.012023 
L 65.280624 214.712515 
L 65.357635 213.641233 
L 65.434646 213.733328 
L 65.473151 213.818435 
L 65.588667 216.22094 
L 65.627173 215.894075 
L 65.704183 215.761374 
L 65.742689 214.724933 
L 65.8197 214.95342 
L 65.858205 215.01741 
L 65.89671 214.673619 
L 65.973721 215.998436 
L 66.127742 213.735911 
L 66.243259 214.339977 
L 66.320269 213.617843 
L 66.358775 214.236753 
L 66.39728 214.385317 
L 66.474291 213.385129 
L 66.551302 213.783018 
L 66.589807 213.76341 
L 66.628312 214.225347 
L 66.705323 216.083302 
L 66.743828 215.88893 
L 66.859344 214.837518 
L 66.89785 215.479516 
L 66.974861 216.593904 
L 67.013366 216.504523 
L 67.051871 216.18454 
L 67.090377 216.544555 
L 67.128882 216.52257 
L 67.39842 214.795114 
L 67.47543 215.387375 
L 67.513936 215.178352 
L 67.552441 215.186422 
L 67.706463 216.200608 
L 67.629452 215.132082 
L 67.744968 216.094422 
L 67.783473 216.252994 
L 67.821979 215.898333 
L 67.860484 216.318701 
L 67.898989 216.20466 
L 67.937495 216.031997 
L 68.014506 216.841028 
L 68.053011 216.693085 
L 68.091516 216.290757 
L 68.130022 216.71993 
L 68.168527 216.870073 
L 68.207032 216.815461 
L 68.245538 216.663942 
L 68.284043 216.775695 
L 68.47657 217.215677 
L 68.553581 216.848689 
L 68.592086 216.906702 
L 68.823118 217.801206 
L 68.861624 217.86195 
L 68.900129 217.79707 
L 69.169667 217.356533 
L 69.246677 217.405851 
L 69.285183 217.29759 
L 69.323688 217.481607 
L 69.47771 217.531082 
L 69.55472 217.790299 
L 69.593226 217.776662 
L 69.631731 217.593291 
L 69.670236 217.741889 
L 69.824258 217.880611 
L 69.939774 217.632822 
L 69.978279 217.825787 
L 70.093796 217.774203 
L 70.286322 218.149858 
L 70.324828 218.134665 
L 70.709881 218.064834 
L 70.825398 218.123492 
L 71.017924 217.947346 
L 71.05643 217.978626 
L 71.287462 217.968358 
L 71.364473 218.0814 
L 71.402978 218.032904 
L 71.441483 217.965133 
L 71.479989 218.064778 
L 71.557 218.125964 
L 71.711021 218.229253 
L 71.942053 218.142913 
L 72.096075 218.203986 
L 72.288602 218.255001 
L 117.224368 218.317699 
L 442.748761 218.317699 
L 442.748761 218.317699 
" clip-path="url(#p147707213f)" style="fill: none; stroke: #e377c2; stroke-width: 1.5; stroke-linecap: square"/>
   </g>
   <g id="line2d_51">
    <path d="M 57.733572 268.270205 
L 57.810583 301.235839 
L 57.887593 299.677249 
L 58.041615 321.697062 
L 58.157131 323.115237 
L 58.195636 322.770099 
L 58.234142 322.625298 
L 58.272647 321.953164 
L 58.311152 322.487897 
L 58.503679 323.031509 
L 58.542185 322.995189 
L 58.58069 322.727816 
L 58.619195 322.911666 
L 58.773217 323.251609 
L 59.389303 323.296702 
L 124.501882 323.297695 
L 442.748761 323.297695 
L 442.748761 323.297695 
" clip-path="url(#p147707213f)" style="fill: none; stroke: #7f7f7f; stroke-width: 1.5; stroke-linecap: square"/>
   </g>
   <g id="line2d_52">
    <path d="M 57.733572 268.270205 
L 57.772077 272.300956 
L 57.926099 314.36181 
L 58.00311 310.431011 
L 58.041615 315.90375 
L 58.118626 315.88732 
L 58.157131 315.88361 
L 58.195636 316.406455 
L 58.311152 309.907634 
L 58.426669 320.735705 
L 58.465174 320.379565 
L 58.503679 320.657396 
L 58.542185 320.438211 
L 58.58069 320.046487 
L 58.619195 317.957031 
L 58.696206 322.331416 
L 58.734712 322.198036 
L 58.811722 320.97203 
L 58.850228 319.208266 
L 58.888733 321.997977 
L 58.927238 322.504766 
L 59.004249 322.19511 
L 59.042754 321.590193 
L 59.08126 321.962951 
L 59.158271 323.09422 
L 59.235281 322.99695 
L 59.427808 323.23351 
L 59.697346 323.200813 
L 59.812862 323.248498 
L 59.851367 323.178097 
L 60.775496 323.29754 
L 161.351521 323.297695 
L 442.748761 323.297695 
L 442.748761 323.297695 
" clip-path="url(#p147707213f)" style="fill: none; stroke: #bcbd22; stroke-width: 1.5; stroke-linecap: square"/>
   </g>
   <g id="line2d_53">
    <path d="M 57.733572 268.270205 
L 57.926099 200.364562 
L 58.00311 202.096333 
L 58.118626 198.850792 
L 58.157131 199.37188 
L 58.234142 205.360004 
L 58.311152 210.48499 
L 58.349658 206.934376 
L 58.542185 201.974161 
L 58.657701 205.030903 
L 58.696206 205.023713 
L 58.734712 204.547966 
L 58.773217 204.697888 
L 58.850228 207.133218 
L 58.888733 205.093641 
L 58.927238 204.972304 
L 58.965744 204.069781 
L 59.042754 204.736889 
L 59.08126 205.937979 
L 59.119765 204.475379 
L 59.158271 202.513701 
L 59.235281 203.900306 
L 59.273787 203.901448 
L 59.466314 201.248166 
L 59.504819 202.021655 
L 59.620335 197.323587 
L 59.697346 200.354074 
L 59.735851 199.48883 
L 59.889873 194.448181 
L 60.043894 196.429542 
L 60.082399 196.161543 
L 60.120905 196.039945 
L 60.15941 196.409681 
L 60.197916 193.960054 
L 60.274926 194.925648 
L 60.582969 190.550423 
L 60.65998 190.939206 
L 60.814001 193.948237 
L 60.891012 192.436416 
L 61.045034 191.553862 
L 61.083539 191.749525 
L 61.122044 192.538229 
L 61.16055 191.619867 
L 61.314571 189.59569 
L 61.353077 189.780684 
L 61.430087 189.717675 
L 61.507098 189.519043 
L 61.545604 189.702889 
L 61.853646 193.065806 
L 61.892152 192.534727 
L 61.930657 193.000893 
L 62.046173 195.638215 
L 62.123184 195.172654 
L 62.277206 192.720216 
L 62.315711 193.335337 
L 62.392722 192.98062 
L 62.546743 195.03304 
L 62.816281 191.048941 
L 62.623754 195.068475 
L 62.893291 192.259339 
L 62.931797 192.387138 
L 63.162829 189.882576 
L 63.31685 188.926027 
L 63.509377 187.443171 
L 63.547883 187.48281 
L 63.586388 187.737679 
L 63.624893 187.603656 
L 63.81742 187.057333 
L 63.971442 187.043147 
L 64.202474 187.158159 
L 64.31799 187.259441 
L 64.433506 187.120548 
L 64.472012 187.143627 
L 65.203614 187.020389 
L 65.434646 187.009603 
L 65.781194 186.896235 
L 65.973721 186.895316 
L 66.435785 186.952983 
L 66.628312 186.926103 
L 68.630591 186.944344 
L 69.285183 187.117018 
L 69.439204 187.037204 
L 69.747247 186.967207 
L 70.209312 186.916033 
L 71.094935 187.126225 
L 71.171946 187.317655 
L 71.210451 187.142714 
L 71.287462 187.156044 
L 71.672516 187.836183 
L 71.711021 187.634311 
L 71.826537 187.415371 
L 71.980559 187.601019 
L 72.019064 187.414064 
L 72.057569 187.66208 
L 72.096075 187.819826 
L 72.173085 187.727486 
L 72.211591 187.699945 
L 72.365612 187.302602 
L 72.442623 187.285382 
L 72.558139 187.02115 
L 72.596645 187.087544 
L 73.13572 187.501512 
L 73.174225 187.419562 
L 73.289741 187.314084 
L 73.559279 188.487696 
L 73.636289 188.169361 
L 73.7133 188.034702 
L 73.828816 187.466482 
L 73.905827 187.540067 
L 73.982838 187.610822 
L 74.021343 187.466166 
L 74.098354 187.533013 
L 74.367892 188.337881 
L 74.483408 187.881432 
L 74.560418 188.292281 
L 74.637429 188.172643 
L 74.829956 187.255626 
L 74.983977 187.146542 
L 75.060988 187.201403 
L 75.099494 187.1575 
L 75.253515 187.031217 
L 75.831096 186.869498 
L 76.216149 186.844645 
L 77.910385 186.827435 
L 86.574094 186.823703 
L 442.748761 186.8237 
L 442.748761 186.8237 
" clip-path="url(#p147707213f)" style="fill: none; stroke: #17becf; stroke-width: 1.5; stroke-linecap: square"/>
   </g>
   <g id="line2d_54">
    <path d="M 57.733572 268.270205 
L 57.849088 313.308336 
L 57.887593 309.14896 
L 58.041615 322.641773 
L 58.272647 323.237485 
L 58.426669 323.187869 
L 58.850228 323.293083 
L 60.582969 323.297682 
L 442.748761 323.297695 
L 442.748761 323.297695 
" clip-path="url(#p147707213f)" style="fill: none; stroke: #1f77b4; stroke-width: 1.5; stroke-linecap: square"/>
   </g>
   <g id="line2d_55">
    <path d="M 57.733572 268.270205 
L 57.887593 199.875937 
L 57.964604 198.929984 
L 58.00311 196.386934 
L 58.08012 197.530874 
L 58.234142 195.195069 
L 58.157131 197.858567 
L 58.272647 196.12951 
L 58.349658 198.227865 
L 58.426669 197.482381 
L 58.58069 200.009742 
L 58.657701 199.815113 
L 58.696206 202.079066 
L 58.734712 200.279216 
L 58.773217 198.751763 
L 58.811722 201.506228 
L 58.850228 203.626837 
L 58.888733 200.909694 
L 58.927238 200.697952 
L 59.042754 206.762218 
L 59.08126 205.970955 
L 59.119765 205.759817 
L 59.158271 205.91948 
L 59.273787 207.303207 
L 59.312292 206.102005 
L 59.466314 211.278084 
L 59.504819 210.305387 
L 59.543324 210.664774 
L 59.620335 212.332673 
L 59.735851 207.430164 
L 59.774357 209.212225 
L 59.812862 209.449947 
L 59.889873 208.487844 
L 59.928378 210.592394 
L 59.966883 209.604362 
L 60.082399 207.313247 
L 60.120905 207.731374 
L 60.15941 207.660966 
L 60.197916 208.927974 
L 60.236421 207.360848 
L 60.274926 208.427225 
L 60.390442 204.221297 
L 60.428948 206.689118 
L 60.505959 205.86423 
L 60.621475 206.379297 
L 60.65998 205.579435 
L 60.698485 206.746026 
L 60.736991 206.049529 
L 60.929518 208.135375 
L 60.968023 207.322559 
L 61.006528 208.70489 
L 61.045034 208.709631 
L 61.353077 213.324836 
L 61.391582 211.592267 
L 61.468593 211.646172 
L 61.507098 212.891191 
L 61.545604 212.337959 
L 61.622614 210.7738 
L 61.699625 211.245232 
L 61.815141 212.328931 
L 61.853646 212.011413 
L 61.892152 210.041363 
L 61.969163 210.347428 
L 62.046173 210.984177 
L 62.2387 205.788726 
L 62.431227 210.814862 
L 62.623754 207.472141 
L 62.700765 210.278517 
L 62.777775 210.132393 
L 62.816281 209.852106 
L 63.124324 203.239193 
L 63.31685 200.742527 
L 63.470872 204.358341 
L 63.509377 203.979514 
L 63.547883 205.348706 
L 63.624893 204.901555 
L 63.701904 204.319107 
L 63.74041 205.699405 
L 63.778915 204.165211 
L 63.855926 201.569533 
L 63.894431 203.268982 
L 63.932936 204.50081 
L 63.971442 203.912787 
L 64.086958 203.015189 
L 64.202474 204.534016 
L 64.279485 204.131121 
L 64.31799 203.144006 
L 64.356495 206.875286 
L 64.433506 203.713819 
L 64.472012 204.240859 
L 64.664538 200.795554 
L 64.703044 200.179447 
L 64.741549 200.643329 
L 64.780055 201.150273 
L 64.81856 200.258904 
L 64.857065 200.625619 
L 65.049592 205.914483 
L 65.088097 205.225324 
L 65.242119 207.001251 
L 65.280624 207.727358 
L 65.39614 204.288907 
L 65.434646 204.320726 
L 65.511657 203.840037 
L 65.935216 214.619736 
L 66.012226 213.475431 
L 66.089237 213.746642 
L 66.127742 213.979073 
L 66.166248 212.9443 
L 66.204753 214.046998 
L 66.243259 213.2579 
L 66.281764 213.258999 
L 66.320269 213.653504 
L 66.39728 211.867207 
L 66.435785 212.096592 
L 66.474291 211.997689 
L 66.666818 205.575723 
L 66.705323 207.580773 
L 66.743828 207.249679 
L 66.820839 210.283469 
L 66.859344 208.714853 
L 66.936355 209.79853 
L 66.974861 209.520207 
L 67.013366 209.544239 
L 67.090377 211.324384 
L 67.167387 207.22662 
L 67.244398 209.090377 
L 67.282904 208.724813 
L 67.39842 206.952627 
L 67.47543 209.569573 
L 67.513936 208.297023 
L 67.552441 206.980105 
L 67.590946 208.978352 
L 67.629452 208.820089 
L 67.706463 205.294055 
L 67.744968 207.648878 
L 67.821979 209.912832 
L 67.860484 208.365133 
L 67.898989 208.508487 
L 67.976 207.390899 
L 68.014506 208.832381 
L 68.091516 207.81555 
L 68.207032 209.26696 
L 68.245538 207.179876 
L 68.322549 208.545611 
L 68.361054 207.766967 
L 68.438065 208.276364 
L 68.47657 208.935249 
L 68.515075 207.780972 
L 68.553581 208.191016 
L 68.592086 205.981973 
L 68.669097 207.686515 
L 68.823118 210.003281 
L 68.97714 206.382454 
L 69.015645 206.301687 
L 69.054151 206.826454 
L 69.131161 204.157072 
L 69.169667 206.594669 
L 69.208172 206.605781 
L 69.400699 212.145553 
L 69.47771 209.864891 
L 69.516215 210.022685 
L 69.631731 213.061466 
L 69.708742 211.462622 
L 69.747247 212.746709 
L 69.978279 216.580008 
L 70.016785 216.58553 
L 70.170806 214.968415 
L 70.286322 213.388916 
L 70.324828 213.796565 
L 70.517355 210.01371 
L 70.55586 210.370564 
L 70.748387 212.228529 
L 70.825398 209.750532 
L 70.902408 210.041305 
L 71.017924 209.453996 
L 71.05643 209.752041 
L 71.171946 208.660892 
L 71.248957 210.542185 
L 71.287462 209.954676 
L 71.441483 206.428041 
L 71.518494 207.991439 
L 71.595505 207.66343 
L 71.788032 204.834698 
L 71.826537 205.507345 
L 71.903548 200.38759 
L 71.942053 201.51149 
L 71.980559 204.804688 
L 72.057569 203.752599 
L 72.13458 203.00038 
L 72.211591 206.211508 
L 72.327107 205.269671 
L 72.481128 201.07999 
L 72.673655 206.325456 
L 72.866182 212.423352 
L 72.904687 211.247899 
L 72.981698 212.257686 
L 73.020204 212.540966 
L 73.058709 214.19007 
L 73.13572 213.287518 
L 73.174225 213.433008 
L 73.289741 215.522853 
L 73.328247 215.476605 
L 73.366752 215.291882 
L 73.405257 215.360857 
L 73.520773 211.999611 
L 73.559279 212.697484 
L 73.751806 215.178836 
L 73.790311 215.205282 
L 73.828816 215.136767 
L 73.905827 215.043076 
L 73.944332 215.771261 
L 73.982838 215.721506 
L 74.021343 215.849247 
L 74.059849 214.519607 
L 74.136859 214.542836 
L 74.175365 215.397984 
L 74.21387 214.345805 
L 74.252375 214.866434 
L 74.637429 217.36247 
L 74.675934 217.533652 
L 74.752945 217.394 
L 74.983977 216.703132 
L 75.022483 216.675023 
L 75.176504 217.293386 
L 75.21501 217.305261 
L 75.523053 216.472328 
L 75.561558 216.432179 
L 75.754085 217.490546 
L 75.79259 217.401685 
L 75.831096 217.535325 
L 75.869601 217.640606 
L 75.908106 217.496792 
L 75.985117 217.189042 
L 76.023622 217.329268 
L 76.062128 217.450201 
L 76.100633 217.282032 
L 76.139139 217.407078 
L 76.254655 217.275172 
L 76.370171 217.60595 
L 76.639708 218.056906 
L 76.870741 217.980576 
L 77.024762 218.12054 
L 77.140278 218.067156 
L 77.178783 217.983655 
L 77.217289 218.127054 
L 77.486826 218.082173 
L 77.910385 217.878079 
L 77.948891 217.997668 
L 78.025902 217.92639 
L 78.487966 218.002123 
L 78.680493 217.783376 
L 78.834514 217.672628 
L 78.911525 217.168854 
L 79.027041 217.382316 
L 79.181063 216.553498 
L 79.219568 216.794866 
L 79.258073 216.552589 
L 79.296579 216.565268 
L 79.335084 216.855198 
L 79.412095 216.688843 
L 79.4506 216.459545 
L 79.489106 217.104777 
L 79.566116 216.609723 
L 79.874159 217.709047 
L 79.95117 217.518433 
L 79.989675 217.528807 
L 80.028181 217.676185 
L 80.105192 217.598342 
L 80.182202 217.666636 
L 80.297718 217.166949 
L 80.490245 218.018647 
L 80.528751 217.992257 
L 80.605761 218.01207 
L 80.644267 217.871964 
L 80.682772 218.012233 
L 80.95231 218.202198 
L 81.144837 218.238707 
L 83.10861 218.3107 
L 86.18904 218.310417 
L 95.08378 218.317697 
L 442.748761 218.317699 
L 442.748761 218.317699 
" clip-path="url(#p147707213f)" style="fill: none; stroke: #ff7f0e; stroke-width: 1.5; stroke-linecap: square"/>
   </g>
   <g id="line2d_56">
    <path d="M 57.733572 268.270205 
L 57.772077 247.583428 
L 57.810583 254.10511 
L 58.00311 314.812745 
L 58.08012 319.177748 
L 58.272647 322.650759 
L 58.311152 322.268093 
L 58.349658 322.957378 
L 58.503679 323.152336 
L 58.619195 323.120731 
L 58.773217 323.276333 
L 59.004249 323.291438 
L 65.434646 323.297695 
L 442.748761 323.297695 
L 442.748761 323.297695 
" clip-path="url(#p147707213f)" style="fill: none; stroke: #2ca02c; stroke-width: 1.5; stroke-linecap: square"/>
   </g>
   <g id="line2d_57">
    <path d="M 57.733572 268.270205 
L 57.772077 262.755722 
L 57.926099 304.718718 
L 57.964604 302.092537 
L 58.08012 202.995242 
L 58.118626 205.020632 
L 58.388163 197.565627 
L 58.542185 207.030496 
L 58.619195 205.127867 
L 58.734712 200.500371 
L 58.811722 203.152749 
L 58.850228 201.000774 
L 59.08126 204.271833 
L 59.196776 202.409531 
L 59.273787 205.153277 
L 59.312292 204.873479 
L 59.58183 195.633228 
L 59.620335 196.472062 
L 59.774357 195.240841 
L 59.812862 195.578294 
L 59.851367 195.984401 
L 59.889873 194.225382 
L 59.966883 194.290675 
L 60.120905 195.804769 
L 60.197916 190.809612 
L 60.274926 191.044401 
L 60.313432 192.220093 
L 60.390442 191.813029 
L 60.621475 188.484647 
L 60.65998 188.176057 
L 60.736991 188.356834 
L 60.775496 188.254305 
L 61.083539 190.297908 
L 61.122044 190.225653 
L 61.199055 188.860193 
L 61.314571 189.33976 
L 61.353077 189.345279 
L 61.468593 188.554566 
L 61.507098 188.548404 
L 61.545604 188.110503 
L 61.622614 188.384755 
L 61.66112 188.402221 
L 61.853646 187.683643 
L 62.046173 187.173043 
L 62.662259 187.017643 
L 64.31799 186.908176 
L 64.549022 186.93121 
L 64.741549 186.894914 
L 65.088097 186.895963 
L 66.050732 186.854914 
L 66.358775 186.852023 
L 67.706463 186.831807 
L 70.05529 186.827535 
L 92.542426 186.8237 
L 442.748761 186.8237 
L 442.748761 186.8237 
" clip-path="url(#p147707213f)" style="fill: none; stroke: #d62728; stroke-width: 1.5; stroke-linecap: square"/>
   </g>
   <g id="line2d_58">
    <path d="M 57.733572 268.270205 
L 57.772077 272.593006 
L 57.849088 223.569545 
L 57.926099 230.141983 
L 57.964604 245.14481 
L 58.00311 213.254471 
L 58.08012 219.759128 
L 58.195636 207.002161 
L 58.234142 220.659932 
L 58.311152 214.341401 
L 58.388163 203.349036 
L 58.465174 203.874772 
L 58.503679 203.781356 
L 58.58069 207.499013 
L 58.696206 206.269012 
L 58.734712 205.782227 
L 58.888733 209.116308 
L 59.042754 205.618727 
L 59.119765 207.138716 
L 59.235281 204.13738 
L 59.273787 204.551674 
L 59.350797 204.902718 
L 59.427808 199.907907 
L 59.504819 199.291679 
L 59.543324 198.135345 
L 59.620335 204.128389 
L 59.697346 203.986357 
L 59.735851 200.990863 
L 59.812862 203.429889 
L 59.889873 200.029148 
L 59.928378 201.98271 
L 59.966883 201.684083 
L 60.120905 199.815729 
L 60.197916 200.63704 
L 60.313432 203.593547 
L 60.351937 203.333976 
L 60.390442 202.012621 
L 60.428948 202.725594 
L 60.467453 204.889426 
L 60.505959 203.49726 
L 60.814001 191.16209 
L 60.852507 191.322829 
L 61.006528 189.506187 
L 61.045034 190.29838 
L 61.083539 190.218535 
L 61.237561 187.689216 
L 61.314571 187.991027 
L 61.353077 188.070516 
L 61.391582 187.99614 
L 61.430087 187.769028 
L 61.468593 188.068346 
L 61.507098 188.104904 
L 61.545604 187.742702 
L 61.622614 187.938417 
L 61.66112 187.841972 
L 61.930657 189.184592 
L 62.161689 187.6601 
L 62.200195 187.673183 
L 62.2387 187.793816 
L 62.392722 187.411639 
L 62.469732 187.249807 
L 62.508238 187.390117 
L 62.585248 187.460631 
L 62.777775 189.265163 
L 62.893291 188.954551 
L 63.085818 187.885132 
L 63.162829 187.916099 
L 63.23984 188.20988 
L 63.278345 188.051196 
L 63.31685 188.06721 
L 63.355356 188.382032 
L 63.432367 188.329985 
L 63.586388 187.796498 
L 63.624893 187.753513 
L 63.81742 187.232588 
L 63.932936 187.159522 
L 63.971442 187.324064 
L 64.048453 187.222914 
L 64.240979 187.102252 
L 64.510517 187.297892 
L 64.549022 187.211579 
L 64.587528 187.268651 
L 64.664538 187.417466 
L 64.780055 187.202844 
L 64.81856 187.219704 
L 65.011087 187.134501 
L 65.165108 187.146994 
L 65.31913 187.080895 
L 66.050732 186.919715 
L 66.358775 186.886386 
L 66.589807 186.911487 
L 66.89785 186.979952 
L 67.128882 186.92774 
L 67.282904 186.897306 
L 67.706463 186.862909 
L 138.941396 186.8237 
L 442.748761 186.8237 
L 442.748761 186.8237 
" clip-path="url(#p147707213f)" style="fill: none; stroke: #9467bd; stroke-width: 1.5; stroke-linecap: square"/>
   </g>
   <g id="line2d_59">
    <path d="M 57.733572 268.270205 
L 57.772077 278.329934 
L 57.926099 201.807249 
L 57.964604 204.493768 
L 58.041615 202.744514 
L 58.08012 211.652814 
L 58.118626 207.313663 
L 58.157131 213.024058 
L 58.195636 216.221504 
L 58.234142 214.524419 
L 58.388163 206.212086 
L 58.465174 201.78413 
L 58.58069 202.225624 
L 58.619195 204.41924 
L 58.696206 202.819923 
L 58.734712 202.774177 
L 58.773217 201.824298 
L 58.811722 202.78629 
L 58.965744 205.14604 
L 59.119765 202.932858 
L 59.158271 203.980854 
L 59.389303 196.102 
L 59.466314 196.504926 
L 59.620335 199.75522 
L 59.697346 200.000615 
L 60.005389 192.382322 
L 60.082399 192.777178 
L 60.197916 197.774088 
L 60.236421 197.366547 
L 60.313432 194.889365 
L 60.351937 195.744506 
L 60.390442 195.843071 
L 60.467453 194.501414 
L 60.621475 197.52952 
L 60.852507 190.922037 
L 60.891012 191.204978 
L 60.968023 191.046008 
L 61.006528 190.932184 
L 61.122044 192.739268 
L 61.16055 192.567046 
L 61.199055 191.127196 
L 61.276066 191.808268 
L 61.314571 191.801284 
L 61.507098 190.224801 
L 61.66112 191.520294 
L 61.776636 188.551571 
L 61.853646 188.570052 
L 61.892152 188.992558 
L 61.969163 188.645486 
L 62.046173 188.539865 
L 62.277206 187.674676 
L 62.315711 187.827059 
L 62.354216 187.785515 
L 62.508238 187.616361 
L 62.623754 187.492833 
L 62.700765 187.643192 
L 62.854786 187.216558 
L 62.931797 187.195575 
L 63.008808 187.335359 
L 63.047313 187.292349 
L 63.085818 187.23214 
L 63.124324 187.356434 
L 63.23984 187.621195 
L 63.31685 187.490447 
L 63.355356 187.507523 
L 63.470872 187.742899 
L 63.509377 187.667163 
L 63.624893 187.432762 
L 63.701904 187.485303 
L 63.778915 187.535167 
L 63.894431 187.360975 
L 63.932936 187.384045 
L 63.971442 187.357167 
L 64.009947 187.444583 
L 64.086958 187.350327 
L 64.395001 186.929594 
L 66.204753 187.043848 
L 66.243259 187.138213 
L 66.320269 187.069159 
L 66.628312 186.988272 
L 66.743828 186.931255 
L 66.936355 187.009826 
L 67.205893 187.093651 
L 67.39842 186.966202 
L 67.590946 186.986966 
L 67.744968 186.992045 
L 67.976 187.019457 
L 68.207032 187.034543 
L 69.631731 186.8483 
L 70.671376 186.860642 
L 71.05643 186.858421 
L 71.711021 186.83107 
L 74.329386 186.824605 
L 113.489347 186.8237 
L 442.748761 186.8237 
L 442.748761 186.8237 
" clip-path="url(#p147707213f)" style="fill: none; stroke: #8c564b; stroke-width: 1.5; stroke-linecap: square"/>
   </g>
   <g id="line2d_60">
    <path d="M 57.733572 268.270205 
L 57.964604 316.854976 
L 58.041615 320.287667 
L 58.08012 319.449134 
L 58.118626 318.025246 
L 58.234142 309.586926 
L 58.349658 320.403367 
L 58.426669 318.912851 
L 58.503679 319.883904 
L 58.542185 320.178009 
L 58.58069 322.071254 
L 58.657701 320.935927 
L 59.004249 323.248972 
L 59.196776 323.289547 
L 59.543324 323.288989 
L 60.621475 323.297633 
L 167.820423 323.297695 
L 442.748761 323.297695 
L 442.748761 323.297695 
" clip-path="url(#p147707213f)" style="fill: none; stroke: #e377c2; stroke-width: 1.5; stroke-linecap: square"/>
   </g>
   <g id="line2d_61">
    <path d="M 57.733572 268.270205 
L 57.772077 269.55473 
L 57.849088 281.027512 
L 58.00311 223.746374 
L 58.041615 225.606424 
L 58.234142 203.694468 
L 58.272647 204.039855 
L 58.542185 247.872687 
L 58.657701 213.010223 
L 58.696206 213.886941 
L 58.773217 218.335771 
L 58.927238 209.373487 
L 59.158271 203.694406 
L 59.350797 199.823169 
L 59.389303 200.788599 
L 59.504819 196.271029 
L 59.543324 196.405917 
L 59.58183 195.842935 
L 59.620335 196.406311 
L 59.65884 198.40571 
L 59.697346 197.849962 
L 59.735851 196.437204 
L 59.812862 196.772767 
L 59.928378 197.823488 
L 60.005389 196.078435 
L 60.274926 204.199583 
L 60.313432 203.044211 
L 60.390442 205.809982 
L 60.428948 204.511057 
L 60.467453 205.21775 
L 60.505959 203.080177 
L 60.582969 203.430127 
L 60.621475 205.28865 
L 60.698485 204.496625 
L 60.891012 201.082776 
L 61.045034 203.558382 
L 61.083539 201.796675 
L 61.122044 203.150245 
L 61.199055 205.829434 
L 61.237561 205.65356 
L 61.314571 202.36023 
L 61.353077 203.741871 
L 61.430087 207.734444 
L 61.468593 206.087007 
L 61.545604 205.867967 
L 61.584109 207.768544 
L 61.622614 204.24574 
L 61.699625 206.461084 
L 61.930657 204.10598 
L 61.969163 205.380505 
L 62.007668 203.245392 
L 62.046173 201.181242 
L 62.123184 201.559961 
L 62.161689 201.178587 
L 62.2387 203.789512 
L 62.315711 202.164957 
L 62.354216 201.864577 
L 62.508238 208.048321 
L 62.585248 204.718336 
L 62.662259 205.354407 
L 62.854786 211.388672 
L 62.893291 211.2567 
L 62.931797 208.41238 
L 62.970302 210.501391 
L 63.008808 211.619543 
L 63.201334 203.245145 
L 63.23984 203.446424 
L 63.393861 207.739412 
L 63.432367 206.339031 
L 63.547883 209.732424 
L 63.74041 203.548181 
L 63.778915 205.080179 
L 63.894431 207.622116 
L 63.932936 205.076538 
L 64.009947 206.295244 
L 64.048453 206.085662 
L 64.086958 208.000827 
L 64.125463 205.049585 
L 64.163969 202.723867 
L 64.240979 204.010093 
L 64.279485 203.495065 
L 64.433506 207.846191 
L 64.549022 206.116733 
L 64.587528 206.882494 
L 64.626033 202.81255 
L 64.703044 205.238833 
L 64.857065 209.431256 
L 64.895571 207.429342 
L 64.934076 208.101292 
L 64.972581 209.787946 
L 65.049592 208.983902 
L 65.280624 203.099283 
L 65.357635 205.654616 
L 65.511657 208.539406 
L 65.588667 208.001181 
L 65.742689 209.724625 
L 65.858205 207.666792 
L 65.935216 207.577735 
L 65.973721 208.268431 
L 66.089237 205.94171 
L 66.127742 205.956849 
L 66.39728 212.79824 
L 66.512796 211.647759 
L 66.551302 211.79967 
L 66.628312 213.311523 
L 66.666818 212.922594 
L 66.705323 210.854107 
L 66.782334 211.948744 
L 66.89785 213.850979 
L 66.974861 211.404477 
L 67.051871 212.714026 
L 67.167387 212.07688 
L 67.282904 212.944731 
L 67.39842 210.766035 
L 67.436925 211.027425 
L 67.47543 211.882141 
L 67.513936 211.590521 
L 67.590946 207.868124 
L 67.629452 208.962339 
L 67.860484 212.54177 
L 67.976 209.220189 
L 68.091516 212.433038 
L 68.130022 212.010371 
L 68.207032 210.356045 
L 68.245538 211.018843 
L 68.322549 213.385836 
L 68.361054 212.892668 
L 68.399559 212.605237 
L 68.515075 214.655001 
L 68.707602 211.328715 
L 68.823118 212.555793 
L 68.861624 211.966775 
L 68.900129 211.626525 
L 69.208172 215.857809 
L 69.246677 215.827598 
L 69.439204 216.623948 
L 69.516215 215.816734 
L 69.55472 216.122679 
L 69.593226 216.336904 
L 69.824258 213.883189 
L 69.901269 215.310452 
L 69.978279 214.531916 
L 70.132301 211.110493 
L 70.170806 212.10916 
L 70.247817 211.918177 
L 70.401838 209.65653 
L 70.440344 209.908643 
L 70.478849 208.170847 
L 70.517355 209.800156 
L 70.55586 211.317526 
L 70.594365 210.728613 
L 70.632871 209.87093 
L 70.671376 210.245735 
L 70.748387 214.438409 
L 70.825398 214.315384 
L 70.902408 214.869535 
L 71.05643 213.165937 
L 71.13344 215.14563 
L 71.171946 214.331007 
L 71.287462 213.134176 
L 71.364473 213.290845 
L 71.441483 212.590708 
L 71.595505 214.614667 
L 71.63401 215.00663 
L 71.672516 214.387064 
L 71.711021 214.293207 
L 71.788032 212.430159 
L 71.865043 213.050417 
L 71.903548 213.803049 
L 71.980559 213.462094 
L 72.019064 212.570775 
L 72.057569 213.050619 
L 72.211591 214.839939 
L 72.404118 213.73209 
L 72.596645 216.082741 
L 72.750666 215.460075 
L 72.789171 216.325772 
L 72.866182 215.650475 
L 72.904687 215.971385 
L 72.981698 215.197247 
L 73.020204 215.530653 
L 73.058709 216.281546 
L 73.13572 216.27133 
L 73.251236 216.401278 
L 73.366752 217.192702 
L 73.405257 217.160301 
L 73.674795 216.051869 
L 73.828816 217.028865 
L 73.867322 217.013425 
L 73.944332 216.903758 
L 74.021343 217.223468 
L 74.21387 216.90165 
L 74.329386 216.939722 
L 74.752945 214.291713 
L 74.791451 214.72308 
L 74.868461 215.911103 
L 74.906967 215.491217 
L 74.983977 214.134026 
L 75.022483 214.431654 
L 75.21501 216.238845 
L 75.29202 215.942998 
L 75.369031 214.907564 
L 75.407536 215.145276 
L 75.523053 215.732203 
L 75.638569 215.406289 
L 75.79259 216.609834 
L 75.831096 216.524582 
L 75.985117 217.228664 
L 76.023622 217.142841 
L 76.216149 216.326811 
L 76.370171 217.383916 
L 76.408676 217.237828 
L 76.447181 217.415137 
L 76.485687 217.505935 
L 76.524192 217.483851 
L 76.562698 217.094918 
L 76.639708 217.339331 
L 76.755224 216.598912 
L 76.79373 217.085393 
L 76.947751 217.643822 
L 77.063267 217.165928 
L 77.101773 217.226752 
L 77.2943 217.619174 
L 77.332805 217.550471 
L 77.448321 217.12313 
L 77.486826 217.674529 
L 77.563837 217.449965 
L 77.640848 217.662776 
L 77.679353 217.578899 
L 77.756364 217.214175 
L 77.794869 217.370769 
L 77.833375 217.477117 
L 77.87188 217.333159 
L 77.948891 217.232411 
L 77.987396 217.31143 
L 78.025902 217.262003 
L 78.064407 217.314066 
L 78.102912 217.427486 
L 78.256934 216.170679 
L 78.295439 216.183853 
L 78.37245 216.717917 
L 78.410955 216.538314 
L 78.449461 215.872583 
L 78.487966 216.376418 
L 78.526471 216.514717 
L 78.564977 216.46175 
L 78.718998 214.95685 
L 78.757504 215.775576 
L 78.796009 215.473578 
L 78.911525 214.8469 
L 79.065547 215.666921 
L 79.104052 215.595432 
L 79.142557 216.38616 
L 79.219568 215.816516 
L 79.258073 215.902527 
L 79.296579 215.884505 
L 79.37359 215.146636 
L 79.412095 215.596582 
L 79.489106 216.605473 
L 79.566116 216.522166 
L 79.720138 216.814094 
L 79.797149 217.001515 
L 79.835654 216.932989 
L 79.874159 216.979859 
L 79.912665 216.937184 
L 79.989675 216.37597 
L 80.066686 217.086286 
L 80.105192 216.526422 
L 80.143697 216.734596 
L 80.182202 216.438858 
L 80.220708 216.452574 
L 80.259213 215.967568 
L 80.297718 216.373295 
L 80.336224 216.560214 
L 80.374729 216.045771 
L 80.45174 216.276787 
L 80.528751 215.730645 
L 80.605761 215.881896 
L 80.644267 216.172358 
L 80.682772 215.316248 
L 80.759783 215.92687 
L 80.875299 216.540314 
L 80.913804 216.441895 
L 80.95231 215.920165 
L 80.990815 216.347104 
L 81.02932 216.844608 
L 81.106331 216.721524 
L 81.144837 216.774705 
L 81.298858 217.357047 
L 81.337363 217.399754 
L 81.452879 217.838865 
L 81.491385 217.820598 
L 81.799428 218.03889 
L 81.914944 217.913552 
L 81.953449 217.945862 
L 82.454019 218.246361 
L 82.762062 218.284867 
L 87.19018 218.316938 
L 96.816522 218.317344 
L 149.568878 218.317699 
L 442.748761 218.317699 
L 442.748761 218.317699 
" clip-path="url(#p147707213f)" style="fill: none; stroke: #7f7f7f; stroke-width: 1.5; stroke-linecap: square"/>
   </g>
   <g id="line2d_62">
    <path d="M 57.733572 268.270205 
L 57.772077 281.076844 
L 57.810583 270.258985 
L 58.041615 215.061413 
L 58.08012 216.423852 
L 58.118626 243.689361 
L 58.195636 222.175436 
L 58.388163 207.778609 
L 58.426669 209.501854 
L 58.503679 208.703956 
L 58.542185 208.800086 
L 58.58069 213.289489 
L 58.619195 207.682919 
L 58.657701 210.799005 
L 58.734712 215.7808 
L 58.773217 212.13272 
L 58.888733 214.179257 
L 58.927238 213.175494 
L 59.004249 212.80384 
L 59.042754 214.646659 
L 59.119765 211.923164 
L 59.158271 213.596216 
L 59.196776 213.162936 
L 59.312292 218.600868 
L 59.427808 212.822665 
L 59.466314 213.437271 
L 59.543324 211.484418 
L 59.58183 212.688069 
L 59.851367 214.522223 
L 59.889873 213.430193 
L 59.928378 214.864341 
L 60.043894 216.290616 
L 60.120905 215.924526 
L 60.15941 216.02317 
L 60.274926 217.696662 
L 60.313432 216.967445 
L 60.428948 216.732382 
L 60.467453 216.841783 
L 60.736991 217.776225 
L 60.852507 217.63454 
L 60.929518 217.721526 
L 61.006528 217.339706 
L 61.045034 217.525934 
L 61.122044 217.803119 
L 61.16055 217.770017 
L 61.391582 217.257428 
L 61.584109 217.851483 
L 61.66112 217.697777 
L 61.699625 217.858356 
L 61.73813 217.781317 
L 61.969163 217.114924 
L 62.007668 217.069235 
L 62.123184 216.758899 
L 62.161689 216.858055 
L 62.200195 216.09346 
L 62.277206 216.534993 
L 62.315711 216.645663 
L 62.354216 216.479679 
L 62.585248 213.364877 
L 62.623754 214.426453 
L 62.662259 214.247603 
L 62.777775 212.085059 
L 62.816281 212.467595 
L 62.893291 213.837788 
L 62.970302 213.155942 
L 63.047313 211.418669 
L 63.085818 212.406367 
L 63.278345 214.4747 
L 63.31685 213.691637 
L 63.355356 214.313289 
L 63.624893 215.681759 
L 63.663399 214.981561 
L 63.701904 215.71797 
L 63.74041 215.497978 
L 63.81742 217.074807 
L 63.894431 216.854048 
L 63.971442 216.352978 
L 64.009947 217.122064 
L 64.086958 216.668308 
L 64.125463 216.54603 
L 64.163969 216.746515 
L 64.202474 216.853015 
L 64.240979 216.614419 
L 64.31799 216.635931 
L 64.472012 217.4796 
L 64.549022 217.44823 
L 64.703044 217.792895 
L 64.895571 218.18167 
L 65.011087 218.139165 
L 66.127742 218.199039 
L 66.358775 218.098211 
L 66.628312 218.232851 
L 66.859344 218.264358 
L 67.205893 218.252384 
L 67.513936 218.224862 
L 67.976 218.236644 
L 68.399559 218.251052 
L 68.630591 218.291555 
L 442.748761 218.317699 
L 442.748761 218.317699 
" clip-path="url(#p147707213f)" style="fill: none; stroke: #bcbd22; stroke-width: 1.5; stroke-linecap: square"/>
   </g>
   <g id="line2d_63">
    <path d="M 57.733572 268.270205 
L 57.772077 278.022525 
L 58.00311 201.092537 
L 58.08012 200.48133 
L 58.272647 222.475513 
L 58.426669 203.605842 
L 58.619195 222.099154 
L 58.657701 214.290138 
L 58.696206 210.137696 
L 58.773217 211.147691 
L 58.850228 210.13398 
L 58.965744 217.455845 
L 59.004249 214.25851 
L 59.042754 213.091824 
L 59.196776 221.473048 
L 59.235281 218.763578 
L 59.389303 213.901917 
L 59.427808 212.569439 
L 59.466314 213.480758 
L 59.543324 215.470717 
L 59.65884 214.680222 
L 59.697346 214.398184 
L 59.735851 214.661853 
L 59.812862 214.758362 
L 59.889873 213.706391 
L 59.928378 213.963104 
L 59.966883 214.954429 
L 60.043894 214.423383 
L 60.082399 215.05971 
L 60.120905 214.455203 
L 60.236421 213.261358 
L 60.274926 213.934842 
L 60.505959 216.703004 
L 60.621475 217.426764 
L 60.65998 217.155613 
L 60.736991 217.309798 
L 60.891012 217.591782 
L 60.929518 217.636868 
L 61.083539 217.251852 
L 61.314571 217.910392 
L 61.391582 217.871911 
L 61.430087 217.937259 
L 61.66112 218.019879 
L 61.969163 217.992275 
L 62.084679 217.946899 
L 62.2387 217.965718 
L 62.277206 217.824316 
L 62.315711 217.873332 
L 62.508238 218.068967 
L 62.662259 218.140579 
L 63.81742 218.252238 
L 64.395001 218.274537 
L 64.972581 218.277878 
L 66.204753 218.314181 
L 71.518494 218.316892 
L 152.033222 218.317699 
L 442.748761 218.317699 
L 442.748761 218.317699 
" clip-path="url(#p147707213f)" style="fill: none; stroke: #17becf; stroke-width: 1.5; stroke-linecap: square"/>
   </g>
   <g id="patch_8">
    <path d="M 38.482813 330.121395 
L 38.482813 180 
" style="fill: none; stroke: #000000; stroke-width: 0.8; stroke-linejoin: miter; stroke-linecap: square"/>
   </g>
   <g id="patch_9">
    <path d="M 461.99952 330.121395 
L 461.99952 180 
" style="fill: none; stroke: #000000; stroke-width: 0.8; stroke-linejoin: miter; stroke-linecap: square"/>
   </g>
   <g id="patch_10">
    <path d="M 38.482813 330.121395 
L 461.99952 330.121395 
" style="fill: none; stroke: #000000; stroke-width: 0.8; stroke-linejoin: miter; stroke-linecap: square"/>
   </g>
   <g id="patch_11">
    <path d="M 38.482813 180 
L 461.99952 180 
" style="fill: none; stroke: #000000; stroke-width: 0.8; stroke-linejoin: miter; stroke-linecap: square"/>
   </g>
  </g>
 </g>
 <defs>
  <clipPath id="p352f8b26fc">
   <rect x="38.482813" y="7.2" width="423.516707" height="150.121395"/>
  </clipPath>
  <clipPath id="p147707213f">
   <rect x="38.482813" y="180" width="423.516707" height="150.121395"/>
  </clipPath>
 </defs>
</svg>
