<?xml version="1.0" encoding="utf-8" standalone="no"?>
<!DOCTYPE svg PUBLIC "-//W3C//DTD SVG 1.1//EN"
  "http://www.w3.org/Graphics/SVG/1.1/DTD/svg11.dtd">
<svg xmlns:xlink="http://www.w3.org/1999/xlink" width="469.19952pt" height="204.069717pt" viewBox="0 0 469.19952 204.069717" xmlns="http://www.w3.org/2000/svg" version="1.1">
 <metadata>
  <rdf:RDF xmlns:dc="http://purl.org/dc/elements/1.1/" xmlns:cc="http://creativecommons.org/ns#" xmlns:rdf="http://www.w3.org/1999/02/22-rdf-syntax-ns#">
   <cc:Work>
    <dc:type rdf:resource="http://purl.org/dc/dcmitype/StillImage"/>
    <dc:date>2025-12-15T16:32:39.206221</dc:date>
    <dc:format>image/svg+xml</dc:format>
    <dc:creator>
     <cc:Agent>
      <dc:title>Matplotlib v3.10.0, https://matplotlib.org/</dc:title>
     </cc:Agent>
    </dc:creator>
   </cc:Work>
  </rdf:RDF>
 </metadata>
 <defs>
  <style type="text/css">*{stroke-linejoin: round; stroke-linecap: butt}</style>
 </defs>
 <g id="figure_1">
  <g id="patch_1">
   <path d="M 0 204.069717 
L 469.19952 204.069717 
L 469.19952 0 
L 0 0 
z
" style="fill: #ffffff"/>
  </g>
  <g id="axes_1">
   <g id="patch_2">
    <path d="M 35.304688 82.552454 
L 461.99952 82.552454 
L 461.99952 7.591922 
L 35.304688 7.591922 
z
" style="fill: #ffffff"/>
   </g>
   <g id="matplotlib.axis_1">
    <g id="xtick_1">
     <g id="line2d_1">
      <defs>
       <path id="m95779853f5" d="M 0 0 
L 0 3.5 
" style="stroke: #000000; stroke-width: 0.8"/>
      </defs>
      <g>
       <use xlink:href="#m95779853f5" x="54.699907" y="82.552454" style="stroke: #000000; stroke-width: 0.8"/>
      </g>
     </g>
     <g id="text_1">
      <!-- 0 -->
      <g transform="translate(51.518657 97.150892) scale(0.1 -0.1)">
       <defs>
        <path id="DejaVuSans-30" d="M 2034 4250 
Q 1547 4250 1301 3770 
Q 1056 3291 1056 2328 
Q 1056 1369 1301 889 
Q 1547 409 2034 409 
Q 2525 409 2770 889 
Q 3016 1369 3016 2328 
Q 3016 3291 2770 3770 
Q 2525 4250 2034 4250 
z
M 2034 4750 
Q 2819 4750 3233 4129 
Q 3647 3509 3647 2328 
Q 3647 1150 3233 529 
Q 2819 -91 2034 -91 
Q 1250 -91 836 529 
Q 422 1150 422 2328 
Q 422 3509 836 4129 
Q 1250 4750 2034 4750 
z
" transform="scale(0.015625)"/>
       </defs>
       <use xlink:href="#DejaVuSans-30"/>
      </g>
     </g>
    </g>
    <g id="xtick_2">
     <g id="line2d_2">
      <g>
       <use xlink:href="#m95779853f5" x="132.280786" y="82.552454" style="stroke: #000000; stroke-width: 0.8"/>
      </g>
     </g>
     <g id="text_2">
      <!-- 2 -->
      <g transform="translate(129.099536 97.150892) scale(0.1 -0.1)">
       <defs>
        <path id="DejaVuSans-32" d="M 1228 531 
L 3431 531 
L 3431 0 
L 469 0 
L 469 531 
Q 828 903 1448 1529 
Q 2069 2156 2228 2338 
Q 2531 2678 2651 2914 
Q 2772 3150 2772 3378 
Q 2772 3750 2511 3984 
Q 2250 4219 1831 4219 
Q 1534 4219 1204 4116 
Q 875 4013 500 3803 
L 500 4441 
Q 881 4594 1212 4672 
Q 1544 4750 1819 4750 
Q 2544 4750 2975 4387 
Q 3406 4025 3406 3419 
Q 3406 3131 3298 2873 
Q 3191 2616 2906 2266 
Q 2828 2175 2409 1742 
Q 1991 1309 1228 531 
z
" transform="scale(0.015625)"/>
       </defs>
       <use xlink:href="#DejaVuSans-32"/>
      </g>
     </g>
    </g>
    <g id="xtick_3">
     <g id="line2d_3">
      <g>
       <use xlink:href="#m95779853f5" x="209.861664" y="82.552454" style="stroke: #000000; stroke-width: 0.8"/>
      </g>
     </g>
     <g id="text_3">
      <!-- 4 -->
      <g transform="translate(206.680414 97.150892) scale(0.1 -0.1)">
       <defs>
        <path id="DejaVuSans-34" d="M 2419 4116 
L 825 1625 
L 2419 1625 
L 2419 4116 
z
M 2253 4666 
L 3047 4666 
L 3047 1625 
L 3713 1625 
L 3713 1100 
L 3047 1100 
L 3047 0 
L 2419 0 
L 2419 1100 
L 313 1100 
L 313 1709 
L 2253 4666 
z
" transform="scale(0.015625)"/>
       </defs>
       <use xlink:href="#DejaVuSans-34"/>
      </g>
     </g>
    </g>
    <g id="xtick_4">
     <g id="line2d_4">
      <g>
       <use xlink:href="#m95779853f5" x="287.442543" y="82.552454" style="stroke: #000000; stroke-width: 0.8"/>
      </g>
     </g>
     <g id="text_4">
      <!-- 6 -->
      <g transform="translate(284.261293 97.150892) scale(0.1 -0.1)">
       <defs>
        <path id="DejaVuSans-36" d="M 2113 2584 
Q 1688 2584 1439 2293 
Q 1191 2003 1191 1497 
Q 1191 994 1439 701 
Q 1688 409 2113 409 
Q 2538 409 2786 701 
Q 3034 994 3034 1497 
Q 3034 2003 2786 2293 
Q 2538 2584 2113 2584 
z
M 3366 4563 
L 3366 3988 
Q 3128 4100 2886 4159 
Q 2644 4219 2406 4219 
Q 1781 4219 1451 3797 
Q 1122 3375 1075 2522 
Q 1259 2794 1537 2939 
Q 1816 3084 2150 3084 
Q 2853 3084 3261 2657 
Q 3669 2231 3669 1497 
Q 3669 778 3244 343 
Q 2819 -91 2113 -91 
Q 1303 -91 875 529 
Q 447 1150 447 2328 
Q 447 3434 972 4092 
Q 1497 4750 2381 4750 
Q 2619 4750 2861 4703 
Q 3103 4656 3366 4563 
z
" transform="scale(0.015625)"/>
       </defs>
       <use xlink:href="#DejaVuSans-36"/>
      </g>
     </g>
    </g>
    <g id="xtick_5">
     <g id="line2d_5">
      <g>
       <use xlink:href="#m95779853f5" x="365.023422" y="82.552454" style="stroke: #000000; stroke-width: 0.8"/>
      </g>
     </g>
     <g id="text_5">
      <!-- 8 -->
      <g transform="translate(361.842172 97.150892) scale(0.1 -0.1)">
       <defs>
        <path id="DejaVuSans-38" d="M 2034 2216 
Q 1584 2216 1326 1975 
Q 1069 1734 1069 1313 
Q 1069 891 1326 650 
Q 1584 409 2034 409 
Q 2484 409 2743 651 
Q 3003 894 3003 1313 
Q 3003 1734 2745 1975 
Q 2488 2216 2034 2216 
z
M 1403 2484 
Q 997 2584 770 2862 
Q 544 3141 544 3541 
Q 544 4100 942 4425 
Q 1341 4750 2034 4750 
Q 2731 4750 3128 4425 
Q 3525 4100 3525 3541 
Q 3525 3141 3298 2862 
Q 3072 2584 2669 2484 
Q 3125 2378 3379 2068 
Q 3634 1759 3634 1313 
Q 3634 634 3220 271 
Q 2806 -91 2034 -91 
Q 1263 -91 848 271 
Q 434 634 434 1313 
Q 434 1759 690 2068 
Q 947 2378 1403 2484 
z
M 1172 3481 
Q 1172 3119 1398 2916 
Q 1625 2713 2034 2713 
Q 2441 2713 2670 2916 
Q 2900 3119 2900 3481 
Q 2900 3844 2670 4047 
Q 2441 4250 2034 4250 
Q 1625 4250 1398 4047 
Q 1172 3844 1172 3481 
z
" transform="scale(0.015625)"/>
       </defs>
       <use xlink:href="#DejaVuSans-38"/>
      </g>
     </g>
    </g>
    <g id="xtick_6">
     <g id="line2d_6">
      <g>
       <use xlink:href="#m95779853f5" x="442.6043" y="82.552454" style="stroke: #000000; stroke-width: 0.8"/>
      </g>
     </g>
     <g id="text_6">
      <!-- 10 -->
      <g transform="translate(436.2418 97.150892) scale(0.1 -0.1)">
       <defs>
        <path id="DejaVuSans-31" d="M 794 531 
L 1825 531 
L 1825 4091 
L 703 3866 
L 703 4441 
L 1819 4666 
L 2450 4666 
L 2450 531 
L 3481 531 
L 3481 0 
L 794 0 
L 794 531 
z
" transform="scale(0.015625)"/>
       </defs>
       <use xlink:href="#DejaVuSans-31"/>
       <use xlink:href="#DejaVuSans-30" transform="translate(63.623047 0)"/>
      </g>
     </g>
    </g>
   </g>
   <g id="matplotlib.axis_2">
    <g id="ytick_1">
     <g id="line2d_7">
      <defs>
       <path id="mbf23547008" d="M 0 0 
L -3.5 0 
" style="stroke: #000000; stroke-width: 0.8"/>
      </defs>
      <g>
       <use xlink:href="#mbf23547008" x="35.304688" y="79.145157" style="stroke: #000000; stroke-width: 0.8"/>
      </g>
     </g>
     <g id="text_7">
      <!-- 0.0 -->
      <g transform="translate(12.401562 82.944376) scale(0.1 -0.1)">
       <defs>
        <path id="DejaVuSans-2e" d="M 684 794 
L 1344 794 
L 1344 0 
L 684 0 
L 684 794 
z
" transform="scale(0.015625)"/>
       </defs>
       <use xlink:href="#DejaVuSans-30"/>
       <use xlink:href="#DejaVuSans-2e" transform="translate(63.623047 0)"/>
       <use xlink:href="#DejaVuSans-30" transform="translate(95.410156 0)"/>
      </g>
     </g>
    </g>
    <g id="ytick_2">
     <g id="line2d_8">
      <g>
       <use xlink:href="#mbf23547008" x="35.304688" y="45.072188" style="stroke: #000000; stroke-width: 0.8"/>
      </g>
     </g>
     <g id="text_8">
      <!-- 0.5 -->
      <g transform="translate(12.401562 48.871407) scale(0.1 -0.1)">
       <defs>
        <path id="DejaVuSans-35" d="M 691 4666 
L 3169 4666 
L 3169 4134 
L 1269 4134 
L 1269 2991 
Q 1406 3038 1543 3061 
Q 1681 3084 1819 3084 
Q 2600 3084 3056 2656 
Q 3513 2228 3513 1497 
Q 3513 744 3044 326 
Q 2575 -91 1722 -91 
Q 1428 -91 1123 -41 
Q 819 9 494 109 
L 494 744 
Q 775 591 1075 516 
Q 1375 441 1709 441 
Q 2250 441 2565 725 
Q 2881 1009 2881 1497 
Q 2881 1984 2565 2268 
Q 2250 2553 1709 2553 
Q 1456 2553 1204 2497 
Q 953 2441 691 2322 
L 691 4666 
z
" transform="scale(0.015625)"/>
       </defs>
       <use xlink:href="#DejaVuSans-30"/>
       <use xlink:href="#DejaVuSans-2e" transform="translate(63.623047 0)"/>
       <use xlink:href="#DejaVuSans-35" transform="translate(95.410156 0)"/>
      </g>
     </g>
    </g>
    <g id="ytick_3">
     <g id="line2d_9">
      <g>
       <use xlink:href="#mbf23547008" x="35.304688" y="10.999219" style="stroke: #000000; stroke-width: 0.8"/>
      </g>
     </g>
     <g id="text_9">
      <!-- 1.0 -->
      <g transform="translate(12.401562 14.798437) scale(0.1 -0.1)">
       <use xlink:href="#DejaVuSans-31"/>
       <use xlink:href="#DejaVuSans-2e" transform="translate(63.623047 0)"/>
       <use xlink:href="#DejaVuSans-30" transform="translate(95.410156 0)"/>
      </g>
     </g>
    </g>
   </g>
   <g id="line2d_10">
    <path d="M 54.699907 55.947209 
L 54.72706 44.596988 
L 54.827916 78.873862 
L 54.924892 79.008279 
L 54.901617 78.622509 
L 54.93265 78.828011 
L 54.983077 75.575829 
L 55.033505 79.030836 
L 55.041263 78.929341 
L 55.083933 78.913797 
L 55.107207 79.107482 
L 55.122723 79.085781 
L 55.21582 79.135348 
L 55.142118 79.077679 
L 55.235215 79.111258 
L 55.262369 79.019637 
L 55.33607 79.141503 
L 55.339949 79.139082 
L 55.844225 79.144707 
L 84.618973 79.145157 
L 442.6043 79.145157 
L 442.6043 79.145157 
" clip-path="url(#p2bab8dda34)" style="fill: none; stroke: #00ff00; stroke-width: 1.5; stroke-linecap: square"/>
   </g>
   <g id="line2d_11">
    <path d="M 54.699907 52.634975 
L 54.796883 71.835146 
L 54.812399 64.591998 
L 54.901617 50.207661 
L 54.886101 66.449389 
L 54.921013 63.449946 
L 54.924892 64.535367 
L 54.948166 41.340295 
L 54.998594 32.43104 
L 54.979198 57.03799 
L 55.033505 51.555162 
L 55.142118 77.97473 
L 55.153755 76.451391 
L 55.173151 75.867211 
L 55.270127 79.044319 
L 55.363224 79.132402 
L 55.386498 79.097407 
L 55.506748 79.018884 
L 55.436926 79.12759 
L 55.514506 79.05784 
L 55.537781 79.083022 
L 55.549418 78.921396 
L 55.634757 78.237368 
L 55.568813 79.034304 
L 55.677426 78.642972 
L 55.727854 78.999897 
L 55.770523 77.688388 
L 55.774402 77.842681 
L 55.820951 76.641344 
L 55.848104 78.738289 
L 55.851983 78.652777 
L 55.90629 78.853896 
L 55.933443 77.991643 
L 55.937322 78.029124 
L 55.960596 70.297755 
L 56.042056 78.356211 
L 56.104121 78.803313 
L 56.127395 77.200326 
L 56.135153 77.273795 
L 56.173944 66.657784 
L 56.208855 57.335532 
L 56.259283 77.651379 
L 56.27092 77.466798 
L 56.301952 71.687421 
L 56.364017 78.536194 
L 56.375654 77.984096 
L 56.464872 79.05173 
L 56.495904 78.920512 
L 56.608397 79.03529 
L 56.569606 78.811172 
L 56.623913 79.032489 
L 56.697615 78.560001 
L 56.732526 79.084448 
L 56.748042 79.032554 
L 56.767438 79.132112 
L 56.841139 79.101533 
L 56.860535 79.092347 
L 56.965269 79.144263 
L 59.59914 79.145157 
L 442.6043 79.145157 
L 442.6043 79.145157 
" clip-path="url(#p2bab8dda34)" style="fill: none; stroke: #358763; stroke-width: 1.5; stroke-linecap: square"/>
   </g>
   <g id="line2d_12">
    <path d="M 54.699907 54.16975 
L 54.812399 20.449746 
L 54.831795 24.223947 
L 54.862827 22.536261 
L 54.909376 40.599484 
L 54.936529 37.898729 
L 55.033505 75.475652 
L 55.153755 79.084381 
L 55.064537 73.543868 
L 55.173151 79.007589 
L 55.17703 78.973801 
L 55.239094 79.143062 
L 55.266248 79.143415 
L 55.774402 79.144912 
L 61.437806 79.145157 
L 442.6043 79.145157 
L 442.6043 79.145157 
" clip-path="url(#p2bab8dda34)" style="fill: none; stroke: #e78a18; stroke-width: 1.5; stroke-linecap: square"/>
   </g>
   <g id="line2d_13">
    <path d="M 54.699907 64.110581 
L 54.72706 46.967121 
L 54.785246 77.802849 
L 54.793004 76.788424 
L 54.878343 79.138017 
L 54.882222 79.13792 
L 55.332191 79.145157 
L 442.6043 79.145157 
L 442.6043 79.145157 
" clip-path="url(#p2bab8dda34)" style="fill: none; stroke: #00fbff; stroke-width: 1.5; stroke-linecap: square"/>
   </g>
   <g id="line2d_14">
    <path d="M 54.699907 70.35589 
L 54.796883 79.076743 
L 54.870585 78.822459 
L 54.986956 79.145101 
L 83.214759 79.145157 
L 442.6043 79.145157 
L 442.6043 79.145157 
" clip-path="url(#p2bab8dda34)" style="fill: none; stroke: #3e00ff; stroke-width: 1.5; stroke-linecap: square"/>
   </g>
   <g id="line2d_15">
    <path d="M 54.699907 64.309602 
L 54.703786 62.382397 
L 54.76973 78.778465 
L 54.781367 78.277195 
L 54.785246 78.293715 
L 54.789125 78.114745 
L 54.796883 75.031685 
L 54.816278 78.905182 
L 54.901617 75.884117 
L 55.01411 79.124812 
L 55.021868 79.122253 
L 55.142118 79.134552 
L 55.398135 79.145157 
L 442.6043 79.145157 
L 442.6043 79.145157 
" clip-path="url(#p2bab8dda34)" style="fill: none; stroke: #e64500; stroke-width: 1.5; stroke-linecap: square"/>
   </g>
   <g id="line2d_16">
    <path d="M 54.699907 66.303269 
L 54.703786 63.99586 
L 54.789125 78.960687 
L 54.793004 78.925175 
L 54.847311 79.143178 
L 54.878343 79.133744 
L 54.893859 79.129755 
L 54.909376 79.044585 
L 54.913255 79.02523 
L 54.940408 79.130043 
L 55.002473 79.13226 
L 55.305038 79.145142 
L 180.035696 79.145157 
L 442.6043 79.145157 
L 442.6043 79.145157 
" clip-path="url(#p2bab8dda34)" style="fill: none; stroke: #ffee00; stroke-width: 1.5; stroke-linecap: square"/>
   </g>
   <g id="line2d_17">
    <path d="M 54.699907 62.560839 
L 54.754214 20.132273 
L 54.824037 29.450703 
L 54.827916 44.8363 
L 54.901617 11.792171 
L 54.928771 12.424704 
L 54.940408 13.363322 
L 55.006352 11.037869 
L 55.025747 11.061945 
L 55.157634 11.003245 
L 55.161513 11.005013 
L 55.976113 10.99922 
L 442.6043 10.999219 
L 442.6043 10.999219 
" clip-path="url(#p2bab8dda34)" style="fill: none; stroke: #0078ff; stroke-width: 1.5; stroke-linecap: square"/>
   </g>
   <g id="line2d_18">
    <path d="M 54.699907 62.492571 
L 54.765851 18.264708 
L 54.73094 70.085377 
L 54.839553 52.894726 
L 54.855069 62.455305 
L 54.893859 22.554622 
L 54.913255 31.09606 
L 55.006352 18.295986 
L 54.994714 38.425202 
L 55.025747 28.818862 
L 55.033505 44.290253 
L 55.103328 14.848294 
L 55.130481 19.505828 
L 55.157634 14.897913 
L 55.196425 23.018894 
L 55.200304 21.307871 
L 55.266248 35.027789 
L 55.301159 15.054883 
L 55.320554 17.012781 
L 55.33607 12.870473 
L 55.363224 13.35183 
L 55.448563 11.458499 
L 55.374861 13.892719 
L 55.475716 11.658372 
L 55.526144 11.396986 
L 55.483474 11.851806 
L 55.553297 11.62129 
L 55.584329 12.85379 
L 55.654152 11.048351 
L 55.778281 11.199468 
L 55.78216 11.119114 
L 55.789919 11.099042 
L 55.801556 11.187999 
L 55.809314 11.370886 
L 55.902411 11.009935 
L 55.90629 11.011744 
L 56.158428 10.999947 
L 63.924274 10.999219 
L 442.6043 10.999219 
L 442.6043 10.999219 
" clip-path="url(#p2bab8dda34)" style="fill: none; stroke: #ff0037; stroke-width: 1.5; stroke-linecap: square"/>
   </g>
   <g id="line2d_19">
    <path d="M 54.699907 72.776729 
L 54.707665 72.658274 
L 54.827916 79.141567 
L 55.285643 79.145149 
L 364.759647 79.145157 
L 442.6043 79.145157 
L 442.6043 79.145157 
" clip-path="url(#p2bab8dda34)" style="fill: none; stroke: #e1ff00; stroke-width: 1.5; stroke-linecap: square"/>
   </g>
   <g id="patch_3">
    <path d="M 35.304688 82.552454 
L 35.304688 7.591922 
" style="fill: none; stroke: #000000; stroke-width: 0.8; stroke-linejoin: miter; stroke-linecap: square"/>
   </g>
   <g id="patch_4">
    <path d="M 461.99952 82.552454 
L 461.99952 7.591922 
" style="fill: none; stroke: #000000; stroke-width: 0.8; stroke-linejoin: miter; stroke-linecap: square"/>
   </g>
   <g id="patch_5">
    <path d="M 35.304688 82.552454 
L 461.99952 82.552454 
" style="fill: none; stroke: #000000; stroke-width: 0.8; stroke-linejoin: miter; stroke-linecap: square"/>
   </g>
   <g id="patch_6">
    <path d="M 35.304688 7.591922 
L 461.99952 7.591922 
" style="fill: none; stroke: #000000; stroke-width: 0.8; stroke-linejoin: miter; stroke-linecap: square"/>
   </g>
  </g>
  <g id="axes_2">
   <g id="patch_7">
    <path d="M 35.304688 180.191592 
L 461.99952 180.191592 
L 461.99952 105.231059 
L 35.304688 105.231059 
z
" style="fill: #ffffff"/>
   </g>
   <g id="matplotlib.axis_3">
    <g id="xtick_7">
     <g id="line2d_20">
      <g>
       <use xlink:href="#m95779853f5" x="54.699907" y="180.191592" style="stroke: #000000; stroke-width: 0.8"/>
      </g>
     </g>
     <g id="text_10">
      <!-- 0 -->
      <g transform="translate(51.518657 194.790029) scale(0.1 -0.1)">
       <use xlink:href="#DejaVuSans-30"/>
      </g>
     </g>
    </g>
    <g id="xtick_8">
     <g id="line2d_21">
      <g>
       <use xlink:href="#m95779853f5" x="132.280786" y="180.191592" style="stroke: #000000; stroke-width: 0.8"/>
      </g>
     </g>
     <g id="text_11">
      <!-- 2 -->
      <g transform="translate(129.099536 194.790029) scale(0.1 -0.1)">
       <use xlink:href="#DejaVuSans-32"/>
      </g>
     </g>
    </g>
    <g id="xtick_9">
     <g id="line2d_22">
      <g>
       <use xlink:href="#m95779853f5" x="209.861664" y="180.191592" style="stroke: #000000; stroke-width: 0.8"/>
      </g>
     </g>
     <g id="text_12">
      <!-- 4 -->
      <g transform="translate(206.680414 194.790029) scale(0.1 -0.1)">
       <use xlink:href="#DejaVuSans-34"/>
      </g>
     </g>
    </g>
    <g id="xtick_10">
     <g id="line2d_23">
      <g>
       <use xlink:href="#m95779853f5" x="287.442543" y="180.191592" style="stroke: #000000; stroke-width: 0.8"/>
      </g>
     </g>
     <g id="text_13">
      <!-- 6 -->
      <g transform="translate(284.261293 194.790029) scale(0.1 -0.1)">
       <use xlink:href="#DejaVuSans-36"/>
      </g>
     </g>
    </g>
    <g id="xtick_11">
     <g id="line2d_24">
      <g>
       <use xlink:href="#m95779853f5" x="365.023422" y="180.191592" style="stroke: #000000; stroke-width: 0.8"/>
      </g>
     </g>
     <g id="text_14">
      <!-- 8 -->
      <g transform="translate(361.842172 194.790029) scale(0.1 -0.1)">
       <use xlink:href="#DejaVuSans-38"/>
      </g>
     </g>
    </g>
    <g id="xtick_12">
     <g id="line2d_25">
      <g>
       <use xlink:href="#m95779853f5" x="442.6043" y="180.191592" style="stroke: #000000; stroke-width: 0.8"/>
      </g>
     </g>
     <g id="text_15">
      <!-- 10 -->
      <g transform="translate(436.2418 194.790029) scale(0.1 -0.1)">
       <use xlink:href="#DejaVuSans-31"/>
       <use xlink:href="#DejaVuSans-30" transform="translate(63.623047 0)"/>
      </g>
     </g>
    </g>
   </g>
   <g id="matplotlib.axis_4">
    <g id="ytick_4">
     <g id="line2d_26">
      <g>
       <use xlink:href="#mbf23547008" x="35.304688" y="161.296581" style="stroke: #000000; stroke-width: 0.8"/>
      </g>
     </g>
     <g id="text_16">
      <!-- −10 -->
      <g transform="translate(7.2 165.0958) scale(0.1 -0.1)">
       <defs>
        <path id="DejaVuSans-2212" d="M 678 2272 
L 4684 2272 
L 4684 1741 
L 678 1741 
L 678 2272 
z
" transform="scale(0.015625)"/>
       </defs>
       <use xlink:href="#DejaVuSans-2212"/>
       <use xlink:href="#DejaVuSans-31" transform="translate(83.789062 0)"/>
       <use xlink:href="#DejaVuSans-30" transform="translate(147.412109 0)"/>
      </g>
     </g>
    </g>
    <g id="ytick_5">
     <g id="line2d_27">
      <g>
       <use xlink:href="#mbf23547008" x="35.304688" y="130.321155" style="stroke: #000000; stroke-width: 0.8"/>
      </g>
     </g>
     <g id="text_17">
      <!-- 0 -->
      <g transform="translate(21.942187 134.120374) scale(0.1 -0.1)">
       <use xlink:href="#DejaVuSans-30"/>
      </g>
     </g>
    </g>
   </g>
   <g id="line2d_28">
    <path d="M 54.699907 136.470095 
L 54.72706 147.463053 
L 54.831795 112.818393 
L 54.983077 122.78529 
L 54.990835 121.526024 
L 55.0529 116.019212 
L 54.998594 121.562161 
L 55.118844 117.958962 
L 55.126602 116.66541 
L 55.211941 118.499889 
L 55.219699 118.452146 
L 55.270127 122.355284 
L 55.332191 119.598017 
L 55.33607 119.207548 
L 55.405893 122.652604 
L 55.448563 123.731632 
L 55.495111 120.59385 
L 55.506748 121.891686 
L 55.526144 120.2497 
L 55.588208 123.842985 
L 55.611482 123.535709 
L 55.731733 125.694405 
L 55.638636 123.292018 
L 55.766644 124.878051 
L 55.774402 124.600116 
L 55.840346 125.911316 
L 55.886895 125.766043 
L 55.960596 126.524494 
L 55.964475 126.487334 
L 56.030419 126.889375 
L 56.061452 127.031801 
L 56.100242 126.700833 
L 56.135153 126.828695 
L 56.139032 126.79565 
L 56.208855 127.138187 
L 56.23213 127.12695 
L 56.332985 127.167739 
L 56.464872 127.135982 
L 56.468751 127.144841 
L 56.589002 127.186774 
L 56.7558 127.153799 
L 57.011817 127.109539 
L 57.12431 127.193281 
L 57.135947 127.184902 
L 57.279471 127.020458 
L 57.298867 127.090094 
L 57.376447 127.162753 
L 57.341536 127.07751 
L 57.422996 127.13646 
L 57.554883 127.078033 
L 57.562642 127.001621 
L 57.60919 127.11939 
L 57.667376 127.047249 
L 57.72944 127.030525 
L 57.717803 127.107921 
L 57.77211 127.086031 
L 58.58283 127.205247 
L 59.948254 127.219183 
L 60.73182 127.221268 
L 66.996476 127.223612 
L 442.6043 127.223612 
L 442.6043 127.223612 
" clip-path="url(#pcc5bc55b0c)" style="fill: none; stroke: #00ff00; stroke-width: 1.5; stroke-linecap: square"/>
   </g>
   <g id="line2d_29">
    <path d="M 54.699907 143.763334 
L 54.796883 128.594552 
L 54.812399 135.236076 
L 54.967561 158.634088 
L 54.886101 134.583792 
L 54.97144 156.536996 
L 55.091691 130.75096 
L 54.998594 161.030821 
L 55.103328 132.931296 
L 55.107207 133.141662 
L 55.118844 127.910758 
L 55.122723 127.975828 
L 55.235215 125.913293 
L 55.173151 128.975875 
L 55.246852 126.239982 
L 55.281764 125.687439 
L 55.25461 126.379289 
L 55.367103 126.171913 
L 55.533902 127.085608 
L 55.537781 127.01847 
L 55.611482 127.65893 
L 55.634757 127.836209 
L 55.692942 127.357949 
L 55.696821 127.514918 
L 55.727854 127.278873 
L 55.770523 128.267405 
L 55.793798 127.71763 
L 55.820951 129.035675 
L 55.894653 127.459715 
L 55.902411 127.608014 
L 55.90629 127.423894 
L 55.948959 130.233117 
L 55.956717 130.155301 
L 55.960596 133.656225 
L 56.053693 127.555595 
L 56.061452 127.659618 
L 56.104121 127.469429 
L 56.127395 128.636821 
L 56.135153 128.583433 
L 56.173944 136.304989 
L 56.208855 143.084985 
L 56.259283 128.309448 
L 56.27092 128.443754 
L 56.301952 132.647222 
L 56.364017 127.666112 
L 56.375654 128.067746 
L 56.464872 127.291173 
L 56.495904 127.386765 
L 56.569606 127.466392 
L 56.623913 127.305431 
L 56.697615 127.649141 
L 56.732526 127.267692 
L 56.748042 127.305454 
L 56.767438 127.232998 
L 56.841139 127.255299 
L 56.969148 127.224067 
L 61.74813 127.223607 
L 442.6043 127.223612 
L 442.6043 127.223612 
" clip-path="url(#pcc5bc55b0c)" style="fill: none; stroke: #358763; stroke-width: 1.5; stroke-linecap: square"/>
   </g>
   <g id="line2d_30">
    <path d="M 54.699907 142.855647 
L 54.812399 169.77535 
L 54.831795 166.971731 
L 54.862827 168.262315 
L 54.909376 154.84915 
L 54.936529 156.926452 
L 55.033505 128.681318 
L 55.153755 124.880399 
L 55.064537 130.469135 
L 55.173151 125.678466 
L 55.17703 125.853212 
L 55.235215 123.632416 
L 55.270127 122.875139 
L 55.246852 124.167771 
L 55.33607 123.632159 
L 55.456321 126.413335 
L 55.4602 126.337205 
L 55.479595 126.237748 
L 55.533902 126.812163 
L 55.572692 126.965114 
L 55.626999 126.584426 
L 55.634757 126.579704 
L 55.642515 126.362719 
L 55.720096 127.034425 
L 55.731733 126.949543 
L 55.817072 126.788011 
L 55.751128 126.962353 
L 55.859741 126.898216 
L 55.98775 127.176043 
L 55.995508 127.173941 
L 56.119637 127.191777 
L 56.123516 127.197232 
L 57.551004 127.223547 
L 442.6043 127.223612 
L 442.6043 127.223612 
" clip-path="url(#pcc5bc55b0c)" style="fill: none; stroke: #e78a18; stroke-width: 1.5; stroke-linecap: square"/>
   </g>
   <g id="line2d_31">
    <path d="M 54.699907 127.363088 
L 54.72706 144.322989 
L 54.785246 113.645768 
L 54.789125 114.33384 
L 54.793004 115.227121 
L 54.878343 110.267613 
L 54.882222 110.30209 
L 55.145997 108.780047 
L 55.157634 108.78541 
L 55.270127 108.708311 
L 55.21582 108.87424 
L 55.289522 108.721889 
L 55.518385 108.734307 
L 55.301159 108.698664 
L 55.522264 108.717362 
L 55.533902 108.731082 
L 55.70458 108.652968 
L 55.859741 108.674094 
L 55.991629 108.673479 
L 56.127395 108.678888 
L 56.437719 108.736664 
L 56.604518 109.300421 
L 56.620034 109.289254 
L 56.658824 109.004465 
L 56.693736 109.476401 
L 56.713131 109.439353 
L 56.720889 109.593163 
L 56.779075 109.026966 
L 56.813986 109.24662 
L 56.953632 108.751835 
L 57.007938 108.697233 
L 57.062245 108.780478 
L 57.135947 108.70306 
L 57.093277 108.786284 
L 57.178616 108.745916 
L 57.294988 108.709539 
L 57.217407 108.763145 
L 57.298867 108.715487 
L 58.132861 108.640729 
L 70.305301 108.638356 
L 442.6043 108.638356 
L 442.6043 108.638356 
" clip-path="url(#pcc5bc55b0c)" style="fill: none; stroke: #00fbff; stroke-width: 1.5; stroke-linecap: square"/>
   </g>
   <g id="line2d_32">
    <path d="M 54.699907 125.850243 
L 54.796883 114.135703 
L 54.882222 116.850797 
L 54.886101 117.436831 
L 54.944287 112.043338 
L 54.959803 112.366212 
L 55.080053 110.448056 
L 54.967561 112.507695 
L 55.087812 110.745479 
L 55.180909 112.014446 
L 55.103328 110.215129 
L 55.208062 111.191115 
L 55.219699 110.731525 
L 55.289522 113.446098 
L 55.293401 113.422638 
L 55.363224 115.812528 
L 55.382619 112.851835 
L 55.409772 114.312715 
L 55.429167 113.25738 
L 55.475716 116.4428 
L 55.638636 122.246036 
L 55.677426 120.08451 
L 55.7007 116.128968 
L 55.797677 118.831893 
L 55.859741 121.204741 
L 55.82483 117.852253 
L 55.914048 119.84853 
L 55.917927 119.162231 
L 55.964475 122.413449 
L 56.011024 122.149627 
L 56.100242 123.408431 
L 56.049814 120.391076 
L 56.123516 122.619681 
L 56.197218 118.987012 
L 56.236009 122.38197 
L 56.247646 121.510524 
L 56.294194 119.616837 
L 56.27092 122.022466 
L 56.332985 121.244691 
L 56.410566 123.967635 
L 56.437719 120.561138 
L 56.441598 120.567541 
L 56.573485 114.869273 
L 56.480388 121.866451 
L 56.577364 115.128943 
L 56.616155 115.584925 
L 56.592881 114.274665 
L 56.639429 114.509176 
L 56.658824 112.513787 
L 56.720889 118.482384 
L 56.829502 123.404224 
L 56.732526 118.379836 
L 56.848897 122.418675 
L 56.864414 123.189625 
L 56.91872 120.013227 
L 56.945874 119.250613 
L 57.015696 122.727285 
L 57.019575 122.705059 
L 57.023454 123.292304 
L 57.035092 123.625542 
L 57.093277 120.498032 
L 57.147584 118.041655 
L 57.166979 120.629691 
L 57.209649 118.857712 
L 57.213528 119.031126 
L 57.252318 116.023651 
L 57.256197 116.168246 
L 57.263955 115.999602 
L 57.291109 117.953876 
L 57.496698 123.206388 
L 57.337657 116.759939 
L 57.508335 122.7591 
L 57.547125 123.19938 
L 57.605311 118.371646 
L 57.60919 117.504158 
L 57.698408 121.952928 
L 57.741078 123.846846 
L 57.799263 121.771776 
L 57.884602 118.997884 
L 57.8109 122.097779 
L 57.919514 119.741664 
L 58.078554 123.627927 
L 57.966062 118.482742 
L 58.082433 123.341824 
L 58.152256 121.096512 
L 58.198805 122.614569 
L 58.202684 122.548894 
L 58.214321 123.696442 
L 58.237595 123.297399 
L 58.303539 124.788022 
L 58.350087 123.956877 
L 58.384999 122.868734 
L 58.396636 121.957197 
L 58.481975 123.545276 
L 58.489733 123.34526 
L 58.497491 123.446747 
L 58.509128 122.870819 
L 58.520765 123.112589 
L 58.578951 118.165852 
L 58.648774 118.800214 
L 58.652653 119.261732 
L 58.718597 114.344961 
L 58.850484 110.437199 
L 58.873758 111.191978 
L 58.928065 110.140169 
L 59.048315 109.299997 
L 59.137533 109.702071 
L 59.07159 109.234135 
L 59.15305 109.457273 
L 59.257784 108.912761 
L 59.2733 108.915225 
L 59.463373 108.660649 
L 59.564228 108.680283 
L 59.568107 108.694675 
L 59.665083 108.773007 
L 59.6806 108.734529 
L 59.777576 108.730645 
L 59.731027 108.832987 
L 59.785334 108.756642 
L 59.905584 108.767203 
L 59.828003 108.689191 
L 59.913342 108.758664 
L 60.029714 108.66704 
L 60.033593 108.670503 
L 60.200391 108.72582 
L 60.20815 108.717796 
L 60.277972 108.769694 
L 60.347795 108.690654 
L 60.471925 108.686391 
L 60.568901 108.670958 
L 60.596054 108.697307 
L 60.906377 108.700271 
L 61.030507 108.665907 
L 61.274887 108.662304 
L 61.686065 108.687002 
L 61.82959 108.645925 
L 62.430842 108.639543 
L 65.902586 108.638645 
L 81.414883 108.638356 
L 442.6043 108.638356 
L 442.6043 108.638356 
" clip-path="url(#pcc5bc55b0c)" style="fill: none; stroke: #3e00ff; stroke-width: 1.5; stroke-linecap: square"/>
   </g>
   <g id="line2d_33">
    <path d="M 54.699907 127.909461 
L 54.703786 129.88014 
L 54.76973 112.172933 
L 54.781367 113.52183 
L 54.789125 113.961805 
L 54.901617 119.776973 
L 54.816278 112.388203 
L 54.909376 117.541331 
L 55.01411 113.261323 
L 55.025747 113.849332 
L 55.118844 113.582394 
L 55.153755 115.610426 
L 55.231336 111.242108 
L 55.17703 115.811789 
L 55.274006 112.204733 
L 55.301159 112.879955 
L 55.312796 111.615173 
L 55.398135 110.632048 
L 55.421409 111.726309 
L 55.514506 112.302151 
L 55.448563 110.639879 
L 55.533902 112.153585 
L 55.619241 111.001473 
L 55.576571 113.043079 
L 55.650273 111.745069 
L 55.654152 111.996968 
L 55.727854 109.79389 
L 55.735612 110.12075 
L 55.778281 109.929484 
L 55.801556 110.406986 
L 55.910169 112.820017 
L 55.933443 111.669871 
L 55.937322 111.317791 
L 56.011024 113.91165 
L 56.065331 119.091779 
L 56.139032 116.703117 
L 56.154549 115.276457 
L 56.23213 119.859909 
L 56.236009 119.636014 
L 56.263162 122.446757 
L 56.35238 120.903811 
L 56.356259 120.938397 
L 56.364017 120.43363 
L 56.410566 117.906961 
L 56.43384 120.867684 
L 56.476509 119.702804 
L 56.507542 120.179774 
L 56.534695 117.981978 
L 56.569606 118.576241 
L 56.670461 115.914102 
L 56.616155 119.771736 
L 56.689857 116.745257 
L 56.724768 116.404163 
L 56.736405 117.655636 
L 56.876051 121.666606 
L 56.767438 117.520795 
L 56.891567 119.400764 
L 56.899325 118.264359 
L 56.945874 122.166433 
L 56.980785 121.729197 
L 57.070003 124.972209 
L 57.101035 123.455927 
L 57.225165 119.030768 
L 57.143705 124.400284 
L 57.232923 119.077815 
L 57.368689 115.229862 
L 57.28335 119.286988 
L 57.384206 115.974702 
L 57.500577 118.442334 
L 57.473424 115.923707 
L 57.508335 118.11667 
L 57.516093 118.26149 
L 57.519972 117.685341 
L 57.640222 114.699155 
L 57.589795 118.313931 
L 57.644102 115.269119 
L 57.73332 117.494818 
L 57.675134 114.015492 
L 57.764352 115.747819 
L 57.787626 113.222198 
L 57.876844 114.836772 
L 58.167772 109.6526 
L 57.89236 114.83867 
L 58.198805 109.678822 
L 58.29966 111.340402 
L 58.237595 109.604752 
L 58.33845 110.389203 
L 58.46258 108.940519 
L 58.474217 108.97127 
L 58.489733 108.874156 
L 58.555677 109.489484 
L 58.74575 108.985853 
L 58.772903 109.137679 
L 58.823331 109.373822 
L 58.866 108.986228 
L 58.877637 109.056325 
L 58.962976 108.741897 
L 59.021162 108.943776 
L 59.02892 108.979622 
L 59.059953 108.83293 
L 59.125896 108.928052 
L 59.23451 108.721993 
L 59.149171 108.945629 
L 59.261663 108.746199 
L 59.265542 108.757301 
L 59.319848 108.694527 
L 59.358639 108.703302 
L 59.471131 108.692246 
L 59.374155 108.719898 
L 59.47501 108.699036 
L 59.59914 108.714853 
L 59.603019 108.711369 
L 59.734906 108.712453 
L 59.626293 108.743577 
L 59.738785 108.732072 
L 59.870673 108.939471 
L 59.878431 108.926353 
L 59.998681 108.709392 
L 59.890068 108.938541 
L 60.006439 108.718987 
L 60.122811 108.707907 
L 60.12669 108.701173 
L 60.16548 108.720647 
L 60.254698 108.661369 
L 60.421497 108.667956 
L 60.592175 108.667679 
L 60.747337 108.651036 
L 61.251612 108.638976 
L 67.02363 108.638356 
L 442.6043 108.638356 
L 442.6043 108.638356 
" clip-path="url(#pcc5bc55b0c)" style="fill: none; stroke: #e64500; stroke-width: 1.5; stroke-linecap: square"/>
   </g>
   <g id="line2d_34">
    <path d="M 54.699907 126.483038 
L 54.703786 128.850314 
L 54.773609 112.450182 
L 54.785246 112.565445 
L 54.847311 110.117175 
L 54.897738 112.084875 
L 54.955924 114.169789 
L 55.010231 113.583552 
L 55.091691 111.711439 
L 55.13436 112.320546 
L 55.138239 112.679246 
L 55.200304 110.674689 
L 55.227457 111.118609 
L 55.231336 110.821748 
L 55.266248 112.551566 
L 55.324433 111.714707 
L 55.332191 112.219493 
L 55.425288 110.955561 
L 55.483474 112.248409 
L 55.518385 110.8518 
L 55.537781 111.472737 
L 55.595966 110.18114 
L 55.650273 111.066963 
L 55.716217 109.904297 
L 55.778281 110.295697 
L 55.809314 109.873517 
L 55.786039 110.496349 
L 55.840346 110.414754 
L 55.925685 111.725352 
L 55.848104 110.397404 
L 55.960596 111.064082 
L 56.034298 111.111261 
L 56.080847 110.09097 
L 56.123516 111.278577 
L 56.177823 109.855792 
L 56.290315 109.244227 
L 56.201097 110.05015 
L 56.298073 109.343148 
L 56.30971 109.887428 
L 56.395049 108.986398 
L 56.402807 109.083577 
L 56.511421 108.801236 
L 56.523058 108.850637 
L 56.538574 108.879577 
L 56.616155 108.769441 
L 56.779075 108.693716 
L 57.062245 108.712375 
L 57.085519 108.731103 
L 57.128189 108.681234 
L 57.170858 108.710038 
L 57.217407 108.764351 
L 57.291109 108.718245 
L 57.399722 108.679467 
L 57.89236 108.643276 
L 60.545626 108.638741 
L 73.373625 108.638356 
L 442.6043 108.638356 
L 442.6043 108.638356 
" clip-path="url(#pcc5bc55b0c)" style="fill: none; stroke: #ffee00; stroke-width: 1.5; stroke-linecap: square"/>
   </g>
   <g id="line2d_35">
    <path d="M 54.699907 127.396627 
L 54.754214 168.578837 
L 54.824037 160.330895 
L 54.827916 145.997823 
L 54.901617 176.157419 
L 54.928771 175.653925 
L 54.940408 174.895589 
L 55.006352 176.755693 
L 55.025747 176.737826 
L 55.165392 176.779699 
L 55.735612 176.784291 
L 355.911548 176.784295 
L 442.6043 176.784295 
L 442.6043 176.784295 
" clip-path="url(#pcc5bc55b0c)" style="fill: none; stroke: #0078ff; stroke-width: 1.5; stroke-linecap: square"/>
   </g>
   <g id="line2d_36">
    <path d="M 54.699907 132.893624 
L 54.765851 171.192155 
L 54.73094 126.193243 
L 54.839553 143.709929 
L 54.855069 135.829581 
L 54.893859 168.096244 
L 54.913255 161.604105 
L 55.006352 171.403115 
L 54.994714 156.276539 
L 55.025747 163.584656 
L 55.033505 151.962166 
L 55.103328 173.968846 
L 55.130481 170.556082 
L 55.157634 173.937432 
L 55.196425 167.998212 
L 55.200304 169.252431 
L 55.266248 159.228868 
L 55.301159 173.830073 
L 55.320554 172.40362 
L 55.33607 175.422142 
L 55.363224 175.071878 
L 55.448563 176.450191 
L 55.374861 174.67816 
L 55.475716 176.304798 
L 55.526144 176.49497 
L 55.483474 176.164078 
L 55.553297 176.331818 
L 55.584329 175.435284 
L 55.654152 176.748561 
L 55.778281 176.638656 
L 55.78216 176.697097 
L 55.789919 176.711695 
L 55.801556 176.646998 
L 55.809314 176.513986 
L 55.902411 176.776501 
L 55.90629 176.775186 
L 56.22825 176.783997 
L 76.325577 176.784295 
L 442.6043 176.784295 
L 442.6043 176.784295 
" clip-path="url(#pcc5bc55b0c)" style="fill: none; stroke: #ff0037; stroke-width: 1.5; stroke-linecap: square"/>
   </g>
   <g id="line2d_37">
    <path d="M 54.699907 118.241996 
L 54.707665 118.476164 
L 54.831795 109.586812 
L 54.924892 109.701846 
L 54.886101 109.12666 
L 54.936529 109.527987 
L 55.041263 109.158022 
L 55.072295 109.313489 
L 55.076174 109.415995 
L 55.157634 109.052058 
L 55.180909 109.264279 
L 55.200304 109.603202 
L 55.25461 110.637141 
L 55.316675 109.989655 
L 55.332191 110.115391 
L 55.370982 109.381977 
L 55.394256 109.608906 
L 55.510627 109.187998 
L 55.413651 109.645553 
L 55.530023 109.413772 
L 55.642515 109.916692 
L 55.650273 109.779762 
L 55.770523 109.29712 
L 55.78216 109.405741 
L 55.828709 109.838643 
L 55.875257 109.139033 
L 55.886895 109.282614 
L 55.991629 109.014004 
L 55.910169 109.426363 
L 56.014903 109.095022 
L 56.073089 109.369006 
L 56.111879 108.964647 
L 56.115758 108.99376 
L 56.146791 108.818963 
L 56.23213 108.88921 
L 56.356259 108.974013 
L 56.27092 108.811243 
L 56.360138 108.88713 
L 56.464872 108.722949 
L 56.484267 108.747623 
L 56.616155 108.665437 
L 56.643308 108.691227 
L 56.775196 108.648391 
L 149.014981 108.638356 
L 442.6043 108.638356 
L 442.6043 108.638356 
" clip-path="url(#pcc5bc55b0c)" style="fill: none; stroke: #e1ff00; stroke-width: 1.5; stroke-linecap: square"/>
   </g>
   <g id="patch_8">
    <path d="M 35.304688 180.191592 
L 35.304688 105.231059 
" style="fill: none; stroke: #000000; stroke-width: 0.8; stroke-linejoin: miter; stroke-linecap: square"/>
   </g>
   <g id="patch_9">
    <path d="M 461.99952 180.191592 
L 461.99952 105.231059 
" style="fill: none; stroke: #000000; stroke-width: 0.8; stroke-linejoin: miter; stroke-linecap: square"/>
   </g>
   <g id="patch_10">
    <path d="M 35.304688 180.191592 
L 461.99952 180.191592 
" style="fill: none; stroke: #000000; stroke-width: 0.8; stroke-linejoin: miter; stroke-linecap: square"/>
   </g>
   <g id="patch_11">
    <path d="M 35.304688 105.231059 
L 461.99952 105.231059 
" style="fill: none; stroke: #000000; stroke-width: 0.8; stroke-linejoin: miter; stroke-linecap: square"/>
   </g>
  </g>
  <g id="axes_3">
   <g id="patch_12">
    <path d="M 30.103125 88.028822 
L 228.998739 88.028822 
L 228.998739 7.33421 
L 30.103125 7.33421 
z
" style="fill: #ffffff"/>
   </g>
   <g id="matplotlib.axis_5">
    <g id="xtick_13">
     <g id="line2d_38">
      <g>
       <use xlink:href="#m95779853f5" x="39.143835" y="88.028822" style="stroke: #000000; stroke-width: 0.8"/>
      </g>
     </g>
     <g id="text_18">
      <!-- 0 -->
      <g transform="translate(35.962585 102.627259) scale(0.1 -0.1)">
       <use xlink:href="#DejaVuSans-30"/>
      </g>
     </g>
    </g>
    <g id="xtick_14">
     <g id="line2d_39">
      <g>
       <use xlink:href="#m95779853f5" x="75.306674" y="88.028822" style="stroke: #000000; stroke-width: 0.8"/>
      </g>
     </g>
     <g id="text_19">
      <!-- 2 -->
      <g transform="translate(72.125424 102.627259) scale(0.1 -0.1)">
       <use xlink:href="#DejaVuSans-32"/>
      </g>
     </g>
    </g>
    <g id="xtick_15">
     <g id="line2d_40">
      <g>
       <use xlink:href="#m95779853f5" x="111.469512" y="88.028822" style="stroke: #000000; stroke-width: 0.8"/>
      </g>
     </g>
     <g id="text_20">
      <!-- 4 -->
      <g transform="translate(108.288262 102.627259) scale(0.1 -0.1)">
       <use xlink:href="#DejaVuSans-34"/>
      </g>
     </g>
    </g>
    <g id="xtick_16">
     <g id="line2d_41">
      <g>
       <use xlink:href="#m95779853f5" x="147.632351" y="88.028822" style="stroke: #000000; stroke-width: 0.8"/>
      </g>
     </g>
     <g id="text_21">
      <!-- 6 -->
      <g transform="translate(144.451101 102.627259) scale(0.1 -0.1)">
       <use xlink:href="#DejaVuSans-36"/>
      </g>
     </g>
    </g>
    <g id="xtick_17">
     <g id="line2d_42">
      <g>
       <use xlink:href="#m95779853f5" x="183.79519" y="88.028822" style="stroke: #000000; stroke-width: 0.8"/>
      </g>
     </g>
     <g id="text_22">
      <!-- 8 -->
      <g transform="translate(180.61394 102.627259) scale(0.1 -0.1)">
       <use xlink:href="#DejaVuSans-38"/>
      </g>
     </g>
    </g>
    <g id="xtick_18">
     <g id="line2d_43">
      <g>
       <use xlink:href="#m95779853f5" x="219.958029" y="88.028822" style="stroke: #000000; stroke-width: 0.8"/>
      </g>
     </g>
     <g id="text_23">
      <!-- 10 -->
      <g transform="translate(213.595529 102.627259) scale(0.1 -0.1)">
       <use xlink:href="#DejaVuSans-31"/>
       <use xlink:href="#DejaVuSans-30" transform="translate(63.623047 0)"/>
      </g>
     </g>
    </g>
   </g>
   <g id="matplotlib.axis_6">
    <g id="ytick_6">
     <g id="line2d_44">
      <g>
       <use xlink:href="#mbf23547008" x="30.103125" y="84.360885" style="stroke: #000000; stroke-width: 0.8"/>
      </g>
     </g>
     <g id="text_24">
      <!-- 0.0 -->
      <g transform="translate(7.2 88.160104) scale(0.1 -0.1)">
       <use xlink:href="#DejaVuSans-30"/>
       <use xlink:href="#DejaVuSans-2e" transform="translate(63.623047 0)"/>
       <use xlink:href="#DejaVuSans-30" transform="translate(95.410156 0)"/>
      </g>
     </g>
    </g>
    <g id="ytick_7">
     <g id="line2d_45">
      <g>
       <use xlink:href="#mbf23547008" x="30.103125" y="47.681516" style="stroke: #000000; stroke-width: 0.8"/>
      </g>
     </g>
     <g id="text_25">
      <!-- 0.5 -->
      <g transform="translate(7.2 51.480735) scale(0.1 -0.1)">
       <use xlink:href="#DejaVuSans-30"/>
       <use xlink:href="#DejaVuSans-2e" transform="translate(63.623047 0)"/>
       <use xlink:href="#DejaVuSans-35" transform="translate(95.410156 0)"/>
      </g>
     </g>
    </g>
    <g id="ytick_8">
     <g id="line2d_46">
      <g>
       <use xlink:href="#mbf23547008" x="30.103125" y="11.002147" style="stroke: #000000; stroke-width: 0.8"/>
      </g>
     </g>
     <g id="text_26">
      <!-- 1.0 -->
      <g transform="translate(7.2 14.801366) scale(0.1 -0.1)">
       <use xlink:href="#DejaVuSans-31"/>
       <use xlink:href="#DejaVuSans-2e" transform="translate(63.623047 0)"/>
       <use xlink:href="#DejaVuSans-30" transform="translate(95.410156 0)"/>
      </g>
     </g>
    </g>
   </g>
   <g id="line2d_47">
    <path d="M 39.143835 59.388418 
L 39.248707 84.213537 
L 39.156492 47.169966 
L 39.263172 83.351034 
L 39.384318 84.350326 
L 39.275829 80.518522 
L 39.386126 84.341271 
L 39.406015 84.225763 
L 39.44037 84.356951 
L 39.494614 84.35188 
L 39.61576 84.360191 
L 45.34757 84.360885 
L 219.958029 84.360885 
L 219.958029 84.360885 
" clip-path="url(#p5736847a68)" style="fill: none; stroke: #00ff00; stroke-width: 1.5; stroke-linecap: square"/>
   </g>
   <g id="line2d_48">
    <path d="M 39.143835 55.822816 
L 39.189038 76.491697 
L 39.252323 48.607349 
L 39.453027 84.347154 
L 39.283062 34.073388 
L 39.456643 84.332172 
L 39.579597 83.383655 
L 39.487382 84.341974 
L 39.617568 84.120854 
L 39.622992 84.204513 
L 39.662771 82.751498 
L 39.731481 74.836704 
L 39.706167 84.047344 
L 39.769452 83.511589 
L 39.798382 83.992892 
L 39.818272 77.571878 
L 39.847202 60.88294 
L 39.870708 82.75284 
L 39.901446 82.380731 
L 39.966539 84.260311 
L 40.015359 84.001352 
L 40.111191 84.347368 
L 40.075028 83.730967 
L 40.129272 84.322563 
L 40.138313 84.282614 
L 40.507174 84.360885 
L 219.958029 84.360885 
L 219.958029 84.360885 
" clip-path="url(#p5736847a68)" style="fill: none; stroke: #358763; stroke-width: 1.5; stroke-linecap: square"/>
   </g>
   <g id="line2d_49">
    <path d="M 39.143835 57.474993 
L 39.196271 21.175589 
L 39.25594 51.040051 
L 39.395166 84.358629 
L 39.259556 50.587014 
L 39.398783 84.355739 
L 39.541626 84.348734 
L 39.561516 84.359231 
L 39.651923 84.36074 
L 66.430505 84.360885 
L 219.958029 84.360885 
L 219.958029 84.360885 
" clip-path="url(#p5736847a68)" style="fill: none; stroke: #e78a18; stroke-width: 1.5; stroke-linecap: square"/>
   </g>
   <g id="line2d_50">
    <path d="M 39.143835 68.176244 
L 39.156492 49.721401 
L 39.239666 84.360305 
L 39.241474 84.360234 
L 39.80019 84.360885 
L 219.958029 84.360885 
L 219.958029 84.360885 
" clip-path="url(#p5736847a68)" style="fill: none; stroke: #00fbff; stroke-width: 1.5; stroke-linecap: square"/>
   </g>
   <g id="line2d_51">
    <path d="M 39.143835 74.899286 
L 39.281254 84.360847 
L 39.283062 84.360828 
L 47.148479 84.360885 
L 219.958029 84.360885 
L 219.958029 84.360885 
" clip-path="url(#p5736847a68)" style="fill: none; stroke: #3e00ff; stroke-width: 1.5; stroke-linecap: square"/>
   </g>
   <g id="line2d_52">
    <path d="M 39.143835 68.390489 
L 39.145643 66.315863 
L 39.198079 84.102553 
L 39.241474 82.629815 
L 39.344538 84.357233 
L 39.355387 84.347971 
L 39.471108 84.360885 
L 219.958029 84.360885 
L 219.958029 84.360885 
" clip-path="url(#p5736847a68)" style="fill: none; stroke: #e64500; stroke-width: 1.5; stroke-linecap: square"/>
   </g>
   <g id="line2d_53">
    <path d="M 39.143835 70.536661 
L 39.145643 68.052748 
L 39.212544 84.358755 
L 39.243283 84.231784 
L 39.357195 84.36047 
L 219.958029 84.360885 
L 219.958029 84.360885 
" clip-path="url(#p5736847a68)" style="fill: none; stroke: #ffee00; stroke-width: 1.5; stroke-linecap: square"/>
   </g>
   <g id="line2d_54">
    <path d="M 39.143835 66.507955 
L 39.270405 11.254461 
L 39.344538 11.003183 
L 39.395166 11.022874 
L 39.619376 11.002158 
L 109.708382 11.002147 
L 219.958029 11.002147 
L 219.958029 11.002147 
" clip-path="url(#p5736847a68)" style="fill: none; stroke: #0078ff; stroke-width: 1.5; stroke-linecap: square"/>
   </g>
   <g id="line2d_55">
    <path d="M 39.143835 66.434465 
L 39.174573 18.823408 
L 39.1583 74.60808 
L 39.295719 30.184897 
L 39.299335 46.839767 
L 39.331881 15.145656 
L 39.407823 36.868775 
L 39.521736 11.464568 
L 39.523545 11.665964 
L 39.610335 11.049169 
L 39.556091 12.998583 
L 39.639266 11.100424 
L 39.660963 11.402246 
L 39.735097 11.009041 
L 39.747754 11.016893 
L 40.28658 11.002147 
L 219.958029 11.002147 
L 219.958029 11.002147 
" clip-path="url(#p5736847a68)" style="fill: none; stroke: #ff0037; stroke-width: 1.5; stroke-linecap: square"/>
   </g>
   <g id="line2d_56">
    <path d="M 39.143835 77.505306 
L 39.259556 84.360792 
L 39.147451 77.37779 
L 39.263172 84.360786 
L 46.070827 84.360885 
L 219.958029 84.360885 
L 219.958029 84.360885 
" clip-path="url(#p5736847a68)" style="fill: none; stroke: #e1ff00; stroke-width: 1.5; stroke-linecap: square"/>
   </g>
   <g id="patch_13">
    <path d="M 30.103125 88.028822 
L 30.103125 7.33421 
" style="fill: none; stroke: #000000; stroke-width: 0.8; stroke-linejoin: miter; stroke-linecap: square"/>
   </g>
   <g id="patch_14">
    <path d="M 228.998739 88.028822 
L 228.998739 7.33421 
" style="fill: none; stroke: #000000; stroke-width: 0.8; stroke-linejoin: miter; stroke-linecap: square"/>
   </g>
   <g id="patch_15">
    <path d="M 30.103125 88.028822 
L 228.998739 88.028822 
" style="fill: none; stroke: #000000; stroke-width: 0.8; stroke-linejoin: miter; stroke-linecap: square"/>
   </g>
   <g id="patch_16">
    <path d="M 30.103125 7.33421 
L 228.998739 7.33421 
" style="fill: none; stroke: #000000; stroke-width: 0.8; stroke-linejoin: miter; stroke-linecap: square"/>
   </g>
  </g>
  <g id="axes_4">
   <g id="patch_17">
    <path d="M 263.103906 88.028822 
L 461.99952 88.028822 
L 461.99952 7.33421 
L 263.103906 7.33421 
z
" style="fill: #ffffff"/>
   </g>
   <g id="matplotlib.axis_7">
    <g id="xtick_19">
     <g id="line2d_57">
      <g>
       <use xlink:href="#m95779853f5" x="272.144616" y="88.028822" style="stroke: #000000; stroke-width: 0.8"/>
      </g>
     </g>
     <g id="text_27">
      <!-- 0 -->
      <g transform="translate(268.963366 102.627259) scale(0.1 -0.1)">
       <use xlink:href="#DejaVuSans-30"/>
      </g>
     </g>
    </g>
    <g id="xtick_20">
     <g id="line2d_58">
      <g>
       <use xlink:href="#m95779853f5" x="308.307455" y="88.028822" style="stroke: #000000; stroke-width: 0.8"/>
      </g>
     </g>
     <g id="text_28">
      <!-- 2 -->
      <g transform="translate(305.126205 102.627259) scale(0.1 -0.1)">
       <use xlink:href="#DejaVuSans-32"/>
      </g>
     </g>
    </g>
    <g id="xtick_21">
     <g id="line2d_59">
      <g>
       <use xlink:href="#m95779853f5" x="344.470294" y="88.028822" style="stroke: #000000; stroke-width: 0.8"/>
      </g>
     </g>
     <g id="text_29">
      <!-- 4 -->
      <g transform="translate(341.289044 102.627259) scale(0.1 -0.1)">
       <use xlink:href="#DejaVuSans-34"/>
      </g>
     </g>
    </g>
    <g id="xtick_22">
     <g id="line2d_60">
      <g>
       <use xlink:href="#m95779853f5" x="380.633133" y="88.028822" style="stroke: #000000; stroke-width: 0.8"/>
      </g>
     </g>
     <g id="text_30">
      <!-- 6 -->
      <g transform="translate(377.451883 102.627259) scale(0.1 -0.1)">
       <use xlink:href="#DejaVuSans-36"/>
      </g>
     </g>
    </g>
    <g id="xtick_23">
     <g id="line2d_61">
      <g>
       <use xlink:href="#m95779853f5" x="416.795971" y="88.028822" style="stroke: #000000; stroke-width: 0.8"/>
      </g>
     </g>
     <g id="text_31">
      <!-- 8 -->
      <g transform="translate(413.614721 102.627259) scale(0.1 -0.1)">
       <use xlink:href="#DejaVuSans-38"/>
      </g>
     </g>
    </g>
    <g id="xtick_24">
     <g id="line2d_62">
      <g>
       <use xlink:href="#m95779853f5" x="452.95881" y="88.028822" style="stroke: #000000; stroke-width: 0.8"/>
      </g>
     </g>
     <g id="text_32">
      <!-- 10 -->
      <g transform="translate(446.59631 102.627259) scale(0.1 -0.1)">
       <use xlink:href="#DejaVuSans-31"/>
       <use xlink:href="#DejaVuSans-30" transform="translate(63.623047 0)"/>
      </g>
     </g>
    </g>
   </g>
   <g id="matplotlib.axis_8">
    <g id="ytick_9">
     <g id="line2d_63">
      <g>
       <use xlink:href="#mbf23547008" x="263.103906" y="67.688445" style="stroke: #000000; stroke-width: 0.8"/>
      </g>
     </g>
     <g id="text_33">
      <!-- −10 -->
      <g transform="translate(234.999219 71.487663) scale(0.1 -0.1)">
       <use xlink:href="#DejaVuSans-2212"/>
       <use xlink:href="#DejaVuSans-31" transform="translate(83.789062 0)"/>
       <use xlink:href="#DejaVuSans-30" transform="translate(147.412109 0)"/>
      </g>
     </g>
    </g>
    <g id="ytick_10">
     <g id="line2d_64">
      <g>
       <use xlink:href="#mbf23547008" x="263.103906" y="34.343564" style="stroke: #000000; stroke-width: 0.8"/>
      </g>
     </g>
     <g id="text_34">
      <!-- 0 -->
      <g transform="translate(249.741406 38.142783) scale(0.1 -0.1)">
       <use xlink:href="#DejaVuSans-30"/>
      </g>
     </g>
    </g>
   </g>
   <g id="line2d_65">
    <path d="M 272.144616 40.962866 
L 272.206093 15.501934 
L 272.157273 52.796725 
L 272.262145 20.637768 
L 272.27661 26.231246 
L 272.309157 18.947599 
L 272.370634 20.418463 
L 272.372442 20.274481 
L 272.410413 25.768346 
L 272.424878 24.721079 
L 272.493587 27.249977 
L 272.441151 22.379825 
L 272.527942 24.102239 
L 272.52975 23.501697 
L 272.621965 29.024685 
L 272.737687 30.39317 
L 272.645471 28.184896 
L 272.741303 30.289748 
L 272.746727 30.219991 
L 272.752152 30.364749 
L 272.882338 30.957555 
L 272.967321 30.914742 
L 272.996251 30.967614 
L 273.111972 30.904598 
L 273.11378 30.873267 
L 273.171641 30.853282 
L 273.148135 30.930718 
L 273.222269 30.886277 
L 273.274705 30.976424 
L 273.332565 30.883539 
L 273.34703 30.790381 
L 273.392234 30.943561 
L 273.448286 30.875178 
L 273.460943 30.927179 
L 273.479025 30.770103 
L 273.554967 30.851787 
L 273.556775 30.801218 
L 273.629101 30.971636 
L 273.661647 30.940376 
L 273.77556 30.99699 
L 273.683345 30.884757 
L 273.779176 30.993239 
L 273.90213 30.995518 
L 273.903938 30.997378 
L 274.059438 30.992262 
L 274.357782 31.007909 
L 277.476827 31.009076 
L 452.95881 31.009076 
L 452.95881 31.009076 
" clip-path="url(#pfe75816af1)" style="fill: none; stroke: #00ff00; stroke-width: 1.5; stroke-linecap: square"/>
   </g>
   <g id="line2d_66">
    <path d="M 272.144616 48.813998 
L 272.18982 32.484885 
L 272.253104 56.412789 
L 272.415837 29.355394 
L 272.283843 67.402355 
L 272.457425 29.944465 
L 272.580378 31.668533 
L 272.591227 31.332808 
L 272.623774 31.068564 
L 272.667169 32.959751 
L 272.701524 31.263239 
L 272.847983 48.083758 
L 272.706948 31.224678 
L 272.855216 35.108041 
L 272.967321 31.081804 
L 272.891379 36.847563 
L 273.010716 31.223733 
L 273.034222 31.094944 
L 273.072193 31.286436 
L 273.074001 31.224284 
L 273.075809 31.467155 
L 273.180681 31.014402 
L 273.182489 31.016061 
L 273.312676 31.008862 
L 279.729771 31.009076 
L 452.95881 31.009076 
L 452.95881 31.009076 
" clip-path="url(#pfe75816af1)" style="fill: none; stroke: #358763; stroke-width: 1.5; stroke-linecap: square"/>
   </g>
   <g id="line2d_67">
    <path d="M 272.144616 47.836877 
L 272.197052 76.815794 
L 272.256721 54.707946 
L 272.395948 26.692841 
L 272.260337 55.073538 
L 272.40318 27.137262 
L 272.410413 26.327968 
L 272.486355 29.85981 
L 272.488163 29.83816 
L 272.620157 30.805417 
L 272.665361 30.540153 
L 272.715989 30.867448 
L 272.835326 30.992104 
L 273.050495 31.006424 
L 274.900224 31.009076 
L 452.95881 31.009076 
L 452.95881 31.009076 
" clip-path="url(#pfe75816af1)" style="fill: none; stroke: #e78a18; stroke-width: 1.5; stroke-linecap: square"/>
   </g>
   <g id="line2d_68">
    <path d="M 272.144616 31.159221 
L 272.157273 49.416463 
L 272.238639 12.032623 
L 272.240447 12.037826 
L 272.242256 12.088254 
L 272.318198 11.196826 
L 272.320006 11.203031 
L 272.452 11.067036 
L 272.338087 11.279646 
L 272.461041 11.098959 
L 272.591227 11.031481 
L 272.70514 11.033643 
L 272.706948 11.035791 
L 272.819053 11.057352 
L 272.764809 11.023673 
L 272.820861 11.049709 
L 273.074001 11.904298 
L 272.833518 11.043331 
L 273.083042 11.864416 
L 273.086658 12.029992 
L 273.178873 11.201052 
L 273.22046 11.065528 
L 273.296402 11.091954 
L 273.410315 11.053985 
L 273.3181 11.136482 
L 273.413932 11.072247 
L 273.41574 11.093258 
L 273.518804 11.024896 
L 273.520612 11.02686 
L 273.650798 11.009685 
L 273.844269 11.002826 
L 283.374986 11.002147 
L 452.95881 11.002147 
L 452.95881 11.002147 
" clip-path="url(#pfe75816af1)" style="fill: none; stroke: #00fbff; stroke-width: 1.5; stroke-linecap: square"/>
   </g>
   <g id="line2d_69">
    <path d="M 272.144616 29.530651 
L 272.294692 13.016425 
L 272.314581 13.419498 
L 272.453808 18.725104 
L 272.332663 12.699535 
L 272.461041 16.470245 
L 272.462849 15.537935 
L 272.556872 23.478894 
L 272.55868 23.473127 
L 272.582186 25.650742 
L 272.611117 19.065751 
L 272.667169 22.363212 
L 272.668977 20.920857 
L 272.757576 25.930023 
L 272.773849 23.653888 
L 272.797355 26.902054 
L 272.842559 22.14242 
L 272.884146 24.468975 
L 272.999867 21.59161 
L 272.942007 27.504034 
L 273.005292 22.352876 
L 273.0071 22.364908 
L 273.008908 21.971838 
L 273.057728 15.174028 
L 273.108356 24.056273 
L 273.110164 23.738132 
L 273.233117 27.135773 
L 273.19153 22.426185 
L 273.236734 26.763442 
L 273.339798 18.926489 
L 273.24035 26.843204 
L 273.377769 21.070336 
L 273.448286 26.684555 
L 273.497106 22.897779 
L 273.500722 20.546136 
L 273.562199 27.374005 
L 273.605595 24.16911 
L 273.609211 24.554977 
L 273.623676 23.543553 
L 273.667071 21.599576 
L 273.719508 27.13834 
L 273.728548 25.549925 
L 273.82438 28.387176 
L 273.753862 24.413285 
L 273.846078 27.492453 
L 273.947333 23.526861 
L 274.072095 14.096036 
L 274.182392 11.6435 
L 274.198665 11.841405 
L 274.21313 12.147231 
L 274.303537 11.184289 
L 274.468078 11.092861 
L 274.487968 11.176754 
L 274.489776 11.211667 
L 274.53498 11.056871 
L 274.59284 11.077221 
L 274.968934 11.024987 
L 275.068381 11.026257 
L 275.028602 11.073505 
L 275.082847 11.032291 
L 275.2058 11.02586 
L 275.211225 11.029316 
L 275.650603 11.00995 
L 275.825993 11.002705 
L 279.554382 11.002149 
L 452.95881 11.002147 
L 452.95881 11.002147 
" clip-path="url(#pfe75816af1)" style="fill: none; stroke: #3e00ff; stroke-width: 1.5; stroke-linecap: square"/>
   </g>
   <g id="line2d_70">
    <path d="M 272.144616 31.747388 
L 272.146424 33.868814 
L 272.177163 14.8071 
L 272.244064 18.605644 
L 272.291075 15.978746 
L 272.254913 19.747105 
L 272.35436 18.255212 
L 272.367017 18.72431 
L 272.432111 13.691246 
L 272.470082 13.148346 
L 272.524326 14.946203 
L 272.531558 14.418479 
L 272.553256 15.743808 
L 272.623774 12.246073 
L 272.632814 12.421983 
L 272.873297 25.866817 
L 272.647279 12.392039 
L 272.967321 22.600177 
L 273.063152 18.834448 
L 272.98721 23.426422 
L 273.083042 20.393456 
L 273.088466 19.361997 
L 273.111972 21.755298 
L 273.117396 21.654236 
L 273.14271 20.566301 
L 273.249391 28.585452 
L 273.388618 18.097868 
L 273.450094 21.556077 
L 273.506147 18.677026 
L 273.583897 15.936629 
L 273.558583 20.536081 
L 273.618252 17.258837 
L 273.621868 18.421197 
L 273.710467 12.68139 
L 273.715891 12.738534 
L 273.730356 14.014638 
L 273.793641 12.042467 
L 273.829804 13.098708 
L 273.835229 13.288561 
L 273.864159 12.057657 
L 273.911171 11.255985 
L 273.978072 11.762612 
L 274.115491 11.195609 
L 274.066671 11.793872 
L 274.117299 11.218161 
L 274.131764 11.113608 
L 274.160694 11.36942 
L 274.216747 11.266043 
L 274.218555 11.332925 
L 274.318003 11.058285 
L 274.321619 11.075073 
L 274.404793 11.095404 
L 274.357782 11.056108 
L 274.431916 11.076551 
L 274.484352 11.066181 
L 274.51509 11.166846 
L 274.516898 11.165703 
L 274.56391 11.325294 
L 274.522323 11.14274 
L 274.605497 11.127985 
L 274.721218 11.033538 
L 274.87491 11.029362 
L 274.918306 11.043857 
L 274.898416 11.019316 
L 274.985207 11.013545 
L 275.453516 11.00224 
L 289.902378 11.002147 
L 452.95881 11.002147 
L 452.95881 11.002147 
" clip-path="url(#pfe75816af1)" style="fill: none; stroke: #e64500; stroke-width: 1.5; stroke-linecap: square"/>
   </g>
   <g id="line2d_71">
    <path d="M 272.144616 30.211851 
L 272.146424 32.760212 
L 272.213325 12.594088 
L 272.244064 16.614907 
L 272.327238 14.310305 
L 272.263953 16.956705 
L 272.357977 15.240411 
L 272.359785 15.306011 
L 272.377866 13.194249 
L 272.446576 14.557929 
L 272.562297 12.662946 
L 272.509861 14.88835 
L 272.565913 13.429601 
L 272.567721 13.651882 
L 272.661745 12.331791 
L 272.668977 12.497502 
L 272.715989 14.325282 
L 272.781082 12.992662 
L 272.885954 11.654364 
L 272.808204 13.84433 
L 272.894995 12.346767 
L 273.01614 11.168198 
L 273.028797 11.183901 
L 273.034222 11.215995 
L 273.09389 11.063936 
L 273.11378 11.061742 
L 273.231309 11.059805 
L 273.1626 11.147825 
L 273.254815 11.099362 
L 273.365112 11.11062 
L 273.276513 11.048305 
L 273.370536 11.081063 
L 273.480833 11.01898 
L 273.430205 11.10908 
L 273.488065 11.022736 
L 273.661647 11.00561 
L 274.820666 11.002494 
L 284.107283 11.002147 
L 452.95881 11.002147 
L 452.95881 11.002147 
" clip-path="url(#pfe75816af1)" style="fill: none; stroke: #ffee00; stroke-width: 1.5; stroke-linecap: square"/>
   </g>
   <g id="line2d_72">
    <path d="M 272.144616 31.195326 
L 272.271186 84.169839 
L 272.34532 84.360131 
L 272.395948 84.345767 
L 272.672593 84.36088 
L 381.996472 84.360885 
L 452.95881 84.360885 
L 452.95881 84.360885 
" clip-path="url(#pfe75816af1)" style="fill: none; stroke: #0078ff; stroke-width: 1.5; stroke-linecap: square"/>
   </g>
   <g id="line2d_73">
    <path d="M 272.144616 37.112813 
L 272.287459 78.568074 
L 272.159081 29.899889 
L 272.2965 70.151545 
L 272.300116 57.639996 
L 272.332663 81.33007 
L 272.408605 65.462562 
L 272.522518 84.024527 
L 272.524326 83.878024 
L 272.611117 84.326687 
L 272.556872 82.908683 
L 272.640047 84.28941 
L 272.661745 84.069899 
L 272.735878 84.355871 
L 272.748535 84.350161 
L 273.457327 84.360885 
L 452.95881 84.360885 
L 452.95881 84.360885 
" clip-path="url(#pfe75816af1)" style="fill: none; stroke: #ff0037; stroke-width: 1.5; stroke-linecap: square"/>
   </g>
   <g id="line2d_74">
    <path d="M 272.144616 21.340414 
L 272.231407 11.527804 
L 272.148232 21.592495 
L 272.265761 11.729969 
L 272.27661 11.962824 
L 272.352552 11.460059 
L 272.356169 11.478838 
L 272.357977 11.447495 
L 272.388715 12.783724 
L 272.390523 12.76809 
L 272.40318 13.153828 
L 272.457425 11.802651 
L 272.488163 11.893295 
L 272.522518 11.593834 
L 272.567721 12.341146 
L 272.582186 12.331914 
L 272.583994 12.378269 
L 272.643663 11.711303 
L 272.678018 11.946098 
L 272.746727 11.40653 
L 272.793739 11.471982 
L 272.876913 11.188259 
L 272.914884 11.280398 
L 272.916693 11.36348 
L 272.999867 11.028789 
L 273.019757 11.033166 
L 273.131861 11.009064 
L 273.05592 11.065514 
L 273.140902 11.012278 
L 273.482641 11.002671 
L 289.54075 11.002147 
L 452.95881 11.002147 
L 452.95881 11.002147 
" clip-path="url(#pfe75816af1)" style="fill: none; stroke: #e1ff00; stroke-width: 1.5; stroke-linecap: square"/>
   </g>
   <g id="patch_18">
    <path d="M 263.103906 88.028822 
L 263.103906 7.33421 
" style="fill: none; stroke: #000000; stroke-width: 0.8; stroke-linejoin: miter; stroke-linecap: square"/>
   </g>
   <g id="patch_19">
    <path d="M 461.99952 88.028822 
L 461.99952 7.33421 
" style="fill: none; stroke: #000000; stroke-width: 0.8; stroke-linejoin: miter; stroke-linecap: square"/>
   </g>
   <g id="patch_20">
    <path d="M 263.103906 88.028822 
L 461.99952 88.028822 
" style="fill: none; stroke: #000000; stroke-width: 0.8; stroke-linejoin: miter; stroke-linecap: square"/>
   </g>
   <g id="patch_21">
    <path d="M 263.103906 7.33421 
L 461.99952 7.33421 
" style="fill: none; stroke: #000000; stroke-width: 0.8; stroke-linejoin: miter; stroke-linecap: square"/>
   </g>
  </g>
 </g>
 <defs>
  <clipPath id="p2bab8dda34">
   <rect x="35.304688" y="7.591922" width="426.694833" height="74.960532"/>
  </clipPath>
  <clipPath id="pcc5bc55b0c">
   <rect x="35.304688" y="105.231059" width="426.694833" height="74.960532"/>
  </clipPath>
  <clipPath id="p5736847a68">
   <rect x="30.103125" y="7.33421" width="198.895614" height="80.694612"/>
  </clipPath>
  <clipPath id="pfe75816af1">
   <rect x="263.103906" y="7.33421" width="198.895614" height="80.694612"/>
  </clipPath>
 </defs>
</svg>
