<?xml version="1.0" encoding="utf-8" standalone="no"?>
<!DOCTYPE svg PUBLIC "-//W3C//DTD SVG 1.1//EN"
  "http://www.w3.org/Graphics/SVG/1.1/DTD/svg11.dtd">
<svg xmlns:xlink="http://www.w3.org/1999/xlink" width="469.19952pt" height="353.99952pt" viewBox="0 0 469.19952 353.99952" xmlns="http://www.w3.org/2000/svg" version="1.1">
 <metadata>
  <rdf:RDF xmlns:dc="http://purl.org/dc/elements/1.1/" xmlns:cc="http://creativecommons.org/ns#" xmlns:rdf="http://www.w3.org/1999/02/22-rdf-syntax-ns#">
   <cc:Work>
    <dc:type rdf:resource="http://purl.org/dc/dcmitype/StillImage"/>
    <dc:date>2025-12-15T15:53:36.469536</dc:date>
    <dc:format>image/svg+xml</dc:format>
    <dc:creator>
     <cc:Agent>
      <dc:title>Matplotlib v3.10.7, https://matplotlib.org/</dc:title>
     </cc:Agent>
    </dc:creator>
   </cc:Work>
  </rdf:RDF>
 </metadata>
 <defs>
  <style type="text/css">*{stroke-linejoin: round; stroke-linecap: butt}</style>
 </defs>
 <g id="figure_1">
  <g id="patch_1">
   <path d="M 0 353.99952 
L 469.19952 353.99952 
L 469.19952 0 
L 0 0 
z
" style="fill: #ffffff"/>
  </g>
  <g id="axes_1">
   <g id="patch_2">
    <path d="M 35.304688 157.321395 
L 461.99952 157.321395 
L 461.99952 7.2 
L 35.304688 7.2 
z
" style="fill: #ffffff"/>
   </g>
   <g id="matplotlib.axis_1">
    <g id="xtick_1">
     <g id="line2d_1">
      <defs>
       <path id="m47e43f772d" d="M 0 0 
L 0 3.5 
" style="stroke: #000000; stroke-width: 0.8"/>
      </defs>
      <g>
       <use xlink:href="#m47e43f772d" x="54.699907" y="157.321395" style="stroke: #000000; stroke-width: 0.8"/>
      </g>
     </g>
     <g id="text_1">
      <!-- 0 -->
      <g transform="translate(51.518657 171.919832) scale(0.1 -0.1)">
       <defs>
        <path id="DejaVuSans-30" d="M 2034 4250 
Q 1547 4250 1301 3770 
Q 1056 3291 1056 2328 
Q 1056 1369 1301 889 
Q 1547 409 2034 409 
Q 2525 409 2770 889 
Q 3016 1369 3016 2328 
Q 3016 3291 2770 3770 
Q 2525 4250 2034 4250 
z
M 2034 4750 
Q 2819 4750 3233 4129 
Q 3647 3509 3647 2328 
Q 3647 1150 3233 529 
Q 2819 -91 2034 -91 
Q 1250 -91 836 529 
Q 422 1150 422 2328 
Q 422 3509 836 4129 
Q 1250 4750 2034 4750 
z
" transform="scale(0.015625)"/>
       </defs>
       <use xlink:href="#DejaVuSans-30"/>
      </g>
     </g>
    </g>
    <g id="xtick_2">
     <g id="line2d_2">
      <g>
       <use xlink:href="#m47e43f772d" x="132.280786" y="157.321395" style="stroke: #000000; stroke-width: 0.8"/>
      </g>
     </g>
     <g id="text_2">
      <!-- 2 -->
      <g transform="translate(129.099536 171.919832) scale(0.1 -0.1)">
       <defs>
        <path id="DejaVuSans-32" d="M 1228 531 
L 3431 531 
L 3431 0 
L 469 0 
L 469 531 
Q 828 903 1448 1529 
Q 2069 2156 2228 2338 
Q 2531 2678 2651 2914 
Q 2772 3150 2772 3378 
Q 2772 3750 2511 3984 
Q 2250 4219 1831 4219 
Q 1534 4219 1204 4116 
Q 875 4013 500 3803 
L 500 4441 
Q 881 4594 1212 4672 
Q 1544 4750 1819 4750 
Q 2544 4750 2975 4387 
Q 3406 4025 3406 3419 
Q 3406 3131 3298 2873 
Q 3191 2616 2906 2266 
Q 2828 2175 2409 1742 
Q 1991 1309 1228 531 
z
" transform="scale(0.015625)"/>
       </defs>
       <use xlink:href="#DejaVuSans-32"/>
      </g>
     </g>
    </g>
    <g id="xtick_3">
     <g id="line2d_3">
      <g>
       <use xlink:href="#m47e43f772d" x="209.861664" y="157.321395" style="stroke: #000000; stroke-width: 0.8"/>
      </g>
     </g>
     <g id="text_3">
      <!-- 4 -->
      <g transform="translate(206.680414 171.919832) scale(0.1 -0.1)">
       <defs>
        <path id="DejaVuSans-34" d="M 2419 4116 
L 825 1625 
L 2419 1625 
L 2419 4116 
z
M 2253 4666 
L 3047 4666 
L 3047 1625 
L 3713 1625 
L 3713 1100 
L 3047 1100 
L 3047 0 
L 2419 0 
L 2419 1100 
L 313 1100 
L 313 1709 
L 2253 4666 
z
" transform="scale(0.015625)"/>
       </defs>
       <use xlink:href="#DejaVuSans-34"/>
      </g>
     </g>
    </g>
    <g id="xtick_4">
     <g id="line2d_4">
      <g>
       <use xlink:href="#m47e43f772d" x="287.442543" y="157.321395" style="stroke: #000000; stroke-width: 0.8"/>
      </g>
     </g>
     <g id="text_4">
      <!-- 6 -->
      <g transform="translate(284.261293 171.919832) scale(0.1 -0.1)">
       <defs>
        <path id="DejaVuSans-36" d="M 2113 2584 
Q 1688 2584 1439 2293 
Q 1191 2003 1191 1497 
Q 1191 994 1439 701 
Q 1688 409 2113 409 
Q 2538 409 2786 701 
Q 3034 994 3034 1497 
Q 3034 2003 2786 2293 
Q 2538 2584 2113 2584 
z
M 3366 4563 
L 3366 3988 
Q 3128 4100 2886 4159 
Q 2644 4219 2406 4219 
Q 1781 4219 1451 3797 
Q 1122 3375 1075 2522 
Q 1259 2794 1537 2939 
Q 1816 3084 2150 3084 
Q 2853 3084 3261 2657 
Q 3669 2231 3669 1497 
Q 3669 778 3244 343 
Q 2819 -91 2113 -91 
Q 1303 -91 875 529 
Q 447 1150 447 2328 
Q 447 3434 972 4092 
Q 1497 4750 2381 4750 
Q 2619 4750 2861 4703 
Q 3103 4656 3366 4563 
z
" transform="scale(0.015625)"/>
       </defs>
       <use xlink:href="#DejaVuSans-36"/>
      </g>
     </g>
    </g>
    <g id="xtick_5">
     <g id="line2d_5">
      <g>
       <use xlink:href="#m47e43f772d" x="365.023422" y="157.321395" style="stroke: #000000; stroke-width: 0.8"/>
      </g>
     </g>
     <g id="text_5">
      <!-- 8 -->
      <g transform="translate(361.842172 171.919832) scale(0.1 -0.1)">
       <defs>
        <path id="DejaVuSans-38" d="M 2034 2216 
Q 1584 2216 1326 1975 
Q 1069 1734 1069 1313 
Q 1069 891 1326 650 
Q 1584 409 2034 409 
Q 2484 409 2743 651 
Q 3003 894 3003 1313 
Q 3003 1734 2745 1975 
Q 2488 2216 2034 2216 
z
M 1403 2484 
Q 997 2584 770 2862 
Q 544 3141 544 3541 
Q 544 4100 942 4425 
Q 1341 4750 2034 4750 
Q 2731 4750 3128 4425 
Q 3525 4100 3525 3541 
Q 3525 3141 3298 2862 
Q 3072 2584 2669 2484 
Q 3125 2378 3379 2068 
Q 3634 1759 3634 1313 
Q 3634 634 3220 271 
Q 2806 -91 2034 -91 
Q 1263 -91 848 271 
Q 434 634 434 1313 
Q 434 1759 690 2068 
Q 947 2378 1403 2484 
z
M 1172 3481 
Q 1172 3119 1398 2916 
Q 1625 2713 2034 2713 
Q 2441 2713 2670 2916 
Q 2900 3119 2900 3481 
Q 2900 3844 2670 4047 
Q 2441 4250 2034 4250 
Q 1625 4250 1398 4047 
Q 1172 3844 1172 3481 
z
" transform="scale(0.015625)"/>
       </defs>
       <use xlink:href="#DejaVuSans-38"/>
      </g>
     </g>
    </g>
    <g id="xtick_6">
     <g id="line2d_6">
      <g>
       <use xlink:href="#m47e43f772d" x="442.6043" y="157.321395" style="stroke: #000000; stroke-width: 0.8"/>
      </g>
     </g>
     <g id="text_6">
      <!-- 10 -->
      <g transform="translate(436.2418 171.919832) scale(0.1 -0.1)">
       <defs>
        <path id="DejaVuSans-31" d="M 794 531 
L 1825 531 
L 1825 4091 
L 703 3866 
L 703 4441 
L 1819 4666 
L 2450 4666 
L 2450 531 
L 3481 531 
L 3481 0 
L 794 0 
L 794 531 
z
" transform="scale(0.015625)"/>
       </defs>
       <use xlink:href="#DejaVuSans-31"/>
       <use xlink:href="#DejaVuSans-30" transform="translate(63.623047 0)"/>
      </g>
     </g>
    </g>
   </g>
   <g id="matplotlib.axis_2">
    <g id="ytick_1">
     <g id="line2d_7">
      <defs>
       <path id="ma386c1b11b" d="M 0 0 
L -3.5 0 
" style="stroke: #000000; stroke-width: 0.8"/>
      </defs>
      <g>
       <use xlink:href="#ma386c1b11b" x="35.304688" y="150.497695" style="stroke: #000000; stroke-width: 0.8"/>
      </g>
     </g>
     <g id="text_7">
      <!-- 0.0 -->
      <g transform="translate(12.401562 154.296914) scale(0.1 -0.1)">
       <defs>
        <path id="DejaVuSans-2e" d="M 684 794 
L 1344 794 
L 1344 0 
L 684 0 
L 684 794 
z
" transform="scale(0.015625)"/>
       </defs>
       <use xlink:href="#DejaVuSans-30"/>
       <use xlink:href="#DejaVuSans-2e" transform="translate(63.623047 0)"/>
       <use xlink:href="#DejaVuSans-30" transform="translate(95.410156 0)"/>
      </g>
     </g>
    </g>
    <g id="ytick_2">
     <g id="line2d_8">
      <g>
       <use xlink:href="#ma386c1b11b" x="35.304688" y="123.202896" style="stroke: #000000; stroke-width: 0.8"/>
      </g>
     </g>
     <g id="text_8">
      <!-- 0.2 -->
      <g transform="translate(12.401562 127.002115) scale(0.1 -0.1)">
       <use xlink:href="#DejaVuSans-30"/>
       <use xlink:href="#DejaVuSans-2e" transform="translate(63.623047 0)"/>
       <use xlink:href="#DejaVuSans-32" transform="translate(95.410156 0)"/>
      </g>
     </g>
    </g>
    <g id="ytick_3">
     <g id="line2d_9">
      <g>
       <use xlink:href="#ma386c1b11b" x="35.304688" y="95.908097" style="stroke: #000000; stroke-width: 0.8"/>
      </g>
     </g>
     <g id="text_9">
      <!-- 0.4 -->
      <g transform="translate(12.401562 99.707316) scale(0.1 -0.1)">
       <use xlink:href="#DejaVuSans-30"/>
       <use xlink:href="#DejaVuSans-2e" transform="translate(63.623047 0)"/>
       <use xlink:href="#DejaVuSans-34" transform="translate(95.410156 0)"/>
      </g>
     </g>
    </g>
    <g id="ytick_4">
     <g id="line2d_10">
      <g>
       <use xlink:href="#ma386c1b11b" x="35.304688" y="68.613298" style="stroke: #000000; stroke-width: 0.8"/>
      </g>
     </g>
     <g id="text_10">
      <!-- 0.6 -->
      <g transform="translate(12.401562 72.412517) scale(0.1 -0.1)">
       <use xlink:href="#DejaVuSans-30"/>
       <use xlink:href="#DejaVuSans-2e" transform="translate(63.623047 0)"/>
       <use xlink:href="#DejaVuSans-36" transform="translate(95.410156 0)"/>
      </g>
     </g>
    </g>
    <g id="ytick_5">
     <g id="line2d_11">
      <g>
       <use xlink:href="#ma386c1b11b" x="35.304688" y="41.318499" style="stroke: #000000; stroke-width: 0.8"/>
      </g>
     </g>
     <g id="text_11">
      <!-- 0.8 -->
      <g transform="translate(12.401562 45.117718) scale(0.1 -0.1)">
       <use xlink:href="#DejaVuSans-30"/>
       <use xlink:href="#DejaVuSans-2e" transform="translate(63.623047 0)"/>
       <use xlink:href="#DejaVuSans-38" transform="translate(95.410156 0)"/>
      </g>
     </g>
    </g>
    <g id="ytick_6">
     <g id="line2d_12">
      <g>
       <use xlink:href="#ma386c1b11b" x="35.304688" y="14.0237" style="stroke: #000000; stroke-width: 0.8"/>
      </g>
     </g>
     <g id="text_12">
      <!-- 1.0 -->
      <g transform="translate(12.401562 17.822919) scale(0.1 -0.1)">
       <use xlink:href="#DejaVuSans-31"/>
       <use xlink:href="#DejaVuSans-2e" transform="translate(63.623047 0)"/>
       <use xlink:href="#DejaVuSans-30" transform="translate(95.410156 0)"/>
      </g>
     </g>
    </g>
   </g>
   <g id="line2d_13">
    <path d="M 54.699907 126.168274 
L 54.719302 114.044686 
L 54.824037 150.361641 
L 54.924892 150.468866 
L 54.93265 150.42847 
L 54.983077 149.617299 
L 55.033505 150.480013 
L 55.037384 150.46848 
L 55.0529 150.488037 
L 55.153755 150.4928 
L 55.991629 150.497694 
L 442.6043 150.497695 
L 442.6043 150.497695 
" clip-path="url(#peea507a2ee)" style="fill: none; stroke: #00ff00; stroke-width: 1.5; stroke-linecap: square"/>
   </g>
   <g id="line2d_14">
    <path d="M 54.699907 103.806932 
L 54.796883 146.479388 
L 54.816278 139.974941 
L 54.924892 148.394818 
L 54.85119 130.671346 
L 54.944287 144.439691 
L 54.959803 138.973224 
L 55.049021 150.320957 
L 55.161513 150.496565 
L 55.064537 150.297071 
L 55.173151 150.494241 
L 55.510627 150.497693 
L 442.6043 150.497695 
L 442.6043 150.497695 
" clip-path="url(#peea507a2ee)" style="fill: none; stroke: #358763; stroke-width: 1.5; stroke-linecap: square"/>
   </g>
   <g id="line2d_15">
    <path d="M 54.699907 109.499656 
L 54.812399 36.328889 
L 54.831795 45.477891 
L 54.862827 42.057004 
L 54.909376 85.811483 
L 54.917134 82.069821 
L 55.029626 145.998142 
L 55.149876 150.465635 
L 55.17703 150.420735 
L 55.293401 150.497511 
L 59.83964 150.497695 
L 442.6043 150.497695 
L 442.6043 150.497695 
" clip-path="url(#peea507a2ee)" style="fill: none; stroke: #e78a18; stroke-width: 1.5; stroke-linecap: square"/>
   </g>
   <g id="line2d_16">
    <path d="M 54.699907 112.010805 
L 54.72706 73.517213 
L 54.785246 144.884353 
L 54.793004 140.881054 
L 54.878343 150.457267 
L 54.882222 150.456628 
L 55.041263 150.497692 
L 436.754702 150.497695 
L 442.6043 150.497695 
L 442.6043 150.497695 
" clip-path="url(#peea507a2ee)" style="fill: none; stroke: #00fbff; stroke-width: 1.5; stroke-linecap: square"/>
   </g>
   <g id="line2d_17">
    <path d="M 54.699907 118.582548 
L 54.796883 150.330984 
L 54.882222 150.252404 
L 54.886101 150.151695 
L 54.944287 150.49705 
L 54.983077 150.497644 
L 101.710041 150.497695 
L 442.6043 150.497695 
L 442.6043 150.497695 
" clip-path="url(#peea507a2ee)" style="fill: none; stroke: #3e00ff; stroke-width: 1.5; stroke-linecap: square"/>
   </g>
   <g id="line2d_18">
    <path d="M 54.699907 88.947199 
L 54.719302 80.223178 
L 54.76973 145.958009 
L 54.777488 141.19017 
L 54.901617 104.212461 
L 54.816278 146.655244 
L 54.913255 134.384776 
L 55.049021 149.528679 
L 54.936529 128.770953 
L 55.056779 149.106369 
L 55.165392 150.251466 
L 55.064537 148.596569 
L 55.180909 150.222149 
L 55.487353 150.497455 
L 61.111967 150.497695 
L 442.6043 150.497695 
L 442.6043 150.497695 
" clip-path="url(#peea507a2ee)" style="fill: none; stroke: #e64500; stroke-width: 1.5; stroke-linecap: square"/>
   </g>
   <g id="line2d_19">
    <path d="M 54.699907 138.49909 
L 54.703786 136.167311 
L 54.789125 150.385896 
L 54.793004 150.364152 
L 54.847311 150.496619 
L 54.882222 150.492454 
L 55.308917 150.497691 
L 442.6043 150.497695 
L 442.6043 150.497695 
" clip-path="url(#peea507a2ee)" style="fill: none; stroke: #ffee00; stroke-width: 1.5; stroke-linecap: square"/>
   </g>
   <g id="line2d_20">
    <path d="M 54.699907 114.59061 
L 54.754214 40.188234 
L 54.824037 68.412979 
L 54.827916 96.605438 
L 54.901617 19.952958 
L 54.928771 24.634436 
L 54.940408 30.898027 
L 55.006352 14.417983 
L 55.021868 14.482709 
L 55.025747 14.661859 
L 55.118844 14.033143 
L 55.122723 14.035225 
L 55.25461 14.319405 
L 55.293401 14.067964 
L 55.33607 14.084635 
L 55.413651 14.030508 
L 56.740284 14.0237 
L 442.6043 14.0237 
L 442.6043 14.0237 
" clip-path="url(#peea507a2ee)" style="fill: none; stroke: #0078ff; stroke-width: 1.5; stroke-linecap: square"/>
   </g>
   <g id="line2d_21">
    <path d="M 54.699907 105.506526 
L 54.765851 20.751737 
L 54.73094 124.066813 
L 54.85119 60.467696 
L 54.855069 76.085238 
L 54.928771 17.161386 
L 54.952045 19.420673 
L 55.033505 24.021037 
L 55.006352 15.602563 
L 55.056779 17.300401 
L 55.060658 17.193145 
L 55.064537 19.465871 
L 55.068416 20.878622 
L 55.157634 14.395675 
L 55.161513 14.696573 
L 55.266248 15.943606 
L 55.281764 15.024936 
L 55.398135 14.061263 
L 55.522264 14.042472 
L 55.723975 14.025522 
L 57.717803 14.0237 
L 442.6043 14.0237 
L 442.6043 14.0237 
" clip-path="url(#peea507a2ee)" style="fill: none; stroke: #ff0037; stroke-width: 1.5; stroke-linecap: square"/>
   </g>
   <g id="line2d_22">
    <path d="M 54.699907 107.165927 
L 54.707665 104.379777 
L 54.839553 150.430127 
L 54.959803 150.493786 
L 57.004059 150.497695 
L 442.6043 150.497695 
L 442.6043 150.497695 
" clip-path="url(#peea507a2ee)" style="fill: none; stroke: #e1ff00; stroke-width: 1.5; stroke-linecap: square"/>
   </g>
   <g id="patch_3">
    <path d="M 35.304688 157.321395 
L 35.304688 7.2 
" style="fill: none; stroke: #000000; stroke-width: 0.8; stroke-linejoin: miter; stroke-linecap: square"/>
   </g>
   <g id="patch_4">
    <path d="M 461.99952 157.321395 
L 461.99952 7.2 
" style="fill: none; stroke: #000000; stroke-width: 0.8; stroke-linejoin: miter; stroke-linecap: square"/>
   </g>
   <g id="patch_5">
    <path d="M 35.304688 157.321395 
L 461.99952 157.321395 
" style="fill: none; stroke: #000000; stroke-width: 0.8; stroke-linejoin: miter; stroke-linecap: square"/>
   </g>
   <g id="patch_6">
    <path d="M 35.304688 7.2 
L 461.99952 7.2 
" style="fill: none; stroke: #000000; stroke-width: 0.8; stroke-linejoin: miter; stroke-linecap: square"/>
   </g>
  </g>
  <g id="axes_2">
   <g id="patch_7">
    <path d="M 35.304688 330.121395 
L 461.99952 330.121395 
L 461.99952 180 
L 35.304688 180 
z
" style="fill: #ffffff"/>
   </g>
   <g id="matplotlib.axis_3">
    <g id="xtick_7">
     <g id="line2d_23">
      <g>
       <use xlink:href="#m47e43f772d" x="54.699907" y="330.121395" style="stroke: #000000; stroke-width: 0.8"/>
      </g>
     </g>
     <g id="text_13">
      <!-- 0 -->
      <g transform="translate(51.518657 344.719832) scale(0.1 -0.1)">
       <use xlink:href="#DejaVuSans-30"/>
      </g>
     </g>
    </g>
    <g id="xtick_8">
     <g id="line2d_24">
      <g>
       <use xlink:href="#m47e43f772d" x="132.280786" y="330.121395" style="stroke: #000000; stroke-width: 0.8"/>
      </g>
     </g>
     <g id="text_14">
      <!-- 2 -->
      <g transform="translate(129.099536 344.719832) scale(0.1 -0.1)">
       <use xlink:href="#DejaVuSans-32"/>
      </g>
     </g>
    </g>
    <g id="xtick_9">
     <g id="line2d_25">
      <g>
       <use xlink:href="#m47e43f772d" x="209.861664" y="330.121395" style="stroke: #000000; stroke-width: 0.8"/>
      </g>
     </g>
     <g id="text_15">
      <!-- 4 -->
      <g transform="translate(206.680414 344.719832) scale(0.1 -0.1)">
       <use xlink:href="#DejaVuSans-34"/>
      </g>
     </g>
    </g>
    <g id="xtick_10">
     <g id="line2d_26">
      <g>
       <use xlink:href="#m47e43f772d" x="287.442543" y="330.121395" style="stroke: #000000; stroke-width: 0.8"/>
      </g>
     </g>
     <g id="text_16">
      <!-- 6 -->
      <g transform="translate(284.261293 344.719832) scale(0.1 -0.1)">
       <use xlink:href="#DejaVuSans-36"/>
      </g>
     </g>
    </g>
    <g id="xtick_11">
     <g id="line2d_27">
      <g>
       <use xlink:href="#m47e43f772d" x="365.023422" y="330.121395" style="stroke: #000000; stroke-width: 0.8"/>
      </g>
     </g>
     <g id="text_17">
      <!-- 8 -->
      <g transform="translate(361.842172 344.719832) scale(0.1 -0.1)">
       <use xlink:href="#DejaVuSans-38"/>
      </g>
     </g>
    </g>
    <g id="xtick_12">
     <g id="line2d_28">
      <g>
       <use xlink:href="#m47e43f772d" x="442.6043" y="330.121395" style="stroke: #000000; stroke-width: 0.8"/>
      </g>
     </g>
     <g id="text_18">
      <!-- 10 -->
      <g transform="translate(436.2418 344.719832) scale(0.1 -0.1)">
       <use xlink:href="#DejaVuSans-31"/>
       <use xlink:href="#DejaVuSans-30" transform="translate(63.623047 0)"/>
      </g>
     </g>
    </g>
   </g>
   <g id="matplotlib.axis_4">
    <g id="ytick_7">
     <g id="line2d_29">
      <g>
       <use xlink:href="#ma386c1b11b" x="35.304688" y="323.297695" style="stroke: #000000; stroke-width: 0.8"/>
      </g>
     </g>
     <g id="text_19">
      <!-- −15 -->
      <g transform="translate(7.2 327.096914) scale(0.1 -0.1)">
       <defs>
        <path id="DejaVuSans-2212" d="M 678 2272 
L 4684 2272 
L 4684 1741 
L 678 1741 
L 678 2272 
z
" transform="scale(0.015625)"/>
        <path id="DejaVuSans-35" d="M 691 4666 
L 3169 4666 
L 3169 4134 
L 1269 4134 
L 1269 2991 
Q 1406 3038 1543 3061 
Q 1681 3084 1819 3084 
Q 2600 3084 3056 2656 
Q 3513 2228 3513 1497 
Q 3513 744 3044 326 
Q 2575 -91 1722 -91 
Q 1428 -91 1123 -41 
Q 819 9 494 109 
L 494 744 
Q 775 591 1075 516 
Q 1375 441 1709 441 
Q 2250 441 2565 725 
Q 2881 1009 2881 1497 
Q 2881 1984 2565 2268 
Q 2250 2553 1709 2553 
Q 1456 2553 1204 2497 
Q 953 2441 691 2322 
L 691 4666 
z
" transform="scale(0.015625)"/>
       </defs>
       <use xlink:href="#DejaVuSans-2212"/>
       <use xlink:href="#DejaVuSans-31" transform="translate(83.789062 0)"/>
       <use xlink:href="#DejaVuSans-35" transform="translate(147.412109 0)"/>
      </g>
     </g>
    </g>
    <g id="ytick_8">
     <g id="line2d_30">
      <g>
       <use xlink:href="#ma386c1b11b" x="35.304688" y="292.280878" style="stroke: #000000; stroke-width: 0.8"/>
      </g>
     </g>
     <g id="text_20">
      <!-- −10 -->
      <g transform="translate(7.2 296.080097) scale(0.1 -0.1)">
       <use xlink:href="#DejaVuSans-2212"/>
       <use xlink:href="#DejaVuSans-31" transform="translate(83.789062 0)"/>
       <use xlink:href="#DejaVuSans-30" transform="translate(147.412109 0)"/>
      </g>
     </g>
    </g>
    <g id="ytick_9">
     <g id="line2d_31">
      <g>
       <use xlink:href="#ma386c1b11b" x="35.304688" y="261.264061" style="stroke: #000000; stroke-width: 0.8"/>
      </g>
     </g>
     <g id="text_21">
      <!-- −5 -->
      <g transform="translate(13.5625 265.06328) scale(0.1 -0.1)">
       <use xlink:href="#DejaVuSans-2212"/>
       <use xlink:href="#DejaVuSans-35" transform="translate(83.789062 0)"/>
      </g>
     </g>
    </g>
    <g id="ytick_10">
     <g id="line2d_32">
      <g>
       <use xlink:href="#ma386c1b11b" x="35.304688" y="230.247244" style="stroke: #000000; stroke-width: 0.8"/>
      </g>
     </g>
     <g id="text_22">
      <!-- 0 -->
      <g transform="translate(21.942187 234.046463) scale(0.1 -0.1)">
       <use xlink:href="#DejaVuSans-30"/>
      </g>
     </g>
    </g>
    <g id="ytick_11">
     <g id="line2d_33">
      <g>
       <use xlink:href="#ma386c1b11b" x="35.304688" y="199.230427" style="stroke: #000000; stroke-width: 0.8"/>
      </g>
     </g>
     <g id="text_23">
      <!-- 5 -->
      <g transform="translate(21.942187 203.029645) scale(0.1 -0.1)">
       <use xlink:href="#DejaVuSans-35"/>
      </g>
     </g>
    </g>
   </g>
   <g id="line2d_34">
    <path d="M 54.699907 218.264671 
L 54.719302 230.942304 
L 54.827916 190.50754 
L 54.831795 190.298685 
L 54.886101 192.341911 
L 54.897738 192.13001 
L 54.983077 199.962927 
L 54.917134 191.323776 
L 55.017989 195.26565 
L 55.0529 193.005573 
L 55.083933 196.167643 
L 55.130481 193.906845 
L 55.270127 201.67219 
L 55.188667 193.774671 
L 55.277885 200.730172 
L 55.33607 195.254973 
L 55.394256 199.504374 
L 55.448563 203.563831 
L 55.487353 197.502296 
L 55.526144 195.031431 
L 55.58045 201.692027 
L 55.588208 202.0321 
L 55.592087 201.393382 
L 55.638636 199.709559 
L 55.681305 203.535331 
L 55.692942 202.774902 
L 55.731733 208.326139 
L 55.774402 202.205114 
L 55.813193 205.608575 
L 55.817072 204.324414 
L 55.851983 210.680232 
L 55.90629 209.668961 
L 56.057573 219.88656 
L 56.06921 219.02321 
L 56.100242 214.280758 
L 56.166186 219.465771 
L 56.170065 219.224126 
L 56.282557 222.802571 
L 56.305831 222.352574 
L 56.313589 222.284145 
L 56.317468 222.477246 
L 56.325227 222.322974 
L 56.418324 222.898992 
L 56.371775 222.282642 
L 56.445477 222.802025 
L 56.449356 222.823459 
L 56.460993 222.443046 
L 56.464872 221.800667 
L 56.534695 223.228738 
L 56.569606 222.838222 
L 56.682099 223.298042 
L 56.639429 222.812706 
L 56.685978 223.199303 
L 56.782954 220.510631 
L 56.697615 223.200238 
L 56.845018 221.771668 
L 56.903204 220.245887 
L 56.957511 222.140112 
L 56.984664 220.723353 
L 57.058366 222.549705 
L 57.062245 222.387851 
L 57.279471 218.512328 
L 57.12431 223.141611 
L 57.298867 220.19424 
L 57.376447 222.146294 
L 57.341536 219.817815 
L 57.415238 221.309708 
L 57.492819 219.663574 
L 57.430754 221.733072 
L 57.519972 221.505758 
L 57.523851 221.60416 
L 57.554883 219.5888 
L 57.562642 217.613006 
L 57.60919 220.669336 
L 57.667376 218.536723 
L 57.675134 217.886366 
L 57.717803 220.161359 
L 57.77211 219.414273 
L 57.783747 220.000291 
L 57.791505 219.333422 
L 57.795384 219.961079 
L 57.884602 222.722777 
L 57.915635 222.33348 
L 58.000974 219.891416 
L 58.035885 221.724958 
L 58.156135 223.506358 
L 58.160014 223.467357 
L 58.198805 223.586106 
L 58.245353 223.214723 
L 58.249232 223.170039 
L 58.326813 223.528977 
L 58.342329 223.376561 
L 58.350087 223.561076 
L 58.365604 223.215528 
L 58.377241 223.245039 
L 58.388878 222.892295 
L 58.450943 223.650906 
L 58.474217 223.592604 
L 58.481975 223.66382 
L 58.547919 223.266436 
L 58.571193 223.43257 
L 58.578951 223.271029 
L 58.652653 223.580443 
L 58.675927 223.489177 
L 58.679806 223.617796 
L 58.749629 223.012477 
L 58.78454 223.40745 
L 58.803936 223.312101 
L 58.877637 223.702127 
L 58.881517 223.731023 
L 58.90867 223.306192 
L 58.970735 223.591781 
L 59.009525 223.477711 
L 59.067711 223.877908 
L 59.125896 223.742449 
L 59.184082 223.921334 
L 59.218993 223.913513 
L 59.304332 223.964893 
L 59.668962 223.961059 
L 59.924979 223.923688 
L 59.932737 223.949921 
L 59.983165 223.723035 
L 59.998681 223.785347 
L 60.033593 223.375836 
L 60.111173 223.700818 
L 60.177117 223.831863 
L 60.118932 223.611856 
L 60.227545 223.744547 
L 60.324521 223.803413 
L 60.250819 223.666925 
L 60.3284 223.716176 
L 60.471925 223.225355 
L 60.475804 223.327623 
L 60.549505 223.536629 
L 60.499078 223.279007 
L 60.584417 223.378161 
L 60.603812 223.222915 
L 60.677514 223.80271 
L 60.81328 224.014035 
L 60.964563 224.00255 
L 61.123604 224.001738 
L 61.127483 223.995581 
L 61.294282 223.831057 
L 61.30204 223.857635 
L 61.499871 224.01672 
L 61.50375 224.014165 
L 61.662791 224.003296 
L 61.790799 224.009906 
L 61.918808 224.035634 
L 61.922687 224.032837 
L 63.245441 223.987233 
L 63.385087 224.035003 
L 63.610071 224.03365 
L 63.850572 224.041714 
L 72.772373 224.04388 
L 442.6043 224.04388 
L 442.6043 224.04388 
" clip-path="url(#pe390759952)" style="fill: none; stroke: #00ff00; stroke-width: 1.5; stroke-linecap: square"/>
   </g>
   <g id="line2d_35">
    <path d="M 54.699907 235.073722 
L 54.796883 192.579378 
L 54.816278 199.687613 
L 54.924892 191.644479 
L 54.85119 209.693397 
L 54.928771 194.70307 
L 54.959803 202.931701 
L 55.033505 190.689106 
L 55.142118 187.932012 
L 55.153755 188.367071 
L 55.173151 188.568036 
L 55.274006 187.409497 
L 55.363224 187.264907 
L 55.29728 187.529502 
L 55.374861 187.466801 
L 55.436926 187.444671 
L 55.506748 188.371636 
L 55.510627 188.088715 
L 55.584329 189.602792 
L 55.599845 189.53116 
L 55.646394 191.324721 
L 55.720096 190.199922 
L 55.727854 190.065826 
L 55.74337 191.077926 
L 55.820951 197.136583 
L 55.871378 193.749683 
L 55.875257 193.686425 
L 55.886895 194.679789 
L 55.894653 194.012981 
L 55.960596 206.204247 
L 55.90629 193.930632 
L 56.030419 202.714257 
L 56.053693 199.558755 
L 56.119637 203.636429 
L 56.208855 217.703773 
L 56.251525 214.108278 
L 56.259283 211.697296 
L 56.301952 217.569232 
L 56.364017 213.564996 
L 56.375654 215.7351 
L 56.464872 212.748009 
L 56.476509 215.053877 
L 56.589002 219.661449 
L 56.616155 219.57715 
L 56.623913 219.088179 
L 56.697615 222.222872 
L 56.701494 222.167063 
L 56.705373 222.24336 
L 56.732526 220.821278 
L 56.751921 221.282663 
L 56.767438 219.63767 
L 56.833381 222.388871 
L 56.852777 222.234128 
L 56.907083 222.700996 
L 56.922599 221.881932 
L 56.926478 222.121769 
L 57.011817 219.977547 
L 57.04285 221.34864 
L 57.050608 221.640318 
L 57.070003 220.203621 
L 57.12431 221.304368 
L 57.275592 214.259771 
L 57.28335 215.362202 
L 57.287229 216.29927 
L 57.368689 210.213058 
L 57.438512 204.638249 
L 57.399722 212.033397 
L 57.48894 208.150302 
L 57.624706 216.854361 
L 57.500577 204.892361 
L 57.628585 216.208876 
L 57.632464 216.21464 
L 57.659618 216.649971 
L 57.706166 212.846858 
L 57.725561 214.346906 
L 57.783747 203.121834 
L 57.869086 211.039175 
L 57.880723 215.62384 
L 57.966062 210.882276 
L 57.985457 214.195238 
L 58.074675 212.663447 
L 58.032006 217.392542 
L 58.082433 214.313324 
L 58.17941 221.715056 
L 58.210442 220.90734 
L 58.245353 221.225183 
L 58.272507 219.798931 
L 58.276386 219.573503 
L 58.322934 221.991514 
L 58.350087 221.645442 
L 58.46258 222.454958 
L 58.396636 221.329226 
L 58.466459 222.111978 
L 58.58283 221.426437 
L 58.528524 222.801106 
L 58.586709 221.536729 
L 58.621621 222.55999 
L 58.66429 220.739579 
L 58.675927 221.430553 
L 58.788419 218.419747 
L 58.800057 219.041298 
L 58.82721 219.972074 
L 58.889275 216.923455 
L 58.893154 217.092811 
L 58.916428 219.567305 
L 58.955218 216.399665 
L 58.959097 215.226517 
L 59.02892 219.056975 
L 59.059953 217.054982 
L 59.063832 217.404645 
L 59.106501 211.287376 
L 59.125896 213.003418 
L 59.149171 209.597987 
L 59.207356 214.198454 
L 59.218993 217.020916 
L 59.281058 210.826102 
L 59.315969 213.75606 
L 59.319848 213.730434 
L 59.43622 206.18616 
L 59.405187 214.374433 
L 59.455615 207.707033 
L 59.47501 209.495085 
L 59.509922 202.049941 
L 59.525438 198.200688 
L 59.591382 211.395873 
L 59.603019 208.14206 
L 59.723269 213.715634 
L 59.738785 211.213669 
L 59.785334 214.731273 
L 59.816366 213.650373 
L 59.831882 217.47127 
L 59.859036 211.98289 
L 59.924979 214.122341 
L 60.049109 207.765708 
L 59.979286 216.030228 
L 60.056867 208.275822 
L 60.064625 208.657693 
L 60.072383 207.140507 
L 60.169359 199.302649 
L 60.192633 202.987406 
L 60.243061 204.96778 
L 60.281851 200.317371 
L 60.293489 202.226457 
L 60.305126 198.122615 
L 60.343916 203.845772 
L 60.398223 201.728411 
L 60.44865 211.741947 
L 60.514594 207.623005 
L 60.522352 204.431771 
L 60.584417 213.886867 
L 60.592175 213.456817 
L 60.708546 218.058035 
L 60.712425 216.897655 
L 60.727941 217.303702 
L 60.758974 212.318588 
L 60.844313 206.649374 
L 60.793885 212.895004 
L 60.871466 210.509282 
L 60.918015 207.482218 
L 60.991716 216.022415 
L 60.995595 216.279124 
L 61.026628 213.931267 
L 61.061539 215.440643 
L 61.174031 206.545092 
L 61.084813 215.757866 
L 61.185669 207.695565 
L 61.243854 215.561601 
L 61.290403 209.166927 
L 61.387379 205.966106 
L 61.329193 212.097367 
L 61.399016 208.079261 
L 61.402895 209.449199 
L 61.449444 203.042248 
L 61.511508 209.354292 
L 61.558057 211.896587 
L 61.569694 206.963421 
L 61.697702 199.452886 
L 61.608484 211.381369 
L 61.728735 200.679284 
L 61.759767 202.458209 
L 61.740372 198.583646 
L 61.802437 199.56366 
L 61.806316 197.739064 
L 61.903292 202.4706 
L 61.914929 203.200343 
L 61.942082 197.246074 
L 62.015784 203.104774 
L 62.101123 200.843827 
L 62.046816 205.56529 
L 62.11276 203.165455 
L 62.221373 207.458947 
L 62.174825 201.057592 
L 62.225252 206.92406 
L 62.23301 205.902711 
L 62.302833 211.42173 
L 62.31447 209.6625 
L 62.403688 215.642364 
L 62.372656 209.029927 
L 62.442479 213.641834 
L 62.527818 206.53688 
L 62.55885 210.817152 
L 62.655826 215.545844 
L 62.586003 209.428476 
L 62.671342 212.299842 
L 62.679101 210.537583 
L 62.702375 213.8185 
L 62.814867 218.141085 
L 62.717891 211.897163 
L 62.84202 216.336821 
L 62.888569 212.460226 
L 62.931238 218.18666 
L 62.946755 217.818156 
L 62.950634 217.9241 
L 62.962271 216.1942 
L 62.96615 216.329702 
L 63.067005 212.163116 
L 63.00494 217.661699 
L 63.082521 212.510846 
L 63.187255 217.046027 
L 63.202771 216.180678 
L 63.222167 215.271414 
L 63.24932 217.999575 
L 63.303627 220.89525 
L 63.272594 217.93105 
L 63.373449 219.121568 
L 63.454909 220.383131 
L 63.431635 217.371698 
L 63.470425 219.761202 
L 63.582918 215.102429 
L 63.590676 215.807021 
L 63.594555 215.388136 
L 63.660499 219.82948 
L 63.672136 218.854591 
L 63.811781 221.757574 
L 63.7342 217.316902 
L 63.827298 221.441431 
L 63.866088 219.465576 
L 63.920395 222.253201 
L 63.928153 221.918165 
L 64.036766 222.382942 
L 63.963064 220.895697 
L 64.044524 222.177187 
L 64.10271 221.959367 
L 64.122105 222.671786 
L 64.195807 223.338414 
L 64.238476 222.887085 
L 64.242355 222.782803 
L 64.312178 223.633892 
L 64.319936 223.615983 
L 64.335452 223.472597 
L 64.354848 223.68891 
L 64.38588 223.681194 
L 64.46734 223.866686 
L 64.393638 223.635332 
L 64.498372 223.730679 
L 64.63026 223.954467 
L 64.513888 223.684892 
L 64.638018 223.931319 
L 64.928946 224.033292 
L 65.254786 224.036516 
L 66.011199 224.042676 
L 103.560345 224.04388 
L 442.6043 224.04388 
L 442.6043 224.04388 
" clip-path="url(#pe390759952)" style="fill: none; stroke: #358763; stroke-width: 1.5; stroke-linecap: square"/>
   </g>
   <g id="line2d_36">
    <path d="M 54.699907 240.651367 
L 54.812399 305.946036 
L 54.831795 298.786988 
L 54.862827 301.724555 
L 54.909376 267.401662 
L 54.917134 270.555219 
L 55.033505 215.920182 
L 55.064537 219.34946 
L 55.262369 199.987516 
L 55.347707 203.766396 
L 55.301159 198.561807 
L 55.37874 202.4991 
L 55.382619 200.062528 
L 55.471837 213.654757 
L 55.479595 211.191884 
L 55.557176 219.03439 
L 55.564934 218.786943 
L 55.595966 215.497399 
L 55.572692 219.248675 
L 55.599845 216.090984 
L 55.642515 211.446398 
L 55.692942 218.060242 
L 55.70458 216.309099 
L 55.720096 220.186533 
L 55.813193 216.281478 
L 55.817072 215.87525 
L 55.867499 219.245622 
L 55.90629 217.728875 
L 56.030419 222.93928 
L 56.038177 222.927743 
L 56.065331 222.607601 
L 56.181702 223.634504 
L 56.185581 223.614207 
L 56.22825 223.885149 
L 56.251525 223.845401 
L 56.267041 223.894687 
L 56.329106 223.802945 
L 56.364017 223.850528 
L 56.379533 223.88373 
L 56.457114 223.919109 
L 56.503663 223.993456 
L 56.577364 223.979433 
L 56.612276 223.941256 
L 56.71701 223.970854 
L 56.817865 223.906066 
L 56.852777 223.988113 
L 57.232923 224.041423 
L 59.443978 224.043829 
L 334.731968 224.04388 
L 442.6043 224.04388 
L 442.6043 224.04388 
" clip-path="url(#pe390759952)" style="fill: none; stroke: #e78a18; stroke-width: 1.5; stroke-linecap: square"/>
   </g>
   <g id="line2d_37">
    <path d="M 54.699907 235.331498 
L 54.72706 271.965343 
L 54.785246 204.245467 
L 54.789125 206.564305 
L 54.793004 209.549373 
L 54.878343 192.989768 
L 54.882222 193.114929 
L 55.161513 187.386075 
L 55.173151 187.54052 
L 55.21582 187.809276 
L 55.258489 187.192984 
L 55.308917 187.05669 
L 55.328312 187.248487 
L 55.367103 187.153587 
L 55.475716 187.342015 
L 55.421409 187.120909 
L 55.483474 187.277226 
L 55.646394 186.934912 
L 55.778281 186.929183 
L 55.654152 186.952733 
L 55.793798 186.971287 
L 55.925685 187.031892 
L 55.820951 186.899817 
L 55.929564 187.006114 
L 56.034298 186.909975 
L 55.94508 187.026232 
L 56.061452 186.926128 
L 56.162307 187.06471 
L 56.088605 186.91049 
L 56.185581 187.017975 
L 56.30971 186.957283 
L 56.224371 187.094952 
L 56.313589 186.96119 
L 56.460993 187.625989 
L 56.604518 189.588019 
L 56.639429 189.206556 
L 56.658824 188.389863 
L 56.720889 190.796415 
L 56.740284 189.541376 
L 56.744163 190.146464 
L 56.779075 188.51184 
L 56.848897 189.215823 
L 56.856656 189.311441 
L 56.87993 188.425942 
L 57.007938 187.089254 
L 57.027334 187.164019 
L 57.093277 187.488382 
L 57.135947 187.116428 
L 57.225165 187.386963 
L 57.252318 187.252408 
L 57.36481 187.08527 
L 57.271713 187.354223 
L 57.372568 187.085852 
L 57.48894 187.024465 
L 57.426875 187.208384 
L 57.496698 187.041951 
L 57.523851 187.137791 
L 57.551004 186.967083 
L 57.558763 186.967379 
L 57.671255 186.882882 
L 57.593674 186.991206 
L 57.682892 186.89129 
L 58.233716 186.829422 
L 58.978493 186.828443 
L 59.959891 186.826127 
L 63.392845 186.82373 
L 194.042923 186.8237 
L 442.6043 186.8237 
L 442.6043 186.8237 
" clip-path="url(#pe390759952)" style="fill: none; stroke: #00fbff; stroke-width: 1.5; stroke-linecap: square"/>
   </g>
   <g id="line2d_38">
    <path d="M 54.699907 223.958741 
L 54.796883 189.742473 
L 54.88998 191.696377 
L 55.021868 187.482742 
L 55.025747 187.610301 
L 55.072295 187.789411 
L 55.103328 187.355374 
L 55.130481 187.402718 
L 55.29728 188.800917 
L 55.312796 188.527442 
L 55.339949 188.290608 
L 55.359345 189.112639 
L 55.363224 189.741368 
L 55.382619 188.220219 
L 55.471837 189.408244 
L 55.607603 193.742552 
L 55.611482 193.33241 
L 55.7007 188.817656 
L 55.638636 194.391345 
L 55.74337 189.456939 
L 55.774402 189.270071 
L 55.762765 190.171387 
L 55.809314 190.04679 
L 55.859741 191.216631 
L 55.82483 189.172308 
L 55.914048 189.826628 
L 55.917927 189.416107 
L 55.964475 191.641209 
L 56.011024 190.949892 
L 56.100242 191.60828 
L 56.049814 189.387144 
L 56.115758 190.852735 
L 56.197218 188.211848 
L 56.259283 189.013821 
L 56.294194 188.105518 
L 56.344622 189.220338 
L 56.356259 188.954474 
L 56.367896 189.886556 
L 56.449356 187.736722 
L 56.468751 188.207088 
L 56.534695 187.393889 
L 56.546332 187.47182 
L 56.557969 187.371218 
L 56.658824 186.938534 
L 56.67822 186.980175 
L 56.829502 187.994711 
L 56.876051 187.587745 
L 56.945874 187.134406 
L 56.992422 187.24419 
L 56.996301 187.225742 
L 57.027334 187.600199 
L 57.031213 187.574402 
L 57.035092 187.588276 
L 57.062245 187.291245 
L 57.190253 186.958003 
L 57.077761 187.322208 
L 57.20577 186.968791 
L 57.213528 186.982313 
L 57.248439 186.901962 
L 57.306625 186.924709 
L 57.384206 186.938723 
L 57.318262 186.959551 
L 57.399722 186.959283 
L 57.496698 187.074176 
L 57.438512 186.948044 
L 57.516093 186.99698 
L 57.679013 186.880643 
L 57.547125 187.041293 
L 57.694529 186.906871 
L 57.73332 186.994735 
L 57.803142 186.887819 
L 57.8109 186.904306 
L 57.884602 186.856255 
L 57.911756 186.866068 
L 58.012611 186.864923 
L 58.032006 186.877761 
L 58.156135 186.852099 
L 58.353967 186.857223 
L 58.478096 186.84167 
L 58.481975 186.844078 
L 58.74575 186.824738 
L 62.000268 186.8237 
L 442.6043 186.8237 
L 442.6043 186.8237 
" clip-path="url(#pe390759952)" style="fill: none; stroke: #3e00ff; stroke-width: 1.5; stroke-linecap: square"/>
   </g>
   <g id="line2d_39">
    <path d="M 54.699907 257.588891 
L 54.719302 266.099032 
L 54.76973 202.78332 
L 54.777488 209.21189 
L 54.901617 250.258641 
L 54.816278 203.773097 
L 54.917134 221.567534 
L 55.01411 207.668743 
L 54.936529 229.543142 
L 55.049021 209.248328 
L 55.153755 214.144905 
L 55.080053 209.075945 
L 55.161513 212.030496 
L 55.231336 202.815991 
L 55.17703 214.596064 
L 55.289522 206.175737 
L 55.301159 209.141132 
L 55.312796 205.236358 
L 55.343828 201.48587 
L 55.409772 206.028261 
L 55.41753 205.332276 
L 55.514506 209.908798 
L 55.448563 202.512811 
L 55.533902 209.721082 
L 55.619241 206.712041 
L 55.576571 212.716329 
L 55.642515 209.234944 
L 55.654152 210.951549 
L 55.677426 205.795508 
L 55.727854 200.993655 
L 55.7007 206.155331 
L 55.789919 203.72278 
L 55.910169 216.067455 
L 55.925685 214.981089 
L 55.937322 212.574587 
L 56.003266 218.359472 
L 56.007145 218.158459 
L 56.065331 222.463446 
L 56.135153 221.522447 
L 56.263162 223.525629 
L 56.154549 221.038827 
L 56.274799 223.362223 
L 56.410566 222.814712 
L 56.298073 223.433258 
L 56.418324 222.890561 
L 56.43384 223.422627 
L 56.530816 223.095778 
L 56.651066 222.839224 
L 56.616155 223.43999 
L 56.654945 222.874659 
L 56.670461 222.797728 
L 56.775196 223.469985 
L 56.841139 223.387495 
L 56.872172 223.709581 
L 56.899325 223.528983 
L 56.988543 223.855871 
L 57.186374 223.934702 
L 57.198011 223.858426 
L 57.318262 223.534045 
L 57.32602 223.58703 
L 57.419117 223.776753 
L 57.368689 223.476885 
L 57.44627 223.717451 
L 57.473424 223.654569 
L 57.500577 223.830842 
L 57.512214 223.818516 
L 57.589795 223.859427 
L 57.531609 223.702119 
L 57.616948 223.795184 
L 57.675134 223.637236 
L 57.710045 223.844104 
L 57.721682 223.843558 
L 57.73332 223.884565 
L 57.787626 223.653376 
L 57.803142 223.75834 
L 57.911756 223.683969 
L 57.869086 223.868585 
L 57.915635 223.717129 
L 57.93503 223.622054 
L 58.059159 223.405762 
L 57.950546 223.662889 
L 58.063038 223.460236 
L 58.070796 223.451594 
L 58.082433 223.587628 
L 58.101829 223.756213 
L 58.167772 223.337298 
L 58.183289 223.475186 
L 58.222079 223.536072 
L 58.198805 223.424368 
L 58.237595 223.457331 
L 58.29966 223.890501 
L 58.353967 223.775875 
L 58.369483 223.833189 
L 58.392757 223.630979 
L 58.481975 222.979862 
L 58.400515 223.647251 
L 58.516886 223.527709 
L 58.633258 223.837573 
L 58.644895 223.819232 
L 58.74575 223.757474 
L 58.772903 223.864848 
L 58.823331 223.944065 
L 58.796178 223.858772 
L 58.885396 223.892854 
L 58.962976 223.598348 
L 59.001767 223.843019 
L 59.149171 223.969022 
L 59.156929 223.945747 
L 59.319848 223.820188 
L 59.335365 223.870305 
L 59.343123 223.853049 
L 59.762059 224.023478 
L 61.251612 224.027843 
L 61.495992 224.028215 
L 61.732614 224.027792 
L 62.461874 224.042071 
L 64.246234 224.043879 
L 442.6043 224.04388 
L 442.6043 224.04388 
" clip-path="url(#pe390759952)" style="fill: none; stroke: #e64500; stroke-width: 1.5; stroke-linecap: square"/>
   </g>
   <g id="line2d_40">
    <path d="M 54.699907 206.200894 
L 54.703786 208.834628 
L 54.773609 191.110274 
L 54.785246 191.250366 
L 54.847311 188.421002 
L 54.897738 190.70264 
L 54.955924 193.297594 
L 55.010231 192.43666 
L 55.091691 190.038951 
L 55.13436 190.695957 
L 55.138239 191.116635 
L 55.200304 188.820129 
L 55.227457 189.273528 
L 55.231336 188.958576 
L 55.266248 190.829097 
L 55.324433 189.834078 
L 55.332191 190.378655 
L 55.41753 189.080347 
L 55.421409 189.158076 
L 55.518385 188.812898 
L 55.483474 190.262295 
L 55.530023 188.937078 
L 55.533902 189.463216 
L 55.595966 188.156194 
L 55.638636 188.631895 
L 55.716217 187.879046 
L 55.650273 188.958445 
L 55.774402 188.181167 
L 55.925685 189.451398 
L 55.809314 187.834558 
L 55.960596 188.819168 
L 56.034298 188.829683 
L 56.080847 187.947578 
L 56.123516 188.935354 
L 56.177823 187.737228 
L 56.290315 187.262215 
L 56.201097 187.886855 
L 56.298073 187.335261 
L 56.30971 187.746828 
L 56.395049 187.070666 
L 56.402807 187.140572 
L 56.511421 186.938006 
L 56.523058 186.972896 
L 56.538574 186.993333 
L 56.569606 186.931765 
L 56.616155 186.91536 
L 56.802349 186.850144 
L 57.589795 186.837467 
L 57.795384 186.828425 
L 72.570663 186.8237 
L 442.6043 186.8237 
L 442.6043 186.8237 
" clip-path="url(#pe390759952)" style="fill: none; stroke: #ffee00; stroke-width: 1.5; stroke-linecap: square"/>
   </g>
   <g id="line2d_41">
    <path d="M 54.699907 242.278164 
L 54.754214 303.515652 
L 54.824037 282.271118 
L 54.827916 260.349132 
L 54.901617 318.948076 
L 54.928771 315.509702 
L 54.940408 310.898043 
L 55.006352 323.010518 
L 55.021868 322.963394 
L 55.025747 322.832844 
L 55.118844 323.290827 
L 55.122723 323.289312 
L 55.25461 323.082582 
L 55.328312 323.261568 
L 55.615362 323.296915 
L 65.107382 323.297695 
L 442.6043 323.297695 
L 442.6043 323.297695 
" clip-path="url(#pe390759952)" style="fill: none; stroke: #0078ff; stroke-width: 1.5; stroke-linecap: square"/>
   </g>
   <g id="line2d_42">
    <path d="M 54.699907 240.057058 
L 54.765851 317.861248 
L 54.73094 222.868826 
L 54.85119 284.967925 
L 54.855069 271.528161 
L 54.928771 320.928074 
L 54.952045 319.212647 
L 55.033505 315.795442 
L 55.006352 322.127842 
L 55.056779 320.871432 
L 55.060658 320.952374 
L 55.064537 319.256715 
L 55.068416 318.200834 
L 55.157634 323.026069 
L 55.161513 322.805882 
L 55.266248 321.896116 
L 55.281764 322.567603 
L 55.398135 323.270368 
L 55.545539 323.282735 
L 56.864414 323.297695 
L 442.6043 323.297695 
L 442.6043 323.297695 
" clip-path="url(#pe390759952)" style="fill: none; stroke: #ff0037; stroke-width: 1.5; stroke-linecap: square"/>
   </g>
   <g id="line2d_43">
    <path d="M 54.699907 245.27346 
L 54.843432 196.729077 
L 54.707665 248.056803 
L 54.847311 197.00037 
L 54.882222 194.471744 
L 54.886101 193.705651 
L 54.924892 199.702404 
L 54.975319 197.063716 
L 54.983077 198.589442 
L 55.041263 194.887335 
L 55.080053 196.602463 
L 55.157634 194.01289 
L 55.17703 197.857342 
L 55.184788 197.132344 
L 55.25461 208.801932 
L 55.355466 204.759293 
L 55.370982 200.826674 
L 55.479595 202.128287 
L 55.642515 209.85566 
L 55.510627 199.804303 
L 55.665789 207.141596 
L 55.669668 207.122955 
L 55.673547 207.407809 
L 55.786039 209.179329 
L 55.735612 205.234939 
L 55.789919 208.257459 
L 55.875257 204.963928 
L 55.828709 212.274629 
L 55.902411 207.891319 
L 55.910169 209.887431 
L 55.933443 204.173964 
L 56.011024 206.794881 
L 56.014903 206.469941 
L 56.065331 211.54848 
L 56.06921 211.171147 
L 56.073089 211.88929 
L 56.127395 202.124074 
L 56.131274 203.957223 
L 56.146791 200.236276 
L 56.208855 205.708498 
L 56.243767 203.0694 
L 56.356259 209.215247 
L 56.27092 201.643018 
L 56.360138 206.499745 
L 56.464872 198.170012 
L 56.484267 200.507729 
L 56.585123 190.925182 
L 56.63555 193.744225 
L 56.674341 196.601062 
L 56.736405 191.788678 
L 56.740284 192.122268 
L 56.883809 188.228761 
L 56.895446 188.963689 
L 56.957511 188.214411 
L 56.996301 188.665089 
L 57.019575 188.588094 
L 57.007938 188.88896 
L 57.023454 188.818397 
L 57.050608 189.507718 
L 57.085519 188.441339 
L 57.135947 189.251848 
L 57.20189 187.537941 
L 57.252318 188.249674 
L 57.260076 188.026628 
L 57.376447 187.370385 
L 57.287229 188.355156 
L 57.380327 187.500063 
L 57.384206 187.527561 
L 57.40748 187.220118 
L 57.450149 187.225361 
L 57.496698 187.341692 
L 57.508335 187.159162 
L 57.582037 186.944729 
L 57.632464 186.99313 
L 57.686771 187.002071 
L 57.675134 187.059038 
L 57.698408 187.079025 
L 57.787626 187.323808 
L 57.845812 187.169769 
L 57.942788 186.91843 
L 57.857449 187.172285 
L 57.997095 186.987797 
L 58.070796 186.942398 
L 58.09795 187.031442 
L 58.101829 187.049184 
L 58.171651 186.893074 
L 58.17941 186.901914 
L 58.319055 186.847632 
L 58.509128 186.842972 
L 58.823331 186.928157 
L 58.838847 186.895276 
L 58.943581 186.931472 
L 58.994009 186.90825 
L 59.025041 187.003556 
L 59.032799 186.970155 
L 59.067711 187.037579 
L 59.133654 186.918278 
L 59.699995 186.860935 
L 59.831882 186.832772 
L 60.049109 186.827429 
L 61.880017 186.823701 
L 442.6043 186.8237 
L 442.6043 186.8237 
" clip-path="url(#pe390759952)" style="fill: none; stroke: #e1ff00; stroke-width: 1.5; stroke-linecap: square"/>
   </g>
   <g id="patch_8">
    <path d="M 35.304688 330.121395 
L 35.304688 180 
" style="fill: none; stroke: #000000; stroke-width: 0.8; stroke-linejoin: miter; stroke-linecap: square"/>
   </g>
   <g id="patch_9">
    <path d="M 461.99952 330.121395 
L 461.99952 180 
" style="fill: none; stroke: #000000; stroke-width: 0.8; stroke-linejoin: miter; stroke-linecap: square"/>
   </g>
   <g id="patch_10">
    <path d="M 35.304688 330.121395 
L 461.99952 330.121395 
" style="fill: none; stroke: #000000; stroke-width: 0.8; stroke-linejoin: miter; stroke-linecap: square"/>
   </g>
   <g id="patch_11">
    <path d="M 35.304688 180 
L 461.99952 180 
" style="fill: none; stroke: #000000; stroke-width: 0.8; stroke-linejoin: miter; stroke-linecap: square"/>
   </g>
  </g>
 </g>
 <defs>
  <clipPath id="peea507a2ee">
   <rect x="35.304688" y="7.2" width="426.694833" height="150.121395"/>
  </clipPath>
  <clipPath id="pe390759952">
   <rect x="35.304688" y="180" width="426.694833" height="150.121395"/>
  </clipPath>
 </defs>
</svg>
