<?xml version="1.0" encoding="utf-8" standalone="no"?>
<!DOCTYPE svg PUBLIC "-//W3C//DTD SVG 1.1//EN"
  "http://www.w3.org/Graphics/SVG/1.1/DTD/svg11.dtd">
<svg xmlns:xlink="http://www.w3.org/1999/xlink" width="469.19952pt" height="353.99952pt" viewBox="0 0 469.19952 353.99952" xmlns="http://www.w3.org/2000/svg" version="1.1">
 <metadata>
  <rdf:RDF xmlns:dc="http://purl.org/dc/elements/1.1/" xmlns:cc="http://creativecommons.org/ns#" xmlns:rdf="http://www.w3.org/1999/02/22-rdf-syntax-ns#">
   <cc:Work>
    <dc:type rdf:resource="http://purl.org/dc/dcmitype/StillImage"/>
    <dc:date>2025-12-15T16:56:34.774007</dc:date>
    <dc:format>image/svg+xml</dc:format>
    <dc:creator>
     <cc:Agent>
      <dc:title>Matplotlib v3.10.0, https://matplotlib.org/</dc:title>
     </cc:Agent>
    </dc:creator>
   </cc:Work>
  </rdf:RDF>
 </metadata>
 <defs>
  <style type="text/css">*{stroke-linejoin: round; stroke-linecap: butt}</style>
 </defs>
 <g id="figure_1">
  <g id="patch_1">
   <path d="M 0 353.99952 
L 469.19952 353.99952 
L 469.19952 0 
L 0 0 
z
" style="fill: #ffffff"/>
  </g>
  <g id="axes_1">
   <g id="patch_2">
    <path d="M 30.103125 157.321395 
L 228.998739 157.321395 
L 228.998739 7.2 
L 30.103125 7.2 
z
" style="fill: #ffffff"/>
   </g>
   <g id="matplotlib.axis_1">
    <g id="xtick_1">
     <g id="line2d_1">
      <defs>
       <path id="mf11f071dd2" d="M 0 0 
L 0 3.5 
" style="stroke: #000000; stroke-width: 0.8"/>
      </defs>
      <g>
       <use xlink:href="#mf11f071dd2" x="39.143835" y="157.321395" style="stroke: #000000; stroke-width: 0.8"/>
      </g>
     </g>
     <g id="text_1">
      <!-- 0 -->
      <g transform="translate(35.962585 171.919832) scale(0.1 -0.1)">
       <defs>
        <path id="DejaVuSans-30" d="M 2034 4250 
Q 1547 4250 1301 3770 
Q 1056 3291 1056 2328 
Q 1056 1369 1301 889 
Q 1547 409 2034 409 
Q 2525 409 2770 889 
Q 3016 1369 3016 2328 
Q 3016 3291 2770 3770 
Q 2525 4250 2034 4250 
z
M 2034 4750 
Q 2819 4750 3233 4129 
Q 3647 3509 3647 2328 
Q 3647 1150 3233 529 
Q 2819 -91 2034 -91 
Q 1250 -91 836 529 
Q 422 1150 422 2328 
Q 422 3509 836 4129 
Q 1250 4750 2034 4750 
z
" transform="scale(0.015625)"/>
       </defs>
       <use xlink:href="#DejaVuSans-30"/>
      </g>
     </g>
    </g>
    <g id="xtick_2">
     <g id="line2d_2">
      <g>
       <use xlink:href="#mf11f071dd2" x="75.306674" y="157.321395" style="stroke: #000000; stroke-width: 0.8"/>
      </g>
     </g>
     <g id="text_2">
      <!-- 2 -->
      <g transform="translate(72.125424 171.919832) scale(0.1 -0.1)">
       <defs>
        <path id="DejaVuSans-32" d="M 1228 531 
L 3431 531 
L 3431 0 
L 469 0 
L 469 531 
Q 828 903 1448 1529 
Q 2069 2156 2228 2338 
Q 2531 2678 2651 2914 
Q 2772 3150 2772 3378 
Q 2772 3750 2511 3984 
Q 2250 4219 1831 4219 
Q 1534 4219 1204 4116 
Q 875 4013 500 3803 
L 500 4441 
Q 881 4594 1212 4672 
Q 1544 4750 1819 4750 
Q 2544 4750 2975 4387 
Q 3406 4025 3406 3419 
Q 3406 3131 3298 2873 
Q 3191 2616 2906 2266 
Q 2828 2175 2409 1742 
Q 1991 1309 1228 531 
z
" transform="scale(0.015625)"/>
       </defs>
       <use xlink:href="#DejaVuSans-32"/>
      </g>
     </g>
    </g>
    <g id="xtick_3">
     <g id="line2d_3">
      <g>
       <use xlink:href="#mf11f071dd2" x="111.469512" y="157.321395" style="stroke: #000000; stroke-width: 0.8"/>
      </g>
     </g>
     <g id="text_3">
      <!-- 4 -->
      <g transform="translate(108.288262 171.919832) scale(0.1 -0.1)">
       <defs>
        <path id="DejaVuSans-34" d="M 2419 4116 
L 825 1625 
L 2419 1625 
L 2419 4116 
z
M 2253 4666 
L 3047 4666 
L 3047 1625 
L 3713 1625 
L 3713 1100 
L 3047 1100 
L 3047 0 
L 2419 0 
L 2419 1100 
L 313 1100 
L 313 1709 
L 2253 4666 
z
" transform="scale(0.015625)"/>
       </defs>
       <use xlink:href="#DejaVuSans-34"/>
      </g>
     </g>
    </g>
    <g id="xtick_4">
     <g id="line2d_4">
      <g>
       <use xlink:href="#mf11f071dd2" x="147.632351" y="157.321395" style="stroke: #000000; stroke-width: 0.8"/>
      </g>
     </g>
     <g id="text_4">
      <!-- 6 -->
      <g transform="translate(144.451101 171.919832) scale(0.1 -0.1)">
       <defs>
        <path id="DejaVuSans-36" d="M 2113 2584 
Q 1688 2584 1439 2293 
Q 1191 2003 1191 1497 
Q 1191 994 1439 701 
Q 1688 409 2113 409 
Q 2538 409 2786 701 
Q 3034 994 3034 1497 
Q 3034 2003 2786 2293 
Q 2538 2584 2113 2584 
z
M 3366 4563 
L 3366 3988 
Q 3128 4100 2886 4159 
Q 2644 4219 2406 4219 
Q 1781 4219 1451 3797 
Q 1122 3375 1075 2522 
Q 1259 2794 1537 2939 
Q 1816 3084 2150 3084 
Q 2853 3084 3261 2657 
Q 3669 2231 3669 1497 
Q 3669 778 3244 343 
Q 2819 -91 2113 -91 
Q 1303 -91 875 529 
Q 447 1150 447 2328 
Q 447 3434 972 4092 
Q 1497 4750 2381 4750 
Q 2619 4750 2861 4703 
Q 3103 4656 3366 4563 
z
" transform="scale(0.015625)"/>
       </defs>
       <use xlink:href="#DejaVuSans-36"/>
      </g>
     </g>
    </g>
    <g id="xtick_5">
     <g id="line2d_5">
      <g>
       <use xlink:href="#mf11f071dd2" x="183.79519" y="157.321395" style="stroke: #000000; stroke-width: 0.8"/>
      </g>
     </g>
     <g id="text_5">
      <!-- 8 -->
      <g transform="translate(180.61394 171.919832) scale(0.1 -0.1)">
       <defs>
        <path id="DejaVuSans-38" d="M 2034 2216 
Q 1584 2216 1326 1975 
Q 1069 1734 1069 1313 
Q 1069 891 1326 650 
Q 1584 409 2034 409 
Q 2484 409 2743 651 
Q 3003 894 3003 1313 
Q 3003 1734 2745 1975 
Q 2488 2216 2034 2216 
z
M 1403 2484 
Q 997 2584 770 2862 
Q 544 3141 544 3541 
Q 544 4100 942 4425 
Q 1341 4750 2034 4750 
Q 2731 4750 3128 4425 
Q 3525 4100 3525 3541 
Q 3525 3141 3298 2862 
Q 3072 2584 2669 2484 
Q 3125 2378 3379 2068 
Q 3634 1759 3634 1313 
Q 3634 634 3220 271 
Q 2806 -91 2034 -91 
Q 1263 -91 848 271 
Q 434 634 434 1313 
Q 434 1759 690 2068 
Q 947 2378 1403 2484 
z
M 1172 3481 
Q 1172 3119 1398 2916 
Q 1625 2713 2034 2713 
Q 2441 2713 2670 2916 
Q 2900 3119 2900 3481 
Q 2900 3844 2670 4047 
Q 2441 4250 2034 4250 
Q 1625 4250 1398 4047 
Q 1172 3844 1172 3481 
z
" transform="scale(0.015625)"/>
       </defs>
       <use xlink:href="#DejaVuSans-38"/>
      </g>
     </g>
    </g>
    <g id="xtick_6">
     <g id="line2d_6">
      <g>
       <use xlink:href="#mf11f071dd2" x="219.958029" y="157.321395" style="stroke: #000000; stroke-width: 0.8"/>
      </g>
     </g>
     <g id="text_6">
      <!-- 10 -->
      <g transform="translate(213.595529 171.919832) scale(0.1 -0.1)">
       <defs>
        <path id="DejaVuSans-31" d="M 794 531 
L 1825 531 
L 1825 4091 
L 703 3866 
L 703 4441 
L 1819 4666 
L 2450 4666 
L 2450 531 
L 3481 531 
L 3481 0 
L 794 0 
L 794 531 
z
" transform="scale(0.015625)"/>
       </defs>
       <use xlink:href="#DejaVuSans-31"/>
       <use xlink:href="#DejaVuSans-30" transform="translate(63.623047 0)"/>
      </g>
     </g>
    </g>
   </g>
   <g id="matplotlib.axis_2">
    <g id="ytick_1">
     <g id="line2d_7">
      <defs>
       <path id="mb1afcabbca" d="M 0 0 
L -3.5 0 
" style="stroke: #000000; stroke-width: 0.8"/>
      </defs>
      <g>
       <use xlink:href="#mb1afcabbca" x="30.103125" y="150.497695" style="stroke: #000000; stroke-width: 0.8"/>
      </g>
     </g>
     <g id="text_7">
      <!-- 0.0 -->
      <g transform="translate(7.2 154.296914) scale(0.1 -0.1)">
       <defs>
        <path id="DejaVuSans-2e" d="M 684 794 
L 1344 794 
L 1344 0 
L 684 0 
L 684 794 
z
" transform="scale(0.015625)"/>
       </defs>
       <use xlink:href="#DejaVuSans-30"/>
       <use xlink:href="#DejaVuSans-2e" transform="translate(63.623047 0)"/>
       <use xlink:href="#DejaVuSans-30" transform="translate(95.410156 0)"/>
      </g>
     </g>
    </g>
    <g id="ytick_2">
     <g id="line2d_8">
      <g>
       <use xlink:href="#mb1afcabbca" x="30.103125" y="123.202896" style="stroke: #000000; stroke-width: 0.8"/>
      </g>
     </g>
     <g id="text_8">
      <!-- 0.2 -->
      <g transform="translate(7.2 127.002115) scale(0.1 -0.1)">
       <use xlink:href="#DejaVuSans-30"/>
       <use xlink:href="#DejaVuSans-2e" transform="translate(63.623047 0)"/>
       <use xlink:href="#DejaVuSans-32" transform="translate(95.410156 0)"/>
      </g>
     </g>
    </g>
    <g id="ytick_3">
     <g id="line2d_9">
      <g>
       <use xlink:href="#mb1afcabbca" x="30.103125" y="95.908097" style="stroke: #000000; stroke-width: 0.8"/>
      </g>
     </g>
     <g id="text_9">
      <!-- 0.4 -->
      <g transform="translate(7.2 99.707316) scale(0.1 -0.1)">
       <use xlink:href="#DejaVuSans-30"/>
       <use xlink:href="#DejaVuSans-2e" transform="translate(63.623047 0)"/>
       <use xlink:href="#DejaVuSans-34" transform="translate(95.410156 0)"/>
      </g>
     </g>
    </g>
    <g id="ytick_4">
     <g id="line2d_10">
      <g>
       <use xlink:href="#mb1afcabbca" x="30.103125" y="68.613298" style="stroke: #000000; stroke-width: 0.8"/>
      </g>
     </g>
     <g id="text_10">
      <!-- 0.6 -->
      <g transform="translate(7.2 72.412517) scale(0.1 -0.1)">
       <use xlink:href="#DejaVuSans-30"/>
       <use xlink:href="#DejaVuSans-2e" transform="translate(63.623047 0)"/>
       <use xlink:href="#DejaVuSans-36" transform="translate(95.410156 0)"/>
      </g>
     </g>
    </g>
    <g id="ytick_5">
     <g id="line2d_11">
      <g>
       <use xlink:href="#mb1afcabbca" x="30.103125" y="41.318499" style="stroke: #000000; stroke-width: 0.8"/>
      </g>
     </g>
     <g id="text_11">
      <!-- 0.8 -->
      <g transform="translate(7.2 45.117718) scale(0.1 -0.1)">
       <use xlink:href="#DejaVuSans-30"/>
       <use xlink:href="#DejaVuSans-2e" transform="translate(63.623047 0)"/>
       <use xlink:href="#DejaVuSans-38" transform="translate(95.410156 0)"/>
      </g>
     </g>
    </g>
    <g id="ytick_6">
     <g id="line2d_12">
      <g>
       <use xlink:href="#mb1afcabbca" x="30.103125" y="14.0237" style="stroke: #000000; stroke-width: 0.8"/>
      </g>
     </g>
     <g id="text_12">
      <!-- 1.0 -->
      <g transform="translate(7.2 17.822919) scale(0.1 -0.1)">
       <use xlink:href="#DejaVuSans-31"/>
       <use xlink:href="#DejaVuSans-2e" transform="translate(63.623047 0)"/>
       <use xlink:href="#DejaVuSans-30" transform="translate(95.410156 0)"/>
      </g>
     </g>
    </g>
   </g>
   <g id="line2d_13">
    <path d="M 39.143835 104.039803 
L 39.248707 150.223573 
L 39.156492 81.309028 
L 39.263172 148.619004 
L 39.384318 150.478051 
L 39.275829 143.3495 
L 39.386126 150.461207 
L 39.406015 150.246319 
L 39.462068 150.493276 
L 39.494614 150.480943 
L 39.610335 150.496678 
L 40.161819 150.497695 
L 219.958029 150.497695 
L 219.958029 150.497695 
" clip-path="url(#p7bf01d590c)" style="fill: none; stroke: #00ff00; stroke-width: 1.5; stroke-linecap: square"/>
   </g>
   <g id="line2d_14">
    <path d="M 39.143835 97.406484 
L 39.189038 135.858137 
L 39.252323 83.983084 
L 39.453027 150.472151 
L 39.283062 56.944617 
L 39.456643 150.444279 
L 39.570556 149.021164 
L 39.487382 150.462515 
L 39.577789 149.408849 
L 39.666388 145.483378 
L 39.622992 150.206786 
L 39.688085 149.505206 
L 39.706167 149.914395 
L 39.726056 142.202302 
L 39.729673 142.416909 
L 39.798382 149.813093 
L 39.847202 106.820159 
L 39.962923 150.254878 
L 39.966539 150.310591 
L 40.015359 149.828833 
L 40.064179 150.142732 
L 40.075028 149.325819 
L 40.165435 150.473341 
L 40.172667 150.427782 
L 40.290197 150.497662 
L 219.958029 150.497695 
L 219.958029 150.497695 
" clip-path="url(#p7bf01d590c)" style="fill: none; stroke: #358763; stroke-width: 1.5; stroke-linecap: square"/>
   </g>
   <g id="line2d_15">
    <path d="M 39.143835 100.480134 
L 39.196271 32.95001 
L 39.25594 88.508797 
L 39.395166 150.493498 
L 39.259556 87.665984 
L 39.398783 150.488122 
L 39.51812 150.489322 
L 39.519928 150.484073 
L 39.639266 150.497162 
L 41.004413 150.497695 
L 219.958029 150.497695 
L 219.958029 150.497695 
" clip-path="url(#p7bf01d590c)" style="fill: none; stroke: #e78a18; stroke-width: 1.5; stroke-linecap: square"/>
   </g>
   <g id="line2d_16">
    <path d="M 39.143835 120.388363 
L 39.156492 86.055627 
L 39.239666 150.496616 
L 39.241474 150.496484 
L 39.557899 150.497695 
L 219.958029 150.497695 
L 219.958029 150.497695 
" clip-path="url(#p7bf01d590c)" style="fill: none; stroke: #00fbff; stroke-width: 1.5; stroke-linecap: square"/>
   </g>
   <g id="line2d_17">
    <path d="M 39.143835 132.895672 
L 39.281254 150.497624 
L 39.283062 150.497589 
L 43.514114 150.497695 
L 219.958029 150.497695 
L 219.958029 150.497695 
" clip-path="url(#p7bf01d590c)" style="fill: none; stroke: #3e00ff; stroke-width: 1.5; stroke-linecap: square"/>
   </g>
   <g id="line2d_18">
    <path d="M 39.143835 120.786937 
L 39.145643 116.927376 
L 39.198079 150.017104 
L 39.241474 147.277275 
L 39.344538 150.490901 
L 39.355387 150.47367 
L 39.4693 150.497694 
L 219.958029 150.497695 
L 219.958029 150.497695 
" clip-path="url(#p7bf01d590c)" style="fill: none; stroke: #e64500; stroke-width: 1.5; stroke-linecap: square"/>
   </g>
   <g id="line2d_19">
    <path d="M 39.143835 124.779599 
L 39.145643 120.158615 
L 39.212544 150.493732 
L 39.243283 150.25752 
L 39.351771 150.497048 
L 39.357195 150.496923 
L 172.52685 150.497695 
L 219.958029 150.497695 
L 219.958029 150.497695 
" clip-path="url(#p7bf01d590c)" style="fill: none; stroke: #ffee00; stroke-width: 1.5; stroke-linecap: square"/>
   </g>
   <g id="line2d_20">
    <path d="M 39.143835 117.284737 
L 39.270405 14.493094 
L 39.344538 14.025626 
L 39.395166 14.062259 
L 39.402399 14.079297 
L 39.565132 14.023954 
L 42.172472 14.0237 
L 219.958029 14.0237 
L 219.958029 14.0237 
" clip-path="url(#p7bf01d590c)" style="fill: none; stroke: #0078ff; stroke-width: 1.5; stroke-linecap: square"/>
   </g>
   <g id="line2d_21">
    <path d="M 39.143835 117.148019 
L 39.174573 28.574096 
L 39.1583 132.353923 
L 39.295719 49.710608 
L 39.299335 80.694737 
L 39.331881 21.732137 
L 39.407823 62.145056 
L 39.521736 14.883971 
L 39.523545 15.258642 
L 39.610335 14.111177 
L 39.556091 17.737799 
L 39.639266 14.20653 
L 39.660963 14.768028 
L 39.735097 14.036525 
L 39.747754 14.051132 
L 40.08226 14.023707 
L 219.958029 14.0237 
L 219.958029 14.0237 
" clip-path="url(#p7bf01d590c)" style="fill: none; stroke: #ff0037; stroke-width: 1.5; stroke-linecap: square"/>
   </g>
   <g id="line2d_22">
    <path d="M 39.143835 137.74382 
L 39.230626 150.497551 
L 39.147451 137.506592 
L 39.263172 150.497512 
L 42.926468 150.497695 
L 219.958029 150.497695 
L 219.958029 150.497695 
" clip-path="url(#p7bf01d590c)" style="fill: none; stroke: #e1ff00; stroke-width: 1.5; stroke-linecap: square"/>
   </g>
   <g id="patch_3">
    <path d="M 30.103125 157.321395 
L 30.103125 7.2 
" style="fill: none; stroke: #000000; stroke-width: 0.8; stroke-linejoin: miter; stroke-linecap: square"/>
   </g>
   <g id="patch_4">
    <path d="M 228.998739 157.321395 
L 228.998739 7.2 
" style="fill: none; stroke: #000000; stroke-width: 0.8; stroke-linejoin: miter; stroke-linecap: square"/>
   </g>
   <g id="patch_5">
    <path d="M 30.103125 157.321395 
L 228.998739 157.321395 
" style="fill: none; stroke: #000000; stroke-width: 0.8; stroke-linejoin: miter; stroke-linecap: square"/>
   </g>
   <g id="patch_6">
    <path d="M 30.103125 7.2 
L 228.998739 7.2 
" style="fill: none; stroke: #000000; stroke-width: 0.8; stroke-linejoin: miter; stroke-linecap: square"/>
   </g>
  </g>
  <g id="axes_2">
   <g id="patch_7">
    <path d="M 263.103906 157.321395 
L 461.99952 157.321395 
L 461.99952 7.2 
L 263.103906 7.2 
z
" style="fill: #ffffff"/>
   </g>
   <g id="matplotlib.axis_3">
    <g id="xtick_7">
     <g id="line2d_23">
      <g>
       <use xlink:href="#mf11f071dd2" x="272.144616" y="157.321395" style="stroke: #000000; stroke-width: 0.8"/>
      </g>
     </g>
     <g id="text_13">
      <!-- 0 -->
      <g transform="translate(268.963366 171.919832) scale(0.1 -0.1)">
       <use xlink:href="#DejaVuSans-30"/>
      </g>
     </g>
    </g>
    <g id="xtick_8">
     <g id="line2d_24">
      <g>
       <use xlink:href="#mf11f071dd2" x="308.307455" y="157.321395" style="stroke: #000000; stroke-width: 0.8"/>
      </g>
     </g>
     <g id="text_14">
      <!-- 2 -->
      <g transform="translate(305.126205 171.919832) scale(0.1 -0.1)">
       <use xlink:href="#DejaVuSans-32"/>
      </g>
     </g>
    </g>
    <g id="xtick_9">
     <g id="line2d_25">
      <g>
       <use xlink:href="#mf11f071dd2" x="344.470294" y="157.321395" style="stroke: #000000; stroke-width: 0.8"/>
      </g>
     </g>
     <g id="text_15">
      <!-- 4 -->
      <g transform="translate(341.289044 171.919832) scale(0.1 -0.1)">
       <use xlink:href="#DejaVuSans-34"/>
      </g>
     </g>
    </g>
    <g id="xtick_10">
     <g id="line2d_26">
      <g>
       <use xlink:href="#mf11f071dd2" x="380.633133" y="157.321395" style="stroke: #000000; stroke-width: 0.8"/>
      </g>
     </g>
     <g id="text_16">
      <!-- 6 -->
      <g transform="translate(377.451883 171.919832) scale(0.1 -0.1)">
       <use xlink:href="#DejaVuSans-36"/>
      </g>
     </g>
    </g>
    <g id="xtick_11">
     <g id="line2d_27">
      <g>
       <use xlink:href="#mf11f071dd2" x="416.795971" y="157.321395" style="stroke: #000000; stroke-width: 0.8"/>
      </g>
     </g>
     <g id="text_17">
      <!-- 8 -->
      <g transform="translate(413.614721 171.919832) scale(0.1 -0.1)">
       <use xlink:href="#DejaVuSans-38"/>
      </g>
     </g>
    </g>
    <g id="xtick_12">
     <g id="line2d_28">
      <g>
       <use xlink:href="#mf11f071dd2" x="452.95881" y="157.321395" style="stroke: #000000; stroke-width: 0.8"/>
      </g>
     </g>
     <g id="text_18">
      <!-- 10 -->
      <g transform="translate(446.59631 171.919832) scale(0.1 -0.1)">
       <use xlink:href="#DejaVuSans-31"/>
       <use xlink:href="#DejaVuSans-30" transform="translate(63.623047 0)"/>
      </g>
     </g>
    </g>
   </g>
   <g id="matplotlib.axis_4">
    <g id="ytick_7">
     <g id="line2d_29">
      <g>
       <use xlink:href="#mb1afcabbca" x="263.103906" y="150.497695" style="stroke: #000000; stroke-width: 0.8"/>
      </g>
     </g>
     <g id="text_19">
      <!-- −15 -->
      <g transform="translate(234.999219 154.296914) scale(0.1 -0.1)">
       <defs>
        <path id="DejaVuSans-2212" d="M 678 2272 
L 4684 2272 
L 4684 1741 
L 678 1741 
L 678 2272 
z
" transform="scale(0.015625)"/>
        <path id="DejaVuSans-35" d="M 691 4666 
L 3169 4666 
L 3169 4134 
L 1269 4134 
L 1269 2991 
Q 1406 3038 1543 3061 
Q 1681 3084 1819 3084 
Q 2600 3084 3056 2656 
Q 3513 2228 3513 1497 
Q 3513 744 3044 326 
Q 2575 -91 1722 -91 
Q 1428 -91 1123 -41 
Q 819 9 494 109 
L 494 744 
Q 775 591 1075 516 
Q 1375 441 1709 441 
Q 2250 441 2565 725 
Q 2881 1009 2881 1497 
Q 2881 1984 2565 2268 
Q 2250 2553 1709 2553 
Q 1456 2553 1204 2497 
Q 953 2441 691 2322 
L 691 4666 
z
" transform="scale(0.015625)"/>
       </defs>
       <use xlink:href="#DejaVuSans-2212"/>
       <use xlink:href="#DejaVuSans-31" transform="translate(83.789062 0)"/>
       <use xlink:href="#DejaVuSans-35" transform="translate(147.412109 0)"/>
      </g>
     </g>
    </g>
    <g id="ytick_8">
     <g id="line2d_30">
      <g>
       <use xlink:href="#mb1afcabbca" x="263.103906" y="119.480878" style="stroke: #000000; stroke-width: 0.8"/>
      </g>
     </g>
     <g id="text_20">
      <!-- −10 -->
      <g transform="translate(234.999219 123.280097) scale(0.1 -0.1)">
       <use xlink:href="#DejaVuSans-2212"/>
       <use xlink:href="#DejaVuSans-31" transform="translate(83.789062 0)"/>
       <use xlink:href="#DejaVuSans-30" transform="translate(147.412109 0)"/>
      </g>
     </g>
    </g>
    <g id="ytick_9">
     <g id="line2d_31">
      <g>
       <use xlink:href="#mb1afcabbca" x="263.103906" y="88.464061" style="stroke: #000000; stroke-width: 0.8"/>
      </g>
     </g>
     <g id="text_21">
      <!-- −5 -->
      <g transform="translate(241.361719 92.26328) scale(0.1 -0.1)">
       <use xlink:href="#DejaVuSans-2212"/>
       <use xlink:href="#DejaVuSans-35" transform="translate(83.789062 0)"/>
      </g>
     </g>
    </g>
    <g id="ytick_10">
     <g id="line2d_32">
      <g>
       <use xlink:href="#mb1afcabbca" x="263.103906" y="57.447244" style="stroke: #000000; stroke-width: 0.8"/>
      </g>
     </g>
     <g id="text_22">
      <!-- 0 -->
      <g transform="translate(249.741406 61.246463) scale(0.1 -0.1)">
       <use xlink:href="#DejaVuSans-30"/>
      </g>
     </g>
    </g>
    <g id="ytick_11">
     <g id="line2d_33">
      <g>
       <use xlink:href="#mb1afcabbca" x="263.103906" y="26.430427" style="stroke: #000000; stroke-width: 0.8"/>
      </g>
     </g>
     <g id="text_23">
      <!-- 5 -->
      <g transform="translate(249.741406 30.229645) scale(0.1 -0.1)">
       <use xlink:href="#DejaVuSans-35"/>
      </g>
     </g>
    </g>
   </g>
   <g id="line2d_34">
    <path d="M 272.144616 69.761558 
L 272.206093 22.394944 
L 272.157273 91.776851 
L 272.262145 31.949467 
L 272.27661 42.355374 
L 272.309157 28.805136 
L 272.370634 31.54148 
L 272.372442 31.273622 
L 272.410413 41.494213 
L 272.424878 39.545913 
L 272.493587 44.250587 
L 272.441151 35.190329 
L 272.527942 38.394647 
L 272.52975 37.277418 
L 272.621965 47.552191 
L 272.737687 50.098072 
L 272.645471 45.989877 
L 272.741303 49.905669 
L 272.743111 49.906528 
L 272.744919 49.838057 
L 272.746727 49.775896 
L 272.777466 50.860007 
L 272.826285 50.802334 
L 272.945623 51.156451 
L 272.951047 51.11958 
L 273.068576 51.189029 
L 272.967321 51.068385 
L 273.079425 51.164529 
L 273.171641 50.954046 
L 273.209612 50.999113 
L 273.274705 51.183136 
L 273.319908 51.013273 
L 273.34703 50.837029 
L 273.325333 51.033136 
L 273.388618 51.059836 
L 273.392234 51.121999 
L 273.479025 50.799304 
L 273.495298 50.955935 
L 273.531461 50.842846 
L 273.594746 51.09133 
L 273.60017 51.073945 
L 273.712275 51.203228 
L 273.683345 51.012602 
L 273.721316 51.187924 
L 274.578375 51.238274 
L 276.954274 51.243876 
L 452.95881 51.24388 
L 452.95881 51.24388 
" clip-path="url(#pec0cc794bb)" style="fill: none; stroke: #00ff00; stroke-width: 1.5; stroke-linecap: square"/>
   </g>
   <g id="line2d_35">
    <path d="M 272.144616 84.367526 
L 272.18982 53.989423 
L 272.253104 98.504048 
L 272.415837 48.167429 
L 272.283843 118.948647 
L 272.457425 49.263316 
L 272.580378 52.470712 
L 272.591227 51.846141 
L 272.623774 51.35455 
L 272.667169 54.872848 
L 272.701524 51.716717 
L 272.847983 83.009015 
L 272.706948 51.644979 
L 272.855216 58.86945 
L 272.967321 51.379182 
L 272.891379 62.105594 
L 273.010716 51.643221 
L 273.034222 51.403627 
L 273.072193 51.759871 
L 273.074001 51.644246 
L 273.075809 52.096075 
L 273.180681 51.253789 
L 273.182489 51.256875 
L 273.301827 51.243559 
L 275.656028 51.243878 
L 452.95881 51.24388 
L 452.95881 51.24388 
" clip-path="url(#pec0cc794bb)" style="fill: none; stroke: #358763; stroke-width: 1.5; stroke-linecap: square"/>
   </g>
   <g id="line2d_36">
    <path d="M 272.144616 82.549726 
L 272.197052 136.461075 
L 272.256721 95.332418 
L 272.395948 43.214111 
L 272.260337 96.012552 
L 272.40318 44.040896 
L 272.410413 42.535313 
L 272.486355 49.105827 
L 272.488163 49.06555 
L 272.620157 50.865001 
L 272.665361 50.371514 
L 272.715989 50.980402 
L 272.835326 51.212306 
L 272.847983 51.228383 
L 272.969129 51.238336 
L 274.254718 51.243873 
L 452.95881 51.24388 
L 452.95881 51.24388 
" clip-path="url(#pec0cc794bb)" style="fill: none; stroke: #e78a18; stroke-width: 1.5; stroke-linecap: square"/>
   </g>
   <g id="line2d_37">
    <path d="M 272.144616 51.523204 
L 272.157273 85.488331 
L 272.238639 15.940761 
L 272.240447 15.95044 
L 272.242256 16.044254 
L 272.318198 14.385873 
L 272.320006 14.397417 
L 272.428494 14.133927 
L 272.338087 14.539948 
L 272.457425 14.20352 
L 272.506244 14.269128 
L 272.546023 14.133913 
L 272.562297 14.154445 
L 272.614733 14.047606 
L 272.681634 14.091738 
L 272.791931 14.064321 
L 272.687059 14.106072 
L 272.817245 14.104864 
L 272.855216 14.150827 
L 272.894995 14.086133 
L 272.92935 14.131101 
L 272.931158 14.119862 
L 272.970937 14.539678 
L 273.086658 15.935865 
L 272.978169 14.405528 
L 273.090274 15.331512 
L 273.22046 14.141612 
L 273.097507 15.601415 
L 273.234926 14.214083 
L 273.26024 14.31995 
L 273.280129 14.15328 
L 273.348839 14.220604 
L 273.480833 14.073705 
L 273.513379 14.095638 
L 273.567624 14.034202 
L 273.585705 14.038209 
L 273.739397 14.028415 
L 274.111874 14.028081 
L 274.639852 14.024339 
L 292.648946 14.0237 
L 452.95881 14.0237 
L 452.95881 14.0237 
" clip-path="url(#pec0cc794bb)" style="fill: none; stroke: #00fbff; stroke-width: 1.5; stroke-linecap: square"/>
   </g>
   <g id="line2d_38">
    <path d="M 272.144616 48.493472 
L 272.294692 17.77099 
L 272.314581 18.520853 
L 272.453808 28.391215 
L 272.332663 17.18146 
L 272.461041 24.196356 
L 272.462849 22.461918 
L 272.556872 37.234996 
L 272.55868 37.224268 
L 272.582186 41.275427 
L 272.611117 29.024942 
L 272.667169 35.159422 
L 272.668977 32.476116 
L 272.757576 41.794991 
L 272.773849 37.560549 
L 272.797355 43.603322 
L 272.842559 34.748669 
L 272.884146 39.076909 
L 272.999867 33.723962 
L 272.942007 44.723224 
L 273.005292 35.140192 
L 273.0071 35.162578 
L 273.008908 34.431324 
L 273.057728 21.784919 
L 273.108356 38.309132 
L 273.110164 37.717274 
L 273.233117 44.038125 
L 273.19153 35.276575 
L 273.236734 43.345453 
L 273.339798 28.765864 
L 273.24035 43.49384 
L 273.377769 32.754201 
L 273.448286 43.198695 
L 273.497106 36.153911 
L 273.500722 31.778998 
L 273.562199 44.481324 
L 273.605595 38.51905 
L 273.609211 39.236903 
L 273.623676 37.355287 
L 273.667071 33.73878 
L 273.719508 44.0429 
L 273.728548 41.08787 
L 273.82438 46.36619 
L 273.753862 38.973305 
L 273.846078 44.701681 
L 273.947333 37.324234 
L 274.072095 19.77946 
L 274.182392 15.21685 
L 274.198665 15.585025 
L 274.21313 16.153973 
L 274.303537 14.362549 
L 274.319811 14.196241 
L 274.368631 14.061269 
L 274.41745 14.223886 
L 274.428299 14.215125 
L 274.489776 14.413482 
L 274.533171 14.16453 
L 274.645276 14.071138 
L 274.571142 14.281737 
L 274.647084 14.071857 
L 274.659741 14.072175 
L 274.699521 14.177061 
L 274.744724 14.286727 
L 274.795352 14.108941 
L 274.798968 14.114656 
L 274.880335 14.08899 
L 274.900224 14.175938 
L 274.911073 14.104891 
L 275.034027 14.159461 
L 274.970742 14.055438 
L 275.039451 14.120301 
L 275.142515 14.066712 
L 275.162405 14.074394 
L 275.265469 14.121384 
L 275.2058 14.067814 
L 275.27451 14.090588 
L 275.288975 14.072316 
L 275.355876 14.151623 
L 275.382998 14.113178 
L 275.397463 14.157095 
L 275.467981 14.038858 
L 275.645179 14.031018 
L 275.768132 14.025304 
L 276.411831 14.024757 
L 278.518316 14.023732 
L 382.446699 14.0237 
L 452.95881 14.0237 
L 452.95881 14.0237 
" clip-path="url(#pec0cc794bb)" style="fill: none; stroke: #3e00ff; stroke-width: 1.5; stroke-linecap: square"/>
   </g>
   <g id="line2d_39">
    <path d="M 272.144616 52.61741 
L 272.146424 56.564036 
L 272.177163 21.102299 
L 272.244064 28.168976 
L 272.291075 23.281988 
L 272.254913 30.29251 
L 272.35436 27.517044 
L 272.367017 28.389737 
L 272.432111 19.026405 
L 272.470082 18.016412 
L 272.524326 21.36108 
L 272.531558 20.379322 
L 272.553256 22.844917 
L 272.623774 16.337856 
L 272.632814 16.665112 
L 272.873297 41.677404 
L 272.647279 16.609405 
L 272.967321 35.600263 
L 273.063152 28.594635 
L 272.98721 37.137379 
L 273.083042 31.494957 
L 273.088466 29.576068 
L 273.111972 34.02848 
L 273.117396 33.840467 
L 273.14271 31.816512 
L 273.249391 46.735057 
L 273.388618 27.224327 
L 273.450094 33.657856 
L 273.506147 28.301773 
L 273.583897 23.203634 
L 273.558583 31.760292 
L 273.618252 25.663424 
L 273.621868 27.825837 
L 273.710467 17.147703 
L 273.715891 17.254012 
L 273.730356 19.62803 
L 273.793641 15.959074 
L 273.829804 17.924068 
L 273.835229 18.277264 
L 273.864159 15.987333 
L 273.911171 14.49593 
L 273.978072 15.438442 
L 274.115491 14.38361 
L 274.066671 15.496596 
L 274.117299 14.425564 
L 274.131764 14.231058 
L 274.162502 14.707143 
L 274.216747 14.514643 
L 274.218555 14.639067 
L 274.318003 14.128137 
L 274.321619 14.159369 
L 274.404793 14.197192 
L 274.357782 14.124087 
L 274.431916 14.162117 
L 274.45723 14.129214 
L 274.513282 14.317625 
L 274.554869 14.626734 
L 274.607305 14.200337 
L 274.625387 14.237755 
L 274.755573 14.058658 
L 274.880335 14.0985 
L 274.883951 14.088924 
L 274.997864 14.040465 
L 274.918306 14.101295 
L 275.005097 14.049854 
L 275.236539 14.024539 
L 277.983106 14.0237 
L 452.95881 14.0237 
L 452.95881 14.0237 
" clip-path="url(#pec0cc794bb)" style="fill: none; stroke: #e64500; stroke-width: 1.5; stroke-linecap: square"/>
   </g>
   <g id="line2d_40">
    <path d="M 272.144616 49.760752 
L 272.146424 54.501632 
L 272.213325 16.985291 
L 272.244064 24.465479 
L 272.327238 20.178078 
L 272.263953 25.101349 
L 272.357977 21.908415 
L 272.359785 22.030455 
L 272.377866 18.101808 
L 272.446576 20.63875 
L 272.562297 17.113391 
L 272.509861 21.253454 
L 272.565913 18.539649 
L 272.567721 18.953173 
L 272.661745 16.497322 
L 272.668977 16.805605 
L 272.715989 20.205941 
L 272.781082 17.726784 
L 272.885954 15.23706 
L 272.808204 19.311197 
L 272.894995 16.525182 
L 273.01614 14.332614 
L 273.028797 14.361828 
L 273.034222 14.421534 
L 273.111972 14.134132 
L 273.155367 14.239758 
L 273.166216 14.296866 
L 273.216844 14.114632 
L 273.26024 14.171006 
L 273.276513 14.10957 
L 273.3181 14.276026 
L 273.375961 14.133994 
L 273.430205 14.222633 
L 273.392234 14.085667 
L 273.477217 14.074107 
L 273.583897 14.035463 
L 273.592938 14.038384 
L 273.72674 14.026007 
L 274.236636 14.02565 
L 275.203992 14.023957 
L 282.921142 14.0237 
L 452.95881 14.0237 
L 452.95881 14.0237 
" clip-path="url(#pec0cc794bb)" style="fill: none; stroke: #ffee00; stroke-width: 1.5; stroke-linecap: square"/>
   </g>
   <g id="line2d_41">
    <path d="M 272.144616 51.590373 
L 272.271186 150.14228 
L 272.34532 150.496292 
L 272.39414 150.472646 
L 272.417645 150.492421 
L 272.508052 150.497086 
L 277.088076 150.497695 
L 452.95881 150.497695 
L 452.95881 150.497695 
" clip-path="url(#pec0cc794bb)" style="fill: none; stroke: #0078ff; stroke-width: 1.5; stroke-linecap: square"/>
   </g>
   <g id="line2d_42">
    <path d="M 272.144616 62.599057 
L 272.287459 139.720955 
L 272.159081 49.180389 
L 272.2965 124.063142 
L 272.300116 100.7871 
L 272.332663 144.859274 
L 272.408605 115.339926 
L 272.522518 149.871946 
L 272.524326 149.599398 
L 272.611117 150.434074 
L 272.556872 147.796069 
L 272.640047 150.364726 
L 272.661745 149.956355 
L 272.735878 150.488368 
L 272.748535 150.477744 
L 273.169832 150.497694 
L 452.95881 150.497695 
L 452.95881 150.497695 
" clip-path="url(#pec0cc794bb)" style="fill: none; stroke: #ff0037; stroke-width: 1.5; stroke-linecap: square"/>
   </g>
   <g id="line2d_43">
    <path d="M 272.144616 33.256645 
L 272.231407 15.001613 
L 272.148232 33.725607 
L 272.265761 15.377714 
L 272.27661 15.810909 
L 272.352552 14.875583 
L 272.356169 14.910518 
L 272.357977 14.85221 
L 272.388715 17.338082 
L 272.390523 17.308997 
L 272.40318 18.02661 
L 272.457425 15.512928 
L 272.488163 15.681559 
L 272.522518 15.124452 
L 272.567721 16.514726 
L 272.582186 16.49755 
L 272.583994 16.583788 
L 272.643663 15.342988 
L 272.678018 15.779792 
L 272.746727 14.775999 
L 272.793739 14.897763 
L 272.876913 14.369935 
L 272.914884 14.541348 
L 272.916693 14.695911 
L 272.999867 14.073263 
L 273.019757 14.081406 
L 273.131861 14.036568 
L 273.05592 14.141584 
L 273.137286 14.04202 
L 273.285554 14.040962 
L 273.410315 14.027226 
L 274.120915 14.02447 
L 279.635748 14.0237 
L 452.95881 14.0237 
L 452.95881 14.0237 
" clip-path="url(#pec0cc794bb)" style="fill: none; stroke: #e1ff00; stroke-width: 1.5; stroke-linecap: square"/>
   </g>
   <g id="patch_8">
    <path d="M 263.103906 157.321395 
L 263.103906 7.2 
" style="fill: none; stroke: #000000; stroke-width: 0.8; stroke-linejoin: miter; stroke-linecap: square"/>
   </g>
   <g id="patch_9">
    <path d="M 461.99952 157.321395 
L 461.99952 7.2 
" style="fill: none; stroke: #000000; stroke-width: 0.8; stroke-linejoin: miter; stroke-linecap: square"/>
   </g>
   <g id="patch_10">
    <path d="M 263.103906 157.321395 
L 461.99952 157.321395 
" style="fill: none; stroke: #000000; stroke-width: 0.8; stroke-linejoin: miter; stroke-linecap: square"/>
   </g>
   <g id="patch_11">
    <path d="M 263.103906 7.2 
L 461.99952 7.2 
" style="fill: none; stroke: #000000; stroke-width: 0.8; stroke-linejoin: miter; stroke-linecap: square"/>
   </g>
  </g>
  <g id="axes_3">
   <g id="patch_12">
    <path d="M 30.103125 330.121395 
L 228.998739 330.121395 
L 228.998739 180 
L 30.103125 180 
z
" style="fill: #ffffff"/>
   </g>
   <g id="matplotlib.axis_5">
    <g id="xtick_13">
     <g id="line2d_44">
      <g>
       <use xlink:href="#mf11f071dd2" x="39.143835" y="330.121395" style="stroke: #000000; stroke-width: 0.8"/>
      </g>
     </g>
     <g id="text_24">
      <!-- 0 -->
      <g transform="translate(35.962585 344.719832) scale(0.1 -0.1)">
       <use xlink:href="#DejaVuSans-30"/>
      </g>
     </g>
    </g>
    <g id="xtick_14">
     <g id="line2d_45">
      <g>
       <use xlink:href="#mf11f071dd2" x="75.306674" y="330.121395" style="stroke: #000000; stroke-width: 0.8"/>
      </g>
     </g>
     <g id="text_25">
      <!-- 2 -->
      <g transform="translate(72.125424 344.719832) scale(0.1 -0.1)">
       <use xlink:href="#DejaVuSans-32"/>
      </g>
     </g>
    </g>
    <g id="xtick_15">
     <g id="line2d_46">
      <g>
       <use xlink:href="#mf11f071dd2" x="111.469512" y="330.121395" style="stroke: #000000; stroke-width: 0.8"/>
      </g>
     </g>
     <g id="text_26">
      <!-- 4 -->
      <g transform="translate(108.288262 344.719832) scale(0.1 -0.1)">
       <use xlink:href="#DejaVuSans-34"/>
      </g>
     </g>
    </g>
    <g id="xtick_16">
     <g id="line2d_47">
      <g>
       <use xlink:href="#mf11f071dd2" x="147.632351" y="330.121395" style="stroke: #000000; stroke-width: 0.8"/>
      </g>
     </g>
     <g id="text_27">
      <!-- 6 -->
      <g transform="translate(144.451101 344.719832) scale(0.1 -0.1)">
       <use xlink:href="#DejaVuSans-36"/>
      </g>
     </g>
    </g>
    <g id="xtick_17">
     <g id="line2d_48">
      <g>
       <use xlink:href="#mf11f071dd2" x="183.79519" y="330.121395" style="stroke: #000000; stroke-width: 0.8"/>
      </g>
     </g>
     <g id="text_28">
      <!-- 8 -->
      <g transform="translate(180.61394 344.719832) scale(0.1 -0.1)">
       <use xlink:href="#DejaVuSans-38"/>
      </g>
     </g>
    </g>
    <g id="xtick_18">
     <g id="line2d_49">
      <g>
       <use xlink:href="#mf11f071dd2" x="219.958029" y="330.121395" style="stroke: #000000; stroke-width: 0.8"/>
      </g>
     </g>
     <g id="text_29">
      <!-- 10 -->
      <g transform="translate(213.595529 344.719832) scale(0.1 -0.1)">
       <use xlink:href="#DejaVuSans-31"/>
       <use xlink:href="#DejaVuSans-30" transform="translate(63.623047 0)"/>
      </g>
     </g>
    </g>
   </g>
   <g id="matplotlib.axis_6">
    <g id="ytick_12">
     <g id="line2d_50">
      <g>
       <use xlink:href="#mb1afcabbca" x="30.103125" y="323.297695" style="stroke: #000000; stroke-width: 0.8"/>
      </g>
     </g>
     <g id="text_30">
      <!-- 0.0 -->
      <g transform="translate(7.2 327.096914) scale(0.1 -0.1)">
       <use xlink:href="#DejaVuSans-30"/>
       <use xlink:href="#DejaVuSans-2e" transform="translate(63.623047 0)"/>
       <use xlink:href="#DejaVuSans-30" transform="translate(95.410156 0)"/>
      </g>
     </g>
    </g>
    <g id="ytick_13">
     <g id="line2d_51">
      <g>
       <use xlink:href="#mb1afcabbca" x="30.103125" y="296.002896" style="stroke: #000000; stroke-width: 0.8"/>
      </g>
     </g>
     <g id="text_31">
      <!-- 0.2 -->
      <g transform="translate(7.2 299.802115) scale(0.1 -0.1)">
       <use xlink:href="#DejaVuSans-30"/>
       <use xlink:href="#DejaVuSans-2e" transform="translate(63.623047 0)"/>
       <use xlink:href="#DejaVuSans-32" transform="translate(95.410156 0)"/>
      </g>
     </g>
    </g>
    <g id="ytick_14">
     <g id="line2d_52">
      <g>
       <use xlink:href="#mb1afcabbca" x="30.103125" y="268.708097" style="stroke: #000000; stroke-width: 0.8"/>
      </g>
     </g>
     <g id="text_32">
      <!-- 0.4 -->
      <g transform="translate(7.2 272.507316) scale(0.1 -0.1)">
       <use xlink:href="#DejaVuSans-30"/>
       <use xlink:href="#DejaVuSans-2e" transform="translate(63.623047 0)"/>
       <use xlink:href="#DejaVuSans-34" transform="translate(95.410156 0)"/>
      </g>
     </g>
    </g>
    <g id="ytick_15">
     <g id="line2d_53">
      <g>
       <use xlink:href="#mb1afcabbca" x="30.103125" y="241.413298" style="stroke: #000000; stroke-width: 0.8"/>
      </g>
     </g>
     <g id="text_33">
      <!-- 0.6 -->
      <g transform="translate(7.2 245.212517) scale(0.1 -0.1)">
       <use xlink:href="#DejaVuSans-30"/>
       <use xlink:href="#DejaVuSans-2e" transform="translate(63.623047 0)"/>
       <use xlink:href="#DejaVuSans-36" transform="translate(95.410156 0)"/>
      </g>
     </g>
    </g>
    <g id="ytick_16">
     <g id="line2d_54">
      <g>
       <use xlink:href="#mb1afcabbca" x="30.103125" y="214.118499" style="stroke: #000000; stroke-width: 0.8"/>
      </g>
     </g>
     <g id="text_34">
      <!-- 0.8 -->
      <g transform="translate(7.2 217.917718) scale(0.1 -0.1)">
       <use xlink:href="#DejaVuSans-30"/>
       <use xlink:href="#DejaVuSans-2e" transform="translate(63.623047 0)"/>
       <use xlink:href="#DejaVuSans-38" transform="translate(95.410156 0)"/>
      </g>
     </g>
    </g>
    <g id="ytick_17">
     <g id="line2d_55">
      <g>
       <use xlink:href="#mb1afcabbca" x="30.103125" y="186.8237" style="stroke: #000000; stroke-width: 0.8"/>
      </g>
     </g>
     <g id="text_35">
      <!-- 1.0 -->
      <g transform="translate(7.2 190.622919) scale(0.1 -0.1)">
       <use xlink:href="#DejaVuSans-31"/>
       <use xlink:href="#DejaVuSans-2e" transform="translate(63.623047 0)"/>
       <use xlink:href="#DejaVuSans-30" transform="translate(95.410156 0)"/>
      </g>
     </g>
    </g>
   </g>
   <g id="line2d_56">
    <path d="M 39.143835 276.839803 
L 39.248707 323.023573 
L 39.156492 254.109028 
L 39.263172 321.419004 
L 39.384318 323.278051 
L 39.275829 316.1495 
L 39.386126 323.261207 
L 39.406015 323.046319 
L 39.462068 323.293276 
L 39.494614 323.280943 
L 39.610335 323.296678 
L 40.161819 323.297695 
L 219.958029 323.297695 
L 219.958029 323.297695 
" clip-path="url(#pef7ad5885a)" style="fill: none; stroke: #00ff00; stroke-width: 1.5; stroke-linecap: square"/>
   </g>
   <g id="line2d_57">
    <path d="M 39.143835 270.206484 
L 39.189038 308.658137 
L 39.252323 256.783084 
L 39.453027 323.272151 
L 39.283062 229.744617 
L 39.456643 323.244279 
L 39.570556 321.821164 
L 39.487382 323.262515 
L 39.577789 322.208849 
L 39.666388 318.283378 
L 39.622992 323.006786 
L 39.688085 322.305206 
L 39.706167 322.714395 
L 39.726056 315.002302 
L 39.729673 315.216909 
L 39.798382 322.613093 
L 39.847202 279.620159 
L 39.962923 323.054878 
L 39.966539 323.110591 
L 40.015359 322.628833 
L 40.064179 322.942732 
L 40.075028 322.125819 
L 40.165435 323.273341 
L 40.172667 323.227782 
L 40.290197 323.297662 
L 219.958029 323.297695 
L 219.958029 323.297695 
" clip-path="url(#pef7ad5885a)" style="fill: none; stroke: #358763; stroke-width: 1.5; stroke-linecap: square"/>
   </g>
   <g id="line2d_58">
    <path d="M 39.143835 273.280134 
L 39.196271 205.75001 
L 39.25594 261.308797 
L 39.395166 323.293498 
L 39.259556 260.465984 
L 39.398783 323.288122 
L 39.51812 323.289322 
L 39.519928 323.284073 
L 39.639266 323.297162 
L 41.004413 323.297695 
L 219.958029 323.297695 
L 219.958029 323.297695 
" clip-path="url(#pef7ad5885a)" style="fill: none; stroke: #e78a18; stroke-width: 1.5; stroke-linecap: square"/>
   </g>
   <g id="line2d_59">
    <path d="M 39.143835 293.188363 
L 39.156492 258.855627 
L 39.239666 323.296616 
L 39.241474 323.296484 
L 39.557899 323.297692 
L 208.286473 323.297695 
L 219.958029 323.297695 
L 219.958029 323.297695 
" clip-path="url(#pef7ad5885a)" style="fill: none; stroke: #00fbff; stroke-width: 1.5; stroke-linecap: square"/>
   </g>
   <g id="line2d_60">
    <path d="M 39.143835 305.695672 
L 39.281254 323.297624 
L 39.283062 323.297589 
L 43.514114 323.297695 
L 219.958029 323.297695 
L 219.958029 323.297695 
" clip-path="url(#pef7ad5885a)" style="fill: none; stroke: #3e00ff; stroke-width: 1.5; stroke-linecap: square"/>
   </g>
   <g id="line2d_61">
    <path d="M 39.143835 293.586937 
L 39.145643 289.727376 
L 39.198079 322.817104 
L 39.241474 320.077275 
L 39.344538 323.290901 
L 39.355387 323.27367 
L 39.4693 323.297694 
L 219.958029 323.297695 
L 219.958029 323.297695 
" clip-path="url(#pef7ad5885a)" style="fill: none; stroke: #e64500; stroke-width: 1.5; stroke-linecap: square"/>
   </g>
   <g id="line2d_62">
    <path d="M 39.143835 297.579599 
L 39.145643 292.958615 
L 39.212544 323.293732 
L 39.243283 323.05752 
L 39.351771 323.297048 
L 39.357195 323.296923 
L 172.52685 323.297695 
L 219.958029 323.297695 
L 219.958029 323.297695 
" clip-path="url(#pef7ad5885a)" style="fill: none; stroke: #ffee00; stroke-width: 1.5; stroke-linecap: square"/>
   </g>
   <g id="line2d_63">
    <path d="M 39.143835 290.084737 
L 39.270405 187.293094 
L 39.344538 186.825626 
L 39.395166 186.862259 
L 39.402399 186.879297 
L 39.565132 186.823954 
L 42.172472 186.8237 
L 219.958029 186.8237 
L 219.958029 186.8237 
" clip-path="url(#pef7ad5885a)" style="fill: none; stroke: #0078ff; stroke-width: 1.5; stroke-linecap: square"/>
   </g>
   <g id="line2d_64">
    <path d="M 39.143835 289.948019 
L 39.174573 201.374096 
L 39.1583 305.153923 
L 39.295719 222.510608 
L 39.299335 253.494737 
L 39.331881 194.532137 
L 39.407823 234.945056 
L 39.521736 187.683971 
L 39.523545 188.058642 
L 39.610335 186.911177 
L 39.556091 190.537799 
L 39.639266 187.00653 
L 39.660963 187.568028 
L 39.735097 186.836525 
L 39.747754 186.851132 
L 40.08226 186.823707 
L 219.958029 186.8237 
L 219.958029 186.8237 
" clip-path="url(#pef7ad5885a)" style="fill: none; stroke: #ff0037; stroke-width: 1.5; stroke-linecap: square"/>
   </g>
   <g id="line2d_65">
    <path d="M 39.143835 310.54382 
L 39.230626 323.297551 
L 39.147451 310.306592 
L 39.263172 323.297512 
L 42.926468 323.297695 
L 219.958029 323.297695 
L 219.958029 323.297695 
" clip-path="url(#pef7ad5885a)" style="fill: none; stroke: #e1ff00; stroke-width: 1.5; stroke-linecap: square"/>
   </g>
   <g id="patch_13">
    <path d="M 30.103125 330.121395 
L 30.103125 180 
" style="fill: none; stroke: #000000; stroke-width: 0.8; stroke-linejoin: miter; stroke-linecap: square"/>
   </g>
   <g id="patch_14">
    <path d="M 228.998739 330.121395 
L 228.998739 180 
" style="fill: none; stroke: #000000; stroke-width: 0.8; stroke-linejoin: miter; stroke-linecap: square"/>
   </g>
   <g id="patch_15">
    <path d="M 30.103125 330.121395 
L 228.998739 330.121395 
" style="fill: none; stroke: #000000; stroke-width: 0.8; stroke-linejoin: miter; stroke-linecap: square"/>
   </g>
   <g id="patch_16">
    <path d="M 30.103125 180 
L 228.998739 180 
" style="fill: none; stroke: #000000; stroke-width: 0.8; stroke-linejoin: miter; stroke-linecap: square"/>
   </g>
  </g>
  <g id="axes_4">
   <g id="patch_17">
    <path d="M 263.103906 330.121395 
L 461.99952 330.121395 
L 461.99952 180 
L 263.103906 180 
z
" style="fill: #ffffff"/>
   </g>
   <g id="matplotlib.axis_7">
    <g id="xtick_19">
     <g id="line2d_66">
      <g>
       <use xlink:href="#mf11f071dd2" x="272.144616" y="330.121395" style="stroke: #000000; stroke-width: 0.8"/>
      </g>
     </g>
     <g id="text_36">
      <!-- 0 -->
      <g transform="translate(268.963366 344.719832) scale(0.1 -0.1)">
       <use xlink:href="#DejaVuSans-30"/>
      </g>
     </g>
    </g>
    <g id="xtick_20">
     <g id="line2d_67">
      <g>
       <use xlink:href="#mf11f071dd2" x="308.307455" y="330.121395" style="stroke: #000000; stroke-width: 0.8"/>
      </g>
     </g>
     <g id="text_37">
      <!-- 2 -->
      <g transform="translate(305.126205 344.719832) scale(0.1 -0.1)">
       <use xlink:href="#DejaVuSans-32"/>
      </g>
     </g>
    </g>
    <g id="xtick_21">
     <g id="line2d_68">
      <g>
       <use xlink:href="#mf11f071dd2" x="344.470294" y="330.121395" style="stroke: #000000; stroke-width: 0.8"/>
      </g>
     </g>
     <g id="text_38">
      <!-- 4 -->
      <g transform="translate(341.289044 344.719832) scale(0.1 -0.1)">
       <use xlink:href="#DejaVuSans-34"/>
      </g>
     </g>
    </g>
    <g id="xtick_22">
     <g id="line2d_69">
      <g>
       <use xlink:href="#mf11f071dd2" x="380.633133" y="330.121395" style="stroke: #000000; stroke-width: 0.8"/>
      </g>
     </g>
     <g id="text_39">
      <!-- 6 -->
      <g transform="translate(377.451883 344.719832) scale(0.1 -0.1)">
       <use xlink:href="#DejaVuSans-36"/>
      </g>
     </g>
    </g>
    <g id="xtick_23">
     <g id="line2d_70">
      <g>
       <use xlink:href="#mf11f071dd2" x="416.795971" y="330.121395" style="stroke: #000000; stroke-width: 0.8"/>
      </g>
     </g>
     <g id="text_40">
      <!-- 8 -->
      <g transform="translate(413.614721 344.719832) scale(0.1 -0.1)">
       <use xlink:href="#DejaVuSans-38"/>
      </g>
     </g>
    </g>
    <g id="xtick_24">
     <g id="line2d_71">
      <g>
       <use xlink:href="#mf11f071dd2" x="452.95881" y="330.121395" style="stroke: #000000; stroke-width: 0.8"/>
      </g>
     </g>
     <g id="text_41">
      <!-- 10 -->
      <g transform="translate(446.59631 344.719832) scale(0.1 -0.1)">
       <use xlink:href="#DejaVuSans-31"/>
       <use xlink:href="#DejaVuSans-30" transform="translate(63.623047 0)"/>
      </g>
     </g>
    </g>
   </g>
   <g id="matplotlib.axis_8">
    <g id="ytick_18">
     <g id="line2d_72">
      <g>
       <use xlink:href="#mb1afcabbca" x="263.103906" y="323.297695" style="stroke: #000000; stroke-width: 0.8"/>
      </g>
     </g>
     <g id="text_42">
      <!-- −15 -->
      <g transform="translate(234.999219 327.096914) scale(0.1 -0.1)">
       <use xlink:href="#DejaVuSans-2212"/>
       <use xlink:href="#DejaVuSans-31" transform="translate(83.789062 0)"/>
       <use xlink:href="#DejaVuSans-35" transform="translate(147.412109 0)"/>
      </g>
     </g>
    </g>
    <g id="ytick_19">
     <g id="line2d_73">
      <g>
       <use xlink:href="#mb1afcabbca" x="263.103906" y="292.280878" style="stroke: #000000; stroke-width: 0.8"/>
      </g>
     </g>
     <g id="text_43">
      <!-- −10 -->
      <g transform="translate(234.999219 296.080097) scale(0.1 -0.1)">
       <use xlink:href="#DejaVuSans-2212"/>
       <use xlink:href="#DejaVuSans-31" transform="translate(83.789062 0)"/>
       <use xlink:href="#DejaVuSans-30" transform="translate(147.412109 0)"/>
      </g>
     </g>
    </g>
    <g id="ytick_20">
     <g id="line2d_74">
      <g>
       <use xlink:href="#mb1afcabbca" x="263.103906" y="261.264061" style="stroke: #000000; stroke-width: 0.8"/>
      </g>
     </g>
     <g id="text_44">
      <!-- −5 -->
      <g transform="translate(241.361719 265.06328) scale(0.1 -0.1)">
       <use xlink:href="#DejaVuSans-2212"/>
       <use xlink:href="#DejaVuSans-35" transform="translate(83.789062 0)"/>
      </g>
     </g>
    </g>
    <g id="ytick_21">
     <g id="line2d_75">
      <g>
       <use xlink:href="#mb1afcabbca" x="263.103906" y="230.247244" style="stroke: #000000; stroke-width: 0.8"/>
      </g>
     </g>
     <g id="text_45">
      <!-- 0 -->
      <g transform="translate(249.741406 234.046463) scale(0.1 -0.1)">
       <use xlink:href="#DejaVuSans-30"/>
      </g>
     </g>
    </g>
    <g id="ytick_22">
     <g id="line2d_76">
      <g>
       <use xlink:href="#mb1afcabbca" x="263.103906" y="199.230427" style="stroke: #000000; stroke-width: 0.8"/>
      </g>
     </g>
     <g id="text_46">
      <!-- 5 -->
      <g transform="translate(249.741406 203.029645) scale(0.1 -0.1)">
       <use xlink:href="#DejaVuSans-35"/>
      </g>
     </g>
    </g>
   </g>
   <g id="line2d_77">
    <path d="M 272.144616 242.561558 
L 272.206093 195.194944 
L 272.157273 264.576851 
L 272.262145 204.749467 
L 272.27661 215.155374 
L 272.309157 201.605136 
L 272.370634 204.34148 
L 272.372442 204.073622 
L 272.410413 214.294213 
L 272.424878 212.345913 
L 272.493587 217.050587 
L 272.441151 207.990329 
L 272.527942 211.194647 
L 272.52975 210.077418 
L 272.621965 220.352191 
L 272.737687 222.898072 
L 272.645471 218.789877 
L 272.741303 222.705669 
L 272.743111 222.706528 
L 272.744919 222.638057 
L 272.746727 222.575896 
L 272.777466 223.660007 
L 272.826285 223.602334 
L 272.945623 223.956451 
L 272.951047 223.91958 
L 273.068576 223.989029 
L 272.967321 223.868385 
L 273.079425 223.964529 
L 273.171641 223.754046 
L 273.209612 223.799113 
L 273.274705 223.983136 
L 273.319908 223.813273 
L 273.34703 223.637029 
L 273.325333 223.833136 
L 273.388618 223.859836 
L 273.392234 223.921999 
L 273.479025 223.599304 
L 273.495298 223.755935 
L 273.531461 223.642846 
L 273.594746 223.89133 
L 273.60017 223.873945 
L 273.712275 224.003228 
L 273.683345 223.812602 
L 273.721316 223.987924 
L 274.578375 224.038274 
L 276.954274 224.043876 
L 452.95881 224.04388 
L 452.95881 224.04388 
" clip-path="url(#pbc9c8c7b5a)" style="fill: none; stroke: #00ff00; stroke-width: 1.5; stroke-linecap: square"/>
   </g>
   <g id="line2d_78">
    <path d="M 272.144616 257.167526 
L 272.18982 226.789423 
L 272.253104 271.304048 
L 272.415837 220.967429 
L 272.283843 291.748647 
L 272.457425 222.063316 
L 272.580378 225.270712 
L 272.591227 224.646141 
L 272.623774 224.15455 
L 272.667169 227.672848 
L 272.701524 224.516717 
L 272.847983 255.809015 
L 272.706948 224.444979 
L 272.855216 231.66945 
L 272.967321 224.179182 
L 272.891379 234.905594 
L 273.010716 224.443221 
L 273.034222 224.203627 
L 273.072193 224.559871 
L 273.074001 224.444246 
L 273.075809 224.896075 
L 273.180681 224.053789 
L 273.182489 224.056875 
L 273.301827 224.043559 
L 275.656028 224.043878 
L 452.95881 224.04388 
L 452.95881 224.04388 
" clip-path="url(#pbc9c8c7b5a)" style="fill: none; stroke: #358763; stroke-width: 1.5; stroke-linecap: square"/>
   </g>
   <g id="line2d_79">
    <path d="M 272.144616 255.349726 
L 272.197052 309.261075 
L 272.256721 268.132418 
L 272.395948 216.014111 
L 272.260337 268.812552 
L 272.40318 216.840896 
L 272.410413 215.335313 
L 272.486355 221.905827 
L 272.488163 221.86555 
L 272.620157 223.665001 
L 272.665361 223.171514 
L 272.715989 223.780402 
L 272.835326 224.012306 
L 272.847983 224.028383 
L 272.969129 224.038336 
L 274.254718 224.043873 
L 452.95881 224.04388 
L 452.95881 224.04388 
" clip-path="url(#pbc9c8c7b5a)" style="fill: none; stroke: #e78a18; stroke-width: 1.5; stroke-linecap: square"/>
   </g>
   <g id="line2d_80">
    <path d="M 272.144616 224.323204 
L 272.157273 258.288331 
L 272.238639 188.740761 
L 272.240447 188.75044 
L 272.242256 188.844254 
L 272.318198 187.185873 
L 272.320006 187.197417 
L 272.428494 186.933927 
L 272.338087 187.339948 
L 272.457425 187.00352 
L 272.506244 187.069128 
L 272.546023 186.933913 
L 272.562297 186.954445 
L 272.614733 186.847606 
L 272.681634 186.891738 
L 272.791931 186.864321 
L 272.687059 186.906072 
L 272.817245 186.904864 
L 272.855216 186.950827 
L 272.894995 186.886133 
L 272.92935 186.931101 
L 272.931158 186.919862 
L 272.970937 187.339678 
L 273.086658 188.735865 
L 272.978169 187.205528 
L 273.090274 188.131512 
L 273.22046 186.941612 
L 273.097507 188.401415 
L 273.234926 187.014083 
L 273.26024 187.11995 
L 273.280129 186.95328 
L 273.348839 187.020604 
L 273.480833 186.873705 
L 273.513379 186.895638 
L 273.567624 186.834202 
L 273.585705 186.838209 
L 273.739397 186.828415 
L 274.111874 186.828081 
L 274.639852 186.824339 
L 292.648946 186.8237 
L 452.95881 186.8237 
L 452.95881 186.8237 
" clip-path="url(#pbc9c8c7b5a)" style="fill: none; stroke: #00fbff; stroke-width: 1.5; stroke-linecap: square"/>
   </g>
   <g id="line2d_81">
    <path d="M 272.144616 221.293472 
L 272.294692 190.57099 
L 272.314581 191.320853 
L 272.453808 201.191215 
L 272.332663 189.98146 
L 272.461041 196.996356 
L 272.462849 195.261918 
L 272.556872 210.034996 
L 272.55868 210.024268 
L 272.582186 214.075427 
L 272.611117 201.824942 
L 272.667169 207.959422 
L 272.668977 205.276116 
L 272.757576 214.594991 
L 272.773849 210.360549 
L 272.797355 216.403322 
L 272.842559 207.548669 
L 272.884146 211.876909 
L 272.999867 206.523962 
L 272.942007 217.523224 
L 273.005292 207.940192 
L 273.0071 207.962578 
L 273.008908 207.231324 
L 273.057728 194.584919 
L 273.108356 211.109132 
L 273.110164 210.517274 
L 273.233117 216.838125 
L 273.19153 208.076575 
L 273.236734 216.145453 
L 273.339798 201.565864 
L 273.24035 216.29384 
L 273.377769 205.554201 
L 273.448286 215.998695 
L 273.497106 208.953911 
L 273.500722 204.578998 
L 273.562199 217.281324 
L 273.605595 211.31905 
L 273.609211 212.036903 
L 273.623676 210.155287 
L 273.667071 206.53878 
L 273.719508 216.8429 
L 273.728548 213.88787 
L 273.82438 219.16619 
L 273.753862 211.773305 
L 273.846078 217.501681 
L 273.947333 210.124234 
L 274.072095 192.57946 
L 274.182392 188.01685 
L 274.198665 188.385025 
L 274.21313 188.953973 
L 274.303537 187.162549 
L 274.319811 186.996241 
L 274.368631 186.861269 
L 274.41745 187.023886 
L 274.428299 187.015125 
L 274.489776 187.213482 
L 274.533171 186.96453 
L 274.645276 186.871138 
L 274.571142 187.081737 
L 274.647084 186.871857 
L 274.659741 186.872175 
L 274.699521 186.977061 
L 274.744724 187.086727 
L 274.795352 186.908941 
L 274.798968 186.914656 
L 274.880335 186.88899 
L 274.900224 186.975938 
L 274.911073 186.904891 
L 275.034027 186.959461 
L 274.970742 186.855438 
L 275.039451 186.920301 
L 275.142515 186.866712 
L 275.162405 186.874394 
L 275.265469 186.921384 
L 275.2058 186.867814 
L 275.27451 186.890588 
L 275.288975 186.872316 
L 275.355876 186.951623 
L 275.382998 186.913178 
L 275.397463 186.957095 
L 275.467981 186.838858 
L 275.645179 186.831018 
L 275.768132 186.825304 
L 276.411831 186.824757 
L 278.518316 186.823732 
L 382.446699 186.8237 
L 452.95881 186.8237 
L 452.95881 186.8237 
" clip-path="url(#pbc9c8c7b5a)" style="fill: none; stroke: #3e00ff; stroke-width: 1.5; stroke-linecap: square"/>
   </g>
   <g id="line2d_82">
    <path d="M 272.144616 225.41741 
L 272.146424 229.364036 
L 272.177163 193.902299 
L 272.244064 200.968976 
L 272.291075 196.081988 
L 272.254913 203.09251 
L 272.35436 200.317044 
L 272.367017 201.189737 
L 272.432111 191.826405 
L 272.470082 190.816412 
L 272.524326 194.16108 
L 272.531558 193.179322 
L 272.553256 195.644917 
L 272.623774 189.137856 
L 272.632814 189.465112 
L 272.873297 214.477404 
L 272.647279 189.409405 
L 272.967321 208.400263 
L 273.063152 201.394635 
L 272.98721 209.937379 
L 273.083042 204.294957 
L 273.088466 202.376068 
L 273.111972 206.82848 
L 273.117396 206.640467 
L 273.14271 204.616512 
L 273.249391 219.535057 
L 273.388618 200.024327 
L 273.450094 206.457856 
L 273.506147 201.101773 
L 273.583897 196.003634 
L 273.558583 204.560292 
L 273.618252 198.463424 
L 273.621868 200.625837 
L 273.710467 189.947703 
L 273.715891 190.054012 
L 273.730356 192.42803 
L 273.793641 188.759074 
L 273.829804 190.724068 
L 273.835229 191.077264 
L 273.864159 188.787333 
L 273.911171 187.29593 
L 273.978072 188.238442 
L 274.115491 187.18361 
L 274.066671 188.296596 
L 274.117299 187.225564 
L 274.131764 187.031058 
L 274.162502 187.507143 
L 274.216747 187.314643 
L 274.218555 187.439067 
L 274.318003 186.928137 
L 274.321619 186.959369 
L 274.404793 186.997192 
L 274.357782 186.924087 
L 274.431916 186.962117 
L 274.45723 186.929214 
L 274.513282 187.117625 
L 274.554869 187.426734 
L 274.607305 187.000337 
L 274.625387 187.037755 
L 274.755573 186.858658 
L 274.880335 186.8985 
L 274.883951 186.888924 
L 274.997864 186.840465 
L 274.918306 186.901295 
L 275.005097 186.849854 
L 275.236539 186.824539 
L 277.983106 186.8237 
L 452.95881 186.8237 
L 452.95881 186.8237 
" clip-path="url(#pbc9c8c7b5a)" style="fill: none; stroke: #e64500; stroke-width: 1.5; stroke-linecap: square"/>
   </g>
   <g id="line2d_83">
    <path d="M 272.144616 222.560752 
L 272.146424 227.301632 
L 272.213325 189.785291 
L 272.244064 197.265479 
L 272.327238 192.978078 
L 272.263953 197.901349 
L 272.357977 194.708415 
L 272.359785 194.830455 
L 272.377866 190.901808 
L 272.446576 193.43875 
L 272.562297 189.913391 
L 272.509861 194.053454 
L 272.565913 191.339649 
L 272.567721 191.753173 
L 272.661745 189.297322 
L 272.668977 189.605605 
L 272.715989 193.005941 
L 272.781082 190.526784 
L 272.885954 188.03706 
L 272.808204 192.111197 
L 272.894995 189.325182 
L 273.01614 187.132614 
L 273.028797 187.161828 
L 273.034222 187.221534 
L 273.111972 186.934132 
L 273.155367 187.039758 
L 273.166216 187.096866 
L 273.216844 186.914632 
L 273.26024 186.971006 
L 273.276513 186.90957 
L 273.3181 187.076026 
L 273.375961 186.933994 
L 273.430205 187.022633 
L 273.392234 186.885667 
L 273.477217 186.874107 
L 273.583897 186.835463 
L 273.592938 186.838384 
L 273.72674 186.826007 
L 274.236636 186.82565 
L 275.203992 186.823957 
L 282.921142 186.8237 
L 452.95881 186.8237 
L 452.95881 186.8237 
" clip-path="url(#pbc9c8c7b5a)" style="fill: none; stroke: #ffee00; stroke-width: 1.5; stroke-linecap: square"/>
   </g>
   <g id="line2d_84">
    <path d="M 272.144616 224.390373 
L 272.271186 322.94228 
L 272.34532 323.296292 
L 272.39414 323.272646 
L 272.417645 323.292421 
L 272.508052 323.297086 
L 277.088076 323.297695 
L 452.95881 323.297695 
L 452.95881 323.297695 
" clip-path="url(#pbc9c8c7b5a)" style="fill: none; stroke: #0078ff; stroke-width: 1.5; stroke-linecap: square"/>
   </g>
   <g id="line2d_85">
    <path d="M 272.144616 235.399057 
L 272.287459 312.520955 
L 272.159081 221.980389 
L 272.2965 296.863142 
L 272.300116 273.5871 
L 272.332663 317.659274 
L 272.408605 288.139926 
L 272.522518 322.671946 
L 272.524326 322.399398 
L 272.611117 323.234074 
L 272.556872 320.596069 
L 272.640047 323.164726 
L 272.661745 322.756355 
L 272.735878 323.288368 
L 272.748535 323.277744 
L 273.169832 323.297694 
L 452.95881 323.297695 
L 452.95881 323.297695 
" clip-path="url(#pbc9c8c7b5a)" style="fill: none; stroke: #ff0037; stroke-width: 1.5; stroke-linecap: square"/>
   </g>
   <g id="line2d_86">
    <path d="M 272.144616 206.056645 
L 272.231407 187.801613 
L 272.148232 206.525607 
L 272.265761 188.177714 
L 272.27661 188.610909 
L 272.352552 187.675583 
L 272.356169 187.710518 
L 272.357977 187.65221 
L 272.388715 190.138082 
L 272.390523 190.108997 
L 272.40318 190.82661 
L 272.457425 188.312928 
L 272.488163 188.481559 
L 272.522518 187.924452 
L 272.567721 189.314726 
L 272.582186 189.29755 
L 272.583994 189.383788 
L 272.643663 188.142988 
L 272.678018 188.579792 
L 272.746727 187.575999 
L 272.793739 187.697763 
L 272.876913 187.169935 
L 272.914884 187.341348 
L 272.916693 187.495911 
L 272.999867 186.873263 
L 273.019757 186.881406 
L 273.131861 186.836568 
L 273.05592 186.941584 
L 273.137286 186.84202 
L 273.285554 186.840962 
L 273.410315 186.827226 
L 274.120915 186.82447 
L 279.635748 186.8237 
L 452.95881 186.8237 
L 452.95881 186.8237 
" clip-path="url(#pbc9c8c7b5a)" style="fill: none; stroke: #e1ff00; stroke-width: 1.5; stroke-linecap: square"/>
   </g>
   <g id="patch_18">
    <path d="M 263.103906 330.121395 
L 263.103906 180 
" style="fill: none; stroke: #000000; stroke-width: 0.8; stroke-linejoin: miter; stroke-linecap: square"/>
   </g>
   <g id="patch_19">
    <path d="M 461.99952 330.121395 
L 461.99952 180 
" style="fill: none; stroke: #000000; stroke-width: 0.8; stroke-linejoin: miter; stroke-linecap: square"/>
   </g>
   <g id="patch_20">
    <path d="M 263.103906 330.121395 
L 461.99952 330.121395 
" style="fill: none; stroke: #000000; stroke-width: 0.8; stroke-linejoin: miter; stroke-linecap: square"/>
   </g>
   <g id="patch_21">
    <path d="M 263.103906 180 
L 461.99952 180 
" style="fill: none; stroke: #000000; stroke-width: 0.8; stroke-linejoin: miter; stroke-linecap: square"/>
   </g>
  </g>
 </g>
 <defs>
  <clipPath id="p7bf01d590c">
   <rect x="30.103125" y="7.2" width="198.895614" height="150.121395"/>
  </clipPath>
  <clipPath id="pec0cc794bb">
   <rect x="263.103906" y="7.2" width="198.895614" height="150.121395"/>
  </clipPath>
  <clipPath id="pef7ad5885a">
   <rect x="30.103125" y="180" width="198.895614" height="150.121395"/>
  </clipPath>
  <clipPath id="pbc9c8c7b5a">
   <rect x="263.103906" y="180" width="198.895614" height="150.121395"/>
  </clipPath>
 </defs>
</svg>
