<?xml version="1.0" encoding="utf-8" standalone="no"?>
<!DOCTYPE svg PUBLIC "-//W3C//DTD SVG 1.1//EN"
  "http://www.w3.org/Graphics/SVG/1.1/DTD/svg11.dtd">
<svg xmlns:xlink="http://www.w3.org/1999/xlink" width="469.19952pt" height="353.99952pt" viewBox="0 0 469.19952 353.99952" xmlns="http://www.w3.org/2000/svg" version="1.1">
 <metadata>
  <rdf:RDF xmlns:dc="http://purl.org/dc/elements/1.1/" xmlns:cc="http://creativecommons.org/ns#" xmlns:rdf="http://www.w3.org/1999/02/22-rdf-syntax-ns#">
   <cc:Work>
    <dc:type rdf:resource="http://purl.org/dc/dcmitype/StillImage"/>
    <dc:date>2025-11-21T12:38:13.350826</dc:date>
    <dc:format>image/svg+xml</dc:format>
    <dc:creator>
     <cc:Agent>
      <dc:title>Matplotlib v3.10.7, https://matplotlib.org/</dc:title>
     </cc:Agent>
    </dc:creator>
   </cc:Work>
  </rdf:RDF>
 </metadata>
 <defs>
  <style type="text/css">*{stroke-linejoin: round; stroke-linecap: butt}</style>
 </defs>
 <g id="figure_1">
  <g id="patch_1">
   <path d="M 0 353.99952 
L 469.19952 353.99952 
L 469.19952 0 
L 0 0 
z
" style="fill: #ffffff"/>
  </g>
  <g id="axes_1">
   <g id="patch_2">
    <path d="M 49.190625 330.121395 
L 461.99952 330.121395 
L 461.99952 7.2 
L 49.190625 7.2 
z
" style="fill: #ffffff"/>
   </g>
   <g id="matplotlib.axis_1">
    <g id="xtick_1">
     <g id="line2d_1">
      <defs>
       <path id="m79dd314ddf" d="M 0 0 
L 0 3.5 
" style="stroke: #000000; stroke-width: 0.8"/>
      </defs>
      <g>
       <use xlink:href="#m79dd314ddf" x="67.954666" y="330.121395" style="stroke: #000000; stroke-width: 0.8"/>
      </g>
     </g>
     <g id="text_1">
      <!-- 0 -->
      <g transform="translate(64.773416 344.719832) scale(0.1 -0.1)">
       <defs>
        <path id="DejaVuSans-30" d="M 2034 4250 
Q 1547 4250 1301 3770 
Q 1056 3291 1056 2328 
Q 1056 1369 1301 889 
Q 1547 409 2034 409 
Q 2525 409 2770 889 
Q 3016 1369 3016 2328 
Q 3016 3291 2770 3770 
Q 2525 4250 2034 4250 
z
M 2034 4750 
Q 2819 4750 3233 4129 
Q 3647 3509 3647 2328 
Q 3647 1150 3233 529 
Q 2819 -91 2034 -91 
Q 1250 -91 836 529 
Q 422 1150 422 2328 
Q 422 3509 836 4129 
Q 1250 4750 2034 4750 
z
" transform="scale(0.015625)"/>
       </defs>
       <use xlink:href="#DejaVuSans-30"/>
      </g>
     </g>
    </g>
    <g id="xtick_2">
     <g id="line2d_2">
      <g>
       <use xlink:href="#m79dd314ddf" x="143.010828" y="330.121395" style="stroke: #000000; stroke-width: 0.8"/>
      </g>
     </g>
     <g id="text_2">
      <!-- 2 -->
      <g transform="translate(139.829578 344.719832) scale(0.1 -0.1)">
       <defs>
        <path id="DejaVuSans-32" d="M 1228 531 
L 3431 531 
L 3431 0 
L 469 0 
L 469 531 
Q 828 903 1448 1529 
Q 2069 2156 2228 2338 
Q 2531 2678 2651 2914 
Q 2772 3150 2772 3378 
Q 2772 3750 2511 3984 
Q 2250 4219 1831 4219 
Q 1534 4219 1204 4116 
Q 875 4013 500 3803 
L 500 4441 
Q 881 4594 1212 4672 
Q 1544 4750 1819 4750 
Q 2544 4750 2975 4387 
Q 3406 4025 3406 3419 
Q 3406 3131 3298 2873 
Q 3191 2616 2906 2266 
Q 2828 2175 2409 1742 
Q 1991 1309 1228 531 
z
" transform="scale(0.015625)"/>
       </defs>
       <use xlink:href="#DejaVuSans-32"/>
      </g>
     </g>
    </g>
    <g id="xtick_3">
     <g id="line2d_3">
      <g>
       <use xlink:href="#m79dd314ddf" x="218.066991" y="330.121395" style="stroke: #000000; stroke-width: 0.8"/>
      </g>
     </g>
     <g id="text_3">
      <!-- 4 -->
      <g transform="translate(214.885741 344.719832) scale(0.1 -0.1)">
       <defs>
        <path id="DejaVuSans-34" d="M 2419 4116 
L 825 1625 
L 2419 1625 
L 2419 4116 
z
M 2253 4666 
L 3047 4666 
L 3047 1625 
L 3713 1625 
L 3713 1100 
L 3047 1100 
L 3047 0 
L 2419 0 
L 2419 1100 
L 313 1100 
L 313 1709 
L 2253 4666 
z
" transform="scale(0.015625)"/>
       </defs>
       <use xlink:href="#DejaVuSans-34"/>
      </g>
     </g>
    </g>
    <g id="xtick_4">
     <g id="line2d_4">
      <g>
       <use xlink:href="#m79dd314ddf" x="293.123154" y="330.121395" style="stroke: #000000; stroke-width: 0.8"/>
      </g>
     </g>
     <g id="text_4">
      <!-- 6 -->
      <g transform="translate(289.941904 344.719832) scale(0.1 -0.1)">
       <defs>
        <path id="DejaVuSans-36" d="M 2113 2584 
Q 1688 2584 1439 2293 
Q 1191 2003 1191 1497 
Q 1191 994 1439 701 
Q 1688 409 2113 409 
Q 2538 409 2786 701 
Q 3034 994 3034 1497 
Q 3034 2003 2786 2293 
Q 2538 2584 2113 2584 
z
M 3366 4563 
L 3366 3988 
Q 3128 4100 2886 4159 
Q 2644 4219 2406 4219 
Q 1781 4219 1451 3797 
Q 1122 3375 1075 2522 
Q 1259 2794 1537 2939 
Q 1816 3084 2150 3084 
Q 2853 3084 3261 2657 
Q 3669 2231 3669 1497 
Q 3669 778 3244 343 
Q 2819 -91 2113 -91 
Q 1303 -91 875 529 
Q 447 1150 447 2328 
Q 447 3434 972 4092 
Q 1497 4750 2381 4750 
Q 2619 4750 2861 4703 
Q 3103 4656 3366 4563 
z
" transform="scale(0.015625)"/>
       </defs>
       <use xlink:href="#DejaVuSans-36"/>
      </g>
     </g>
    </g>
    <g id="xtick_5">
     <g id="line2d_5">
      <g>
       <use xlink:href="#m79dd314ddf" x="368.179317" y="330.121395" style="stroke: #000000; stroke-width: 0.8"/>
      </g>
     </g>
     <g id="text_5">
      <!-- 8 -->
      <g transform="translate(364.998067 344.719832) scale(0.1 -0.1)">
       <defs>
        <path id="DejaVuSans-38" d="M 2034 2216 
Q 1584 2216 1326 1975 
Q 1069 1734 1069 1313 
Q 1069 891 1326 650 
Q 1584 409 2034 409 
Q 2484 409 2743 651 
Q 3003 894 3003 1313 
Q 3003 1734 2745 1975 
Q 2488 2216 2034 2216 
z
M 1403 2484 
Q 997 2584 770 2862 
Q 544 3141 544 3541 
Q 544 4100 942 4425 
Q 1341 4750 2034 4750 
Q 2731 4750 3128 4425 
Q 3525 4100 3525 3541 
Q 3525 3141 3298 2862 
Q 3072 2584 2669 2484 
Q 3125 2378 3379 2068 
Q 3634 1759 3634 1313 
Q 3634 634 3220 271 
Q 2806 -91 2034 -91 
Q 1263 -91 848 271 
Q 434 634 434 1313 
Q 434 1759 690 2068 
Q 947 2378 1403 2484 
z
M 1172 3481 
Q 1172 3119 1398 2916 
Q 1625 2713 2034 2713 
Q 2441 2713 2670 2916 
Q 2900 3119 2900 3481 
Q 2900 3844 2670 4047 
Q 2441 4250 2034 4250 
Q 1625 4250 1398 4047 
Q 1172 3844 1172 3481 
z
" transform="scale(0.015625)"/>
       </defs>
       <use xlink:href="#DejaVuSans-38"/>
      </g>
     </g>
    </g>
    <g id="xtick_6">
     <g id="line2d_6">
      <g>
       <use xlink:href="#m79dd314ddf" x="443.235479" y="330.121395" style="stroke: #000000; stroke-width: 0.8"/>
      </g>
     </g>
     <g id="text_6">
      <!-- 10 -->
      <g transform="translate(436.872979 344.719832) scale(0.1 -0.1)">
       <defs>
        <path id="DejaVuSans-31" d="M 794 531 
L 1825 531 
L 1825 4091 
L 703 3866 
L 703 4441 
L 1819 4666 
L 2450 4666 
L 2450 531 
L 3481 531 
L 3481 0 
L 794 0 
L 794 531 
z
" transform="scale(0.015625)"/>
       </defs>
       <use xlink:href="#DejaVuSans-31"/>
       <use xlink:href="#DejaVuSans-30" transform="translate(63.623047 0)"/>
      </g>
     </g>
    </g>
   </g>
   <g id="matplotlib.axis_2">
    <g id="ytick_1">
     <g id="line2d_7">
      <defs>
       <path id="m0cbae0b09b" d="M 0 0 
L -3.5 0 
" style="stroke: #000000; stroke-width: 0.8"/>
      </defs>
      <g>
       <use xlink:href="#m0cbae0b09b" x="49.190625" y="321.802539" style="stroke: #000000; stroke-width: 0.8"/>
      </g>
     </g>
     <g id="text_7">
      <!-- 0.3300 -->
      <g transform="translate(7.2 325.601757) scale(0.1 -0.1)">
       <defs>
        <path id="DejaVuSans-2e" d="M 684 794 
L 1344 794 
L 1344 0 
L 684 0 
L 684 794 
z
" transform="scale(0.015625)"/>
        <path id="DejaVuSans-33" d="M 2597 2516 
Q 3050 2419 3304 2112 
Q 3559 1806 3559 1356 
Q 3559 666 3084 287 
Q 2609 -91 1734 -91 
Q 1441 -91 1130 -33 
Q 819 25 488 141 
L 488 750 
Q 750 597 1062 519 
Q 1375 441 1716 441 
Q 2309 441 2620 675 
Q 2931 909 2931 1356 
Q 2931 1769 2642 2001 
Q 2353 2234 1838 2234 
L 1294 2234 
L 1294 2753 
L 1863 2753 
Q 2328 2753 2575 2939 
Q 2822 3125 2822 3475 
Q 2822 3834 2567 4026 
Q 2313 4219 1838 4219 
Q 1578 4219 1281 4162 
Q 984 4106 628 3988 
L 628 4550 
Q 988 4650 1302 4700 
Q 1616 4750 1894 4750 
Q 2613 4750 3031 4423 
Q 3450 4097 3450 3541 
Q 3450 3153 3228 2886 
Q 3006 2619 2597 2516 
z
" transform="scale(0.015625)"/>
       </defs>
       <use xlink:href="#DejaVuSans-30"/>
       <use xlink:href="#DejaVuSans-2e" transform="translate(63.623047 0)"/>
       <use xlink:href="#DejaVuSans-33" transform="translate(95.410156 0)"/>
       <use xlink:href="#DejaVuSans-33" transform="translate(159.033203 0)"/>
       <use xlink:href="#DejaVuSans-30" transform="translate(222.65625 0)"/>
       <use xlink:href="#DejaVuSans-30" transform="translate(286.279297 0)"/>
      </g>
     </g>
    </g>
    <g id="ytick_2">
     <g id="line2d_8">
      <g>
       <use xlink:href="#m0cbae0b09b" x="49.190625" y="284.150882" style="stroke: #000000; stroke-width: 0.8"/>
      </g>
     </g>
     <g id="text_8">
      <!-- 0.3325 -->
      <g transform="translate(7.2 287.950101) scale(0.1 -0.1)">
       <defs>
        <path id="DejaVuSans-35" d="M 691 4666 
L 3169 4666 
L 3169 4134 
L 1269 4134 
L 1269 2991 
Q 1406 3038 1543 3061 
Q 1681 3084 1819 3084 
Q 2600 3084 3056 2656 
Q 3513 2228 3513 1497 
Q 3513 744 3044 326 
Q 2575 -91 1722 -91 
Q 1428 -91 1123 -41 
Q 819 9 494 109 
L 494 744 
Q 775 591 1075 516 
Q 1375 441 1709 441 
Q 2250 441 2565 725 
Q 2881 1009 2881 1497 
Q 2881 1984 2565 2268 
Q 2250 2553 1709 2553 
Q 1456 2553 1204 2497 
Q 953 2441 691 2322 
L 691 4666 
z
" transform="scale(0.015625)"/>
       </defs>
       <use xlink:href="#DejaVuSans-30"/>
       <use xlink:href="#DejaVuSans-2e" transform="translate(63.623047 0)"/>
       <use xlink:href="#DejaVuSans-33" transform="translate(95.410156 0)"/>
       <use xlink:href="#DejaVuSans-33" transform="translate(159.033203 0)"/>
       <use xlink:href="#DejaVuSans-32" transform="translate(222.65625 0)"/>
       <use xlink:href="#DejaVuSans-35" transform="translate(286.279297 0)"/>
      </g>
     </g>
    </g>
    <g id="ytick_3">
     <g id="line2d_9">
      <g>
       <use xlink:href="#m0cbae0b09b" x="49.190625" y="246.499226" style="stroke: #000000; stroke-width: 0.8"/>
      </g>
     </g>
     <g id="text_9">
      <!-- 0.3350 -->
      <g transform="translate(7.2 250.298445) scale(0.1 -0.1)">
       <use xlink:href="#DejaVuSans-30"/>
       <use xlink:href="#DejaVuSans-2e" transform="translate(63.623047 0)"/>
       <use xlink:href="#DejaVuSans-33" transform="translate(95.410156 0)"/>
       <use xlink:href="#DejaVuSans-33" transform="translate(159.033203 0)"/>
       <use xlink:href="#DejaVuSans-35" transform="translate(222.65625 0)"/>
       <use xlink:href="#DejaVuSans-30" transform="translate(286.279297 0)"/>
      </g>
     </g>
    </g>
    <g id="ytick_4">
     <g id="line2d_10">
      <g>
       <use xlink:href="#m0cbae0b09b" x="49.190625" y="208.84757" style="stroke: #000000; stroke-width: 0.8"/>
      </g>
     </g>
     <g id="text_10">
      <!-- 0.3375 -->
      <g transform="translate(7.2 212.646789) scale(0.1 -0.1)">
       <defs>
        <path id="DejaVuSans-37" d="M 525 4666 
L 3525 4666 
L 3525 4397 
L 1831 0 
L 1172 0 
L 2766 4134 
L 525 4134 
L 525 4666 
z
" transform="scale(0.015625)"/>
       </defs>
       <use xlink:href="#DejaVuSans-30"/>
       <use xlink:href="#DejaVuSans-2e" transform="translate(63.623047 0)"/>
       <use xlink:href="#DejaVuSans-33" transform="translate(95.410156 0)"/>
       <use xlink:href="#DejaVuSans-33" transform="translate(159.033203 0)"/>
       <use xlink:href="#DejaVuSans-37" transform="translate(222.65625 0)"/>
       <use xlink:href="#DejaVuSans-35" transform="translate(286.279297 0)"/>
      </g>
     </g>
    </g>
    <g id="ytick_5">
     <g id="line2d_11">
      <g>
       <use xlink:href="#m0cbae0b09b" x="49.190625" y="171.195914" style="stroke: #000000; stroke-width: 0.8"/>
      </g>
     </g>
     <g id="text_11">
      <!-- 0.3400 -->
      <g transform="translate(7.2 174.995133) scale(0.1 -0.1)">
       <use xlink:href="#DejaVuSans-30"/>
       <use xlink:href="#DejaVuSans-2e" transform="translate(63.623047 0)"/>
       <use xlink:href="#DejaVuSans-33" transform="translate(95.410156 0)"/>
       <use xlink:href="#DejaVuSans-34" transform="translate(159.033203 0)"/>
       <use xlink:href="#DejaVuSans-30" transform="translate(222.65625 0)"/>
       <use xlink:href="#DejaVuSans-30" transform="translate(286.279297 0)"/>
      </g>
     </g>
    </g>
    <g id="ytick_6">
     <g id="line2d_12">
      <g>
       <use xlink:href="#m0cbae0b09b" x="49.190625" y="133.544258" style="stroke: #000000; stroke-width: 0.8"/>
      </g>
     </g>
     <g id="text_12">
      <!-- 0.3425 -->
      <g transform="translate(7.2 137.343476) scale(0.1 -0.1)">
       <use xlink:href="#DejaVuSans-30"/>
       <use xlink:href="#DejaVuSans-2e" transform="translate(63.623047 0)"/>
       <use xlink:href="#DejaVuSans-33" transform="translate(95.410156 0)"/>
       <use xlink:href="#DejaVuSans-34" transform="translate(159.033203 0)"/>
       <use xlink:href="#DejaVuSans-32" transform="translate(222.65625 0)"/>
       <use xlink:href="#DejaVuSans-35" transform="translate(286.279297 0)"/>
      </g>
     </g>
    </g>
    <g id="ytick_7">
     <g id="line2d_13">
      <g>
       <use xlink:href="#m0cbae0b09b" x="49.190625" y="95.892602" style="stroke: #000000; stroke-width: 0.8"/>
      </g>
     </g>
     <g id="text_13">
      <!-- 0.3450 -->
      <g transform="translate(7.2 99.69182) scale(0.1 -0.1)">
       <use xlink:href="#DejaVuSans-30"/>
       <use xlink:href="#DejaVuSans-2e" transform="translate(63.623047 0)"/>
       <use xlink:href="#DejaVuSans-33" transform="translate(95.410156 0)"/>
       <use xlink:href="#DejaVuSans-34" transform="translate(159.033203 0)"/>
       <use xlink:href="#DejaVuSans-35" transform="translate(222.65625 0)"/>
       <use xlink:href="#DejaVuSans-30" transform="translate(286.279297 0)"/>
      </g>
     </g>
    </g>
    <g id="ytick_8">
     <g id="line2d_14">
      <g>
       <use xlink:href="#m0cbae0b09b" x="49.190625" y="58.240945" style="stroke: #000000; stroke-width: 0.8"/>
      </g>
     </g>
     <g id="text_14">
      <!-- 0.3475 -->
      <g transform="translate(7.2 62.040164) scale(0.1 -0.1)">
       <use xlink:href="#DejaVuSans-30"/>
       <use xlink:href="#DejaVuSans-2e" transform="translate(63.623047 0)"/>
       <use xlink:href="#DejaVuSans-33" transform="translate(95.410156 0)"/>
       <use xlink:href="#DejaVuSans-34" transform="translate(159.033203 0)"/>
       <use xlink:href="#DejaVuSans-37" transform="translate(222.65625 0)"/>
       <use xlink:href="#DejaVuSans-35" transform="translate(286.279297 0)"/>
      </g>
     </g>
    </g>
    <g id="ytick_9">
     <g id="line2d_15">
      <g>
       <use xlink:href="#m0cbae0b09b" x="49.190625" y="20.589289" style="stroke: #000000; stroke-width: 0.8"/>
      </g>
     </g>
     <g id="text_15">
      <!-- 0.3500 -->
      <g transform="translate(7.2 24.388508) scale(0.1 -0.1)">
       <use xlink:href="#DejaVuSans-30"/>
       <use xlink:href="#DejaVuSans-2e" transform="translate(63.623047 0)"/>
       <use xlink:href="#DejaVuSans-33" transform="translate(95.410156 0)"/>
       <use xlink:href="#DejaVuSans-35" transform="translate(159.033203 0)"/>
       <use xlink:href="#DejaVuSans-30" transform="translate(222.65625 0)"/>
       <use xlink:href="#DejaVuSans-30" transform="translate(286.279297 0)"/>
      </g>
     </g>
    </g>
   </g>
   <g id="line2d_16">
    <path d="M 67.954666 290.51903 
L 67.965924 315.44315 
L 68.029722 218.583087 
L 68.04098 228.704862 
L 68.052239 212.654149 
L 68.071003 238.553816 
L 68.074756 227.662068 
L 68.078508 242.459515 
L 68.164823 153.034995 
L 68.176081 131.875178 
L 68.206104 183.225048 
L 68.273654 156.833922 
L 68.40125 289.80494 
L 68.311182 151.711538 
L 68.442531 251.011822 
L 68.787789 82.882308 
L 68.453789 261.483361 
L 68.806553 118.171308 
L 68.885362 148.650177 
L 68.825317 107.622469 
L 68.911632 118.157208 
L 68.945407 72.249478 
L 69.027969 92.325602 
L 69.159317 177.22348 
L 69.04298 76.912211 
L 69.166823 166.392555 
L 69.170576 169.677557 
L 69.23062 125.351808 
L 69.313182 84.815426 
L 69.290665 139.91246 
L 69.335699 118.21488 
L 69.459542 178.610674 
L 69.463295 173.245253 
L 69.500823 217.234908 
L 69.534598 252.546265 
L 69.598396 205.392937 
L 69.602148 196.338158 
L 69.68471 239.051024 
L 69.699721 227.521182 
L 69.729744 233.151206 
L 69.741002 214.201998 
L 69.786036 190.570717 
L 69.834823 234.774033 
L 69.846081 224.740922 
L 69.89862 182.152504 
L 69.868598 227.061377 
L 69.947407 222.260961 
L 69.966171 253.022909 
L 70.041227 204.062173 
L 70.052485 211.402269 
L 70.093766 157.434058 
L 70.168822 186.955462 
L 70.236373 221.230936 
L 70.277654 187.811423 
L 70.281407 188.57389 
L 70.28516 179.742664 
L 70.405249 137.612017 
L 70.409002 138.424761 
L 70.420261 117.912264 
L 70.424013 123.819597 
L 70.431519 109.108436 
L 70.480306 142.090918 
L 70.525339 130.746809 
L 70.551609 143.523415 
L 70.585384 106.305428 
L 70.634171 129.195819 
L 70.652935 147.69308 
L 70.803047 218.964735 
L 70.893114 160.790541 
L 70.930643 179.720341 
L 70.964418 193.926669 
L 71.035721 175.840578 
L 71.137047 150.571257 
L 71.095766 191.832498 
L 71.155811 153.870605 
L 71.159564 155.194479 
L 71.185833 134.775857 
L 71.290912 87.087942 
L 71.302171 105.827867 
L 71.313429 127.263244 
L 71.395991 81.04177 
L 71.403496 81.852953 
L 71.467294 109.688578 
L 71.523586 93.033006 
L 71.632418 73.191069 
L 71.639923 86.473371 
L 71.692463 72.281112 
L 71.718732 92.416014 
L 71.737496 85.590881 
L 71.827564 101.17742 
L 71.75626 79.972645 
L 71.853833 96.783432 
L 71.857586 96.657576 
L 71.940148 65.046882 
L 71.973923 81.14679 
L 72.063991 92.578599 
L 72.094013 69.271378 
L 72.191586 97.656203 
L 72.112777 65.521332 
L 72.221609 77.839678 
L 72.326687 43.183859 
L 72.23662 87.743229 
L 72.341698 60.720831 
L 72.469294 79.586532 
L 72.409249 49.170576 
L 72.473047 79.385965 
L 72.484305 70.415751 
L 72.503069 95.895544 
L 72.563114 89.500708 
L 72.683204 138.016986 
L 72.57062 86.501266 
L 72.701968 134.642434 
L 72.814552 110.556962 
L 72.822058 121.531533 
L 72.882103 153.327576 
L 72.942148 133.020829 
L 72.983429 154.736088 
L 72.953406 126.924804 
L 73.096013 144.282075 
L 73.099766 137.883215 
L 73.178575 152.720774 
L 73.204844 145.561497 
L 73.219855 140.475899 
L 73.257384 156.990207 
L 73.381226 204.885592 
L 73.291159 148.690796 
L 73.396237 194.980443 
L 73.403743 193.99218 
L 73.407496 195.680126 
L 73.482552 169.121809 
L 73.42626 200.787393 
L 73.512575 198.252791 
L 73.78653 142.578769 
L 73.576372 200.750711 
L 73.801541 154.94538 
L 73.85408 170.01133 
L 73.887855 137.544365 
L 73.906619 150.692823 
L 73.959159 142.749886 
L 73.936642 162.249529 
L 74.004192 157.299069 
L 74.015451 163.458895 
L 74.030462 149.651246 
L 74.04172 150.565845 
L 74.154305 104.69551 
L 74.176822 105.5136 
L 74.199338 111.305457 
L 74.21435 92.181101 
L 74.233114 93.693051 
L 74.263136 107.874936 
L 74.409496 52.738753 
L 74.458282 90.465478 
L 74.525833 67.096892 
L 74.529586 67.195194 
L 74.582125 40.071539 
L 74.660934 46.289999 
L 74.668439 50.098271 
L 74.732237 21.878245 
L 74.758507 36.792242 
L 74.803541 27.771252 
L 74.852327 48.609422 
L 74.85608 45.911885 
L 74.961158 56.551932 
L 74.912372 41.338074 
L 74.968664 51.125764 
L 75.036215 27.836584 
L 75.085001 45.619392 
L 75.231361 86.588863 
L 75.235113 84.761765 
L 75.280147 64.208566 
L 75.351451 71.78674 
L 75.482799 109.867921 
L 75.358956 69.202514 
L 75.49781 107.737126 
L 75.554102 112.332036 
L 75.52408 100.461789 
L 75.580372 107.902619 
L 75.647922 82.192996 
L 75.696709 99.75918 
L 75.707967 86.430282 
L 75.760507 111.951014 
L 75.813046 92.410396 
L 75.850574 97.585176 
L 75.843068 90.986292 
L 75.869338 95.807652 
L 75.963158 131.111349 
L 76.000686 128.44741 
L 76.038214 140.426542 
L 76.056978 119.1405 
L 76.064484 122.794335 
L 76.113271 114.92327 
L 76.150799 140.625422 
L 76.158304 138.828557 
L 76.195832 162.155007 
L 76.263383 132.249686 
L 76.308417 142.894405 
L 76.398484 114.483764 
L 76.402237 117.827129 
L 76.492304 103.19513 
L 76.49981 106.984132 
L 76.503563 109.030707 
L 76.571113 86.962896 
L 76.604888 70.859592 
L 76.672439 91.192281 
L 76.676192 89.74703 
L 76.68745 93.466696 
L 76.732484 81.99096 
L 76.751248 85.308028 
L 76.811293 90.437301 
L 76.875091 71.387429 
L 76.916372 82.804227 
L 76.983922 68.382764 
L 76.987675 64.098017 
L 77.058978 92.587879 
L 77.073989 89.721278 
L 77.220349 116.25452 
L 77.092753 82.386996 
L 77.224102 114.277575 
L 77.269135 106.302364 
L 77.246619 117.763787 
L 77.321675 114.931288 
L 77.423001 141.258374 
L 77.438012 130.618269 
L 77.471787 146.293087 
L 77.584371 170.718325 
L 77.490551 142.699633 
L 77.59563 166.630231 
L 77.606888 168.879157 
L 77.696956 199.102045 
L 77.726978 186.544829 
L 77.805787 192.73311 
L 77.794529 180.674825 
L 77.824551 183.785768 
L 77.922124 152.288359 
L 77.955899 162.019411 
L 78.102259 188.140374 
L 77.985922 158.998067 
L 78.109764 185.758085 
L 78.188573 172.731955 
L 78.14354 186.284891 
L 78.222349 182.054012 
L 78.259877 193.303309 
L 78.301158 179.471764 
L 78.334933 184.465161 
L 78.45127 175.826918 
L 78.406236 192.269944 
L 78.455023 176.202573 
L 78.466281 181.315207 
L 78.462528 174.903057 
L 78.470034 179.858737 
L 78.605135 216.481696 
L 78.631405 214.857463 
L 78.713967 203.531343 
L 78.743989 207.599048 
L 78.774012 222.074819 
L 78.860326 219.668775 
L 78.897854 226.918344 
L 78.935382 213.452559 
L 78.965405 215.623474 
L 79.010438 225.274623 
L 79.130528 241.544949 
L 79.134281 242.300524 
L 79.160551 228.357951 
L 79.179315 229.064193 
L 79.201832 220.808114 
L 79.231854 236.127302 
L 79.235607 238.631876 
L 79.314416 219.189795 
L 79.318169 219.977028 
L 79.366955 209.243486 
L 79.404483 221.272152 
L 79.430753 213.830452 
L 79.554596 228.225066 
L 79.494551 205.227978 
L 79.558348 226.092097 
L 79.562101 220.69203 
L 79.648416 242.005608 
L 79.652169 241.93727 
L 79.700955 258.694794 
L 79.764753 250.407605 
L 79.90736 224.458791 
L 79.791023 253.810606 
L 79.911112 225.765806 
L 80.038708 238.832153 
L 79.971157 223.90162 
L 80.049966 237.928676 
L 80.057472 230.300305 
L 80.140034 249.97711 
L 80.155045 245.184081 
L 80.192573 256.846209 
L 80.24136 237.251719 
L 80.376461 196.816539 
L 80.380213 198.469128 
L 80.413989 186.2819 
L 80.451517 205.842304 
L 80.474034 213.68728 
L 80.530326 189.169712 
L 80.64291 204.510598 
L 80.590371 183.268205 
L 80.710461 198.847346 
L 80.83055 161.908814 
L 80.85682 164.152318 
L 80.954393 172.581053 
L 80.905607 161.625887 
L 80.965651 166.92602 
L 80.97691 168.170932 
L 81.100753 141.655618 
L 81.153292 138.848139 
L 81.179562 146.665096 
L 81.198326 143.736543 
L 81.232101 150.400735 
L 81.258371 138.150163 
L 81.295899 143.171225 
L 81.442258 125.604277 
L 81.303404 144.714029 
L 81.446011 125.736523 
L 81.539831 138.776022 
L 81.584865 137.370713 
L 81.633651 132.224473 
L 81.667427 141.640543 
L 81.682438 138.575705 
L 81.708708 147.195148 
L 81.734977 136.099647 
L 81.795022 140.645571 
L 81.903854 132.544147 
L 81.866325 143.281255 
L 81.922618 136.578602 
L 81.993921 147.537639 
L 82.035202 139.51217 
L 82.07273 147.349624 
L 82.053966 137.182495 
L 82.147786 142.564006 
L 82.279134 129.108621 
L 82.215337 152.321478 
L 82.282887 130.558109 
L 82.28664 131.76585 
L 82.361696 122.293876 
L 82.478033 115.948047 
L 82.40673 129.622597 
L 82.485539 117.323622 
L 82.579359 124.936071 
L 82.541831 110.063415 
L 82.601876 120.121004 
L 82.654415 111.188259 
L 82.624393 125.796683 
L 82.718213 116.550135 
L 82.751988 113.763718 
L 82.838303 126.317879 
L 82.977157 103.032485 
L 83.040954 111.049011 
L 83.078482 103.405804 
L 83.093494 97.024294 
L 83.157291 112.490814 
L 83.187314 105.414354 
L 83.191067 105.500704 
L 83.198572 104.572789 
L 83.258617 97.270048 
L 83.311157 98.754776 
L 83.314909 100.271657 
L 83.378707 91.321346 
L 83.412482 95.237555 
L 83.498797 86.952836 
L 83.45001 95.623981 
L 83.536325 87.240886 
L 83.543831 83.99771 
L 83.607628 94.34535 
L 83.615134 93.900008 
L 83.720213 114.269091 
L 83.746482 100.970859 
L 83.791516 95.692041 
L 83.83655 103.681309 
L 83.847808 99.99667 
L 83.922864 114.906908 
L 83.967898 107.426517 
L 84.05046 119.416494 
L 84.087988 111.89523 
L 84.095493 110.578727 
L 84.163044 117.574401 
L 84.196819 112.460799 
L 84.279381 128.041788 
L 84.346932 123.110057 
L 84.418235 110.508293 
L 84.47828 111.564293 
L 84.620887 129.969659 
L 84.632145 127.849649 
L 84.737224 113.518879 
L 84.677179 128.045151 
L 84.823538 117.125829 
L 84.891089 127.828215 
L 84.966145 124.678167 
L 84.969898 123.144863 
L 85.044954 135.326853 
L 85.089988 143.119614 
L 85.150033 134.322681 
L 85.153785 134.533256 
L 85.168797 133.562653 
L 85.288886 124.550735 
L 85.300145 128.245741 
L 85.371448 121.562111 
L 85.423988 126.326265 
L 85.446504 127.783873 
L 85.491538 119.641944 
L 85.499044 119.776862 
L 85.607875 109.115498 
L 85.525313 120.383739 
L 85.664167 113.732296 
L 85.66792 114.395598 
L 85.735471 107.637974 
L 85.85556 96.57291 
L 85.757987 110.013566 
L 85.923111 98.882669 
L 86.043201 104.263767 
L 86.058212 102.43616 
L 86.061965 101.137826 
L 86.129515 104.760382 
L 86.167044 103.192955 
L 86.204572 108.890769 
L 86.260864 101.724708 
L 86.275875 103.868167 
L 86.283381 102.489447 
L 86.339673 110.348722 
L 86.380954 105.516652 
L 86.418482 112.318773 
L 86.474774 104.402556 
L 86.478527 105.132394 
L 86.587358 97.964049 
L 86.598617 99.518746 
L 86.722459 108.504322 
L 86.733718 107.394333 
L 86.898841 95.593391 
L 86.76374 108.776291 
L 86.902594 96.258864 
L 87.00392 99.721202 
L 86.921358 95.3108 
L 87.018931 98.85036 
L 87.075223 91.848137 
L 87.139021 93.190078 
L 87.169043 97.588679 
L 87.187807 91.135082 
L 87.401717 81.468265 
L 87.424234 84.97837 
L 87.559335 97.854029 
L 87.570594 95.210024 
L 87.578099 96.282083 
L 87.623133 90.851027 
L 87.634392 91.197747 
L 87.750729 80.462134 
L 87.653156 91.61655 
L 87.761987 82.150911 
L 87.792009 84.04795 
L 87.825785 79.280305 
L 87.863313 82.984998 
L 87.908347 78.45521 
L 87.957133 88.474699 
L 87.960886 87.027272 
L 87.994661 89.107918 
L 88.043448 85.338912 
L 88.054706 86.493321 
L 88.204818 66.17386 
L 88.208571 67.90592 
L 88.212324 67.909471 
L 88.324908 71.171751 
L 88.283627 65.150414 
L 88.332414 70.768862 
L 88.516301 56.996944 
L 88.520054 57.194743 
L 88.606369 64.845985 
L 88.636391 62.271365 
L 88.726459 55.033922 
L 88.748976 58.848014 
L 88.763987 63.067273 
L 88.839043 58.747153 
L 88.865313 61.760365 
L 89.000414 50.414064 
L 88.906594 63.950237 
L 89.004167 51.826095 
L 89.060459 55.340431 
L 89.030436 50.360294 
L 89.120504 54.27133 
L 89.14302 56.513105 
L 89.180549 49.89327 
L 89.19556 51.424203 
L 89.326908 41.613132 
L 89.330661 42.569583 
L 89.334414 42.568442 
L 89.368189 48.084706 
L 89.469515 47.635676 
L 89.473268 46.761262 
L 89.540818 56.08985 
L 89.548324 56.471468 
L 89.552077 55.66984 
L 89.555829 57.385157 
L 89.645897 49.766664 
L 89.64965 50.082445 
L 89.826032 64.090272 
L 89.867312 57.556771 
L 89.987402 51.150089 
L 89.991155 52.28401 
L 90.006166 53.979575 
L 90.043694 50.098071 
L 90.092481 52.329391 
L 90.175043 47.284361 
L 90.111245 52.538058 
L 90.216324 49.067296 
L 90.227582 49.870283 
L 90.253852 46.9514 
L 90.276368 48.284927 
L 90.287627 45.231059 
L 90.373941 51.020496 
L 90.381447 50.194323 
L 90.501537 56.613688 
L 90.512795 53.958326 
L 90.524054 52.835617 
L 90.587852 57.451297 
L 90.62538 53.29975 
L 90.644144 55.342523 
L 90.711694 50.341516 
L 90.7192 50.353095 
L 90.820526 43.724249 
L 90.846795 46.083955 
L 90.910593 48.703812 
L 90.940616 44.606288 
L 90.948121 45.183621 
L 90.963132 45.609289 
L 90.989402 42.687793 
L 91.023177 38.158663 
L 91.068211 44.692724 
L 91.177042 49.594827 
L 91.079469 42.723896 
L 91.188301 46.918703 
L 91.207065 44.030412 
L 91.24084 49.905149 
L 91.255851 47.701941 
L 91.304638 50.755489 
L 91.323402 46.719458 
L 91.364683 48.716353 
L 91.462256 42.938725 
L 91.379694 49.177134 
L 91.488526 46.236969 
L 91.499784 48.032778 
L 91.567334 39.84697 
L 91.571087 39.347833 
L 91.619874 46.038037 
L 91.627379 45.846522 
L 91.698683 41.382613 
L 91.743716 47.883316 
L 91.784997 48.525508 
L 91.901334 35.198375 
L 92.02893 41.80331 
L 92.040188 41.067575 
L 92.043941 40.367114 
L 92.115244 46.19933 
L 92.12275 45.723975 
L 92.224076 54.452383 
L 92.145267 43.482015 
L 92.280368 49.347884 
L 92.295379 48.035579 
L 92.366683 56.528309 
L 92.479267 64.907906 
L 92.498031 63.744623 
L 92.524301 67.827763 
L 92.588098 69.672641 
L 92.621874 67.56947 
L 92.633132 68.718679 
L 92.741963 61.794092 
L 92.756975 64.290044 
L 92.76448 63.663744 
L 92.79075 67.408983 
L 92.828278 67.101671 
L 92.918345 67.83075 
L 92.925851 66.118865 
L 92.974638 64.008895 
L 93.000907 68.563034 
L 93.042188 65.465498 
L 93.158525 70.642588 
L 93.057199 64.463293 
L 93.177289 67.915472 
L 93.222323 66.649373 
L 93.24484 70.50072 
L 93.278615 68.973492 
L 93.316143 70.971896 
L 93.353671 68.126841 
L 93.383694 69.679527 
L 93.462503 62.605297 
L 93.507536 64.348535 
L 93.545064 66.111074 
L 93.567581 61.634978 
L 93.616368 64.447691 
L 93.627626 63.33261 
L 93.665154 69.745865 
L 93.732705 65.81746 
L 93.834031 64.291181 
L 93.811514 67.313118 
L 93.845289 65.363081 
L 93.856547 66.108979 
L 93.920345 61.104164 
L 93.924098 61.282841 
L 93.98039 55.019581 
L 94.055446 59.806344 
L 94.059199 59.781892 
L 94.07421 59.051078 
L 94.190547 64.451845 
L 94.205559 63.034479 
L 94.426974 71.929245 
L 94.50203 68.2027 
L 94.547064 69.271044 
L 94.588345 64.836332 
L 94.670907 65.221008 
L 94.678412 66.856409 
L 94.775985 63.14909 
L 94.858547 60.522722 
L 94.88857 62.625813 
L 94.986143 67.051693 
L 95.019918 66.663223 
L 95.098727 64.155223 
L 95.124997 66.855831 
L 95.158772 72.781931 
L 95.252592 69.932768 
L 95.331401 65.93526 
L 95.376435 67.211228 
L 95.391446 66.222762 
L 95.594098 76.421959 
L 95.616614 73.247463 
L 95.710435 75.168132 
L 95.849289 81.628456 
L 95.740457 74.244622 
L 95.8643 80.77739 
L 95.901828 82.124529 
L 95.928098 79.959908 
L 95.93185 80.028791 
L 96.033176 72.112609 
L 96.063199 74.412043 
L 96.213311 79.087145 
L 96.115738 74.300612 
L 96.224569 77.569154 
L 96.348412 74.427832 
L 96.404704 77.736894 
L 96.367176 74.351524 
L 96.476008 75.933141 
L 96.487266 75.030144 
L 96.569828 76.776939 
L 96.573581 77.319285 
L 96.644884 73.990241 
L 96.667401 75.482357 
L 96.749963 72.448132 
L 96.787491 73.492256 
L 96.802502 74.86035 
L 96.877558 70.117224 
L 96.885064 70.742575 
L 96.892569 69.764478 
L 96.90758 68.274336 
L 96.986389 71.120553 
L 97.001401 69.477088 
L 97.076457 71.617473 
L 97.098974 68.852516 
L 97.110232 69.330515 
L 97.132749 68.116237 
L 97.207805 71.202373 
L 97.297873 72.426619 
L 97.264097 70.054776 
L 97.320389 72.091008 
L 97.440479 67.005638 
L 97.451738 67.403043 
L 97.459243 66.785975 
L 97.586839 70.480351 
L 97.594344 69.649621 
L 97.654389 71.337511 
L 97.69567 70.503221 
L 97.744457 71.908365 
L 97.755715 70.165861 
L 97.796996 70.529419 
L 97.808254 68.703727 
L 97.898322 71.818882 
L 97.928344 73.4232 
L 97.992142 70.854312 
L 97.999648 71.074698 
L 98.119737 65.321742 
L 98.127243 66.144496 
L 98.191041 68.365844 
L 98.232322 65.050228 
L 98.341153 59.239732 
L 98.36367 59.729692 
L 98.464996 67.453818 
L 98.491265 65.967486 
L 98.573827 64.843715 
L 98.547558 66.913065 
L 98.588838 66.72408 
L 98.618861 67.966227 
L 98.667647 63.393617 
L 98.678906 64.839674 
L 98.768973 60.144874 
L 98.798996 61.956936 
L 98.806501 62.320631 
L 98.814007 60.838485 
L 98.870299 60.508322 
L 98.896569 62.530585 
L 98.91158 61.026627 
L 98.919086 62.389025 
L 98.994142 56.463088 
L 98.997895 56.482438 
L 99.110479 51.339952 
L 99.166771 52.975727 
L 99.298119 57.407119 
L 99.309378 57.050799 
L 99.429468 54.912175 
L 99.320636 57.572448 
L 99.444479 55.28802 
L 99.448232 55.468696 
L 99.512029 53.262956 
L 99.515782 53.260176 
L 99.635872 55.767477 
L 99.639625 55.143107 
L 99.695917 57.447076 
L 99.759715 55.864898 
L 99.76722 54.715595 
L 99.808501 57.496858 
L 99.849782 57.073926 
L 99.853535 57.077986 
L 99.958613 59.442925 
L 99.883557 56.55744 
L 99.973625 59.37444 
L 99.98113 58.67783 
L 100.056186 61.140624 
L 100.082456 59.558577 
L 100.165018 57.849303 
L 100.210052 59.091737 
L 100.225063 59.743338 
L 100.243827 56.963155 
L 100.322636 59.534245 
L 100.382681 57.855504 
L 100.356411 60.604262 
L 100.416456 59.569902 
L 100.446479 61.744808 
L 100.502771 57.810256 
L 100.521535 58.768493 
L 100.64913 56.645097 
L 100.570321 59.667169 
L 100.660389 56.700015 
L 100.679153 56.638983 
L 100.682905 57.295334 
L 100.79549 58.987007 
L 100.776726 55.671894 
L 100.799242 58.607113 
L 100.825512 57.980866 
L 100.938096 62.271628 
L 100.949355 63.849429 
L 100.98313 60.732903 
L 101.043175 61.471404 
L 101.121984 59.241658 
L 101.152006 61.787789 
L 101.155759 61.145426 
L 101.174523 62.788542 
L 101.242074 58.041716 
L 101.257085 59.173965 
L 101.260838 59.457958 
L 101.302119 56.947632 
L 101.3434 57.312458 
L 101.440973 55.174541 
L 101.369669 58.186908 
L 101.467242 56.289479 
L 101.508523 57.182398 
L 101.546051 55.228454 
L 101.564815 55.526705 
L 101.568568 55.130582 
L 101.647377 58.081479 
L 101.65113 57.831012 
L 101.669894 57.571754 
L 101.692411 58.396055 
L 101.808748 60.317278 
L 101.741197 57.265526 
L 101.820006 60.014897 
L 101.823759 59.769271 
L 101.853782 62.960326 
L 101.89131 62.180599 
L 102.0114 65.175336 
L 101.947602 60.525153 
L 102.015152 64.71243 
L 102.067692 66.996569 
L 102.090208 64.433379 
L 102.123984 65.122861 
L 102.127737 64.352502 
L 102.217804 66.585401 
L 102.236568 64.773352 
L 102.424208 70.352704 
L 102.255332 64.342296 
L 102.43922 70.216771 
L 102.450478 71.137585 
L 102.50677 69.313273 
L 102.510523 69.116067 
L 102.570568 71.673674 
L 102.604343 73.474868 
L 102.683152 72.216363 
L 102.698163 70.989068 
L 102.735691 72.724539 
L 102.791984 71.747968 
L 102.915826 76.737159 
L 102.93459 76.204609 
L 103.058433 74.189619 
L 103.024658 76.507129 
L 103.062186 74.514805 
L 103.095961 75.18713 
L 103.1485 72.778231 
L 103.152253 73.058821 
L 103.186028 72.265089 
L 103.163512 73.658489 
L 103.212298 73.569584 
L 103.306118 77.718684 
L 103.332388 77.337338 
L 103.354905 75.767002 
L 103.422455 77.737624 
L 103.452478 76.960016 
L 103.565062 77.957496 
L 103.4825 75.28221 
L 103.572568 77.624877 
L 103.643871 75.524727 
L 103.703916 75.863638 
L 103.74895 78.316242 
L 103.835264 77.317362 
L 103.839017 77.064026 
L 103.91032 79.161592 
L 103.917826 79.071996 
L 104.127983 75.347512 
L 104.146747 76.467367 
L 104.158006 76.416555 
L 104.278096 77.815236 
L 104.304365 78.780722 
L 104.405691 75.982555 
L 104.461983 74.792578 
L 104.499511 76.533057 
L 104.615848 79.841763 
L 104.634612 79.306822 
L 104.675893 77.755705 
L 104.732185 79.312066 
L 104.747197 78.869702 
L 104.814747 79.491372 
L 104.848522 78.575743 
L 104.953601 77.999778 
L 104.961107 78.330039 
L 104.96486 78.276139 
L 105.009893 79.196582 
L 105.043668 79.463881 
L 105.062433 79.038913 
L 105.069938 79.148705 
L 105.175017 78.276801 
L 105.103713 79.156269 
L 105.190028 78.495858 
L 105.193781 78.649227 
L 105.24632 76.960977 
L 105.257579 77.131188 
L 105.276343 76.526829 
L 105.336388 77.763434 
L 105.362657 77.070491 
L 105.377668 77.979923 
L 105.415196 76.242219 
L 105.478994 77.45664 
L 105.482747 77.410531 
L 105.516522 78.054193 
L 105.531534 78.038367 
L 105.535286 78.284425 
L 105.602837 75.870565 
L 105.614095 76.183979 
L 105.76796 72.359416 
L 105.824253 73.431216 
L 105.850522 70.677322 
L 105.865533 71.297922 
L 105.929331 69.136068 
L 105.981871 69.635221 
L 105.993129 69.203583 
L 105.996882 69.843145 
L 106.000635 69.833286 
L 106.045668 71.08139 
L 106.10196 68.931291 
L 106.109466 69.154932 
L 106.210792 66.213661 
L 106.120724 69.234224 
L 106.229556 66.302244 
L 106.338387 70.911345 
L 106.357151 69.111223 
L 106.477241 70.876227 
L 106.447219 67.759182 
L 106.480994 70.41352 
L 106.55605 68.653768 
L 106.518522 71.486267 
L 106.586073 70.664177 
L 106.728679 76.548312 
L 106.653623 69.642169 
L 106.732432 76.331047 
L 106.747443 74.541782 
L 106.833758 76.774885 
L 106.841264 76.024062 
L 106.845016 76.015108 
L 106.875039 73.639477 
L 106.968859 77.931804 
L 107.006387 78.792579 
L 107.058926 77.656704 
L 107.088949 76.564372 
L 107.156499 78.461652 
L 107.164005 77.955106 
L 107.295353 80.664178 
L 107.299106 80.625487 
L 107.389174 80.133729 
L 107.407938 80.392314 
L 107.467983 81.327222 
L 107.419196 80.335893 
L 107.53178 81.009957 
L 107.621848 81.100971 
L 107.576814 80.715358 
L 107.6256 81.058718 
L 107.629353 80.767235 
L 107.726926 81.541504 
L 107.730679 81.496668 
L 107.749443 81.37782 
L 107.77196 81.920595 
L 107.903308 85.087328 
L 107.937084 84.816302 
L 108.008387 84.106173 
L 107.9596 85.134941 
L 108.034657 84.963263 
L 108.154746 87.387371 
L 108.181016 86.920113 
L 108.241061 87.211725 
L 108.19978 86.002638 
L 108.252319 86.501645 
L 108.286095 86.905023 
L 108.379915 84.295528 
L 108.406185 83.357799 
L 108.481241 84.761933 
L 108.691398 91.122062 
L 108.545038 84.367526 
L 108.706409 89.353467 
L 108.77396 86.678963 
L 108.807735 89.717699 
L 108.811488 89.427625 
L 108.909061 90.310169 
L 108.849016 88.691278 
L 108.916566 88.990755 
L 108.927825 88.706811 
L 109.002881 90.97589 
L 109.017892 90.78692 
L 109.145488 94.833061 
L 109.186769 92.12795 
L 109.246814 95.23259 
L 109.348139 98.287039 
L 109.366903 96.209758 
L 109.445712 92.119074 
L 109.483241 95.637399 
L 109.505757 97.546428 
L 109.543285 94.400213 
L 109.592072 95.885348 
L 109.614589 95.089384 
L 109.682139 96.674723 
L 109.693398 95.938804 
L 109.787218 99.713299 
L 109.81724 99.22831 
L 109.832252 98.674214 
L 109.888544 102.193235 
L 109.892297 102.13991 
L 109.929825 103.219491 
L 109.903555 101.828147 
L 109.944836 103.124608 
L 109.971106 104.447448 
L 110.046162 102.807853 
L 110.05742 103.282084 
L 110.079937 102.542983 
L 110.139982 105.300972 
L 110.147488 104.917883 
L 110.196274 106.019819 
L 110.233802 104.335318 
L 110.245061 104.634596 
L 110.275083 104.016124 
L 110.278836 103.748297 
L 110.335128 105.92139 
L 110.368903 105.110346 
L 110.402679 105.499513 
L 110.458971 104.514993 
L 110.571555 104.026082 
L 110.488993 105.747744 
L 110.575308 104.061192 
L 110.684139 103.489694 
L 110.612836 104.648693 
L 110.691645 103.889065 
L 110.732926 105.277576 
L 110.807982 104.332447 
L 110.856768 103.150818 
L 110.905555 105.139215 
L 111.055667 107.899769 
L 111.05942 107.722408 
L 111.070678 107.902598 
L 111.198274 108.992861 
L 111.310858 109.874507 
L 111.337128 109.656143 
L 111.389667 109.554941 
L 111.423442 109.73418 
L 111.434701 109.678334 
L 111.457218 109.923583 
L 111.502251 109.511127 
L 111.536027 109.569121 
L 111.659869 109.106155 
L 111.671128 109.258027 
L 111.712409 109.415101 
L 111.764948 109.126198 
L 111.772453 109.204628 
L 111.813734 108.795436 
L 111.881285 109.156911 
L 112.001375 110.010543 
L 112.016386 109.948293 
L 112.023892 109.833421 
L 112.110206 110.162505 
L 112.117712 110.101938 
L 112.256566 110.040563 
L 112.260319 109.946986 
L 112.331622 110.306929 
L 112.361644 110.180008 
L 112.421689 110.001606 
L 112.474229 110.121774 
L 112.628094 110.511367 
L 112.725667 110.592839 
L 112.661869 110.476462 
L 112.7707 110.544767 
L 112.785712 110.537405 
L 112.826993 110.625943 
L 112.939577 110.672707 
L 112.94333 110.657499 
L 113.022139 110.605439 
L 112.984611 110.705579 
L 113.052161 110.64917 
L 113.093442 110.732913 
L 113.164745 110.670951 
L 113.198521 110.5806 
L 113.281082 110.668058 
L 113.457464 110.737471 
L 113.479981 110.703608 
L 113.55879 110.624556 
L 113.615082 110.661697 
L 114.095442 110.636663 
L 114.211779 110.532025 
L 114.223037 110.581715 
L 114.268071 110.633504 
L 114.305599 110.507961 
L 114.316857 110.535393 
L 114.361891 110.498911 
L 114.403172 110.604901 
L 114.418183 110.60049 
L 114.545779 110.724134 
L 114.425689 110.591438 
L 114.56079 110.697792 
L 114.673374 110.715449 
L 114.7747 110.711041 
L 114.785958 110.671267 
L 114.842251 110.597248 
L 114.902295 110.647799 
L 114.906048 110.655692 
L 114.939824 110.58935 
L 114.996116 110.600186 
L 115.029891 110.572898 
L 115.059913 110.637622 
L 115.104947 110.60638 
L 115.161239 110.534396 
L 115.22879 110.665595 
L 115.34888 110.605449 
L 115.243801 110.676011 
L 115.360138 110.619104 
L 115.390161 110.675066 
L 115.480228 110.618776 
L 115.491486 110.592827 
L 115.56279 110.720519 
L 115.566543 110.720187 
L 115.754183 110.728929 
L 115.900542 110.711121 
L 115.904295 110.722875 
L 116.005621 110.736961 
L 116.013127 110.722493 
L 116.054408 110.704466 
L 116.106947 110.75147 
L 116.121958 110.726335 
L 116.410924 110.819924 
L 116.609823 110.83351 
L 116.928812 110.838644 
L 117.03389 110.873416 
L 117.056407 110.849257 
L 119.777193 110.924351 
L 120.081171 110.916689 
L 120.257553 110.894253 
L 120.505238 110.887615 
L 120.621575 110.881519 
L 120.625328 110.884279 
L 120.779193 110.884182 
L 120.98935 110.876628 
L 121.101935 110.892396 
L 121.10944 110.888563 
L 121.312092 110.859706 
L 121.495979 110.771399 
L 121.510991 110.806908 
L 121.578541 110.756621 
L 121.634833 110.83662 
L 122.182743 110.746369 
L 122.32535 110.62884 
L 122.224024 110.782787 
L 122.359125 110.68839 
L 122.389148 110.701679 
L 122.415417 110.546537 
L 122.441687 110.587618 
L 122.573035 110.433623 
L 122.588047 110.470451 
L 122.591799 110.501017 
L 122.663103 110.221763 
L 122.666856 110.247175 
L 122.670608 110.157251 
L 122.711889 110.370272 
L 122.771934 110.337588 
L 122.828226 110.36505 
L 122.794451 110.237252 
L 122.87326 110.310995 
L 122.94081 110.163793 
L 122.895777 110.37996 
L 122.982091 110.321748 
L 123.068406 110.460269 
L 123.049642 110.225285 
L 123.094676 110.385618 
L 123.165979 110.241578 
L 123.192249 110.420425 
L 123.203507 110.39163 
L 123.244788 110.338391 
L 123.267305 110.483381 
L 123.312339 110.444509 
L 123.391147 110.635116 
L 123.507485 110.532336 
L 123.511237 110.544498 
L 123.552518 110.708592 
L 123.631327 110.673475 
L 123.63508 110.658744 
L 123.691372 110.773867 
L 123.725147 110.750627 
L 123.818968 110.72747 
L 123.84899 110.774919 
L 123.860248 110.807665 
L 123.924046 110.695788 
L 124.040383 110.552091 
L 124.044136 110.610901 
L 124.104181 110.410027 
L 124.175484 110.439729 
L 124.231776 110.541173 
L 124.273057 110.353239 
L 124.291821 110.514215 
L 124.32935 110.417123 
L 124.333102 110.470286 
L 124.426923 110.117038 
L 124.453192 110.23037 
L 124.573282 110.663656 
L 124.599552 110.631197 
L 124.700878 110.72935 
L 124.625821 110.621094 
L 124.715889 110.647101 
L 124.877259 110.619654 
L 124.75717 110.722062 
L 124.888518 110.638822 
L 124.948563 110.605408 
L 125.049889 110.765302 
L 125.338855 110.58574 
L 125.361372 110.630168 
L 125.567776 110.820792 
L 126.18699 110.88319 
L 126.337102 110.891332 
L 127.354113 110.928005 
L 127.654338 110.94541 
L 131.144449 110.930399 
L 131.879999 110.905262 
L 132.060134 110.898392 
L 132.18773 110.908538 
L 132.330336 110.904602 
L 132.334089 110.908063 
L 132.506718 110.856881 
L 132.634314 110.874159 
L 132.758157 110.880878 
L 132.761909 110.87495 
L 132.994583 110.896772 
L 133.242269 110.879541 
L 133.369864 110.820841 
L 133.373617 110.829945 
L 133.49746 110.784776 
L 133.516224 110.766219 
L 133.557505 110.837677 
L 133.598786 110.840389 
L 133.71137 110.867374 
L 133.715123 110.871744 
L 139.265526 110.950719 
L 142.125166 110.952709 
L 157.158915 110.953258 
L 443.235479 110.953264 
L 443.235479 110.953264 
" clip-path="url(#p1d8be2bbaf)" style="fill: none; stroke: #1f77b4; stroke-width: 1.5; stroke-linecap: square"/>
   </g>
   <g id="patch_3">
    <path d="M 49.190625 330.121395 
L 49.190625 7.2 
" style="fill: none; stroke: #000000; stroke-width: 0.8; stroke-linejoin: miter; stroke-linecap: square"/>
   </g>
   <g id="patch_4">
    <path d="M 461.99952 330.121395 
L 461.99952 7.2 
" style="fill: none; stroke: #000000; stroke-width: 0.8; stroke-linejoin: miter; stroke-linecap: square"/>
   </g>
   <g id="patch_5">
    <path d="M 49.190625 330.121395 
L 461.99952 330.121395 
" style="fill: none; stroke: #000000; stroke-width: 0.8; stroke-linejoin: miter; stroke-linecap: square"/>
   </g>
   <g id="patch_6">
    <path d="M 49.190625 7.2 
L 461.99952 7.2 
" style="fill: none; stroke: #000000; stroke-width: 0.8; stroke-linejoin: miter; stroke-linecap: square"/>
   </g>
   <g id="legend_1">
    <g id="patch_7">
     <path d="M 342.141707 29.878125 
L 454.99952 29.878125 
Q 456.99952 29.878125 456.99952 27.878125 
L 456.99952 14.2 
Q 456.99952 12.2 454.99952 12.2 
L 342.141707 12.2 
Q 340.141707 12.2 340.141707 14.2 
L 340.141707 27.878125 
Q 340.141707 29.878125 342.141707 29.878125 
z
" style="fill: #ffffff; opacity: 0.8; stroke: #cccccc; stroke-linejoin: miter"/>
    </g>
    <g id="line2d_17">
     <path d="M 344.141707 20.298437 
L 359.141707 20.298437 
L 374.141707 20.298437 
" style="fill: none; stroke: #1f77b4; stroke-width: 1.5; stroke-linecap: square"/>
    </g>
    <g id="text_16">
     <!-- Free evolution -->
     <g transform="translate(382.141707 23.798437) scale(0.1 -0.1)">
      <defs>
       <path id="DejaVuSans-46" d="M 628 4666 
L 3309 4666 
L 3309 4134 
L 1259 4134 
L 1259 2759 
L 3109 2759 
L 3109 2228 
L 1259 2228 
L 1259 0 
L 628 0 
L 628 4666 
z
" transform="scale(0.015625)"/>
       <path id="DejaVuSans-72" d="M 2631 2963 
Q 2534 3019 2420 3045 
Q 2306 3072 2169 3072 
Q 1681 3072 1420 2755 
Q 1159 2438 1159 1844 
L 1159 0 
L 581 0 
L 581 3500 
L 1159 3500 
L 1159 2956 
Q 1341 3275 1631 3429 
Q 1922 3584 2338 3584 
Q 2397 3584 2469 3576 
Q 2541 3569 2628 3553 
L 2631 2963 
z
" transform="scale(0.015625)"/>
       <path id="DejaVuSans-65" d="M 3597 1894 
L 3597 1613 
L 953 1613 
Q 991 1019 1311 708 
Q 1631 397 2203 397 
Q 2534 397 2845 478 
Q 3156 559 3463 722 
L 3463 178 
Q 3153 47 2828 -22 
Q 2503 -91 2169 -91 
Q 1331 -91 842 396 
Q 353 884 353 1716 
Q 353 2575 817 3079 
Q 1281 3584 2069 3584 
Q 2775 3584 3186 3129 
Q 3597 2675 3597 1894 
z
M 3022 2063 
Q 3016 2534 2758 2815 
Q 2500 3097 2075 3097 
Q 1594 3097 1305 2825 
Q 1016 2553 972 2059 
L 3022 2063 
z
" transform="scale(0.015625)"/>
       <path id="DejaVuSans-20" transform="scale(0.015625)"/>
       <path id="DejaVuSans-76" d="M 191 3500 
L 800 3500 
L 1894 563 
L 2988 3500 
L 3597 3500 
L 2284 0 
L 1503 0 
L 191 3500 
z
" transform="scale(0.015625)"/>
       <path id="DejaVuSans-6f" d="M 1959 3097 
Q 1497 3097 1228 2736 
Q 959 2375 959 1747 
Q 959 1119 1226 758 
Q 1494 397 1959 397 
Q 2419 397 2687 759 
Q 2956 1122 2956 1747 
Q 2956 2369 2687 2733 
Q 2419 3097 1959 3097 
z
M 1959 3584 
Q 2709 3584 3137 3096 
Q 3566 2609 3566 1747 
Q 3566 888 3137 398 
Q 2709 -91 1959 -91 
Q 1206 -91 779 398 
Q 353 888 353 1747 
Q 353 2609 779 3096 
Q 1206 3584 1959 3584 
z
" transform="scale(0.015625)"/>
       <path id="DejaVuSans-6c" d="M 603 4863 
L 1178 4863 
L 1178 0 
L 603 0 
L 603 4863 
z
" transform="scale(0.015625)"/>
       <path id="DejaVuSans-75" d="M 544 1381 
L 544 3500 
L 1119 3500 
L 1119 1403 
Q 1119 906 1312 657 
Q 1506 409 1894 409 
Q 2359 409 2629 706 
Q 2900 1003 2900 1516 
L 2900 3500 
L 3475 3500 
L 3475 0 
L 2900 0 
L 2900 538 
Q 2691 219 2414 64 
Q 2138 -91 1772 -91 
Q 1169 -91 856 284 
Q 544 659 544 1381 
z
M 1991 3584 
L 1991 3584 
z
" transform="scale(0.015625)"/>
       <path id="DejaVuSans-74" d="M 1172 4494 
L 1172 3500 
L 2356 3500 
L 2356 3053 
L 1172 3053 
L 1172 1153 
Q 1172 725 1289 603 
Q 1406 481 1766 481 
L 2356 481 
L 2356 0 
L 1766 0 
Q 1100 0 847 248 
Q 594 497 594 1153 
L 594 3053 
L 172 3053 
L 172 3500 
L 594 3500 
L 594 4494 
L 1172 4494 
z
" transform="scale(0.015625)"/>
       <path id="DejaVuSans-69" d="M 603 3500 
L 1178 3500 
L 1178 0 
L 603 0 
L 603 3500 
z
M 603 4863 
L 1178 4863 
L 1178 4134 
L 603 4134 
L 603 4863 
z
" transform="scale(0.015625)"/>
       <path id="DejaVuSans-6e" d="M 3513 2113 
L 3513 0 
L 2938 0 
L 2938 2094 
Q 2938 2591 2744 2837 
Q 2550 3084 2163 3084 
Q 1697 3084 1428 2787 
Q 1159 2491 1159 1978 
L 1159 0 
L 581 0 
L 581 3500 
L 1159 3500 
L 1159 2956 
Q 1366 3272 1645 3428 
Q 1925 3584 2291 3584 
Q 2894 3584 3203 3211 
Q 3513 2838 3513 2113 
z
" transform="scale(0.015625)"/>
      </defs>
      <use xlink:href="#DejaVuSans-46"/>
      <use xlink:href="#DejaVuSans-72" transform="translate(50.269531 0)"/>
      <use xlink:href="#DejaVuSans-65" transform="translate(89.132812 0)"/>
      <use xlink:href="#DejaVuSans-65" transform="translate(150.65625 0)"/>
      <use xlink:href="#DejaVuSans-20" transform="translate(212.179688 0)"/>
      <use xlink:href="#DejaVuSans-65" transform="translate(243.966797 0)"/>
      <use xlink:href="#DejaVuSans-76" transform="translate(305.490234 0)"/>
      <use xlink:href="#DejaVuSans-6f" transform="translate(364.669922 0)"/>
      <use xlink:href="#DejaVuSans-6c" transform="translate(425.851562 0)"/>
      <use xlink:href="#DejaVuSans-75" transform="translate(453.634766 0)"/>
      <use xlink:href="#DejaVuSans-74" transform="translate(517.013672 0)"/>
      <use xlink:href="#DejaVuSans-69" transform="translate(556.222656 0)"/>
      <use xlink:href="#DejaVuSans-6f" transform="translate(584.005859 0)"/>
      <use xlink:href="#DejaVuSans-6e" transform="translate(645.1875 0)"/>
     </g>
    </g>
   </g>
  </g>
 </g>
 <defs>
  <clipPath id="p1d8be2bbaf">
   <rect x="49.190625" y="7.2" width="412.808895" height="322.921395"/>
  </clipPath>
 </defs>
</svg>
